G04*
G04 #@! TF.GenerationSoftware,Altium Limited,Altium Designer,19.0.11 (319)*
G04*
G04 Layer_Color=16711935*
%FSLAX25Y25*%
%MOIN*%
G70*
G01*
G75*
%ADD71R,0.03556X0.04343*%
%ADD72R,0.04343X0.03556*%
%ADD74R,0.04643X0.03800*%
%ADD75R,0.03800X0.04643*%
%ADD77R,0.04800X0.03950*%
%ADD78O,0.04800X0.03950*%
%ADD79O,0.06706X0.07099*%
%ADD80R,0.05918X0.07690*%
%ADD81O,0.03950X0.04800*%
%ADD82R,0.03950X0.04800*%
%ADD83C,0.06706*%
%ADD84R,0.06706X0.06706*%
%ADD85C,0.05918*%
%ADD86R,0.05918X0.05918*%
%ADD87C,0.28359*%
%ADD120R,0.06700X0.13700*%
%ADD121R,0.06700X0.04700*%
G36*
X112788Y84205D02*
X129921D01*
Y68504D01*
X112788D01*
X112788Y84205D01*
D02*
G37*
D71*
X135374Y61614D02*
D03*
X129193D02*
D03*
D72*
X193996Y48484D02*
D03*
Y54665D02*
D03*
D74*
X107268Y72777D02*
D03*
Y66396D02*
D03*
X99606Y59462D02*
D03*
Y65843D02*
D03*
X113252Y59802D02*
D03*
Y66183D02*
D03*
X83465Y56734D02*
D03*
Y50353D02*
D03*
X175984Y67395D02*
D03*
Y73777D02*
D03*
D75*
X82127Y32283D02*
D03*
X75746D02*
D03*
X91045Y44094D02*
D03*
X84664D02*
D03*
D77*
X163779Y45807D02*
D03*
D78*
Y40807D02*
D03*
D79*
X109252Y43583D02*
D03*
X119095D02*
D03*
X126969D02*
D03*
X136811D02*
D03*
D80*
X97835Y46102D02*
D03*
X148228D02*
D03*
X151181Y24606D02*
D03*
X94882D02*
D03*
D81*
X192894Y70866D02*
D03*
X197894D02*
D03*
X202894D02*
D03*
D82*
X207894D02*
D03*
D83*
X217717Y39882D02*
D03*
D84*
Y49882D02*
D03*
D85*
X206398Y56181D02*
D03*
D86*
Y46181D02*
D03*
D87*
X230315Y82677D02*
D03*
Y15748D02*
D03*
X15748Y82677D02*
D03*
Y15748D02*
D03*
D120*
X50592Y48425D02*
D03*
D121*
X75392D02*
D03*
Y57475D02*
D03*
Y39375D02*
D03*
M02*
