G04*
G04 #@! TF.GenerationSoftware,Altium Limited,Altium Designer,19.0.11 (319)*
G04*
G04 Layer_Color=16711935*
%FSLAX25Y25*%
%MOIN*%
G70*
G01*
G75*
%ADD60R,0.03556X0.04343*%
%ADD76R,0.04343X0.03556*%
%ADD78R,0.04643X0.03800*%
%ADD79R,0.03800X0.04643*%
%ADD81R,0.05918X0.05918*%
%ADD82C,0.05918*%
%ADD83O,0.06706X0.07099*%
%ADD84R,0.05918X0.07690*%
%ADD85R,0.04800X0.03950*%
%ADD86O,0.04800X0.03950*%
%ADD87O,0.03950X0.04800*%
%ADD88R,0.03950X0.04800*%
%ADD89C,0.06706*%
%ADD90R,0.06706X0.06706*%
%ADD91C,0.28359*%
%ADD127R,0.06700X0.13700*%
%ADD128R,0.06700X0.04700*%
G36*
X112788Y84205D02*
X129921D01*
Y68504D01*
X112788D01*
X112788Y84205D01*
D02*
G37*
D60*
X132913Y55315D02*
D03*
X126732D02*
D03*
X109488Y32776D02*
D03*
X103307D02*
D03*
X135374Y61614D02*
D03*
X129193D02*
D03*
D76*
X193996Y48484D02*
D03*
Y54665D02*
D03*
D78*
X107268Y72777D02*
D03*
Y66396D02*
D03*
X99606Y59462D02*
D03*
Y65843D02*
D03*
X113252Y59802D02*
D03*
Y66183D02*
D03*
X83465Y56734D02*
D03*
Y50353D02*
D03*
X175984Y67395D02*
D03*
Y73777D02*
D03*
D79*
X105061Y39764D02*
D03*
X98680D02*
D03*
X78387Y31693D02*
D03*
X72006D02*
D03*
X91045Y44094D02*
D03*
X84664D02*
D03*
D81*
X206398Y46181D02*
D03*
D82*
Y56181D02*
D03*
D83*
X109252Y48307D02*
D03*
X119095D02*
D03*
X126969D02*
D03*
X136811D02*
D03*
D84*
X97835Y50827D02*
D03*
X148228D02*
D03*
X151181Y29331D02*
D03*
X94882D02*
D03*
D85*
X163583Y50845D02*
D03*
D86*
Y45845D02*
D03*
D87*
X192894Y70866D02*
D03*
X197894D02*
D03*
X202894D02*
D03*
D88*
X207894D02*
D03*
D89*
X217717Y39882D02*
D03*
D90*
Y49882D02*
D03*
D91*
X230315Y82677D02*
D03*
Y15748D02*
D03*
X15748Y82677D02*
D03*
Y15748D02*
D03*
D127*
X50592Y49075D02*
D03*
D128*
X75392D02*
D03*
Y58125D02*
D03*
Y40025D02*
D03*
M02*
