G04*
G04 #@! TF.GenerationSoftware,Altium Limited,Altium Designer,19.0.11 (319)*
G04*
G04 Layer_Color=65535*
%FSLAX25Y25*%
%MOIN*%
G70*
G01*
G75*
%ADD11C,0.00500*%
%ADD14C,0.00787*%
%ADD18C,0.00300*%
%ADD31C,0.00433*%
D11*
X55692Y56496D02*
Y61614D01*
X70292D01*
Y60433D02*
Y61614D01*
X55692Y35236D02*
Y40354D01*
X70292Y35236D02*
Y36417D01*
X55692Y35236D02*
X70292D01*
X101181Y61767D02*
Y63538D01*
X98032Y61767D02*
Y63538D01*
X114827Y62106D02*
Y63878D01*
X111678Y62106D02*
Y63878D01*
X78051Y33858D02*
X79823D01*
X78051Y30709D02*
X79823D01*
X86968Y45669D02*
X88740D01*
X86968Y42520D02*
X88740D01*
X81890Y52658D02*
Y54429D01*
X85039Y52658D02*
Y54429D01*
X177559Y69700D02*
Y71472D01*
X174409Y69700D02*
Y71472D01*
D14*
X107562Y63386D02*
G03*
X107562Y63386I-294J0D01*
G01*
D18*
X137402Y59252D02*
Y63976D01*
X127165Y59252D02*
X137402D01*
X127165D02*
Y63976D01*
X137402D01*
X191634Y46457D02*
X196358D01*
X191634D02*
Y56693D01*
X196358D01*
Y46457D02*
Y56693D01*
X109827Y64272D02*
Y74902D01*
X104709D02*
X109827D01*
X104709Y64272D02*
Y74902D01*
Y64272D02*
X109827D01*
X97047Y57338D02*
Y67968D01*
Y57338D02*
X102165D01*
Y67968D01*
X97047D02*
X102165D01*
X110693Y57677D02*
Y68307D01*
Y57677D02*
X115811D01*
Y68307D01*
X110693D02*
X115811D01*
X73622Y29724D02*
X84252D01*
Y34843D01*
X73622D02*
X84252D01*
X73622Y29724D02*
Y34843D01*
X82539Y41535D02*
X93169D01*
Y46654D01*
X82539D02*
X93169D01*
X82539Y41535D02*
Y46654D01*
X86024Y48228D02*
Y58858D01*
X80905D02*
X86024D01*
X80905Y48228D02*
Y58858D01*
Y48228D02*
X86024D01*
X173425Y65271D02*
Y75901D01*
Y65271D02*
X178543D01*
Y75901D01*
X173425D02*
X178543D01*
D31*
X177231Y78427D02*
X177559Y78755D01*
X178215D01*
X178543Y78427D01*
Y77115D01*
X178215Y76787D01*
X177559D01*
X177231Y77115D01*
X176575Y78755D02*
Y76787D01*
X175592D01*
X175264Y77115D01*
Y77443D01*
Y77771D01*
X175592Y78099D01*
X176575D01*
X174608Y76787D02*
X173952D01*
X174280D01*
Y78755D01*
X174608Y78427D01*
X196358Y57874D02*
Y59842D01*
X195374D01*
X195046Y59514D01*
Y58858D01*
X195374Y58530D01*
X196358D01*
X195702D02*
X195046Y57874D01*
X193078Y57218D02*
Y59186D01*
X194062D01*
X194390Y58858D01*
Y58202D01*
X194062Y57874D01*
X193078D01*
X191111D02*
X192422D01*
X191111Y59186D01*
Y59514D01*
X191439Y59842D01*
X192095D01*
X192422Y59514D01*
X137500Y64764D02*
Y66732D01*
X136516D01*
X136188Y66404D01*
Y65748D01*
X136516Y65420D01*
X137500D01*
X136844D02*
X136188Y64764D01*
X135204Y66076D02*
X134548D01*
X134220Y65748D01*
Y64764D01*
X135204D01*
X135532Y65092D01*
X135204Y65420D01*
X134220D01*
X132252Y66732D02*
X133564D01*
Y65748D01*
X132908Y66076D01*
X132580D01*
X132252Y65748D01*
Y65092D01*
X132580Y64764D01*
X133236D01*
X133564Y65092D01*
X70292Y64566D02*
Y62926D01*
X69964Y62598D01*
X69308D01*
X68980Y62926D01*
Y64566D01*
X67012D02*
X67668Y64238D01*
X68324Y63582D01*
Y62926D01*
X67996Y62598D01*
X67340D01*
X67012Y62926D01*
Y63254D01*
X67340Y63582D01*
X68324D01*
X109449Y77869D02*
Y75901D01*
X108137D01*
X107153Y77213D02*
X106497D01*
X106169Y76885D01*
Y75901D01*
X107153D01*
X107481Y76229D01*
X107153Y76557D01*
X106169D01*
X105513Y75901D02*
X104857D01*
X105185D01*
Y77869D01*
X105513Y77541D01*
X84712Y61384D02*
X85040Y61712D01*
X85696D01*
X86024Y61384D01*
Y60072D01*
X85696Y59744D01*
X85040D01*
X84712Y60072D01*
X83728Y59744D02*
Y61384D01*
Y60728D01*
X84056D01*
X83400D01*
X83728D01*
Y61384D01*
X83400Y61712D01*
X81104Y59744D02*
X82416D01*
X81104Y61056D01*
Y61384D01*
X81432Y61712D01*
X82088D01*
X82416Y61384D01*
X91897Y49179D02*
X92225Y49507D01*
X92881D01*
X93209Y49179D01*
Y47867D01*
X92881Y47539D01*
X92225D01*
X91897Y47867D01*
X90913Y47539D02*
Y49179D01*
Y48523D01*
X91241D01*
X90585D01*
X90913D01*
Y49179D01*
X90585Y49507D01*
X89601Y47539D02*
X88945D01*
X89273D01*
Y49507D01*
X89601Y49179D01*
X85407Y33434D02*
X85079Y33762D01*
Y34418D01*
X85407Y34746D01*
X86719D01*
X87047Y34418D01*
Y33762D01*
X86719Y33434D01*
X85735Y31466D02*
Y32450D01*
X86063Y32778D01*
X86719D01*
X87047Y32450D01*
Y31466D01*
Y30810D02*
Y30154D01*
Y30482D01*
X85079D01*
X85407Y30810D01*
X114830Y56364D02*
X115158Y56692D01*
X115814D01*
X116142Y56364D01*
Y55052D01*
X115814Y54724D01*
X115158D01*
X114830Y55052D01*
X113846Y56036D02*
X113190D01*
X112862Y55708D01*
Y54724D01*
X113846D01*
X114174Y55052D01*
X113846Y55380D01*
X112862D01*
X110894Y54724D02*
X112206D01*
X110894Y56036D01*
Y56364D01*
X111222Y56692D01*
X111878D01*
X112206Y56364D01*
X100657Y56069D02*
X100985Y56397D01*
X101640D01*
X101969Y56069D01*
Y54757D01*
X101640Y54429D01*
X100985D01*
X100657Y54757D01*
X99673Y55741D02*
X99017D01*
X98689Y55413D01*
Y54429D01*
X99673D01*
X100001Y54757D01*
X99673Y55085D01*
X98689D01*
X98033Y54429D02*
X97377D01*
X97705D01*
Y56397D01*
X98033Y56069D01*
M02*
