G04*
G04 #@! TF.GenerationSoftware,Altium Limited,Altium Designer,19.0.11 (319)*
G04*
G04 Layer_Color=65535*
%FSLAX25Y25*%
%MOIN*%
G70*
G01*
G75*
%ADD10C,0.00787*%
%ADD11C,0.00394*%
%ADD12C,0.00000*%
%ADD13C,0.00500*%
%ADD14C,0.00400*%
%ADD15C,0.00330*%
%ADD16C,0.00354*%
%ADD17C,0.00300*%
%ADD18C,0.00800*%
%ADD19C,0.00197*%
%ADD20C,0.00315*%
%ADD21C,0.00402*%
%ADD22C,0.00200*%
%ADD23C,0.01000*%
%ADD24C,0.00323*%
%ADD25C,0.00600*%
%ADD26C,0.00236*%
%ADD27C,0.00591*%
%ADD28C,0.00472*%
%ADD29C,0.00512*%
%ADD30C,0.00433*%
%ADD31R,0.01968X0.07087*%
%ADD32R,0.02559X0.01968*%
%ADD33R,0.00787X0.01772*%
%ADD34R,0.03937X0.01968*%
G36*
X72441Y23819D02*
Y25394D01*
X75984D01*
Y23819D01*
X72441D01*
D02*
G37*
D10*
X210403Y41377D02*
G03*
X212347Y42419I-4006J9804D01*
G01*
X212371Y59926D02*
G03*
X202464Y41348I-5973J-8745D01*
G01*
X25492Y49213D02*
G03*
X25492Y49213I-394J0D01*
G01*
X202461Y41339D02*
X210403D01*
X212381Y42419D02*
Y59941D01*
X156752Y17598D02*
Y56307D01*
X89252Y17598D02*
Y56307D01*
X156752D01*
X157579Y91535D02*
X177067D01*
Y70669D02*
Y91535D01*
X157579Y70669D02*
X177067D01*
X157579D02*
Y91535D01*
X147572Y63057D02*
X147047Y63582D01*
X145997D01*
X145472Y63057D01*
Y62532D01*
X145997Y62007D01*
X147047D01*
X147572Y61483D01*
Y60958D01*
X147047Y60433D01*
X145997D01*
X145472Y60958D01*
X148621Y63582D02*
X150720D01*
Y63057D01*
X148621Y60958D01*
Y60433D01*
X151770Y62007D02*
X153869D01*
X154918Y60433D02*
X155968D01*
X155443D01*
Y63582D01*
X154918Y63057D01*
X157542Y60433D02*
Y60958D01*
X158067D01*
Y60433D01*
X157542D01*
X160166Y63057D02*
X160691Y63582D01*
X161740D01*
X162265Y63057D01*
Y62532D01*
X161740Y62007D01*
X161215D01*
X161740D01*
X162265Y61483D01*
Y60958D01*
X161740Y60433D01*
X160691D01*
X160166Y60958D01*
X163314Y63582D02*
Y60433D01*
X164889D01*
X165413Y60958D01*
Y61483D01*
Y62007D01*
X164889Y62532D01*
X163314D01*
D11*
X76083Y60330D02*
G03*
X76083Y62308I0J989D01*
G01*
X46063Y19313D02*
G03*
X46063Y17993I-0J-660D01*
G01*
X88090Y57480D02*
Y65158D01*
X76083Y57480D02*
Y65158D01*
X37106Y12551D02*
Y24755D01*
X46063Y12551D02*
Y24755D01*
X5840Y33825D02*
X5610Y34055D01*
X5151D01*
X4921Y33825D01*
Y32907D01*
X5151Y32677D01*
X5610D01*
X5840Y32907D01*
Y33366D01*
X5380D01*
X6528Y33595D02*
X6988D01*
X7217Y33366D01*
Y32677D01*
X6528D01*
X6299Y32907D01*
X6528Y33136D01*
X7217D01*
X7676Y32677D02*
Y33595D01*
X8365D01*
X8595Y33366D01*
Y32677D01*
X9283Y33595D02*
X9742D01*
X9972Y33366D01*
Y32677D01*
X9283D01*
X9054Y32907D01*
X9283Y33136D01*
X9972D01*
X10431Y32677D02*
Y33595D01*
X11120D01*
X11350Y33366D01*
Y32677D01*
X12727Y33595D02*
X12038D01*
X11809Y33366D01*
Y32907D01*
X12038Y32677D01*
X12727D01*
X13186D02*
X13645D01*
X13416D01*
Y33595D01*
X13186D01*
X14564D02*
X15023D01*
X15252Y33366D01*
Y32677D01*
X14564D01*
X14334Y32907D01*
X14564Y33136D01*
X15252D01*
X18008Y34055D02*
X17089D01*
Y33366D01*
X17548D01*
X17089D01*
Y32677D01*
X18696D02*
X19155D01*
X19385Y32907D01*
Y33366D01*
X19155Y33595D01*
X18696D01*
X18467Y33366D01*
Y32907D01*
X18696Y32677D01*
X20074Y33825D02*
Y33595D01*
X19844D01*
X20303D01*
X20074D01*
Y32907D01*
X20303Y32677D01*
X21222D02*
X21681D01*
X21910Y32907D01*
Y33366D01*
X21681Y33595D01*
X21222D01*
X20992Y33366D01*
Y32907D01*
X21222Y32677D01*
X23288Y34055D02*
Y32677D01*
X22599D01*
X22370Y32907D01*
Y33366D01*
X22599Y33595D01*
X23288D01*
X23747Y32677D02*
X24206D01*
X23977D01*
Y33595D01*
X23747D01*
X25125Y32677D02*
X25584D01*
X25813Y32907D01*
Y33366D01*
X25584Y33595D01*
X25125D01*
X24895Y33366D01*
Y32907D01*
X25125Y32677D01*
X27191Y34055D02*
Y32677D01*
X26502D01*
X26272Y32907D01*
Y33366D01*
X26502Y33595D01*
X27191D01*
X27880Y32677D02*
X28339D01*
X28568Y32907D01*
Y33366D01*
X28339Y33595D01*
X27880D01*
X27650Y33366D01*
Y32907D01*
X27880Y32677D01*
X75459Y52690D02*
X75197Y52952D01*
X74672D01*
X74410Y52690D01*
Y51640D01*
X74672Y51378D01*
X75197D01*
X75459Y51640D01*
X75984Y52952D02*
Y51378D01*
X76771D01*
X77033Y51640D01*
Y51903D01*
Y52165D01*
X76771Y52428D01*
X75984D01*
X77558D02*
Y51640D01*
X77820Y51378D01*
X78608D01*
Y52428D01*
X79132Y51378D02*
X79919D01*
X80182Y51640D01*
X79919Y51903D01*
X79395D01*
X79132Y52165D01*
X79395Y52428D01*
X80182D01*
D12*
X111430Y87008D02*
G03*
X111430Y87008I-800J0D01*
G01*
D13*
X161481Y88583D02*
G03*
X161481Y88583I-1245J0D01*
G01*
X161117D02*
G03*
X161117Y88583I-880J0D01*
G01*
X160793D02*
G03*
X160793Y88583I-557J0D01*
G01*
X160630D02*
G03*
X160630Y88583I-394J0D01*
G01*
Y88189D02*
G03*
X160630Y88189I-394J0D01*
G01*
X154030Y91339D02*
G03*
X154030Y91339I-880J0D01*
G01*
X153937D02*
G03*
X153937Y91339I-394J0D01*
G01*
X153543D02*
G03*
X153543Y91339I-394J0D01*
G01*
X99667Y81276D02*
G03*
X99667Y81276I-339J0D01*
G01*
X89252Y17598D02*
X156752D01*
X86221Y39213D02*
Y43465D01*
X75197Y39213D02*
Y43465D01*
X231339Y43976D02*
X235591D01*
X231339Y32953D02*
X235591D01*
X169980Y27398D02*
Y31650D01*
X158957Y27398D02*
Y31650D01*
X192913Y23425D02*
Y43110D01*
X191732Y23425D02*
X192913D01*
X191929Y43110D02*
X192913D01*
X173228Y23425D02*
Y43110D01*
X174409D01*
X173228Y23425D02*
X174213D01*
X70472Y18406D02*
Y30807D01*
Y18406D02*
X77953D01*
Y30807D01*
X70472D02*
X77953D01*
X46161Y33810D02*
Y35581D01*
X49311Y33810D02*
Y35581D01*
X34447Y33416D02*
Y35188D01*
X31297Y33416D02*
Y35188D01*
X12953Y57756D02*
X14724D01*
X12953Y54606D02*
X14724D01*
X199567Y29921D02*
X201339D01*
X199567Y33071D02*
X201339D01*
X101969Y90059D02*
Y91831D01*
X105118Y90059D02*
Y91831D01*
X81653Y90728D02*
Y92500D01*
X84803Y90728D02*
Y92500D01*
X71358Y60353D02*
Y62125D01*
X68209Y60353D02*
Y62125D01*
D14*
X203556Y15846D02*
G03*
X201956Y15846I-800J0D01*
G01*
X61436Y21265D02*
G03*
X59036Y21265I-1200J0D01*
G01*
X200984Y56102D02*
Y57411D01*
Y56102D02*
X202461D01*
X199508Y56181D02*
X202461D01*
X200984D02*
X202461D01*
X200984D02*
Y57490D01*
Y54833D02*
Y57490D01*
Y44833D02*
Y47490D01*
X36419Y80513D02*
Y92324D01*
Y80513D02*
X63977D01*
Y92324D01*
X36419D02*
X63977D01*
X189272Y51279D02*
X192913D01*
Y55413D01*
X185531Y56398D02*
X188484D01*
X181102Y51279D02*
X184744D01*
X181102D02*
Y55413D01*
X199409Y27657D02*
X206102D01*
X199409Y15846D02*
X206102D01*
X58536Y21265D02*
X59036D01*
X61436D01*
X61936D01*
X57036Y33165D02*
X63436D01*
X158858Y53345D02*
X168307D01*
Y48344D02*
Y53345D01*
X158858Y48344D02*
X168307D01*
X158858D02*
Y53345D01*
X168307Y43325D02*
Y46600D01*
X158858Y43325D02*
Y46652D01*
Y43325D02*
X168307D01*
X20866Y46457D02*
Y50000D01*
X10630D02*
X20866D01*
X7480Y41339D02*
Y44488D01*
X10630Y35827D02*
X20866D01*
Y39370D01*
X225590Y53150D02*
Y56693D01*
Y53150D02*
X235827D01*
X238976Y58661D02*
Y61811D01*
X225590Y67323D02*
X235827D01*
X225590Y63779D02*
Y67323D01*
X86528Y81276D02*
X99328D01*
X86528D02*
Y96576D01*
X99328D01*
Y81276D02*
Y96576D01*
X205394Y67866D02*
X210394D01*
Y73866D01*
X190394D02*
X210394D01*
X190394Y67866D02*
Y73866D01*
Y67866D02*
X210394D01*
X205394D02*
Y73866D01*
X200394Y67866D02*
Y73866D01*
X195394Y67866D02*
Y73866D01*
X223834Y49970D02*
X223584Y50220D01*
X223085D01*
X222835Y49970D01*
Y49720D01*
X223085Y49470D01*
X223584D01*
X223834Y49220D01*
Y48970D01*
X223584Y48720D01*
X223085D01*
X222835Y48970D01*
X224584Y48720D02*
X225084D01*
X225334Y48970D01*
Y49470D01*
X225084Y49720D01*
X224584D01*
X224334Y49470D01*
Y48970D01*
X224584Y48720D01*
X225834D02*
X226333D01*
X226084D01*
Y50220D01*
X225834D01*
X227333Y49720D02*
X227833D01*
X228083Y49470D01*
Y48720D01*
X227333D01*
X227083Y48970D01*
X227333Y49220D01*
X228083D01*
X228583Y49720D02*
Y48720D01*
Y49220D01*
X228833Y49470D01*
X229083Y49720D01*
X229333D01*
X230082Y48720D02*
Y50220D01*
X230832D01*
X231082Y49970D01*
Y49470D01*
X230832Y49220D01*
X230082D01*
X231832Y49720D02*
X232332D01*
X232581Y49470D01*
Y48720D01*
X231832D01*
X231582Y48970D01*
X231832Y49220D01*
X232581D01*
X233081Y48720D02*
Y49720D01*
X233831D01*
X234081Y49470D01*
Y48720D01*
X235331D02*
X234831D01*
X234581Y48970D01*
Y49470D01*
X234831Y49720D01*
X235331D01*
X235581Y49470D01*
Y49220D01*
X234581D01*
X236080Y48720D02*
X236580D01*
X236330D01*
Y50220D01*
X236080D01*
D15*
X77217Y76885D02*
G03*
X77217Y76885I-150J0D01*
G01*
D16*
X86033Y29626D02*
G03*
X86033Y29626I-1978J0D01*
G01*
X206102Y2559D02*
Y1182D01*
X205414D01*
X205184Y1411D01*
Y1870D01*
X205414Y2100D01*
X206102D01*
X205643D02*
X205184Y2559D01*
X204036D02*
X204495D01*
X204725Y2330D01*
Y1870D01*
X204495Y1641D01*
X204036D01*
X203806Y1870D01*
Y2100D01*
X204725D01*
X203347Y1411D02*
X203118Y1182D01*
X202659D01*
X202429Y1411D01*
Y1641D01*
X202659Y1870D01*
X202888D01*
X202659D01*
X202429Y2100D01*
Y2330D01*
X202659Y2559D01*
X203118D01*
X203347Y2330D01*
D17*
X58421Y40713D02*
Y57713D01*
X26421D02*
X58421D01*
X26421Y40713D02*
Y57713D01*
Y40713D02*
X58421D01*
X51476Y2756D02*
Y7480D01*
X41240D02*
X51476D01*
X41240Y2756D02*
Y7480D01*
Y2756D02*
X51476D01*
X27559Y2657D02*
Y7382D01*
Y2657D02*
X37795D01*
Y7382D01*
X27559D02*
X37795D01*
X74209Y32039D02*
X87209D01*
Y50639D01*
X74209D02*
X87209D01*
X74209Y32039D02*
Y50639D01*
X224165Y44965D02*
X242765D01*
Y31965D02*
Y44965D01*
X224165Y31965D02*
X242765D01*
X224165D02*
Y44965D01*
X157968Y20224D02*
X170968D01*
Y38824D01*
X157968D02*
X170968D01*
X157968Y20224D02*
Y38824D01*
X107480Y89173D02*
X117717D01*
X107480D02*
Y93898D01*
X117717D01*
Y89173D02*
Y93898D01*
X138583Y86417D02*
X143307D01*
X138583Y76181D02*
Y86417D01*
Y76181D02*
X143307D01*
Y86417D01*
X200553Y79528D02*
Y89764D01*
X205278D01*
Y79528D02*
Y89764D01*
X200553Y79528D02*
X205278D01*
X174016Y57480D02*
X178740D01*
X174016Y47244D02*
Y57480D01*
Y47244D02*
X178740D01*
Y57480D01*
X64173Y38524D02*
Y48760D01*
X59449Y38524D02*
X64173D01*
X59449D02*
Y48760D01*
X64173D01*
X66929D02*
X71653D01*
X66929Y38524D02*
Y48760D01*
Y38524D02*
X71653D01*
Y48760D01*
X40846Y29232D02*
Y39469D01*
X36122Y29232D02*
X40846D01*
X36122D02*
Y39469D01*
X40846D01*
X195669Y13445D02*
X200394D01*
X195669Y3209D02*
Y13445D01*
Y3209D02*
X200394D01*
Y13445D01*
X208268Y3209D02*
Y13445D01*
X212992D01*
Y3209D02*
Y13445D01*
X208268Y3209D02*
X212992D01*
X201969Y13386D02*
X206693D01*
X201969Y3150D02*
Y13386D01*
Y3150D02*
X206693D01*
Y13386D01*
X175059Y61811D02*
X185295D01*
X175059D02*
Y66535D01*
X185295D01*
Y61811D02*
Y66535D01*
X60728Y53878D02*
Y64114D01*
X65453D01*
Y53878D02*
Y64114D01*
X60728Y53878D02*
X65453D01*
X50295Y29381D02*
Y40010D01*
X45177Y29381D02*
X50295D01*
X45177D02*
Y40010D01*
X50295D01*
X30313Y28987D02*
Y39617D01*
X35431D01*
Y28987D02*
Y39617D01*
X30313Y28987D02*
X35431D01*
X8524Y53622D02*
X19154D01*
X8524D02*
Y58740D01*
X19154D01*
Y53622D02*
Y58740D01*
X195138Y34055D02*
X205768D01*
Y28937D02*
Y34055D01*
X195138Y28937D02*
X205768D01*
X195138D02*
Y34055D01*
X106102Y85630D02*
Y96260D01*
X100984Y85630D02*
X106102D01*
X100984D02*
Y96260D01*
X106102D01*
X85787Y86299D02*
Y96929D01*
X80669Y86299D02*
X85787D01*
X80669D02*
Y96929D01*
X85787D01*
X67224Y55924D02*
Y66554D01*
X72342D01*
Y55924D02*
Y66554D01*
X67224Y55924D02*
X72342D01*
X212493Y73866D02*
X211160D01*
X210894Y73600D01*
Y73066D01*
X211160Y72800D01*
X212493D01*
X210894Y72267D02*
X211960D01*
X212493Y71733D01*
X211960Y71200D01*
X210894D01*
X211693D01*
Y72267D01*
X210894Y70667D02*
X212493D01*
Y69867D01*
X212227Y69601D01*
X211693D01*
X211427Y69867D01*
Y70667D01*
Y70134D02*
X210894Y69601D01*
X212493Y69068D02*
Y68001D01*
Y68534D01*
X210894D01*
X209394Y64792D02*
X209194Y64592D01*
X208794D01*
X208594Y64792D01*
Y64992D01*
X208794Y65192D01*
X208994D01*
X208794D01*
X208594Y65391D01*
Y65591D01*
X208794Y65791D01*
X209194D01*
X209394Y65591D01*
X208194Y64592D02*
Y65391D01*
X207794Y65791D01*
X207394Y65391D01*
Y64592D01*
X206995Y64792D02*
X206795Y64592D01*
X206395D01*
X206195Y64792D01*
Y64992D01*
X206395Y65192D01*
X206595D01*
X206395D01*
X206195Y65391D01*
Y65591D01*
X206395Y65791D01*
X206795D01*
X206995Y65591D01*
X203894Y64592D02*
X203094D01*
X203494D01*
Y65791D01*
X202694Y64992D02*
X201894Y65791D01*
X202294Y65391D01*
X201894Y64992D01*
X202694Y65791D01*
X198894D02*
Y64592D01*
X198294D01*
X198094Y64792D01*
Y65192D01*
X198294Y65391D01*
X198894D01*
X198494D02*
X198094Y65791D01*
X197694Y64992D02*
X196894Y65791D01*
X197294Y65391D01*
X196894Y64992D01*
X197694Y65791D01*
X193594Y64792D02*
X193794Y64592D01*
X194194D01*
X194394Y64792D01*
Y65591D01*
X194194Y65791D01*
X193794D01*
X193594Y65591D01*
Y65192D01*
X193994D01*
X193194Y65791D02*
Y64592D01*
X192394Y65791D01*
Y64592D01*
X191995D02*
Y65791D01*
X191395D01*
X191195Y65591D01*
Y64792D01*
X191395Y64592D01*
X191995D01*
D18*
X129528Y86721D02*
X131602D01*
Y84646D02*
Y86721D01*
Y66035D02*
Y68110D01*
X129528Y66035D02*
X131602D01*
X110917D02*
X112992D01*
X110917D02*
Y68110D01*
X110417Y84646D02*
X112992Y87221D01*
D19*
X70277Y74607D02*
Y98229D01*
X30119Y74607D02*
X70277D01*
X30119Y98229D02*
X70277D01*
X30119Y74607D02*
Y98229D01*
D20*
X168307Y46600D02*
Y48344D01*
X215354Y33432D02*
Y33891D01*
Y33662D01*
X214206D01*
X213976Y33891D01*
Y34121D01*
X214206Y34350D01*
X213747Y32973D02*
Y32055D01*
X215124Y30677D02*
X215354Y30907D01*
Y31366D01*
X215124Y31595D01*
X214895D01*
X214665Y31366D01*
Y30907D01*
X214436Y30677D01*
X214206D01*
X213976Y30907D01*
Y31366D01*
X214206Y31595D01*
X213976Y29988D02*
Y29529D01*
X214206Y29300D01*
X214665D01*
X214895Y29529D01*
Y29988D01*
X214665Y30218D01*
X214206D01*
X213976Y29988D01*
Y28840D02*
Y28381D01*
Y28611D01*
X215354D01*
Y28840D01*
X214895Y27463D02*
Y27004D01*
X214665Y26774D01*
X213976D01*
Y27463D01*
X214206Y27692D01*
X214436Y27463D01*
Y26774D01*
X214895Y26315D02*
X213976D01*
X214436D01*
X214665Y26085D01*
X214895Y25856D01*
Y25626D01*
D21*
X168307Y45510D02*
Y48344D01*
X158858Y45561D02*
Y48396D01*
D22*
X75197Y77475D02*
X78937D01*
Y84955D01*
X75197D02*
X78937D01*
X75197Y77475D02*
Y84955D01*
X83465Y70985D02*
Y78465D01*
X79724Y70985D02*
X83465D01*
X79724D02*
Y78465D01*
X83465D01*
X82776Y74528D02*
Y74922D01*
X80413Y74528D02*
Y74922D01*
X70866Y84253D02*
Y91733D01*
X74606D01*
Y84253D02*
Y91733D01*
X70866Y84253D02*
X74606D01*
X71555Y87796D02*
Y88190D01*
X73917Y87796D02*
Y88190D01*
D23*
X222047Y35827D02*
Y54331D01*
X213779D02*
X222047D01*
X213779Y35827D02*
Y54331D01*
Y35827D02*
X222047D01*
X213779Y44882D02*
X222047D01*
D24*
X170826Y52098D02*
Y52544D01*
Y52321D01*
X169711D01*
X169488Y52544D01*
Y52767D01*
X169711Y52990D01*
X170380Y51652D02*
X169711D01*
X169488Y51429D01*
Y50760D01*
X170380D01*
X169488Y50314D02*
X170380D01*
Y50091D01*
X170157Y49868D01*
X169488D01*
X170157D01*
X170380Y49645D01*
X170157Y49422D01*
X169488D01*
X169042Y48976D02*
X170380D01*
Y48307D01*
X170157Y48084D01*
X169711D01*
X169488Y48307D01*
Y48976D01*
Y46968D02*
Y47415D01*
X169711Y47638D01*
X170157D01*
X170380Y47415D01*
Y46968D01*
X170157Y46745D01*
X169934D01*
Y47638D01*
X170380Y46299D02*
X169488D01*
X169934D01*
X170157Y46076D01*
X170380Y45853D01*
Y45630D01*
D25*
X219519Y33957D02*
Y31291D01*
X220852Y32624D02*
X218186D01*
X219125Y58760D02*
Y56094D01*
D26*
X83956Y26968D02*
X83169D01*
Y26378D01*
X83563Y26575D01*
X83760D01*
X83956Y26378D01*
Y25984D01*
X83760Y25787D01*
X83366D01*
X83169Y25984D01*
X84350Y26968D02*
Y26181D01*
X84744Y25787D01*
X85137Y26181D01*
Y26968D01*
D27*
X22395Y66994D02*
X21988Y67401D01*
X21174D01*
X20768Y66994D01*
Y66587D01*
X21174Y66181D01*
X21988D01*
X22395Y65774D01*
Y65367D01*
X21988Y64961D01*
X21174D01*
X20768Y65367D01*
X23208Y67401D02*
Y65367D01*
X23615Y64961D01*
X24428D01*
X24835Y65367D01*
Y67401D01*
X25648Y64961D02*
Y67401D01*
X26461Y66587D01*
X27275Y67401D01*
Y64961D01*
X28088D02*
Y67401D01*
X28901Y66587D01*
X29715Y67401D01*
Y64961D01*
X30528Y67401D02*
X31342D01*
X30935D01*
Y64961D01*
X30528D01*
X31342D01*
X32562Y67401D02*
X34189D01*
X33375D01*
Y64961D01*
X36629Y66994D02*
X36222Y67401D01*
X35409D01*
X35002Y66994D01*
Y66587D01*
X35409Y66181D01*
X36222D01*
X36629Y65774D01*
Y65367D01*
X36222Y64961D01*
X35409D01*
X35002Y65367D01*
X37442Y67401D02*
X39069D01*
Y66994D01*
X37442Y65367D01*
Y64961D01*
X42322D02*
X43136D01*
X42729D01*
Y67401D01*
X42322Y66994D01*
X44356Y64961D02*
Y65367D01*
X44763D01*
Y64961D01*
X44356D01*
X46389Y66994D02*
X46796Y67401D01*
X47609D01*
X48016Y66994D01*
Y66587D01*
X47609Y66181D01*
X47203D01*
X47609D01*
X48016Y65774D01*
Y65367D01*
X47609Y64961D01*
X46796D01*
X46389Y65367D01*
X48829Y67401D02*
Y64961D01*
X50050D01*
X50456Y65367D01*
Y65774D01*
X50050Y66181D01*
X48829D01*
X50050D01*
X50456Y66587D01*
Y66994D01*
X50050Y67401D01*
X48829D01*
X52490Y64961D02*
X51676D01*
X51270Y65367D01*
Y66181D01*
X51676Y66587D01*
X52490D01*
X52896Y66181D01*
Y65774D01*
X51270D01*
X54116Y66994D02*
Y66587D01*
X53710D01*
X54523D01*
X54116D01*
Y65367D01*
X54523Y64961D01*
X56150Y66587D02*
X56963D01*
X57370Y66181D01*
Y64961D01*
X56150D01*
X55743Y65367D01*
X56150Y65774D01*
X57370D01*
D28*
X20669Y63484D02*
Y61122D01*
X21850D01*
X22244Y61516D01*
Y61909D01*
X21850Y62303D01*
X20669D01*
X21850D01*
X22244Y62696D01*
Y63090D01*
X21850Y63484D01*
X20669D01*
X23424Y61122D02*
X24211D01*
X24605Y61516D01*
Y62303D01*
X24211Y62696D01*
X23424D01*
X23031Y62303D01*
Y61516D01*
X23424Y61122D01*
X25392Y62696D02*
X26967Y61122D01*
X26179Y61909D01*
X26967Y62696D01*
X25392Y61122D01*
X31689Y63090D02*
X31296Y63484D01*
X30509D01*
X30115Y63090D01*
Y62696D01*
X30509Y62303D01*
X31296D01*
X31689Y61909D01*
Y61516D01*
X31296Y61122D01*
X30509D01*
X30115Y61516D01*
X32476Y62696D02*
Y61516D01*
X32870Y61122D01*
X34051D01*
Y60729D01*
X33657Y60335D01*
X33264D01*
X34051Y61122D02*
Y62696D01*
X34838Y61122D02*
Y62696D01*
X36019D01*
X36412Y62303D01*
Y61122D01*
X38380D02*
X37593D01*
X37199Y61516D01*
Y62303D01*
X37593Y62696D01*
X38380D01*
X38774Y62303D01*
Y61909D01*
X37199D01*
X39561Y62696D02*
Y61122D01*
Y61909D01*
X39954Y62303D01*
X40348Y62696D01*
X40742D01*
X42709Y60335D02*
X43103D01*
X43497Y60729D01*
Y62696D01*
X42316D01*
X41922Y62303D01*
Y61516D01*
X42316Y61122D01*
X43497D01*
X44284Y62696D02*
Y61516D01*
X44677Y61122D01*
X45858D01*
Y60729D01*
X45464Y60335D01*
X45071D01*
X45858Y61122D02*
Y62696D01*
D29*
X244881Y67323D02*
X243307D01*
Y66536D01*
X243569Y66273D01*
X243832D01*
X244094Y66536D01*
Y67323D01*
Y66536D01*
X244357Y66273D01*
X244619D01*
X244881Y66536D01*
Y67323D01*
X244357Y65749D02*
X243307D01*
X243832D01*
X244094Y65486D01*
X244357Y65224D01*
Y64961D01*
X243307Y64174D02*
Y63649D01*
Y63912D01*
X244357D01*
Y64174D01*
X243307Y62862D02*
Y62338D01*
Y62600D01*
X244881D01*
Y62862D01*
X243307Y61550D02*
Y61026D01*
Y61288D01*
X244881D01*
Y61550D01*
X243307Y59976D02*
Y59451D01*
X243569Y59189D01*
X244094D01*
X244357Y59451D01*
Y59976D01*
X244094Y60238D01*
X243569D01*
X243307Y59976D01*
X244881Y57090D02*
X243307D01*
Y56040D01*
X244881Y54466D02*
Y55516D01*
X243307D01*
Y54466D01*
X244094Y55516D02*
Y54991D01*
X244881Y53941D02*
X243307D01*
Y53154D01*
X243569Y52892D01*
X244619D01*
X244881Y53154D01*
Y53941D01*
D30*
X89174Y59744D02*
X90814D01*
X91142Y60072D01*
Y60728D01*
X90814Y61056D01*
X89174D01*
Y61712D02*
Y63024D01*
X89502D01*
X90814Y61712D01*
X91142D01*
X48523Y20472D02*
X46883D01*
X46555Y20144D01*
Y19489D01*
X46883Y19161D01*
X48523D01*
X46555Y17521D02*
X48523D01*
X47539Y18505D01*
Y17193D01*
X31398Y8268D02*
Y10236D01*
X32382D01*
X32710Y9908D01*
Y9252D01*
X32382Y8924D01*
X31398D01*
X32054D02*
X32710Y8268D01*
X34677Y10236D02*
Y8268D01*
X33694D01*
X33365Y8596D01*
Y9252D01*
X33694Y9580D01*
X34677D01*
X36317Y8268D02*
Y10236D01*
X35333Y9252D01*
X36645D01*
X41341Y8268D02*
Y10236D01*
X42325D01*
X42653Y9908D01*
Y9252D01*
X42325Y8924D01*
X41341D01*
X41997D02*
X42653Y8268D01*
X44621Y10236D02*
Y8268D01*
X43637D01*
X43309Y8596D01*
Y9252D01*
X43637Y9580D01*
X44621D01*
X45277Y9908D02*
X45605Y10236D01*
X46261D01*
X46589Y9908D01*
Y9580D01*
X46261Y9252D01*
X45933D01*
X46261D01*
X46589Y8924D01*
Y8596D01*
X46261Y8268D01*
X45605D01*
X45277Y8596D01*
X99737Y59743D02*
X99081D01*
X99409D01*
Y58104D01*
X99081Y57776D01*
X98753D01*
X98425Y58104D01*
X100393Y57448D02*
X101705D01*
X102361Y59743D02*
Y58104D01*
X102689Y57776D01*
X103345D01*
X103673Y58104D01*
Y59743D01*
X105641Y59416D02*
X105313Y59743D01*
X104657D01*
X104329Y59416D01*
Y59088D01*
X104657Y58759D01*
X105313D01*
X105641Y58432D01*
Y58104D01*
X105313Y57776D01*
X104657D01*
X104329Y58104D01*
X106297Y59743D02*
Y57776D01*
X107281D01*
X107608Y58104D01*
Y58432D01*
X107281Y58759D01*
X106297D01*
X107281D01*
X107608Y59088D01*
Y59416D01*
X107281Y59743D01*
X106297D01*
X224410Y64173D02*
X222560D01*
Y65098D01*
X222868Y65406D01*
X223484D01*
X223793Y65098D01*
Y64173D01*
Y64790D02*
X224410Y65406D01*
X225026Y67256D02*
X223176D01*
Y66331D01*
X223484Y66023D01*
X224101D01*
X224410Y66331D01*
Y67256D01*
X222560Y67873D02*
Y69106D01*
Y68489D01*
X224410D01*
X75197Y87598D02*
Y85827D01*
X76378D01*
X77263Y87007D02*
X77854D01*
X78149Y86712D01*
Y85827D01*
X77263D01*
X76968Y86122D01*
X77263Y86417D01*
X78149D01*
X79920Y85827D02*
X78739D01*
X79920Y87007D01*
Y87303D01*
X79624Y87598D01*
X79034D01*
X78739Y87303D01*
X72277Y94258D02*
X71948Y94586D01*
X71293D01*
X70965Y94258D01*
Y92946D01*
X71293Y92618D01*
X71948D01*
X72277Y92946D01*
X73260Y93930D02*
X73916D01*
X74244Y93602D01*
Y92618D01*
X73260D01*
X72932Y92946D01*
X73260Y93274D01*
X74244D01*
X75884Y92618D02*
Y94586D01*
X74900Y93602D01*
X76212D01*
X81430Y80971D02*
X81102Y81299D01*
X80446D01*
X80118Y80971D01*
Y79659D01*
X80446Y79331D01*
X81102D01*
X81430Y79659D01*
X82414Y80643D02*
X83070D01*
X83398Y80315D01*
Y79331D01*
X82414D01*
X82086Y79659D01*
X82414Y79987D01*
X83398D01*
X84054Y80971D02*
X84382Y81299D01*
X85038D01*
X85366Y80971D01*
Y80643D01*
X85038Y80315D01*
X84710D01*
X85038D01*
X85366Y79987D01*
Y79659D01*
X85038Y79331D01*
X84382D01*
X84054Y79659D01*
X36417Y77658D02*
Y78969D01*
X37073Y79625D01*
X37729Y78969D01*
Y77658D01*
Y78641D01*
X36417D01*
X38385Y77658D02*
Y78969D01*
X39369D01*
X39697Y78641D01*
Y77658D01*
X40681Y79297D02*
Y78969D01*
X40353D01*
X41009D01*
X40681D01*
Y77986D01*
X41009Y77658D01*
X42977D02*
X42321D01*
X41993Y77986D01*
Y78641D01*
X42321Y78969D01*
X42977D01*
X43305Y78641D01*
Y78313D01*
X41993D01*
X43961Y77658D02*
Y78969D01*
X44945D01*
X45273Y78641D01*
Y77658D01*
X45929D02*
Y78969D01*
X46913D01*
X47241Y78641D01*
Y77658D01*
X48224Y78969D02*
X48880D01*
X49208Y78641D01*
Y77658D01*
X48224D01*
X47897Y77986D01*
X48224Y78313D01*
X49208D01*
X60433Y64961D02*
Y66928D01*
X61417D01*
X61745Y66601D01*
Y65945D01*
X61417Y65617D01*
X60433D01*
X61089D02*
X61745Y64961D01*
X63713Y66928D02*
Y64961D01*
X62729D01*
X62401Y65289D01*
Y65945D01*
X62729Y66272D01*
X63713D01*
X65681Y64961D02*
X64369D01*
X65681Y66272D01*
Y66601D01*
X65353Y66928D01*
X64697D01*
X64369Y66601D01*
X68438Y69061D02*
X68110Y69389D01*
X67454D01*
X67126Y69061D01*
Y67749D01*
X67454Y67421D01*
X68110D01*
X68438Y67749D01*
X70406Y69389D02*
Y67421D01*
X69422D01*
X69094Y67749D01*
Y68405D01*
X69422Y68733D01*
X70406D01*
X72046Y67421D02*
Y69389D01*
X71062Y68405D01*
X72374D01*
X21850Y35925D02*
Y37893D01*
X22834D01*
X23162Y37565D01*
Y36909D01*
X22834Y36581D01*
X21850D01*
X22506D02*
X23162Y35925D01*
X25130Y37893D02*
Y35925D01*
X24146D01*
X23818Y36253D01*
Y36909D01*
X24146Y37237D01*
X25130D01*
X25786Y37893D02*
X27098D01*
X26442D01*
Y35925D01*
X97402Y80649D02*
Y80321D01*
X98058Y79665D01*
X98713Y80321D01*
Y80649D01*
X98058Y79665D02*
Y78681D01*
X210403Y22834D02*
Y21194D01*
X210731Y20866D01*
X211387D01*
X211715Y21194D01*
Y22834D01*
X213683D02*
X212371D01*
Y21850D01*
X213027Y22178D01*
X213355D01*
X213683Y21850D01*
Y21194D01*
X213355Y20866D01*
X212699D01*
X212371Y21194D01*
X58661Y36220D02*
Y34580D01*
X58989Y34252D01*
X59645D01*
X59973Y34580D01*
Y36220D01*
X60629Y35892D02*
X60957Y36220D01*
X61613D01*
X61941Y35892D01*
Y35564D01*
X61613Y35236D01*
X61285D01*
X61613D01*
X61941Y34908D01*
Y34580D01*
X61613Y34252D01*
X60957D01*
X60629Y34580D01*
X157579Y94586D02*
Y92946D01*
X157907Y92618D01*
X158563D01*
X158891Y92946D01*
Y94586D01*
X160859Y92618D02*
X159547D01*
X160859Y93930D01*
Y94258D01*
X160530Y94586D01*
X159875D01*
X159547Y94258D01*
X112205Y63779D02*
Y62139D01*
X112533Y61811D01*
X113189D01*
X113517Y62139D01*
Y63779D01*
X114173Y61811D02*
X114829D01*
X114501D01*
Y63779D01*
X114173Y63451D01*
X175197Y67716D02*
Y69684D01*
X176181D01*
X176509Y69356D01*
Y68700D01*
X176181Y68372D01*
X175197D01*
X175853D02*
X176509Y67716D01*
X178477Y67061D02*
Y69028D01*
X177493D01*
X177165Y68700D01*
Y68045D01*
X177493Y67716D01*
X178477D01*
X179133D02*
X179788D01*
X179461D01*
Y69684D01*
X179133Y69356D01*
X213878Y10531D02*
X215846D01*
Y9548D01*
X215518Y9220D01*
X214862D01*
X214534Y9548D01*
Y10531D01*
Y9876D02*
X213878Y9220D01*
Y7580D02*
Y8236D01*
X214206Y8564D01*
X214862D01*
X215190Y8236D01*
Y7580D01*
X214862Y7252D01*
X214534D01*
Y8564D01*
X213878Y5284D02*
Y6596D01*
X215190Y5284D01*
X215518D01*
X215846Y5612D01*
Y6268D01*
X215518Y6596D01*
X194882Y6102D02*
X192914D01*
Y7086D01*
X193242Y7414D01*
X193898D01*
X194226Y7086D01*
Y6102D01*
Y6758D02*
X194882Y7414D01*
Y9054D02*
Y8398D01*
X194554Y8070D01*
X193898D01*
X193570Y8398D01*
Y9054D01*
X193898Y9382D01*
X194226D01*
Y8070D01*
X194882Y10038D02*
Y10694D01*
Y10366D01*
X192914D01*
X193242Y10038D01*
X36713Y26673D02*
Y28641D01*
X37696D01*
X38025Y28313D01*
Y27657D01*
X37696Y27329D01*
X36713D01*
X37369D02*
X38025Y26673D01*
X39992Y28641D02*
Y26673D01*
X39008D01*
X38680Y27001D01*
Y27657D01*
X39008Y27985D01*
X39992D01*
X40648Y26673D02*
X41304D01*
X40976D01*
Y28641D01*
X40648Y28313D01*
X66831Y49705D02*
Y51673D01*
X67815D01*
X68143Y51345D01*
Y50689D01*
X67815Y50361D01*
X66831D01*
X67487D02*
X68143Y49705D01*
X70110Y51017D02*
X69126D01*
X68799Y50689D01*
Y50033D01*
X69126Y49705D01*
X70110D01*
X72078D02*
X70766D01*
X72078Y51017D01*
Y51345D01*
X71750Y51673D01*
X71094D01*
X70766Y51345D01*
X59547Y49705D02*
Y51673D01*
X60531D01*
X60859Y51345D01*
Y50689D01*
X60531Y50361D01*
X59547D01*
X60203D02*
X60859Y49705D01*
X62827Y51017D02*
X61843D01*
X61515Y50689D01*
Y50033D01*
X61843Y49705D01*
X62827D01*
X63483D02*
X64139D01*
X63811D01*
Y51673D01*
X63483Y51345D01*
X173819Y58366D02*
Y60334D01*
X174803D01*
X175131Y60006D01*
Y59350D01*
X174803Y59022D01*
X173819D01*
X174475D02*
X175131Y58366D01*
X176115Y59678D02*
X176771D01*
X177099Y59350D01*
Y58366D01*
X176115D01*
X175787Y58694D01*
X176115Y59022D01*
X177099D01*
X178739Y58366D02*
Y60334D01*
X177755Y59350D01*
X179067D01*
X206065Y89567D02*
X208033D01*
Y88583D01*
X207705Y88255D01*
X207049D01*
X206721Y88583D01*
Y89567D01*
Y88911D02*
X206065Y88255D01*
X207377Y87271D02*
Y86615D01*
X207049Y86287D01*
X206065D01*
Y87271D01*
X206393Y87599D01*
X206721Y87271D01*
Y86287D01*
X207705Y85631D02*
X208033Y85303D01*
Y84647D01*
X207705Y84319D01*
X207377D01*
X207049Y84647D01*
Y84975D01*
Y84647D01*
X206721Y84319D01*
X206393D01*
X206065Y84647D01*
Y85303D01*
X206393Y85631D01*
X138484Y87598D02*
Y89566D01*
X139468D01*
X139796Y89238D01*
Y88582D01*
X139468Y88254D01*
X138484D01*
X139140D02*
X139796Y87598D01*
X140780Y88910D02*
X141436D01*
X141764Y88582D01*
Y87598D01*
X140780D01*
X140452Y87926D01*
X140780Y88254D01*
X141764D01*
X143732Y87598D02*
X142420D01*
X143732Y88910D01*
Y89238D01*
X143404Y89566D01*
X142748D01*
X142420Y89238D01*
X107480Y94685D02*
Y96653D01*
X108464D01*
X108792Y96325D01*
Y95669D01*
X108464Y95341D01*
X107480D01*
X108136D02*
X108792Y94685D01*
X109776Y95997D02*
X110432D01*
X110760Y95669D01*
Y94685D01*
X109776D01*
X109448Y95013D01*
X109776Y95341D01*
X110760D01*
X111416Y94685D02*
X112072D01*
X111744D01*
Y96653D01*
X111416Y96325D01*
X78937Y24311D02*
X80905D01*
Y23327D01*
X80577Y22999D01*
X79921D01*
X79593Y23327D01*
Y24311D01*
Y23655D02*
X78937Y22999D01*
X80249Y21031D02*
Y22015D01*
X79921Y22343D01*
X79265D01*
X78937Y22015D01*
Y21031D01*
X80577Y19063D02*
X80905Y19391D01*
Y20047D01*
X80577Y20375D01*
X80249D01*
X79921Y20047D01*
Y19391D01*
X79593Y19063D01*
X79265D01*
X78937Y19391D01*
Y20047D01*
X79265Y20375D01*
X183398Y48852D02*
Y50164D01*
X183071Y50491D01*
X182415D01*
X182087Y50164D01*
Y48852D01*
X182415Y48524D01*
X183071D01*
X182743Y49180D02*
X183398Y48524D01*
X183071D02*
X183398Y48852D01*
X174803Y22342D02*
Y20374D01*
X176115D01*
X177755D02*
X177099D01*
X176771Y20702D01*
Y21358D01*
X177099Y21686D01*
X177755D01*
X178083Y21358D01*
Y21030D01*
X176771D01*
X191863Y78346D02*
X191207D01*
X191535D01*
Y76706D01*
X191207Y76378D01*
X190879D01*
X190551Y76706D01*
X192519Y76050D02*
X193831D01*
X194487Y78346D02*
Y76706D01*
X194815Y76378D01*
X195471D01*
X195799Y76706D01*
Y78346D01*
X196455Y76378D02*
Y77690D01*
X197111Y78346D01*
X197767Y77690D01*
Y76378D01*
Y77362D01*
X196455D01*
X198423Y76378D02*
Y78346D01*
X199407D01*
X199734Y78018D01*
Y77362D01*
X199407Y77034D01*
X198423D01*
X199079D02*
X199734Y76378D01*
X200391Y78346D02*
X201702D01*
X201046D01*
Y76378D01*
X159284Y56710D02*
X158628D01*
X158956D01*
Y55070D01*
X158628Y54742D01*
X158300D01*
X157972Y55070D01*
X159940Y54414D02*
X161252D01*
X163220Y56710D02*
X162564D01*
X162892D01*
Y55070D01*
X162564Y54742D01*
X162236D01*
X161908Y55070D01*
X163876Y56054D02*
Y55070D01*
X164204Y54742D01*
X165188D01*
Y56054D01*
X165844Y54742D02*
Y56054D01*
X166172D01*
X166500Y55726D01*
Y54742D01*
Y55726D01*
X166828Y56054D01*
X167156Y55726D01*
Y54742D01*
X167812Y54086D02*
Y56054D01*
X168796D01*
X169124Y55726D01*
Y55070D01*
X168796Y54742D01*
X167812D01*
X170764D02*
X170108D01*
X169780Y55070D01*
Y55726D01*
X170108Y56054D01*
X170764D01*
X171091Y55726D01*
Y55398D01*
X169780D01*
X171748Y56054D02*
Y54742D01*
Y55398D01*
X172075Y55726D01*
X172403Y56054D01*
X172731D01*
X37598Y56988D02*
Y55020D01*
X38582D01*
X38910Y55348D01*
Y56660D01*
X38582Y56988D01*
X37598D01*
X39566Y54692D02*
X40878D01*
X41534Y55020D02*
Y56988D01*
X42518D01*
X42846Y56660D01*
Y56004D01*
X42518Y55676D01*
X41534D01*
X43502Y56988D02*
Y55020D01*
Y56004D01*
X43830Y56332D01*
X44486D01*
X44814Y56004D01*
Y55020D01*
X45798D02*
X46454D01*
X46782Y55348D01*
Y56004D01*
X46454Y56332D01*
X45798D01*
X45470Y56004D01*
Y55348D01*
X45798Y55020D01*
X47766Y56660D02*
Y56332D01*
X47438D01*
X48094D01*
X47766D01*
Y55348D01*
X48094Y55020D01*
X202815Y40157D02*
Y38189D01*
X203799D01*
X204127Y38517D01*
Y39829D01*
X203799Y40157D01*
X202815D01*
X204783Y37861D02*
X206095D01*
X206751Y40157D02*
Y38189D01*
X208063D01*
X210031Y40157D02*
X208718D01*
Y38189D01*
X210031D01*
X208718Y39173D02*
X209374D01*
X210686Y40157D02*
Y38189D01*
X211670D01*
X211998Y38517D01*
Y39829D01*
X211670Y40157D01*
X210686D01*
X77848Y92847D02*
X77520Y92519D01*
Y91863D01*
X77848Y91535D01*
X79160D01*
X79488Y91863D01*
Y92519D01*
X79160Y92847D01*
X78176Y93503D02*
X79160D01*
X79488Y93831D01*
Y94815D01*
X79816D01*
X80144Y94487D01*
Y94159D01*
X79488Y94815D02*
X78176D01*
X79488Y96783D02*
Y95471D01*
X78176Y96783D01*
X77848D01*
X77520Y96455D01*
Y95799D01*
X77848Y95471D01*
X102591Y84376D02*
X102263Y84704D01*
X101608D01*
X101279Y84376D01*
Y83064D01*
X101608Y82736D01*
X102263D01*
X102591Y83064D01*
X103247Y84048D02*
Y83064D01*
X103575Y82736D01*
X104559D01*
Y82408D01*
X104231Y82080D01*
X103903D01*
X104559Y82736D02*
Y84048D01*
X105215Y82736D02*
X105871D01*
X105543D01*
Y84704D01*
X105215Y84376D01*
X159776Y41323D02*
X159449Y41651D01*
X158793D01*
X158465Y41323D01*
Y40011D01*
X158793Y39683D01*
X159449D01*
X159776Y40011D01*
X161416Y39683D02*
X160760D01*
X160432Y40011D01*
Y40667D01*
X160760Y40995D01*
X161416D01*
X161744Y40667D01*
Y40339D01*
X160432D01*
X162400Y41323D02*
X162728Y41651D01*
X163384D01*
X163712Y41323D01*
Y40995D01*
X163384Y40667D01*
X163056D01*
X163384D01*
X163712Y40339D01*
Y40011D01*
X163384Y39683D01*
X162728D01*
X162400Y40011D01*
X196292Y36482D02*
X195964Y36810D01*
X195308D01*
X194980Y36482D01*
Y35171D01*
X195308Y34843D01*
X195964D01*
X196292Y35171D01*
X197932Y34843D02*
X197276D01*
X196948Y35171D01*
Y35826D01*
X197276Y36154D01*
X197932D01*
X198260Y35826D01*
Y35498D01*
X196948D01*
X200228Y34843D02*
X198916D01*
X200228Y36154D01*
Y36482D01*
X199900Y36810D01*
X199244D01*
X198916Y36482D01*
X240682Y30774D02*
X240354Y31102D01*
X239698D01*
X239370Y30774D01*
Y29462D01*
X239698Y29134D01*
X240354D01*
X240682Y29462D01*
X242322Y29134D02*
X241666D01*
X241338Y29462D01*
Y30118D01*
X241666Y30446D01*
X242322D01*
X242650Y30118D01*
Y29790D01*
X241338D01*
X243306Y29134D02*
X243962D01*
X243634D01*
Y31102D01*
X243306Y30774D01*
X9973Y61286D02*
X9645Y61614D01*
X8989D01*
X8661Y61286D01*
Y59974D01*
X8989Y59646D01*
X9645D01*
X9973Y59974D01*
X11941Y61614D02*
Y59646D01*
X10957D01*
X10629Y59974D01*
Y60630D01*
X10957Y60958D01*
X11941D01*
X12597Y61286D02*
X12925Y61614D01*
X13581D01*
X13909Y61286D01*
Y60958D01*
X13581Y60630D01*
X13253D01*
X13581D01*
X13909Y60302D01*
Y59974D01*
X13581Y59646D01*
X12925D01*
X12597Y59974D01*
X31332Y28018D02*
X31004Y28346D01*
X30348D01*
X30020Y28018D01*
Y26706D01*
X30348Y26378D01*
X31004D01*
X31332Y26706D01*
X33299Y28346D02*
Y26378D01*
X32315D01*
X31988Y26706D01*
Y27362D01*
X32315Y27690D01*
X33299D01*
X35267Y26378D02*
X33955D01*
X35267Y27690D01*
Y28018D01*
X34939Y28346D01*
X34283D01*
X33955Y28018D01*
X46981Y28313D02*
X46653Y28641D01*
X45997D01*
X45669Y28313D01*
Y27001D01*
X45997Y26673D01*
X46653D01*
X46981Y27001D01*
X48949Y28641D02*
Y26673D01*
X47965D01*
X47637Y27001D01*
Y27657D01*
X47965Y27985D01*
X48949D01*
X49605Y26673D02*
X50261D01*
X49933D01*
Y28641D01*
X49605Y28313D01*
D31*
X43406Y49213D02*
D03*
D32*
X42126Y49213D02*
D03*
D33*
X65159Y91241D02*
D03*
D34*
X55119Y86418D02*
D03*
M02*
