G04*
G04 #@! TF.GenerationSoftware,Altium Limited,Altium Designer,20.2.4 (192)*
G04*
G04 Layer_Physical_Order=2*
G04 Layer_Color=16711680*
%FSLAX25Y25*%
%MOIN*%
G70*
G04*
G04 #@! TF.SameCoordinates,00526951-05BC-492D-B3B9-DF0584CCD128*
G04*
G04*
G04 #@! TF.FilePolarity,Positive*
G04*
G01*
G75*
%ADD11C,0.00787*%
%ADD23C,0.00984*%
%ADD28R,0.03000X0.03843*%
%ADD30R,0.02756X0.03543*%
%ADD39R,0.03543X0.02756*%
%ADD67C,0.02362*%
%ADD68C,0.01181*%
%ADD69C,0.01772*%
%ADD71C,0.03150*%
%ADD76C,0.01500*%
%ADD77C,0.01968*%
%ADD78C,0.02756*%
%ADD79R,0.05118X0.05118*%
%ADD80C,0.05118*%
%ADD81C,0.13780*%
%ADD82R,0.05118X0.06890*%
%ADD83O,0.05906X0.06299*%
%ADD84R,0.04000X0.03150*%
%ADD85O,0.04000X0.03150*%
%ADD86O,0.03150X0.04000*%
%ADD87R,0.03150X0.04000*%
%ADD88C,0.05906*%
%ADD89R,0.05906X0.05906*%
%ADD90C,0.27559*%
%ADD91C,0.02362*%
%ADD92R,0.09449X0.04921*%
G36*
X240158Y105512D02*
X245571Y100098D01*
X245571Y6299D01*
X239764Y492D01*
X191240Y492D01*
X191240Y17421D01*
X54823Y17421D01*
X54823Y492D01*
X6299D01*
X394Y6398D01*
X394Y100000D01*
X5906Y105512D01*
X240158Y105512D01*
D02*
G37*
%LPC*%
G36*
X98937Y100918D02*
X72242D01*
X71551Y100781D01*
X70964Y100389D01*
X52303Y81728D01*
X33209D01*
Y83169D01*
X22185D01*
Y76673D01*
X33209D01*
Y78115D01*
X53051D01*
X53742Y78252D01*
X54329Y78644D01*
X72990Y97306D01*
X98189D01*
X103056Y92438D01*
Y90852D01*
X102637Y90225D01*
X102617Y90124D01*
X102107D01*
X102087Y90225D01*
X101669Y90852D01*
Y91870D01*
X101531Y92561D01*
X101139Y93147D01*
X99309Y94978D01*
X98723Y95370D01*
X98032Y95507D01*
X79921D01*
X79230Y95370D01*
X78644Y94978D01*
X57520Y73854D01*
X33209D01*
Y75295D01*
X22185D01*
Y68799D01*
X33209D01*
Y70241D01*
X58268D01*
X58959Y70378D01*
X59545Y70770D01*
X80669Y91894D01*
X97283D01*
X98056Y91122D01*
Y90852D01*
X97637Y90225D01*
X97454Y89303D01*
Y88453D01*
X97637Y87531D01*
X98159Y86750D01*
X98940Y86228D01*
X99862Y86044D01*
X100784Y86228D01*
X101565Y86750D01*
X102087Y87531D01*
X102107Y87631D01*
X102617D01*
X102637Y87531D01*
X103159Y86750D01*
X103940Y86228D01*
X104862Y86044D01*
X105784Y86228D01*
X106565Y86750D01*
X107000Y87400D01*
X107500Y87249D01*
Y86090D01*
X107654D01*
Y83117D01*
X107647Y83109D01*
X98425D01*
X97657Y82957D01*
X97006Y82522D01*
X96614Y82129D01*
X90689D01*
Y83169D01*
X79665D01*
Y76673D01*
X90689D01*
Y77714D01*
X92924D01*
X93341Y77512D01*
Y72094D01*
X93621D01*
Y70426D01*
X93341D01*
Y68130D01*
X91592Y66381D01*
X90689D01*
Y67421D01*
X79665D01*
Y60925D01*
X90689D01*
Y61966D01*
X92507D01*
X93352Y62134D01*
X94068Y62612D01*
X96463Y65008D01*
X97916D01*
Y70426D01*
X97635D01*
Y72094D01*
X97916D01*
Y74828D01*
X97954Y75022D01*
Y77793D01*
X98183Y78022D01*
X98690Y78360D01*
X99028Y78867D01*
X99257Y79095D01*
X108478D01*
X109247Y79248D01*
X109898Y79683D01*
X110650Y80435D01*
X110707Y80446D01*
X111423Y80925D01*
X111902Y81641D01*
X112070Y82486D01*
Y86090D01*
X112224D01*
Y91665D01*
X107500D01*
Y90507D01*
X107000Y90356D01*
X106669Y90852D01*
Y93186D01*
X106531Y93878D01*
X106140Y94464D01*
X100214Y100389D01*
X99628Y100781D01*
X98937Y100918D01*
D02*
G37*
G36*
X90689Y75295D02*
X79665D01*
Y68799D01*
X90689D01*
Y75295D01*
D02*
G37*
G36*
X33209Y67421D02*
X22185D01*
Y60925D01*
X33209D01*
Y67421D01*
D02*
G37*
G36*
X90689Y59547D02*
X79665D01*
Y58106D01*
X54724D01*
X54033Y57968D01*
X53447Y57577D01*
X43537Y47667D01*
X43159Y47742D01*
X42391Y47589D01*
X41740Y47154D01*
X41305Y46503D01*
X41152Y45735D01*
X41305Y44967D01*
X41740Y44316D01*
X42391Y43881D01*
X43159Y43728D01*
X43927Y43881D01*
X43999Y43929D01*
X44160D01*
X44851Y44066D01*
X45437Y44458D01*
X55473Y54493D01*
X79665D01*
Y53051D01*
X90689D01*
Y59547D01*
D02*
G37*
G36*
X33209D02*
X22185D01*
Y53051D01*
X33209D01*
Y59547D01*
D02*
G37*
G36*
X90689Y51673D02*
X79665D01*
Y50881D01*
X58786D01*
X58714Y50929D01*
X57946Y51082D01*
X57178Y50929D01*
X56527Y50494D01*
X56092Y49843D01*
X56062Y49692D01*
X50553Y44184D01*
X50162Y43598D01*
X50024Y42906D01*
Y34875D01*
X49976Y34804D01*
X49824Y34035D01*
X49976Y33267D01*
X50411Y32616D01*
X51063Y32181D01*
X51831Y32028D01*
X52599Y32181D01*
X53250Y32616D01*
X53685Y33267D01*
X53838Y34035D01*
X53685Y34804D01*
X53637Y34875D01*
Y42158D01*
X58696Y47217D01*
X58714Y47221D01*
X58786Y47269D01*
X79665D01*
Y45177D01*
X90689D01*
Y51673D01*
D02*
G37*
G36*
X126969Y52276D02*
X125992Y52148D01*
X125082Y51771D01*
X124301Y51171D01*
X123951Y50716D01*
X122112D01*
X121762Y51171D01*
X120981Y51771D01*
X120071Y52148D01*
X119095Y52276D01*
X118118Y52148D01*
X117208Y51771D01*
X116427Y51171D01*
X115828Y50390D01*
X115451Y49480D01*
X115322Y48504D01*
Y48110D01*
X115451Y47134D01*
X115828Y46224D01*
X116427Y45443D01*
X117208Y44843D01*
X118118Y44466D01*
X119095Y44338D01*
X120071Y44466D01*
X120981Y44843D01*
X121762Y45443D01*
X122112Y45899D01*
X123951D01*
X124301Y45443D01*
X125082Y44843D01*
X125992Y44466D01*
X126969Y44338D01*
X127945Y44466D01*
X128855Y44843D01*
X129636Y45443D01*
X130236Y46224D01*
X130612Y47134D01*
X130741Y48110D01*
Y48504D01*
X130612Y49480D01*
X130236Y50390D01*
X129636Y51171D01*
X128855Y51771D01*
X127945Y52148D01*
X126969Y52276D01*
D02*
G37*
G36*
X223031Y55564D02*
X222055Y55435D01*
X221145Y55058D01*
X220364Y54459D01*
X219764Y53677D01*
X219388Y52768D01*
X219259Y51791D01*
X219388Y50815D01*
X219764Y49905D01*
X220364Y49124D01*
X221145Y48524D01*
X222055Y48147D01*
X223031Y48019D01*
X224008Y48147D01*
X224918Y48524D01*
X225699Y49124D01*
X226298Y49905D01*
X226675Y50815D01*
X226804Y51791D01*
X226675Y52768D01*
X226298Y53677D01*
X225699Y54459D01*
X224918Y55058D01*
X224008Y55435D01*
X223031Y55564D01*
D02*
G37*
G36*
X206201Y61328D02*
X205327Y61213D01*
X204513Y60876D01*
X203814Y60339D01*
X203278Y59640D01*
X202941Y58826D01*
X202825Y57953D01*
X202847Y57793D01*
X202517Y57417D01*
X202067D01*
X201376Y57280D01*
X200790Y56888D01*
X194000Y50099D01*
X191437D01*
Y45768D01*
X196555D01*
Y47545D01*
X202815Y53805D01*
X205827D01*
X206519Y53942D01*
X207105Y54334D01*
X207448Y54847D01*
X207889Y55030D01*
X208588Y55566D01*
X209124Y56265D01*
X209461Y57079D01*
X209576Y57953D01*
X209461Y58826D01*
X209124Y59640D01*
X208588Y60339D01*
X207889Y60876D01*
X207074Y61213D01*
X206201Y61328D01*
D02*
G37*
G36*
X15492Y58396D02*
X11161D01*
Y53278D01*
X12654D01*
X16625Y49307D01*
X13441Y46124D01*
X13024Y45925D01*
X7449D01*
Y41201D01*
X13024D01*
Y41745D01*
X13908D01*
X14676Y41898D01*
X15328Y42333D01*
X19570Y46576D01*
X19577Y46571D01*
X20345Y46418D01*
X22185D01*
Y45177D01*
X33209D01*
Y51673D01*
X22185D01*
Y50432D01*
X21177D01*
X20498Y51111D01*
X20497Y51111D01*
X15492Y56117D01*
Y58396D01*
D02*
G37*
G36*
X209547Y51299D02*
X202854D01*
Y44606D01*
X209547D01*
Y51299D01*
D02*
G37*
G36*
X136811Y52276D02*
X135835Y52148D01*
X134925Y51771D01*
X134143Y51171D01*
X133544Y50390D01*
X133167Y49480D01*
X133039Y48504D01*
Y48110D01*
X133167Y47134D01*
X133544Y46224D01*
X134143Y45443D01*
X134925Y44843D01*
X135835Y44466D01*
X136811Y44338D01*
X137787Y44466D01*
X138697Y44843D01*
X139479Y45443D01*
X140078Y46224D01*
X140455Y47134D01*
X140583Y48110D01*
Y48504D01*
X140455Y49480D01*
X140078Y50390D01*
X139479Y51171D01*
X138697Y51771D01*
X137787Y52148D01*
X136811Y52276D01*
D02*
G37*
G36*
X170276Y66180D02*
X169508Y66027D01*
X168856Y65592D01*
X168421Y64941D01*
X168269Y64173D01*
X168421Y63405D01*
X168570Y63183D01*
Y62124D01*
X166707Y60261D01*
X166707Y60261D01*
X147915Y41470D01*
X140157D01*
X139505Y41340D01*
X138951Y40970D01*
X135907Y37927D01*
X90984D01*
X90689Y38169D01*
Y43799D01*
X79665D01*
Y42358D01*
X74088D01*
X74016Y42406D01*
X73248Y42558D01*
X72480Y42406D01*
X71829Y41970D01*
X71394Y41319D01*
X71241Y40551D01*
X71394Y39783D01*
X71829Y39132D01*
X72480Y38697D01*
X73248Y38544D01*
X74016Y38697D01*
X74088Y38745D01*
X79665D01*
Y37303D01*
X89001D01*
X89192Y36841D01*
X88276Y35925D01*
X79665D01*
Y29429D01*
X90689D01*
Y33512D01*
X91691Y34514D01*
X136614D01*
X137267Y34644D01*
X137820Y35014D01*
X140864Y38058D01*
X148622D01*
X149275Y38188D01*
X149828Y38557D01*
X169120Y57849D01*
X171482Y60211D01*
X171852Y60764D01*
X171982Y61417D01*
Y63183D01*
X172130Y63405D01*
X172283Y64173D01*
X172130Y64941D01*
X171695Y65592D01*
X171044Y66027D01*
X170276Y66180D01*
D02*
G37*
G36*
X33209Y43799D02*
X22185D01*
Y42558D01*
X19905D01*
X19137Y42406D01*
X18485Y41970D01*
X14229Y37713D01*
X12736D01*
Y32595D01*
X17067D01*
Y34875D01*
X20736Y38544D01*
X22185D01*
Y37303D01*
X33209D01*
Y43799D01*
D02*
G37*
G36*
X9311Y58396D02*
X4980D01*
Y55691D01*
X3624Y54335D01*
X3255Y53782D01*
X3125Y53129D01*
Y39534D01*
X2976Y39312D01*
X2824Y38544D01*
X2976Y37776D01*
X3412Y37125D01*
X4063Y36690D01*
X4382Y36626D01*
X5830Y35179D01*
X5939Y35014D01*
X6120Y34834D01*
X6555Y34543D01*
Y32595D01*
X10886D01*
Y37713D01*
X8393D01*
X8228Y37746D01*
X8111Y37723D01*
X6726Y39108D01*
X6685Y39312D01*
X6537Y39534D01*
Y52422D01*
X7393Y53278D01*
X9311D01*
Y58396D01*
D02*
G37*
G36*
X66715Y46168D02*
X65947Y46015D01*
X65296Y45580D01*
X64861Y44929D01*
X64708Y44161D01*
Y36415D01*
X64861Y35647D01*
X64990Y35454D01*
X64722Y34954D01*
X60020D01*
X59367Y34824D01*
X58813Y34454D01*
X47219Y22860D01*
X46849Y22306D01*
X46719Y21654D01*
Y12407D01*
X46571Y12185D01*
X46418Y11417D01*
X46571Y10649D01*
X47006Y9998D01*
X47657Y9563D01*
X48425Y9410D01*
X49193Y9563D01*
X49844Y9998D01*
X50279Y10649D01*
X50432Y11417D01*
X50279Y12185D01*
X50131Y12407D01*
Y20947D01*
X60726Y31542D01*
X68749D01*
X76908Y23384D01*
X77559Y22949D01*
X78327Y22796D01*
X79665D01*
Y21555D01*
X90689D01*
Y28051D01*
X79665D01*
Y26810D01*
X79158D01*
X71301Y34667D01*
X71301Y34667D01*
X68722Y37246D01*
Y44161D01*
X68569Y44929D01*
X68134Y45580D01*
X67483Y46015D01*
X66715Y46168D01*
D02*
G37*
G36*
X196555Y43918D02*
X191437D01*
Y39587D01*
X192190D01*
Y26240D01*
X188293Y22344D01*
X188208Y22327D01*
X187557Y21892D01*
X187122Y21240D01*
X186969Y20472D01*
X187122Y19704D01*
X187557Y19053D01*
X188208Y18618D01*
X188976Y18465D01*
X189744Y18618D01*
X190396Y19053D01*
X190831Y19704D01*
X190848Y19789D01*
X195273Y24215D01*
X195665Y24801D01*
X195802Y25492D01*
Y39587D01*
X196555D01*
Y43918D01*
D02*
G37*
%LPD*%
D11*
X85059Y48307D02*
X85177Y48425D01*
X85177Y40551D02*
X85177Y40551D01*
D23*
X99448Y89292D02*
X99862Y88878D01*
D28*
X102009Y74803D02*
D03*
X95628D02*
D03*
X102009Y67716D02*
D03*
X95628D02*
D03*
D30*
X8721Y35154D02*
D03*
X14902D02*
D03*
X13327Y55837D02*
D03*
X7146D02*
D03*
D39*
X193996Y47934D02*
D03*
Y41753D02*
D03*
D67*
X10236Y43563D02*
X10425Y43752D01*
X13908D01*
X19078Y48922D01*
Y49692D01*
X20345Y48425D01*
X13327Y55444D02*
X19078Y49692D01*
X20345Y48425D02*
X27697D01*
X14902Y35548D02*
X19905Y40551D01*
X27697D01*
X108478Y81102D02*
X109862Y82486D01*
X98425Y81102D02*
X108478D01*
X97186Y79863D02*
X98425Y81102D01*
X95947Y78624D02*
X97186Y79863D01*
X95628Y74703D02*
X95728Y74803D01*
X95628Y67817D02*
Y74703D01*
X95728Y74803D02*
X95947Y75022D01*
Y78624D01*
X78327Y24803D02*
X85177D01*
X69882Y33248D02*
X78327Y24803D01*
X66715Y36415D02*
Y44161D01*
Y36415D02*
X69882Y33248D01*
D68*
X205827Y55611D02*
X206398Y56181D01*
X193996Y47934D02*
X194390D01*
X170276Y63976D02*
Y64173D01*
X167913Y59055D02*
X168110D01*
X85177Y32677D02*
X87441D01*
X213899Y23109D02*
X222868D01*
X230229Y15748D01*
X230315D01*
Y90158D01*
D69*
X7146Y36220D02*
Y36275D01*
X4877Y38544D02*
X7146Y36275D01*
X8721Y35154D02*
Y35548D01*
X8228Y36040D02*
X8721Y35548D01*
X7146Y36220D02*
X7326Y36040D01*
X4831Y38544D02*
X4877D01*
X4831D02*
Y53129D01*
X7419Y55717D01*
X13327Y55444D02*
Y55837D01*
X95628Y67295D02*
Y67817D01*
X97128Y79921D02*
X97186Y79863D01*
X48425Y11417D02*
Y21654D01*
X60020Y33248D02*
X69882D01*
X48425Y21654D02*
X60020Y33248D01*
X167913Y59055D02*
X170276Y61417D01*
X170280Y63980D02*
X170359Y63900D01*
Y63643D02*
Y63900D01*
X170276Y63559D02*
X170359Y63643D01*
X170276Y61417D02*
Y63559D01*
X136614Y36220D02*
X140157Y39764D01*
X148622D02*
X167913Y59055D01*
X140157Y39764D02*
X148622D01*
X90984Y36220D02*
X136614D01*
X87441Y32677D02*
X90984Y36220D01*
D71*
X119095Y48307D02*
X126969D01*
D76*
X213899Y23109D02*
X214961Y22047D01*
X211811Y25197D02*
X213899Y23109D01*
X214961Y8661D02*
Y22047D01*
D77*
X53051Y79921D02*
X72242Y99112D01*
X98937D02*
X104862Y93186D01*
X72242Y99112D02*
X98937D01*
X104862Y88878D02*
Y93186D01*
X51831Y34035D02*
Y42906D01*
X57946Y49022D02*
Y49075D01*
X51831Y42906D02*
X57946Y49022D01*
X82165Y49075D02*
X83996Y47244D01*
X57946Y49075D02*
X82165D01*
X14902Y35154D02*
Y35548D01*
X44160Y45735D02*
X54724Y56299D01*
X43159Y45735D02*
X44160D01*
X202067Y55611D02*
X205827D01*
X194390Y47934D02*
X202067Y55611D01*
X193996Y25492D02*
Y41753D01*
X54724Y56299D02*
X85177D01*
X27697Y40551D02*
X27697Y40551D01*
X99862Y88878D02*
Y91870D01*
X98032Y93701D02*
X99862Y91870D01*
X58268Y72047D02*
X79921Y93701D01*
X98032D01*
X27697Y79921D02*
X53051D01*
X27697Y72047D02*
X58268D01*
X73248Y40551D02*
X85177D01*
X83996Y47244D02*
X85059Y48307D01*
X188976Y20472D02*
X193996Y25492D01*
D78*
X109862Y82486D02*
Y88878D01*
X85177Y79921D02*
X97128D01*
X85177Y64173D02*
X92507D01*
X95628Y67295D01*
D79*
X206201Y47953D02*
D03*
D80*
Y57953D02*
D03*
D81*
X15748Y90158D02*
D03*
D82*
X94882Y29331D02*
D03*
X151181D02*
D03*
X148228Y50827D02*
D03*
X97835D02*
D03*
D83*
X136811Y48307D02*
D03*
X126969D02*
D03*
X119095D02*
D03*
X109252D02*
D03*
D84*
X10236Y43563D02*
D03*
D85*
Y48563D02*
D03*
D86*
X94862Y88878D02*
D03*
X99862D02*
D03*
X104862D02*
D03*
D87*
X109862D02*
D03*
D88*
X223031Y51791D02*
D03*
D89*
Y61791D02*
D03*
D90*
X230315Y90158D02*
D03*
Y15748D02*
D03*
X15748D02*
D03*
D91*
X141063Y54251D02*
D03*
X131638D02*
D03*
X134143Y100394D02*
D03*
X148179D02*
D03*
X120108D02*
D03*
X107647D02*
D03*
X87441Y86228D02*
D03*
X80709Y86044D02*
D03*
X72990Y93701D02*
D03*
X74803Y52422D02*
D03*
X174229Y50099D02*
D03*
X164469Y63856D02*
D03*
Y74803D02*
D03*
X156358D02*
D03*
X160393Y98819D02*
D03*
X103940Y62134D02*
D03*
X98937D02*
D03*
X109252Y68799D02*
D03*
Y75295D02*
D03*
X57946Y78740D02*
D03*
X40157Y76378D02*
D03*
X32283Y13780D02*
D03*
X20736Y26810D02*
D03*
X62706Y60665D02*
D03*
X55571Y99112D02*
D03*
Y89292D02*
D03*
X43927D02*
D03*
Y99112D02*
D03*
X188464Y88878D02*
D03*
X188265Y77953D02*
D03*
X188464Y98819D02*
D03*
X174229Y77953D02*
D03*
X174428Y88878D02*
D03*
Y98819D02*
D03*
X202500Y65162D02*
D03*
X211455Y71124D02*
D03*
X216535Y98819D02*
D03*
Y77953D02*
D03*
X202300D02*
D03*
X202500Y88878D02*
D03*
X190917Y71124D02*
D03*
X224528D02*
D03*
X202500Y98819D02*
D03*
X216535Y89962D02*
D03*
X221457Y81102D02*
D03*
X228740Y77953D02*
D03*
X237795Y74803D02*
D03*
Y63437D02*
D03*
Y51791D02*
D03*
X213779Y54577D02*
D03*
X209646Y14084D02*
D03*
X193701Y8661D02*
D03*
X186417Y33081D02*
D03*
X223031Y26268D02*
D03*
X217717Y15846D02*
D03*
X226043Y3669D02*
D03*
X164469Y50099D02*
D03*
Y44161D02*
D03*
X145669Y82697D02*
D03*
X127900Y78740D02*
D03*
X123031Y60665D02*
D03*
X109252Y62134D02*
D03*
X116929Y76378D02*
D03*
X70157Y72637D02*
D03*
X60236Y20472D02*
D03*
X38734Y3445D02*
D03*
X25591Y8242D02*
D03*
X5906Y29390D02*
D03*
X11417Y65748D02*
D03*
X40157Y63779D02*
D03*
X32283Y99112D02*
D03*
Y89292D02*
D03*
X15748Y77512D02*
D03*
X8721Y78867D02*
D03*
X57946Y49075D02*
D03*
X4831Y38544D02*
D03*
X43159Y45735D02*
D03*
X159567Y39911D02*
D03*
X51831Y34035D02*
D03*
X48425Y11417D02*
D03*
X66715Y44161D02*
D03*
X69882Y33248D02*
D03*
X170276Y64173D02*
D03*
X73248Y40551D02*
D03*
X237795Y29724D02*
D03*
X240945D02*
D03*
X123047Y42323D02*
D03*
X130807Y29217D02*
D03*
X115748Y29134D02*
D03*
X169488Y39903D02*
D03*
X165945D02*
D03*
X162795Y39911D02*
D03*
X173721Y20472D02*
D03*
X188976D02*
D03*
X214961Y8661D02*
D03*
X211811Y25197D02*
D03*
D92*
X27697Y24803D02*
D03*
Y32677D02*
D03*
Y40551D02*
D03*
Y48425D02*
D03*
Y56299D02*
D03*
Y64173D02*
D03*
Y72047D02*
D03*
Y79921D02*
D03*
X85177Y24803D02*
D03*
Y32677D02*
D03*
Y40551D02*
D03*
Y48425D02*
D03*
Y56299D02*
D03*
Y64173D02*
D03*
Y72047D02*
D03*
Y79921D02*
D03*
M02*
