G04*
G04 #@! TF.GenerationSoftware,Altium Limited,Altium Designer,20.2.4 (192)*
G04*
G04 Layer_Color=8421504*
%FSLAX25Y25*%
%MOIN*%
G70*
G04*
G04 #@! TF.SameCoordinates,00526951-05BC-492D-B3B9-DF0584CCD128*
G04*
G04*
G04 #@! TF.FilePolarity,Positive*
G04*
G01*
G75*
%ADD25R,0.02559X0.01181*%
%ADD26R,0.03150X0.03937*%
%ADD27R,0.11063X0.04882*%
%ADD28R,0.03000X0.03843*%
%ADD29R,0.03843X0.03000*%
%ADD30R,0.02756X0.03543*%
%ADD31R,0.02362X0.04331*%
%ADD32R,0.03900X0.05900*%
%ADD33R,0.12900X0.05900*%
%ADD34R,0.03937X0.02756*%
%ADD35R,0.04200X0.01654*%
%ADD36R,0.04882X0.11063*%
%ADD37R,0.15748X0.05906*%
%ADD38R,0.05512X0.03937*%
%ADD39R,0.03543X0.02756*%
D25*
X45020Y50394D02*
D03*
Y52953D02*
D03*
Y55512D02*
D03*
X37933Y50394D02*
D03*
Y52953D02*
D03*
Y55512D02*
D03*
D26*
X190157Y57677D02*
D03*
X182677D02*
D03*
X186417Y49409D02*
D03*
D27*
X160236Y91280D02*
D03*
Y79587D02*
D03*
X80709Y47185D02*
D03*
Y35492D02*
D03*
X164469Y35370D02*
D03*
Y23677D02*
D03*
D28*
X52282Y60786D02*
D03*
X58663D02*
D03*
X142380Y60728D02*
D03*
X148761D02*
D03*
X43259Y9449D02*
D03*
X36878D02*
D03*
X133505Y60728D02*
D03*
X127124D02*
D03*
X203643Y31496D02*
D03*
X197262D02*
D03*
D29*
X46850Y41773D02*
D03*
Y35392D02*
D03*
D30*
X40689Y36438D02*
D03*
X34508D02*
D03*
X177087Y64173D02*
D03*
X183268D02*
D03*
D31*
X45079Y29331D02*
D03*
X41339D02*
D03*
X37598D02*
D03*
X45079Y18307D02*
D03*
X37598D02*
D03*
D32*
X144188Y68899D02*
D03*
X126088D02*
D03*
X135138D02*
D03*
D33*
Y93699D02*
D03*
D34*
X198191Y25492D02*
D03*
Y21752D02*
D03*
Y18012D02*
D03*
X207321Y25492D02*
D03*
Y21752D02*
D03*
Y18012D02*
D03*
D35*
X65236Y23327D02*
D03*
X65256Y25886D02*
D03*
X65236Y28445D02*
D03*
Y31004D02*
D03*
X55236D02*
D03*
Y28445D02*
D03*
Y25886D02*
D03*
Y23327D02*
D03*
D36*
X227618Y38465D02*
D03*
X239311D02*
D03*
D37*
X183071Y25984D02*
D03*
Y40551D02*
D03*
D38*
X74213Y21339D02*
D03*
Y27874D02*
D03*
D39*
X55472Y37461D02*
D03*
Y43642D02*
D03*
X61713D02*
D03*
Y37461D02*
D03*
X198031Y11417D02*
D03*
Y5236D02*
D03*
X210630Y11417D02*
D03*
Y5236D02*
D03*
X204331Y11358D02*
D03*
Y5177D02*
D03*
M02*
