G04*
G04 #@! TF.GenerationSoftware,Altium Limited,Altium Designer,19.0.11 (319)*
G04*
G04 Layer_Color=65535*
%FSLAX25Y25*%
%MOIN*%
G70*
G01*
G75*
%ADD10C,0.00787*%
%ADD13C,0.00500*%
%ADD17C,0.00300*%
%ADD31C,0.00433*%
D10*
X107562Y63386D02*
G03*
X107562Y63386I-294J0D01*
G01*
D13*
X113091Y53051D02*
X114862D01*
X113091Y49902D02*
X114862D01*
X55692Y57146D02*
Y62264D01*
X70292D01*
Y61083D02*
Y62264D01*
X55692Y35886D02*
Y41004D01*
X70292Y35886D02*
Y37067D01*
X55692Y35886D02*
X70292D01*
X101181Y61767D02*
Y63538D01*
X98032Y61767D02*
Y63538D01*
X114827Y62106D02*
Y63878D01*
X111678Y62106D02*
Y63878D01*
X74311Y33268D02*
X76083D01*
X74311Y30118D02*
X76083D01*
X86968Y45669D02*
X88740D01*
X86968Y42520D02*
X88740D01*
X81890Y52658D02*
Y54429D01*
X85039Y52658D02*
Y54429D01*
X177559Y69700D02*
Y71472D01*
X174409Y69700D02*
Y71472D01*
D17*
X134941Y52461D02*
Y57185D01*
X124705Y52461D02*
X134941D01*
X124705D02*
Y57185D01*
X134941D01*
X108661Y48917D02*
X119291D01*
Y54035D01*
X108661D02*
X119291D01*
X108661Y48917D02*
Y54035D01*
X96063Y51628D02*
Y56353D01*
X106299D01*
Y51628D02*
Y56353D01*
X96063Y51628D02*
X106299D01*
X137402Y59252D02*
Y63976D01*
X127165Y59252D02*
X137402D01*
X127165D02*
Y63976D01*
X137402D01*
X191634Y46457D02*
X196358D01*
X191634D02*
Y56693D01*
X196358D01*
Y46457D02*
Y56693D01*
X109827Y64272D02*
Y74902D01*
X104709D02*
X109827D01*
X104709Y64272D02*
Y74902D01*
Y64272D02*
X109827D01*
X97047Y57338D02*
Y67968D01*
Y57338D02*
X102165D01*
Y67968D01*
X97047D02*
X102165D01*
X110693Y57677D02*
Y68307D01*
Y57677D02*
X115811D01*
Y68307D01*
X110693D02*
X115811D01*
X69882Y29134D02*
X80512D01*
Y34252D01*
X69882D02*
X80512D01*
X69882Y29134D02*
Y34252D01*
X82539Y41535D02*
X93169D01*
Y46654D01*
X82539D02*
X93169D01*
X82539Y41535D02*
Y46654D01*
X86024Y48228D02*
Y58858D01*
X80905D02*
X86024D01*
X80905Y48228D02*
Y58858D01*
Y48228D02*
X86024D01*
X173425Y65271D02*
Y75901D01*
Y65271D02*
X178543D01*
Y75901D01*
X173425D02*
X178543D01*
D31*
X135925Y52559D02*
X137893D01*
Y53543D01*
X137565Y53871D01*
X136909D01*
X136581Y53543D01*
Y52559D01*
Y53215D02*
X135925Y53871D01*
Y54527D02*
Y55183D01*
Y54855D01*
X137237D01*
Y54527D01*
X135925Y57479D02*
Y56167D01*
X137237Y57479D01*
X137565D01*
X137893Y57151D01*
Y56495D01*
X137565Y56167D01*
X95177Y56102D02*
X93209D01*
Y55118D01*
X93537Y54790D01*
X94193D01*
X94521Y55118D01*
Y56102D01*
Y55446D02*
X95177Y54790D01*
Y54135D02*
Y53478D01*
Y53807D01*
X93865D01*
Y54135D01*
X95177Y52495D02*
Y51839D01*
Y52167D01*
X93209D01*
X93537Y52495D01*
X121620Y50721D02*
X121948Y50393D01*
Y49737D01*
X121620Y49409D01*
X120308D01*
X119980Y49737D01*
Y50393D01*
X120308Y50721D01*
X119980Y51377D02*
Y52033D01*
Y51705D01*
X121292D01*
Y51377D01*
X119980Y53017D02*
Y53673D01*
Y53345D01*
X121948D01*
X121620Y53017D01*
X177231Y78427D02*
X177559Y78755D01*
X178215D01*
X178543Y78427D01*
Y77115D01*
X178215Y76787D01*
X177559D01*
X177231Y77115D01*
X176575Y78755D02*
Y76787D01*
X175592D01*
X175264Y77115D01*
Y77443D01*
Y77771D01*
X175592Y78099D01*
X176575D01*
X174608Y76787D02*
X173952D01*
X174280D01*
Y78755D01*
X174608Y78427D01*
X196358Y57874D02*
Y59842D01*
X195374D01*
X195046Y59514D01*
Y58858D01*
X195374Y58530D01*
X196358D01*
X195702D02*
X195046Y57874D01*
X193078Y57218D02*
Y59186D01*
X194062D01*
X194390Y58858D01*
Y58202D01*
X194062Y57874D01*
X193078D01*
X191111D02*
X192422D01*
X191111Y59186D01*
Y59514D01*
X191439Y59842D01*
X192095D01*
X192422Y59514D01*
X138287Y59252D02*
X140255D01*
Y60236D01*
X139927Y60564D01*
X139271D01*
X138943Y60236D01*
Y59252D01*
Y59908D02*
X138287Y60564D01*
X139599Y61548D02*
Y62204D01*
X139271Y62532D01*
X138287D01*
Y61548D01*
X138615Y61220D01*
X138943Y61548D01*
Y62532D01*
X140255Y64500D02*
Y63188D01*
X139271D01*
X139599Y63844D01*
Y64172D01*
X139271Y64500D01*
X138615D01*
X138287Y64172D01*
Y63516D01*
X138615Y63188D01*
X70292Y65216D02*
Y63577D01*
X69964Y63249D01*
X69308D01*
X68980Y63577D01*
Y65216D01*
X67012D02*
X67668Y64889D01*
X68324Y64233D01*
Y63577D01*
X67996Y63249D01*
X67340D01*
X67012Y63577D01*
Y63905D01*
X67340Y64233D01*
X68324D01*
X109449Y77869D02*
Y75901D01*
X108137D01*
X107153Y77213D02*
X106497D01*
X106169Y76885D01*
Y75901D01*
X107153D01*
X107481Y76229D01*
X107153Y76557D01*
X106169D01*
X105513Y75901D02*
X104857D01*
X105185D01*
Y77869D01*
X105513Y77541D01*
X84712Y61384D02*
X85040Y61712D01*
X85696D01*
X86024Y61384D01*
Y60072D01*
X85696Y59744D01*
X85040D01*
X84712Y60072D01*
X83728Y59744D02*
Y61384D01*
Y60728D01*
X84056D01*
X83400D01*
X83728D01*
Y61384D01*
X83400Y61712D01*
X81104Y59744D02*
X82416D01*
X81104Y61056D01*
Y61384D01*
X81432Y61712D01*
X82088D01*
X82416Y61384D01*
X91897Y49179D02*
X92225Y49507D01*
X92881D01*
X93209Y49179D01*
Y47867D01*
X92881Y47539D01*
X92225D01*
X91897Y47867D01*
X90913Y47539D02*
Y49179D01*
Y48523D01*
X91241D01*
X90585D01*
X90913D01*
Y49179D01*
X90585Y49507D01*
X89601Y47539D02*
X88945D01*
X89273D01*
Y49507D01*
X89601Y49179D01*
X81667Y32843D02*
X81339Y33171D01*
Y33827D01*
X81667Y34155D01*
X82979D01*
X83307Y33827D01*
Y33171D01*
X82979Y32843D01*
X81995Y30875D02*
Y31859D01*
X82323Y32187D01*
X82979D01*
X83307Y31859D01*
Y30875D01*
Y30219D02*
Y29563D01*
Y29891D01*
X81339D01*
X81667Y30219D01*
X114633Y56856D02*
X114961Y57184D01*
X115617D01*
X115945Y56856D01*
Y55545D01*
X115617Y55216D01*
X114961D01*
X114633Y55545D01*
X113649Y56528D02*
X112993D01*
X112665Y56200D01*
Y55216D01*
X113649D01*
X113977Y55545D01*
X113649Y55872D01*
X112665D01*
X110697Y55216D02*
X112009D01*
X110697Y56528D01*
Y56856D01*
X111025Y57184D01*
X111681D01*
X112009Y56856D01*
X100558Y70341D02*
X100886Y70669D01*
X101542D01*
X101870Y70341D01*
Y69029D01*
X101542Y68701D01*
X100886D01*
X100558Y69029D01*
X99574Y70013D02*
X98918D01*
X98590Y69685D01*
Y68701D01*
X99574D01*
X99902Y69029D01*
X99574Y69357D01*
X98590D01*
X97934Y68701D02*
X97278D01*
X97606D01*
Y70669D01*
X97934Y70341D01*
M02*
