G04*
G04 #@! TF.GenerationSoftware,Altium Limited,Altium Designer,19.0.11 (319)*
G04*
G04 Layer_Color=8421504*
%FSLAX25Y25*%
%MOIN*%
G70*
G01*
G75*
%ADD35R,0.02362X0.04331*%
%ADD36R,0.01181X0.02953*%
%ADD37R,0.02756X0.03543*%
%ADD38R,0.03150X0.01121*%
%ADD39R,0.01121X0.03150*%
%ADD40R,0.03937X0.07874*%
%ADD41R,0.11024X0.02756*%
%ADD42R,0.06000X0.02100*%
%ADD43R,0.03150X0.03937*%
%ADD44R,0.03937X0.02756*%
%ADD45R,0.04200X0.01654*%
%ADD46R,0.11063X0.04882*%
%ADD47R,0.04882X0.11063*%
%ADD48R,0.15748X0.05906*%
%ADD49R,0.05512X0.03937*%
%ADD50R,0.05118X0.04331*%
%ADD51R,0.05118X0.05512*%
%ADD52R,0.03543X0.02756*%
%ADD53R,0.02165X0.02165*%
%ADD54R,0.03843X0.03000*%
%ADD55R,0.03000X0.03843*%
%ADD56R,0.03858X0.04331*%
G36*
X126969Y76968D02*
X121850D01*
Y82087D01*
X126969D01*
Y76968D01*
D02*
G37*
G36*
X120669D02*
X115551D01*
Y82087D01*
X120669D01*
Y76968D01*
D02*
G37*
G36*
X126969Y70669D02*
X121850D01*
Y75787D01*
X126969D01*
Y70669D01*
D02*
G37*
G36*
X120669D02*
X115551D01*
Y75787D01*
X120669D01*
Y70669D01*
D02*
G37*
G36*
X56988Y47047D02*
X51870D01*
Y51378D01*
X56988D01*
Y47047D01*
D02*
G37*
G36*
X32972Y45472D02*
X27854D01*
Y52953D01*
X32972D01*
Y45472D01*
D02*
G37*
D35*
X85827Y66831D02*
D03*
X78347D02*
D03*
X85827Y55807D02*
D03*
X82087D02*
D03*
X78347D02*
D03*
D36*
X38386Y12944D02*
D03*
X40354D02*
D03*
X42323D02*
D03*
X44291D02*
D03*
X38386Y24362D02*
D03*
X40354D02*
D03*
X42323D02*
D03*
X44291D02*
D03*
D37*
X49449Y5118D02*
D03*
X43268D02*
D03*
X29587Y5020D02*
D03*
X35768D02*
D03*
X109508Y91535D02*
D03*
X115689D02*
D03*
X177087Y64173D02*
D03*
X183268D02*
D03*
D38*
X111417Y83268D02*
D03*
Y81299D02*
D03*
Y79331D02*
D03*
Y77362D02*
D03*
Y75394D02*
D03*
Y73425D02*
D03*
Y71457D02*
D03*
Y69488D02*
D03*
X131102D02*
D03*
Y71457D02*
D03*
Y73425D02*
D03*
Y75394D02*
D03*
Y77362D02*
D03*
Y79331D02*
D03*
Y81299D02*
D03*
Y83268D02*
D03*
D39*
X114370Y66535D02*
D03*
X116339D02*
D03*
X118307D02*
D03*
X120276D02*
D03*
X122244D02*
D03*
X124213D02*
D03*
X126181D02*
D03*
X128150D02*
D03*
Y86221D02*
D03*
X126181D02*
D03*
X124213D02*
D03*
X122244D02*
D03*
X120276D02*
D03*
X118307D02*
D03*
X116339D02*
D03*
X114370D02*
D03*
D40*
X60434Y86221D02*
D03*
X39962D02*
D03*
D41*
X50198Y89765D02*
D03*
X50296Y83072D02*
D03*
D42*
X152250Y88602D02*
D03*
Y83602D02*
D03*
Y78602D02*
D03*
Y73602D02*
D03*
X182396D02*
D03*
Y78602D02*
D03*
Y83602D02*
D03*
Y88602D02*
D03*
D43*
X190748Y58071D02*
D03*
X183268D02*
D03*
X187008Y49803D02*
D03*
D44*
X198191Y25492D02*
D03*
Y21752D02*
D03*
Y18012D02*
D03*
X207321Y25492D02*
D03*
Y21752D02*
D03*
Y18012D02*
D03*
D45*
X65236Y23327D02*
D03*
X65256Y25886D02*
D03*
X65236Y28445D02*
D03*
Y31004D02*
D03*
X55236D02*
D03*
Y28445D02*
D03*
Y25886D02*
D03*
Y23327D02*
D03*
D46*
X80709Y47185D02*
D03*
Y35492D02*
D03*
X164469Y35370D02*
D03*
Y23677D02*
D03*
D47*
X227618Y38465D02*
D03*
X239311D02*
D03*
D48*
X183071Y25984D02*
D03*
Y40551D02*
D03*
D49*
X74213Y21339D02*
D03*
Y27874D02*
D03*
D50*
X6890Y38386D02*
D03*
Y47441D02*
D03*
X239567Y64764D02*
D03*
Y55709D02*
D03*
D51*
X21457Y42913D02*
D03*
X225000Y60236D02*
D03*
D52*
X140945Y84390D02*
D03*
Y78209D02*
D03*
X202915Y87736D02*
D03*
Y81555D02*
D03*
X176378Y55453D02*
D03*
Y49272D02*
D03*
X61811Y40551D02*
D03*
Y46732D02*
D03*
X69291D02*
D03*
Y40551D02*
D03*
X38484Y31260D02*
D03*
Y37441D02*
D03*
X198031Y11417D02*
D03*
Y5236D02*
D03*
X210630Y11417D02*
D03*
Y5236D02*
D03*
X204331Y11358D02*
D03*
Y5177D02*
D03*
X63090Y62087D02*
D03*
Y55905D02*
D03*
D53*
X77067Y79344D02*
D03*
Y83087D02*
D03*
X81595Y72853D02*
D03*
Y76596D02*
D03*
X72736Y89865D02*
D03*
Y86121D02*
D03*
D54*
X47736Y31505D02*
D03*
Y37886D02*
D03*
X32872Y37492D02*
D03*
Y31111D02*
D03*
X103543Y87754D02*
D03*
Y94135D02*
D03*
X83228Y88424D02*
D03*
Y94805D02*
D03*
X69784Y64430D02*
D03*
Y58048D02*
D03*
D55*
X10648Y56181D02*
D03*
X17029D02*
D03*
X203643Y31496D02*
D03*
X197262D02*
D03*
D56*
X89582Y84646D02*
D03*
Y93307D02*
D03*
X96275D02*
D03*
Y84646D02*
D03*
M02*
