G04*
G04 #@! TF.GenerationSoftware,Altium Limited,Altium Designer,20.2.4 (192)*
G04*
G04 Layer_Color=65535*
%FSLAX25Y25*%
%MOIN*%
G70*
G04*
G04 #@! TF.SameCoordinates,00526951-05BC-492D-B3B9-DF0584CCD128*
G04*
G04*
G04 #@! TF.FilePolarity,Positive*
G04*
G01*
G75*
%ADD10C,0.00512*%
%ADD11C,0.00787*%
%ADD12C,0.00394*%
%ADD13C,0.00400*%
%ADD14C,0.00433*%
%ADD15C,0.00500*%
%ADD16C,0.00300*%
%ADD17C,0.00315*%
%ADD18C,0.00402*%
%ADD19C,0.01000*%
%ADD20C,0.00591*%
%ADD21C,0.00323*%
%ADD22C,0.00600*%
%ADD23C,0.00984*%
%ADD24C,0.00276*%
G36*
X72441Y23819D02*
Y25394D01*
X75984D01*
Y23819D01*
X72441D01*
D02*
G37*
D10*
X40231Y56890D02*
G03*
X42721Y56890I1245J0D01*
G01*
D11*
X210205Y43148D02*
G03*
X202268Y43120I-4004J9804D01*
G01*
X202264Y43110D02*
X210207D01*
X89252Y56307D02*
X156752D01*
X89252Y17598D02*
Y56307D01*
X156752Y17598D02*
Y56307D01*
D12*
X47343Y24808D02*
G03*
X47343Y22830I0J-989D01*
G01*
Y19980D02*
Y27657D01*
X35335Y19980D02*
Y27657D01*
X169685Y87452D02*
X170078Y87846D01*
Y88633D01*
X169685Y89026D01*
X168111D01*
X167717Y88633D01*
Y87846D01*
X168111Y87452D01*
X169291Y85091D02*
Y86272D01*
X168898Y86665D01*
X168111D01*
X167717Y86272D01*
Y85091D01*
X169685Y84304D02*
X170078Y83910D01*
Y83123D01*
X169685Y82729D01*
X169291D01*
X168898Y83123D01*
Y83517D01*
Y83123D01*
X168504Y82729D01*
X168111D01*
X167717Y83123D01*
Y83910D01*
X168111Y84304D01*
X181890Y47244D02*
Y48819D01*
X181496Y49212D01*
X180709D01*
X180315Y48819D01*
Y47244D01*
X180709Y46851D01*
X181496D01*
X181103Y47638D02*
X181890Y46851D01*
X181496D02*
X181890Y47244D01*
X182677Y46851D02*
X183464D01*
X183071D01*
Y49212D01*
X182677Y48819D01*
X45079Y46799D02*
X44686Y47192D01*
X43898D01*
X43505Y46799D01*
Y45225D01*
X43898Y44831D01*
X44686D01*
X45079Y45225D01*
X47047Y44831D02*
X46260D01*
X45866Y45225D01*
Y46012D01*
X46260Y46405D01*
X47047D01*
X47441Y46012D01*
Y45618D01*
X45866D01*
X49802Y44831D02*
X48228D01*
X49802Y46405D01*
Y46799D01*
X49409Y47192D01*
X48621D01*
X48228Y46799D01*
X121949Y92913D02*
Y90945D01*
X122342Y90551D01*
X123129D01*
X123523Y90945D01*
Y92913D01*
X124310Y92519D02*
X124704Y92913D01*
X125491D01*
X125884Y92519D01*
Y92125D01*
X125491Y91732D01*
X125097D01*
X125491D01*
X125884Y91338D01*
Y90945D01*
X125491Y90551D01*
X124704D01*
X124310Y90945D01*
X53937Y66141D02*
X53544Y66535D01*
X52757D01*
X52363Y66141D01*
Y64567D01*
X52757Y64174D01*
X53544D01*
X53937Y64567D01*
X55905Y64174D02*
X55118D01*
X54725Y64567D01*
Y65354D01*
X55118Y65748D01*
X55905D01*
X56299Y65354D01*
Y64961D01*
X54725D01*
X57086Y64174D02*
X57873D01*
X57480D01*
Y66535D01*
X57086Y66141D01*
X39509Y60391D02*
Y58424D01*
X39902Y58030D01*
X40689D01*
X41083Y58424D01*
Y60391D01*
X43444D02*
X41870D01*
Y59211D01*
X42657Y59604D01*
X43051D01*
X43444Y59211D01*
Y58424D01*
X43051Y58030D01*
X42263D01*
X41870Y58424D01*
X34784Y39882D02*
Y42244D01*
X35965D01*
X36359Y41850D01*
Y41063D01*
X35965Y40669D01*
X34784D01*
X35572D02*
X36359Y39882D01*
X38326D02*
X37539D01*
X37146Y40276D01*
Y41063D01*
X37539Y41457D01*
X38326D01*
X38720Y41063D01*
Y40669D01*
X37146D01*
X39507Y39882D02*
X40294D01*
X39901D01*
Y42244D01*
X39507Y41850D01*
X34645Y25394D02*
X32677D01*
X32283Y25000D01*
Y24213D01*
X32677Y23819D01*
X34645D01*
Y21458D02*
X34251Y22245D01*
X33464Y23032D01*
X32677D01*
X32283Y22639D01*
Y21852D01*
X32677Y21458D01*
X33071D01*
X33464Y21852D01*
Y23032D01*
X93937Y60391D02*
X93149D01*
X93543D01*
Y58424D01*
X93149Y58030D01*
X92756D01*
X92362Y58424D01*
X94724Y57636D02*
X96298D01*
X97085Y60391D02*
Y58424D01*
X97479Y58030D01*
X98266D01*
X98659Y58424D01*
Y60391D01*
X101021Y59998D02*
X100627Y60391D01*
X99840D01*
X99446Y59998D01*
Y59604D01*
X99840Y59211D01*
X100627D01*
X101021Y58817D01*
Y58424D01*
X100627Y58030D01*
X99840D01*
X99446Y58424D01*
X101808Y60391D02*
Y58030D01*
X102989D01*
X103382Y58424D01*
Y58817D01*
X102989Y59211D01*
X101808D01*
X102989D01*
X103382Y59604D01*
Y59998D01*
X102989Y60391D01*
X101808D01*
X234645Y62599D02*
Y63386D01*
Y62993D01*
X232677D01*
X232283Y63386D01*
Y63780D01*
X232677Y64173D01*
X231890Y61812D02*
Y60237D01*
X234251Y57876D02*
X234645Y58270D01*
Y59057D01*
X234251Y59450D01*
X233858D01*
X233464Y59057D01*
Y58270D01*
X233071Y57876D01*
X232677D01*
X232283Y58270D01*
Y59057D01*
X232677Y59450D01*
X232283Y56695D02*
Y55908D01*
X232677Y55515D01*
X233464D01*
X233858Y55908D01*
Y56695D01*
X233464Y57089D01*
X232677D01*
X232283Y56695D01*
Y54728D02*
Y53940D01*
Y54334D01*
X234645D01*
Y54728D01*
X233858Y52366D02*
Y51579D01*
X233464Y51185D01*
X232283D01*
Y52366D01*
X232677Y52760D01*
X233071Y52366D01*
Y51185D01*
X233858Y50398D02*
X232283D01*
X233071D01*
X233464Y50005D01*
X233858Y49611D01*
Y49218D01*
X210630Y23621D02*
Y21653D01*
X211023Y21260D01*
X211811D01*
X212204Y21653D01*
Y23621D01*
X214566Y21260D02*
X212991D01*
X214566Y22834D01*
Y23228D01*
X214172Y23621D01*
X213385D01*
X212991Y23228D01*
X58536Y20767D02*
Y18799D01*
X58930Y18406D01*
X59717D01*
X60110Y18799D01*
Y20767D01*
X62078Y18406D02*
Y20767D01*
X60898Y19586D01*
X62472D01*
X175197Y67716D02*
Y70078D01*
X176378D01*
X176771Y69684D01*
Y68897D01*
X176378Y68504D01*
X175197D01*
X175984D02*
X176771Y67716D01*
X179133Y66929D02*
Y69291D01*
X177952D01*
X177558Y68897D01*
Y68110D01*
X177952Y67716D01*
X179133D01*
X179920D02*
X180707D01*
X180313D01*
Y70078D01*
X179920Y69684D01*
X213779Y12205D02*
X216141D01*
Y11024D01*
X215747Y10630D01*
X214960D01*
X214567Y11024D01*
Y12205D01*
Y11418D02*
X213779Y10630D01*
X216141Y9843D02*
X213779D01*
Y8663D01*
X214173Y8269D01*
X214567D01*
X214960D01*
X215354Y8663D01*
Y9843D01*
X213779Y5908D02*
Y7482D01*
X215354Y5908D01*
X215747D01*
X216141Y6301D01*
Y7088D01*
X215747Y7482D01*
X194882Y6102D02*
X192520D01*
Y7283D01*
X192914Y7677D01*
X193701D01*
X194095Y7283D01*
Y6102D01*
Y6889D02*
X194882Y7677D01*
X192520Y8464D02*
X194882D01*
Y9645D01*
X194488Y10038D01*
X194095D01*
X193701D01*
X193308Y9645D01*
Y8464D01*
X194882Y10825D02*
Y11612D01*
Y11219D01*
X192520D01*
X192914Y10825D01*
X59252Y46614D02*
Y48976D01*
X60433D01*
X60826Y48582D01*
Y47795D01*
X60433Y47401D01*
X59252D01*
X60039D02*
X60826Y46614D01*
X63188Y48976D02*
Y46614D01*
X62007D01*
X61613Y47008D01*
Y47795D01*
X62007Y48188D01*
X63188D01*
X65549Y46614D02*
X63975D01*
X65549Y48188D01*
Y48582D01*
X65156Y48976D01*
X64368D01*
X63975Y48582D01*
X52363Y46614D02*
Y48976D01*
X53544D01*
X53937Y48582D01*
Y47795D01*
X53544Y47401D01*
X52363D01*
X53150D02*
X53937Y46614D01*
X56299Y48976D02*
Y46614D01*
X55118D01*
X54725Y47008D01*
Y47795D01*
X55118Y48188D01*
X56299D01*
X57086Y46614D02*
X57873D01*
X57480D01*
Y48976D01*
X57086Y48582D01*
X79134Y27953D02*
X81495D01*
Y26772D01*
X81102Y26379D01*
X80315D01*
X79921Y26772D01*
Y27953D01*
Y27166D02*
X79134Y26379D01*
X80708Y24017D02*
Y25198D01*
X80315Y25591D01*
X79527D01*
X79134Y25198D01*
Y24017D01*
X81102Y21656D02*
X81495Y22049D01*
Y22836D01*
X81102Y23230D01*
X80708D01*
X80315Y22836D01*
Y22049D01*
X79921Y21656D01*
X79527D01*
X79134Y22049D01*
Y22836D01*
X79527Y23230D01*
X175059Y21653D02*
Y19291D01*
X176633D01*
X177420Y21653D02*
Y19291D01*
X178601D01*
X178995Y19685D01*
Y20078D01*
Y20472D01*
X178601Y20866D01*
X177420D01*
X93937Y97095D02*
X93149D01*
X93543D01*
Y95127D01*
X93149Y94733D01*
X92756D01*
X92362Y95127D01*
X94724Y94340D02*
X96298D01*
X97085Y97095D02*
Y95127D01*
X97479Y94733D01*
X98266D01*
X98659Y95127D01*
Y97095D01*
X99446Y94733D02*
Y96307D01*
X100234Y97095D01*
X101021Y96307D01*
Y94733D01*
Y95914D01*
X99446D01*
X101808Y94733D02*
Y97095D01*
X102989D01*
X103382Y96701D01*
Y95914D01*
X102989Y95520D01*
X101808D01*
X102595D02*
X103382Y94733D01*
X104169Y97095D02*
X105744D01*
X104956D01*
Y94733D01*
X5511Y55511D02*
X4724D01*
X5118D01*
Y53543D01*
X4724Y53150D01*
X4331D01*
X3937Y53543D01*
X6298Y52756D02*
X7873D01*
X10234Y55511D02*
X9447D01*
X9841D01*
Y53543D01*
X9447Y53150D01*
X9053D01*
X8660Y53543D01*
X11021Y54724D02*
Y53543D01*
X11415Y53150D01*
X12596D01*
Y54724D01*
X13383Y53150D02*
Y54724D01*
X13776D01*
X14170Y54330D01*
Y53150D01*
Y54330D01*
X14563Y54724D01*
X14957Y54330D01*
Y53150D01*
X15744Y52363D02*
Y54724D01*
X16925D01*
X17319Y54330D01*
Y53543D01*
X16925Y53150D01*
X15744D01*
X19286D02*
X18499D01*
X18106Y53543D01*
Y54330D01*
X18499Y54724D01*
X19286D01*
X19680Y54330D01*
Y53937D01*
X18106D01*
X20467Y54724D02*
Y53150D01*
Y53937D01*
X20861Y54330D01*
X21254Y54724D01*
X21648D01*
X200787Y67716D02*
Y65354D01*
X201968D01*
X202362Y65748D01*
Y67322D01*
X201968Y67716D01*
X200787D01*
X203149Y64961D02*
X204723D01*
X205510Y67716D02*
Y65354D01*
X207085D01*
X209446Y67716D02*
X207872D01*
Y65354D01*
X209446D01*
X207872Y66535D02*
X208659D01*
X210233Y67716D02*
Y65354D01*
X211414D01*
X211807Y65748D01*
Y67322D01*
X211414Y67716D01*
X210233D01*
X122048Y59448D02*
X121654Y59055D01*
Y58268D01*
X122048Y57874D01*
X123622D01*
X124016Y58268D01*
Y59055D01*
X123622Y59448D01*
X122441Y61810D02*
Y60629D01*
X122835Y60236D01*
X123622D01*
X124016Y60629D01*
Y61810D01*
Y64171D02*
Y62597D01*
X122441Y64171D01*
X122048D01*
X121654Y63778D01*
Y62990D01*
X122048Y62597D01*
X153936Y61812D02*
X154330Y62205D01*
Y62992D01*
X153936Y63386D01*
X152362D01*
X151969Y62992D01*
Y62205D01*
X152362Y61812D01*
X153543Y59450D02*
Y60631D01*
X153149Y61024D01*
X152362D01*
X151969Y60631D01*
Y59450D01*
Y58663D02*
Y57876D01*
Y58269D01*
X154330D01*
X153936Y58663D01*
X162598Y41732D02*
X162204Y42125D01*
X161417D01*
X161024Y41732D01*
Y40157D01*
X161417Y39764D01*
X162204D01*
X162598Y40157D01*
X163385Y42125D02*
Y39764D01*
X164566D01*
X164959Y40157D01*
Y40551D01*
Y40944D01*
X164566Y41338D01*
X163385D01*
X165746Y41732D02*
X166140Y42125D01*
X166927D01*
X167321Y41732D01*
Y41338D01*
X166927Y40944D01*
X166534D01*
X166927D01*
X167321Y40551D01*
Y40157D01*
X166927Y39764D01*
X166140D01*
X165746Y40157D01*
X198425Y37007D02*
X198031Y37401D01*
X197244D01*
X196850Y37007D01*
Y35433D01*
X197244Y35039D01*
X198031D01*
X198425Y35433D01*
X199212Y37401D02*
Y35039D01*
X200393D01*
X200786Y35433D01*
Y35827D01*
Y36220D01*
X200393Y36614D01*
X199212D01*
X203148Y35039D02*
X201573D01*
X203148Y36614D01*
Y37007D01*
X202754Y37401D01*
X201967D01*
X201573Y37007D01*
X221260Y37401D02*
X220867Y37007D01*
Y36220D01*
X221260Y35827D01*
X222835D01*
X223228Y36220D01*
Y37007D01*
X222835Y37401D01*
X220867Y38188D02*
X223228D01*
Y39369D01*
X222835Y39762D01*
X222441D01*
X222048D01*
X221654Y39369D01*
Y38188D01*
X223228Y40550D02*
Y41337D01*
Y40943D01*
X220867D01*
X221260Y40550D01*
X38582Y5905D02*
X38189Y6298D01*
X37401D01*
X37008Y5905D01*
Y4331D01*
X37401Y3937D01*
X38189D01*
X38582Y4331D01*
X40944Y6298D02*
Y3937D01*
X39763D01*
X39369Y4331D01*
Y5118D01*
X39763Y5511D01*
X40944D01*
X41731Y3937D02*
X42518D01*
X42124D01*
Y6298D01*
X41731Y5905D01*
X77952Y53936D02*
X77559Y54330D01*
X76771D01*
X76378Y53936D01*
Y52362D01*
X76771Y51968D01*
X77559D01*
X77952Y52362D01*
X78739Y54330D02*
Y51968D01*
X79920D01*
X80314Y52362D01*
Y52756D01*
Y53149D01*
X79920Y53543D01*
X78739D01*
X81101D02*
Y52362D01*
X81494Y51968D01*
X82675D01*
Y53543D01*
X83462Y51968D02*
X84643D01*
X85037Y52362D01*
X84643Y52756D01*
X83856D01*
X83462Y53149D01*
X83856Y53543D01*
X85037D01*
D13*
X203556Y15846D02*
G03*
X201956Y15846I-800J0D01*
G01*
X61436Y21265D02*
G03*
X59036Y21265I-1200J0D01*
G01*
X200787Y57874D02*
Y59183D01*
Y57874D02*
X202264D01*
X199311Y57953D02*
X202264D01*
X200787D02*
X202264D01*
X200787D02*
Y59262D01*
Y56604D02*
Y59262D01*
Y46604D02*
Y49262D01*
X188681Y50886D02*
X192323D01*
Y55020D01*
X184941Y56004D02*
X187894D01*
X180512Y50886D02*
X184153D01*
X180512D02*
Y55020D01*
X199409Y27657D02*
X206102D01*
X199409Y15846D02*
X206102D01*
X58536Y21265D02*
X59036D01*
X61436D01*
X61936D01*
X57036Y33165D02*
X63436D01*
X5512Y41063D02*
X14961D01*
X5512D02*
Y46063D01*
X14961D01*
Y41063D02*
Y46063D01*
X5512Y47807D02*
Y51083D01*
X14961Y47756D02*
Y51083D01*
X5512D02*
X14961D01*
X107362Y85878D02*
X112362D01*
Y91878D01*
X92362D02*
X112362D01*
X92362Y85878D02*
Y91878D01*
Y85878D02*
X112362D01*
X107362D02*
Y91878D01*
X102362Y85878D02*
Y91878D01*
X97362Y85878D02*
Y91878D01*
X230777Y63174D02*
X231027Y63424D01*
Y63923D01*
X230777Y64173D01*
X230527D01*
X230277Y63923D01*
Y63424D01*
X230027Y63174D01*
X229778D01*
X229528Y63424D01*
Y63923D01*
X229778Y64173D01*
X229528Y62424D02*
Y61924D01*
X229778Y61674D01*
X230277D01*
X230527Y61924D01*
Y62424D01*
X230277Y62674D01*
X229778D01*
X229528Y62424D01*
Y61174D02*
Y60674D01*
Y60924D01*
X231027D01*
Y61174D01*
X230527Y59675D02*
Y59175D01*
X230277Y58925D01*
X229528D01*
Y59675D01*
X229778Y59925D01*
X230027Y59675D01*
Y58925D01*
X230527Y58425D02*
X229528D01*
X230027D01*
X230277Y58175D01*
X230527Y57925D01*
Y57675D01*
X229528Y56925D02*
X231027D01*
Y56176D01*
X230777Y55926D01*
X230277D01*
X230027Y56176D01*
Y56925D01*
X230527Y55176D02*
Y54676D01*
X230277Y54426D01*
X229528D01*
Y55176D01*
X229778Y55426D01*
X230027Y55176D01*
Y54426D01*
X229528Y53926D02*
X230527D01*
Y53177D01*
X230277Y52927D01*
X229528D01*
Y51677D02*
Y52177D01*
X229778Y52427D01*
X230277D01*
X230527Y52177D01*
Y51677D01*
X230277Y51427D01*
X230027D01*
Y52427D01*
X229528Y50928D02*
Y50428D01*
Y50678D01*
X231027D01*
Y50928D01*
D14*
X37539Y49016D02*
X45413D01*
X37539Y56890D02*
X45413D01*
D15*
X165748Y83307D02*
Y87559D01*
X154724Y83307D02*
Y87559D01*
X54587Y62360D02*
X56358D01*
X54587Y59211D02*
X56358D01*
X48425Y37697D02*
Y39469D01*
X45276Y37697D02*
Y39469D01*
X144685Y62303D02*
X146457D01*
X144685Y59153D02*
X146457D01*
X89252Y17598D02*
X156752D01*
X39183Y7874D02*
X40955D01*
X39183Y11024D02*
X40955D01*
X129429Y59153D02*
X131201D01*
X129429Y62303D02*
X131201D01*
X148327Y73999D02*
Y88599D01*
X147146Y73999D02*
X148327D01*
X143209Y88599D02*
X148327D01*
X121949Y73999D02*
X123130D01*
X121949D02*
Y88599D01*
X127067D01*
X86221Y39213D02*
Y43465D01*
X75197Y39213D02*
Y43465D01*
X231339Y43976D02*
X235591D01*
X231339Y32953D02*
X235591D01*
X169980Y27398D02*
Y31650D01*
X158957Y27398D02*
Y31650D01*
X192913Y23425D02*
Y43110D01*
X191732Y23425D02*
X192913D01*
X191929Y43110D02*
X192913D01*
X173228Y23425D02*
Y43110D01*
X174409D01*
X173228Y23425D02*
X174213D01*
X70472Y18406D02*
Y30807D01*
Y18406D02*
X77953D01*
Y30807D01*
X70472D02*
X77953D01*
X199567Y29921D02*
X201339D01*
X199567Y33071D02*
X201339D01*
D16*
X166736Y76133D02*
Y94733D01*
X153736Y76133D02*
X166736D01*
X153736D02*
Y94733D01*
X166736D01*
X50157Y58226D02*
Y63345D01*
Y58226D02*
X60787D01*
Y63345D01*
X50157D02*
X60787D01*
X44291Y43898D02*
X49409D01*
X44291Y33268D02*
Y43898D01*
Y33268D02*
X49409D01*
Y43898D01*
X42717Y34076D02*
Y38800D01*
X32480D02*
X42717D01*
X32480Y34076D02*
Y38800D01*
Y34076D02*
X42717D01*
X140256Y58169D02*
Y63287D01*
Y58169D02*
X150886D01*
Y63287D01*
X140256D02*
X150886D01*
X45384Y6890D02*
Y12008D01*
X34754D02*
X45384D01*
X34754Y6890D02*
Y12008D01*
Y6890D02*
X45384D01*
X135630Y58169D02*
Y63287D01*
X125000D02*
X135630D01*
X125000Y58169D02*
Y63287D01*
Y58169D02*
X135630D01*
X74209Y32039D02*
X87209D01*
Y50639D01*
X74209D02*
X87209D01*
X74209Y32039D02*
Y50639D01*
X224165Y44965D02*
X242765D01*
Y31965D02*
Y44965D01*
X224165Y31965D02*
X242765D01*
X224165D02*
Y44965D01*
X157968Y20224D02*
X170968D01*
Y38824D01*
X157968D02*
X170968D01*
X157968Y20224D02*
Y38824D01*
X57835Y35433D02*
Y45669D01*
X53110Y35433D02*
X57835D01*
X53110D02*
Y45669D01*
X57835D01*
X59350D02*
X64075D01*
X59350Y35433D02*
Y45669D01*
Y35433D02*
X64075D01*
Y45669D01*
X195669Y13445D02*
X200394D01*
X195669Y3209D02*
Y13445D01*
Y3209D02*
X200394D01*
Y13445D01*
X208268Y3209D02*
Y13445D01*
X212992D01*
Y3209D02*
Y13445D01*
X208268Y3209D02*
X212992D01*
X201969Y13386D02*
X206693D01*
X201969Y3150D02*
Y13386D01*
Y3150D02*
X206693D01*
Y13386D01*
X175059Y61811D02*
X185295D01*
X175059D02*
Y66535D01*
X185295D01*
Y61811D02*
Y66535D01*
X195138Y34055D02*
X205768D01*
Y28937D02*
Y34055D01*
X195138Y28937D02*
X205768D01*
X195138D02*
Y34055D01*
X114462Y91878D02*
X113129D01*
X112862Y91611D01*
Y91078D01*
X113129Y90812D01*
X114462D01*
X112862Y90279D02*
X113928D01*
X114462Y89745D01*
X113928Y89212D01*
X112862D01*
X113662D01*
Y90279D01*
X112862Y88679D02*
X114462D01*
Y87879D01*
X114195Y87613D01*
X113662D01*
X113395Y87879D01*
Y88679D01*
Y88146D02*
X112862Y87613D01*
X114462Y87080D02*
Y86013D01*
Y86546D01*
X112862D01*
X111362Y82803D02*
X111162Y82604D01*
X110762D01*
X110563Y82803D01*
Y83003D01*
X110762Y83203D01*
X110962D01*
X110762D01*
X110563Y83403D01*
Y83603D01*
X110762Y83803D01*
X111162D01*
X111362Y83603D01*
X110163Y82604D02*
Y83403D01*
X109763Y83803D01*
X109363Y83403D01*
Y82604D01*
X108963Y82803D02*
X108763Y82604D01*
X108363D01*
X108163Y82803D01*
Y83003D01*
X108363Y83203D01*
X108563D01*
X108363D01*
X108163Y83403D01*
Y83603D01*
X108363Y83803D01*
X108763D01*
X108963Y83603D01*
X105862Y82604D02*
X105062D01*
X105462D01*
Y83803D01*
X104663Y83003D02*
X103863Y83803D01*
X104263Y83403D01*
X103863Y83003D01*
X104663Y83803D01*
X100862D02*
Y82604D01*
X100262D01*
X100063Y82803D01*
Y83203D01*
X100262Y83403D01*
X100862D01*
X100462D02*
X100063Y83803D01*
X99663Y83003D02*
X98863Y83803D01*
X99263Y83403D01*
X98863Y83003D01*
X99663Y83803D01*
X95562Y82803D02*
X95762Y82604D01*
X96162D01*
X96362Y82803D01*
Y83603D01*
X96162Y83803D01*
X95762D01*
X95562Y83603D01*
Y83203D01*
X95962D01*
X95163Y83803D02*
Y82604D01*
X94363Y83803D01*
Y82604D01*
X93963D02*
Y83803D01*
X93363D01*
X93163Y83603D01*
Y82803D01*
X93363Y82604D01*
X93963D01*
D17*
X5512Y46063D02*
Y47807D01*
D18*
Y46063D02*
Y48898D01*
X14961Y46012D02*
Y48846D01*
D19*
X227362Y47736D02*
Y66240D01*
X219094D02*
X227362D01*
X219094Y47736D02*
Y66240D01*
Y47736D02*
X227362D01*
X219094Y56791D02*
X227362D01*
D20*
X34678Y90404D02*
Y86862D01*
X36449D01*
X37039Y87452D01*
Y88042D01*
X36449Y88633D01*
X34678D01*
X36449D01*
X37039Y89223D01*
Y89814D01*
X36449Y90404D01*
X34678D01*
X38811Y86862D02*
X39991D01*
X40582Y87452D01*
Y88633D01*
X39991Y89223D01*
X38811D01*
X38220Y88633D01*
Y87452D01*
X38811Y86862D01*
X41762Y89223D02*
X44124Y86862D01*
X42943Y88042D01*
X44124Y89223D01*
X41762Y86862D01*
X51208Y89814D02*
X50618Y90404D01*
X49437D01*
X48847Y89814D01*
Y89223D01*
X49437Y88633D01*
X50618D01*
X51208Y88042D01*
Y87452D01*
X50618Y86862D01*
X49437D01*
X48847Y87452D01*
X52389Y89223D02*
Y87452D01*
X52979Y86862D01*
X54750D01*
Y86272D01*
X54160Y85681D01*
X53570D01*
X54750Y86862D02*
Y89223D01*
X55931Y86862D02*
Y89223D01*
X57702D01*
X58292Y88633D01*
Y86862D01*
X61244D02*
X60063D01*
X59473Y87452D01*
Y88633D01*
X60063Y89223D01*
X61244D01*
X61835Y88633D01*
Y88042D01*
X59473D01*
X63015Y89223D02*
Y86862D01*
Y88042D01*
X63606Y88633D01*
X64196Y89223D01*
X64786D01*
X67738Y85681D02*
X68328D01*
X68919Y86272D01*
Y89223D01*
X67148D01*
X66557Y88633D01*
Y87452D01*
X67148Y86862D01*
X68919D01*
X70100Y89223D02*
Y87452D01*
X70690Y86862D01*
X72461D01*
Y86272D01*
X71871Y85681D01*
X71280D01*
X72461Y86862D02*
Y89223D01*
D21*
X2993Y42309D02*
Y41863D01*
Y42086D01*
X4108D01*
X4331Y41863D01*
Y41640D01*
X4108Y41417D01*
X3439Y42755D02*
X4108D01*
X4331Y42979D01*
Y43648D01*
X3439D01*
X4331Y44094D02*
X3439D01*
Y44317D01*
X3662Y44540D01*
X4331D01*
X3662D01*
X3439Y44763D01*
X3662Y44986D01*
X4331D01*
X4777Y45432D02*
X3439D01*
Y46101D01*
X3662Y46324D01*
X4108D01*
X4331Y46101D01*
Y45432D01*
Y47439D02*
Y46993D01*
X4108Y46770D01*
X3662D01*
X3439Y46993D01*
Y47439D01*
X3662Y47662D01*
X3885D01*
Y46770D01*
X3439Y48108D02*
X4331D01*
X3885D01*
X3662Y48331D01*
X3439Y48554D01*
Y48777D01*
D22*
X229952Y49262D02*
Y46596D01*
X231285Y47929D02*
X228619D01*
X229952Y68110D02*
Y65444D01*
D23*
X37236Y96802D02*
X36547Y97491D01*
X35170D01*
X34481Y96802D01*
Y96113D01*
X35170Y95424D01*
X36547D01*
X37236Y94736D01*
Y94047D01*
X36547Y93358D01*
X35170D01*
X34481Y94047D01*
X38614Y96113D02*
Y94047D01*
X39302Y93358D01*
X41369D01*
Y96113D01*
X42746Y93358D02*
Y96113D01*
X43435D01*
X44124Y95424D01*
Y93358D01*
Y95424D01*
X44812Y96113D01*
X45501Y95424D01*
Y93358D01*
X46879D02*
Y96113D01*
X47567D01*
X48256Y95424D01*
Y93358D01*
Y95424D01*
X48945Y96113D01*
X49634Y95424D01*
Y93358D01*
X51011D02*
X52389D01*
X51700D01*
Y96113D01*
X51011D01*
X55144Y96802D02*
Y96113D01*
X54455D01*
X55832D01*
X55144D01*
Y94047D01*
X55832Y93358D01*
X57899D02*
X59965D01*
X60654Y94047D01*
X59965Y94736D01*
X58587D01*
X57899Y95424D01*
X58587Y96113D01*
X60654D01*
X62031Y97491D02*
X64786D01*
Y96802D01*
X62031Y94047D01*
Y93358D01*
X66164Y95424D02*
X68919D01*
X73051Y93358D02*
X70296D01*
X73051Y96113D01*
Y96802D01*
X72363Y97491D01*
X70985D01*
X70296Y96802D01*
X74429Y93358D02*
Y94047D01*
X75118D01*
Y93358D01*
X74429D01*
X77873Y96802D02*
X78561Y97491D01*
X79939D01*
X80628Y96802D01*
Y94047D01*
X79939Y93358D01*
X78561D01*
X77873Y94047D01*
Y96802D01*
X82005Y97491D02*
Y93358D01*
X84071D01*
X84760Y94047D01*
Y94736D01*
Y95424D01*
X84071Y96113D01*
X82005D01*
D24*
X201956Y1181D02*
Y2952D01*
X202841D01*
X203137Y2657D01*
Y2067D01*
X202841Y1771D01*
X201956D01*
X202546D02*
X203137Y1181D01*
X203727Y2952D02*
Y1181D01*
X204612D01*
X204908Y1476D01*
Y1771D01*
Y2067D01*
X204612Y2362D01*
X203727D01*
X205498Y2657D02*
X205793Y2952D01*
X206384D01*
X206679Y2657D01*
Y2362D01*
X206384Y2067D01*
X206088D01*
X206384D01*
X206679Y1771D01*
Y1476D01*
X206384Y1181D01*
X205793D01*
X205498Y1476D01*
M02*
