G04*
G04 #@! TF.GenerationSoftware,Altium Limited,Altium Designer,19.0.11 (319)*
G04*
G04 Layer_Physical_Order=2*
G04 Layer_Color=16711680*
%FSLAX25Y25*%
%MOIN*%
G70*
G01*
G75*
%ADD37R,0.02756X0.03543*%
%ADD52R,0.03543X0.02756*%
%ADD54R,0.03843X0.03000*%
%ADD55R,0.03000X0.03843*%
%ADD92C,0.01575*%
%ADD93C,0.02165*%
%ADD99C,0.01181*%
%ADD100C,0.00984*%
%ADD101C,0.01122*%
%ADD102C,0.01968*%
%ADD104C,0.03150*%
%ADD105C,0.01500*%
%ADD106C,0.01378*%
%ADD108O,0.05906X0.06299*%
%ADD109R,0.05118X0.06890*%
%ADD110R,0.04000X0.03150*%
%ADD111O,0.04000X0.03150*%
%ADD112O,0.03150X0.04000*%
%ADD113R,0.03150X0.04000*%
%ADD114C,0.05906*%
%ADD115R,0.05906X0.05906*%
%ADD116C,0.05118*%
%ADD117R,0.05118X0.05118*%
%ADD118C,0.27559*%
%ADD119C,0.02362*%
%ADD120C,0.01575*%
%ADD121R,0.05900X0.12900*%
%ADD122R,0.05900X0.03900*%
%ADD123C,0.01772*%
G36*
X245669Y92126D02*
X245669Y6398D01*
X239862Y591D01*
X191339Y591D01*
X191339Y12992D01*
X54921Y12992D01*
X54921Y591D01*
X6398D01*
X492Y6496D01*
X492Y92224D01*
X6299Y98032D01*
X30378Y98032D01*
X30417Y74508D01*
X70760Y74508D01*
X70760Y98228D01*
X239567D01*
X245669Y92126D01*
D02*
G37*
%LPC*%
G36*
X159547Y94316D02*
X114670D01*
X114171Y94217D01*
X113748Y93934D01*
X111562Y91748D01*
X111540Y91716D01*
X111349Y91588D01*
X111001Y91067D01*
X110879Y90453D01*
X111001Y89838D01*
X111349Y89317D01*
X111870Y88969D01*
X112484Y88847D01*
X113099Y88969D01*
X113620Y89317D01*
X113968Y89838D01*
X114090Y90453D01*
X114068Y90564D01*
X115211Y91707D01*
X116944D01*
X117218Y91207D01*
X117087Y90551D01*
X117188Y90047D01*
Y87885D01*
X117036Y87734D01*
X111909D01*
X111398Y88075D01*
X110630Y88227D01*
X109862Y88075D01*
X109211Y87640D01*
X108776Y86989D01*
X108623Y86221D01*
X108776Y85452D01*
X108861Y85325D01*
X108906Y85097D01*
X109155Y84725D01*
Y78857D01*
X108655Y78706D01*
X108604Y78782D01*
X107952Y79217D01*
X107184Y79370D01*
X106416Y79217D01*
X105765Y78782D01*
X105330Y78131D01*
X105177Y77363D01*
X105330Y76595D01*
X105765Y75944D01*
X105809Y75914D01*
Y75065D01*
X104559D01*
Y70490D01*
X109155D01*
Y68683D01*
X104559D01*
Y68048D01*
X104048D01*
X103543Y68149D01*
X103039Y68048D01*
X102315D01*
Y68131D01*
X96897D01*
Y68048D01*
X90158D01*
X89428Y67903D01*
X88809Y67490D01*
X85824Y64505D01*
X72047D01*
X71318Y64360D01*
X70699Y63947D01*
X59840Y53088D01*
X54330D01*
Y56313D01*
X46855D01*
Y41838D01*
X50553D01*
Y41575D01*
X50698Y40846D01*
X51111Y40227D01*
X51538Y39800D01*
Y38691D01*
X51536Y38681D01*
X51538Y38671D01*
Y38583D01*
X51637Y38088D01*
Y24337D01*
X49993Y22693D01*
X49565Y22408D01*
X49130Y21757D01*
X48977Y20989D01*
X49130Y20220D01*
X49565Y19569D01*
X50216Y19134D01*
X50984Y18981D01*
X51752Y19134D01*
X52403Y19569D01*
X52689Y19997D01*
X54892Y22199D01*
X55305Y22818D01*
X55450Y23548D01*
X55450Y23548D01*
Y38177D01*
X55550Y38681D01*
X55398Y39449D01*
X55352Y39518D01*
Y40590D01*
X55206Y41319D01*
X54793Y41938D01*
X54366Y42365D01*
Y46558D01*
X54330Y46742D01*
Y49274D01*
X60630D01*
X61009Y49350D01*
X61043Y49327D01*
X61811Y49174D01*
X62316Y49274D01*
X68787D01*
X69291Y49174D01*
X69607Y49237D01*
X70884D01*
X71655Y48466D01*
Y48384D01*
X66368Y43098D01*
X65955Y42479D01*
X65810Y41750D01*
Y34439D01*
X65111D01*
X64381Y34293D01*
X63762Y33880D01*
X58926Y29043D01*
X58512Y28425D01*
X58367Y27695D01*
Y26284D01*
X58229Y25591D01*
X58382Y24823D01*
X58817Y24171D01*
X59468Y23736D01*
X60236Y23584D01*
X61004Y23736D01*
X61655Y24171D01*
X62090Y24823D01*
X62243Y25591D01*
X62181Y25906D01*
Y26905D01*
X65900Y30625D01*
X69719D01*
Y28984D01*
X74294D01*
Y34402D01*
X71773D01*
X71589Y34439D01*
X69623D01*
Y40960D01*
X71155Y42491D01*
X71655Y42284D01*
Y37288D01*
X79129D01*
Y37569D01*
X82240D01*
Y30663D01*
X82192Y30591D01*
X82039Y29823D01*
X82192Y29055D01*
X82627Y28404D01*
X83278Y27968D01*
X84046Y27816D01*
X84814Y27968D01*
X85465Y28404D01*
X85900Y29055D01*
X86053Y29823D01*
X85900Y30591D01*
X85852Y30663D01*
Y38627D01*
X85970Y39220D01*
Y41385D01*
X86951D01*
Y46804D01*
X82376D01*
Y43589D01*
X82358Y43495D01*
Y41182D01*
X79129D01*
Y42763D01*
X72133D01*
X71926Y43263D01*
X75001Y46338D01*
X79129D01*
Y48466D01*
X79210Y48546D01*
X80756D01*
Y48065D01*
X86174D01*
Y52640D01*
X80756D01*
Y52359D01*
X78420D01*
X77690Y52214D01*
X77089Y51813D01*
X73701D01*
X73022Y52492D01*
X72404Y52905D01*
X71674Y53050D01*
X69985D01*
X69291Y53188D01*
X68787Y53088D01*
X65886D01*
X65695Y53550D01*
X72837Y60692D01*
X86614D01*
X87344Y60837D01*
X87962Y61250D01*
X90947Y64235D01*
X96897D01*
Y63556D01*
X102315D01*
Y64235D01*
X103039D01*
X103543Y64135D01*
X104048Y64235D01*
X104559D01*
Y64109D01*
X109977D01*
Y64235D01*
X110543D01*
Y63895D01*
X115416D01*
Y61101D01*
X115316Y60597D01*
X115469Y59829D01*
X115904Y59178D01*
X116555Y58742D01*
X117323Y58590D01*
X118091Y58742D01*
X118414Y58958D01*
X118865Y58664D01*
X119018Y57896D01*
X119367Y57374D01*
Y54185D01*
X115748D01*
X115596Y54685D01*
X115888Y54880D01*
X116323Y55531D01*
X116476Y56299D01*
X116323Y57067D01*
X115888Y57718D01*
X115237Y58153D01*
X114469Y58306D01*
X113700Y58153D01*
X113049Y57718D01*
X112973Y57604D01*
X111479D01*
X107984Y61098D01*
X108011Y61234D01*
X107858Y62002D01*
X107423Y62653D01*
X106772Y63088D01*
X106004Y63241D01*
X105236Y63088D01*
X104585Y62653D01*
X104150Y62002D01*
X103997Y61234D01*
X104150Y60465D01*
X104585Y59814D01*
X105236Y59379D01*
X106004Y59226D01*
X106139Y59253D01*
X110016Y55377D01*
X110439Y55094D01*
X110938Y54995D01*
X112973D01*
X113049Y54880D01*
X113700Y54445D01*
X114427Y54300D01*
X114471Y54289D01*
X114880Y53864D01*
Y48767D01*
X119454D01*
Y50082D01*
X119474Y50086D01*
X119962Y50412D01*
X121936Y52386D01*
X122263Y52875D01*
X122370Y53416D01*
X124567D01*
Y52264D01*
X128898D01*
Y57382D01*
X124567D01*
Y56427D01*
X122377D01*
Y57374D01*
X122726Y57896D01*
X122879Y58664D01*
X122726Y59432D01*
X122291Y60084D01*
X121640Y60519D01*
X120872Y60671D01*
X120104Y60519D01*
X119781Y60303D01*
X119330Y60597D01*
X119229Y61101D01*
Y64629D01*
X126920D01*
X127027Y64173D01*
X127028Y64129D01*
Y63189D01*
X126350D01*
X126321Y63233D01*
X125670Y63668D01*
X124902Y63821D01*
X124134Y63668D01*
X123482Y63233D01*
X123047Y62582D01*
X122895Y61814D01*
X123047Y61046D01*
X123482Y60395D01*
X124134Y59960D01*
X124902Y59807D01*
X125670Y59960D01*
X126321Y60395D01*
X126350Y60439D01*
X127028D01*
Y59055D01*
X131358D01*
Y64173D01*
X130229D01*
X130180Y64673D01*
X130686Y64774D01*
X131304Y65187D01*
X132714Y66597D01*
X133467D01*
Y64173D01*
X133209D01*
Y59055D01*
X137539D01*
Y64173D01*
X137281D01*
Y66421D01*
X137766Y66906D01*
X138033Y67085D01*
X138319Y67512D01*
X140258Y69452D01*
X148321D01*
X148589Y68952D01*
X148343Y68583D01*
X148190Y67815D01*
X148217Y67680D01*
X144451Y63915D01*
X144169Y63491D01*
X144069Y62992D01*
Y59567D01*
X143955Y59490D01*
X143520Y58839D01*
X143367Y58071D01*
X143520Y57303D01*
X143955Y56652D01*
X144606Y56217D01*
X145374Y56064D01*
X146142Y56217D01*
X146793Y56652D01*
X147228Y57303D01*
X147381Y58071D01*
X147228Y58839D01*
X146793Y59490D01*
X146679Y59567D01*
Y62452D01*
X150062Y65835D01*
X150197Y65808D01*
X150965Y65961D01*
X151616Y66396D01*
X152051Y67047D01*
X152204Y67815D01*
X152051Y68583D01*
X151805Y68952D01*
X152072Y69452D01*
X159348D01*
X170342Y58457D01*
X170628Y58030D01*
X171279Y57595D01*
X172047Y57442D01*
X172815Y57595D01*
X173467Y58030D01*
X173901Y58681D01*
X174054Y59449D01*
X173901Y60217D01*
X173467Y60868D01*
X173039Y61154D01*
X165203Y68990D01*
X165394Y69452D01*
X165847D01*
X166576Y69597D01*
X167195Y70010D01*
X172247Y75062D01*
X173226D01*
X173275Y75012D01*
Y71489D01*
X178693D01*
Y76064D01*
X177523D01*
X177332Y76348D01*
X175364Y78317D01*
X174745Y78730D01*
X174016Y78875D01*
X173363D01*
Y84466D01*
X175593Y86696D01*
X183739D01*
X190145Y80290D01*
X190699Y79920D01*
X191352Y79790D01*
X204412D01*
X206034Y78167D01*
Y73654D01*
X205532D01*
Y72495D01*
X205031Y72344D01*
X204597Y72994D01*
X203815Y73516D01*
X202894Y73700D01*
X201972Y73516D01*
X201191Y72994D01*
X200669Y72213D01*
X200649Y72113D01*
X200139D01*
X200119Y72213D01*
X199597Y72994D01*
X198815Y73516D01*
X197894Y73700D01*
X196972Y73516D01*
X196191Y72994D01*
X195669Y72213D01*
X195485Y71291D01*
Y70441D01*
X195669Y69519D01*
X196191Y68738D01*
X196972Y68216D01*
X197894Y68032D01*
X198815Y68216D01*
X199597Y68738D01*
X200119Y69519D01*
X200139Y69620D01*
X200649D01*
X200669Y69519D01*
X201191Y68738D01*
X201972Y68216D01*
X202894Y68032D01*
X203815Y68216D01*
X204597Y68738D01*
X205031Y69389D01*
X205532Y69237D01*
Y68079D01*
X210256D01*
Y73654D01*
X209447D01*
Y78874D01*
X209317Y79527D01*
X208947Y80080D01*
X206324Y82702D01*
X205771Y83072D01*
X205118Y83202D01*
X192058D01*
X186026Y89234D01*
X186007Y89332D01*
X185593Y89951D01*
X184975Y90364D01*
X184245Y90509D01*
X175308D01*
X174803Y90609D01*
X174035Y90457D01*
X173384Y90022D01*
X173098Y89594D01*
X170108Y86604D01*
X169695Y85986D01*
X169550Y85256D01*
Y77758D01*
X165057Y73265D01*
X139469D01*
X138739Y73120D01*
X138120Y72707D01*
X135824Y70411D01*
X131924D01*
X131195Y70266D01*
X130576Y69852D01*
X129166Y68442D01*
X115961D01*
Y68470D01*
X112968D01*
Y83920D01*
X117826D01*
X118556Y84065D01*
X119174Y84478D01*
X120443Y85747D01*
X120443Y85747D01*
X120856Y86365D01*
X121001Y87095D01*
X121001Y87095D01*
Y90047D01*
X121102Y90551D01*
X120971Y91207D01*
X121245Y91707D01*
X159007D01*
X159656Y91058D01*
X159495Y90693D01*
X159423Y90584D01*
X158681Y90437D01*
X158030Y90002D01*
X157953Y89887D01*
X148836D01*
X148337Y89788D01*
X147913Y89505D01*
X144823Y86415D01*
X144540Y85992D01*
X144441Y85492D01*
Y80573D01*
X144326Y80497D01*
X143891Y79846D01*
X143739Y79078D01*
X143891Y78310D01*
X144326Y77658D01*
X144978Y77223D01*
X145746Y77071D01*
X146514Y77223D01*
X147165Y77658D01*
X147600Y78310D01*
X147753Y79078D01*
X147600Y79846D01*
X147165Y80497D01*
X147050Y80573D01*
Y84952D01*
X149376Y87278D01*
X157953D01*
X158030Y87164D01*
X158681Y86728D01*
X159449Y86576D01*
X160217Y86728D01*
X160499Y86917D01*
X160999Y86649D01*
Y85401D01*
X160466Y84868D01*
X159763Y84728D01*
X159112Y84293D01*
X158677Y83642D01*
X158524Y82874D01*
X158677Y82106D01*
X159112Y81455D01*
X159763Y81020D01*
X160531Y80867D01*
X161300Y81020D01*
X161951Y81455D01*
X162386Y82106D01*
X162539Y82874D01*
X162476Y83188D01*
X163226Y83938D01*
X163508Y84361D01*
X163608Y84861D01*
Y90256D01*
X163508Y90755D01*
X163226Y91178D01*
X160470Y93934D01*
X160047Y94217D01*
X159964Y94234D01*
X159547Y94316D01*
D02*
G37*
G36*
X213386Y64507D02*
X212618Y64354D01*
X212246Y64106D01*
X202224D01*
X202224Y64106D01*
X201610Y63983D01*
X201089Y63635D01*
X201089Y63635D01*
X194284Y56831D01*
X191437D01*
Y52500D01*
X196555D01*
Y54560D01*
X202889Y60894D01*
X212246D01*
X212618Y60646D01*
X213386Y60493D01*
X214154Y60646D01*
X214805Y61081D01*
X215240Y61732D01*
X215393Y62500D01*
X215240Y63268D01*
X214805Y63919D01*
X214154Y64354D01*
X213386Y64507D01*
D02*
G37*
G36*
X206398Y59556D02*
X205524Y59441D01*
X204710Y59104D01*
X204011Y58568D01*
X203474Y57869D01*
X203137Y57055D01*
X203022Y56181D01*
X203137Y55308D01*
X203474Y54493D01*
X204011Y53794D01*
X204710Y53258D01*
X205524Y52921D01*
X206398Y52806D01*
X207271Y52921D01*
X208085Y53258D01*
X208784Y53794D01*
X209321Y54493D01*
X209658Y55308D01*
X209773Y56181D01*
X209658Y57055D01*
X209321Y57869D01*
X208784Y58568D01*
X208085Y59104D01*
X207271Y59441D01*
X206398Y59556D01*
D02*
G37*
G36*
X126969Y47552D02*
X125992Y47423D01*
X125082Y47047D01*
X124301Y46447D01*
X123951Y45991D01*
X122112D01*
X121762Y46447D01*
X120981Y47047D01*
X120071Y47423D01*
X119095Y47552D01*
X118118Y47423D01*
X117208Y47047D01*
X116427Y46447D01*
X115828Y45666D01*
X115451Y44756D01*
X115322Y43780D01*
Y43386D01*
X115451Y42410D01*
X115828Y41500D01*
X116427Y40718D01*
X117208Y40119D01*
X118118Y39742D01*
X119095Y39613D01*
X120071Y39742D01*
X120981Y40119D01*
X121762Y40718D01*
X122112Y41174D01*
X123951D01*
X124301Y40718D01*
X125082Y40119D01*
X125992Y39742D01*
X126969Y39613D01*
X127945Y39742D01*
X128855Y40119D01*
X129636Y40718D01*
X130236Y41500D01*
X130612Y42410D01*
X130741Y43386D01*
Y43780D01*
X130612Y44756D01*
X130236Y45666D01*
X129636Y46447D01*
X128855Y47047D01*
X127945Y47423D01*
X126969Y47552D01*
D02*
G37*
G36*
X166567Y48169D02*
X160992D01*
Y43445D01*
X166567D01*
Y48169D01*
D02*
G37*
G36*
X209744Y49528D02*
X203051D01*
Y42835D01*
X209744D01*
Y49528D01*
D02*
G37*
G36*
X136811Y47552D02*
X135835Y47423D01*
X134925Y47047D01*
X134143Y46447D01*
X133544Y45666D01*
X133167Y44756D01*
X133039Y43780D01*
Y43386D01*
X133167Y42410D01*
X133544Y41500D01*
X134143Y40718D01*
X134925Y40119D01*
X135835Y39742D01*
X136811Y39613D01*
X137787Y39742D01*
X138697Y40119D01*
X139479Y40718D01*
X140078Y41500D01*
X140455Y42410D01*
X140583Y43386D01*
Y43780D01*
X140455Y44756D01*
X140078Y45666D01*
X139479Y46447D01*
X138697Y47047D01*
X137787Y47423D01*
X136811Y47552D01*
D02*
G37*
G36*
X217717Y43654D02*
X216740Y43526D01*
X215830Y43149D01*
X215049Y42549D01*
X214450Y41768D01*
X214073Y40858D01*
X213944Y39882D01*
X214073Y38906D01*
X214450Y37996D01*
X215049Y37214D01*
X215830Y36615D01*
X216740Y36238D01*
X217717Y36110D01*
X218693Y36238D01*
X219603Y36615D01*
X220384Y37214D01*
X220984Y37996D01*
X221360Y38906D01*
X221489Y39882D01*
X221360Y40858D01*
X220984Y41768D01*
X220384Y42549D01*
X219603Y43149D01*
X218693Y43526D01*
X217717Y43654D01*
D02*
G37*
G36*
X196555Y50650D02*
X191437D01*
Y46319D01*
X192390D01*
Y26157D01*
X188647Y22414D01*
X188208Y22327D01*
X187557Y21892D01*
X187122Y21240D01*
X186969Y20472D01*
X187122Y19704D01*
X187557Y19053D01*
X188208Y18618D01*
X188976Y18465D01*
X189744Y18618D01*
X190396Y19053D01*
X190831Y19704D01*
X190918Y20143D01*
X195131Y24357D01*
X195480Y24878D01*
X195602Y25492D01*
X195602Y25492D01*
Y46319D01*
X196555D01*
Y50650D01*
D02*
G37*
G36*
X106437Y56549D02*
X102106D01*
Y51431D01*
X103455D01*
Y50256D01*
X103570Y49680D01*
X103896Y49191D01*
X104269Y48819D01*
X101396Y45946D01*
X101070Y45458D01*
X100955Y44882D01*
Y39502D01*
X98294Y36840D01*
X92224D01*
X91648Y36725D01*
X91160Y36399D01*
X88503Y33742D01*
X88176Y33253D01*
X88062Y32677D01*
Y27789D01*
X85794Y25521D01*
X69526D01*
X68950Y25407D01*
X68461Y25080D01*
X63095Y19714D01*
X55216D01*
X54641Y19599D01*
X54152Y19273D01*
X52526Y17647D01*
X47906D01*
X47330Y17532D01*
X46841Y17206D01*
X43100Y13465D01*
X42774Y12977D01*
X42660Y12401D01*
Y10345D01*
X42597Y10252D01*
X41994Y10184D01*
X41763Y10398D01*
Y20989D01*
X46195Y25421D01*
X46634Y25508D01*
X47285Y25943D01*
X47720Y26594D01*
X47873Y27362D01*
X47720Y28130D01*
X47285Y28781D01*
X46634Y29217D01*
X46550Y29233D01*
X36120Y39663D01*
X35534Y40055D01*
X34843Y40192D01*
X28694D01*
X28622Y40240D01*
X27854Y40393D01*
X27086Y40240D01*
X26435Y39805D01*
X26000Y39154D01*
X25847Y38386D01*
X26000Y37618D01*
X26435Y36967D01*
X27086Y36531D01*
X27854Y36379D01*
X28622Y36531D01*
X28694Y36579D01*
X34094D01*
X43453Y27220D01*
X39022Y22789D01*
X38674Y22268D01*
X38552Y21654D01*
X38552Y21654D01*
Y10097D01*
X38303Y9725D01*
X38150Y8957D01*
X38303Y8189D01*
X38738Y7537D01*
X38770Y7516D01*
X38648Y6996D01*
X38049Y6596D01*
X37614Y5945D01*
X37461Y5177D01*
X37614Y4409D01*
X38049Y3758D01*
X38700Y3323D01*
X39469Y3170D01*
X40237Y3323D01*
X40888Y3758D01*
X41323Y4409D01*
X41476Y5177D01*
X41323Y5945D01*
X40888Y6596D01*
X40856Y6618D01*
X40978Y7137D01*
X41577Y7537D01*
X41894Y8013D01*
X42419Y8062D01*
X42472Y8046D01*
X42746Y7636D01*
X43397Y7201D01*
X44165Y7048D01*
X44933Y7201D01*
X45584Y7636D01*
X46019Y8287D01*
X46172Y9055D01*
X46019Y9823D01*
X45670Y10345D01*
Y11777D01*
X48529Y14636D01*
X53150D01*
X53726Y14751D01*
X54214Y15077D01*
X55840Y16703D01*
X63719D01*
X64295Y16818D01*
X64783Y17144D01*
X70149Y22511D01*
X86417D01*
X86993Y22625D01*
X87482Y22951D01*
X90631Y26101D01*
X90958Y26589D01*
X91072Y27165D01*
Y32054D01*
X92848Y33829D01*
X98917D01*
X99493Y33944D01*
X99982Y34270D01*
X103525Y37813D01*
X103851Y38302D01*
X103966Y38878D01*
Y44258D01*
X108157Y48449D01*
X108498Y48767D01*
Y48767D01*
X108499Y48767D01*
X113073D01*
Y54185D01*
X108498D01*
Y52871D01*
X108479Y52867D01*
X107991Y52541D01*
X106928Y51478D01*
X106466Y51669D01*
Y53301D01*
X106437Y53447D01*
Y56549D01*
D02*
G37*
%LPD*%
D37*
X132913Y54823D02*
D03*
X126732D02*
D03*
X98090Y53990D02*
D03*
X104272D02*
D03*
X135374Y61614D02*
D03*
X129193D02*
D03*
D52*
X193996Y48484D02*
D03*
Y54665D02*
D03*
D54*
X107268Y72777D02*
D03*
Y66396D02*
D03*
X99606Y59462D02*
D03*
Y65843D02*
D03*
X113252Y59802D02*
D03*
Y66183D02*
D03*
X83465Y56734D02*
D03*
Y50353D02*
D03*
X175984Y67395D02*
D03*
Y73777D02*
D03*
D55*
X117167Y51476D02*
D03*
X110786D02*
D03*
X78387Y31693D02*
D03*
X72006D02*
D03*
X91045Y44094D02*
D03*
X84664D02*
D03*
D92*
X142521Y38384D02*
X154200D01*
X160825D01*
X40157Y21654D02*
X45866Y27362D01*
X40157Y9350D02*
Y21654D01*
X193996Y25492D02*
Y48484D01*
X188976Y20472D02*
X193996Y25492D01*
X194390Y54665D02*
X202224Y62500D01*
X193996Y54665D02*
X194390D01*
X202224Y62500D02*
X213386D01*
X213537Y62349D01*
X160825Y38384D02*
X163248Y40807D01*
X163779D01*
D93*
X53543Y23548D02*
Y38681D01*
X50984Y20989D02*
X53543Y23548D01*
X20144Y15748D02*
X27102Y8789D01*
X31132D01*
X60236Y25591D02*
X60274Y25628D01*
X117323Y60597D02*
Y65521D01*
X60274Y27695D02*
X65111Y32532D01*
X71589D01*
X72106Y32015D01*
Y31693D02*
Y32015D01*
X111417Y66535D02*
X118337D01*
X103543Y66142D02*
X111024D01*
X90158D02*
X103543D01*
X60630Y51181D02*
X72047Y62598D01*
X53445Y38583D02*
Y40590D01*
X117323Y65521D02*
X118337Y66535D01*
X15748Y15748D02*
X20144D01*
X52460Y41575D02*
X53445Y40590D01*
X52460Y41575D02*
Y46558D01*
X50592Y48425D02*
X52460Y46558D01*
X175984Y73677D02*
Y75000D01*
X174016Y76968D02*
X175984Y75000D01*
X171457Y76968D02*
X174016D01*
X110668Y85827D02*
X117826D01*
X86614Y62598D02*
X90158Y66142D01*
X111024D02*
X111061Y66179D01*
X72047Y62598D02*
X86614D01*
X67716Y33071D02*
Y41750D01*
X60274Y25628D02*
Y27695D01*
X171457Y85256D02*
X174803Y88602D01*
X171457Y76968D02*
Y85256D01*
X165847Y71358D02*
X171457Y76968D01*
X119095Y87095D02*
Y90551D01*
X160138Y71358D02*
X165847D01*
X160138D02*
X172047Y59449D01*
X139469Y71358D02*
X160138D01*
X136614Y68504D02*
X139469Y71358D01*
X136614Y68451D02*
Y68504D01*
X135374Y67211D02*
X136614Y68451D01*
X135374Y61614D02*
Y67211D01*
X129956Y66535D02*
X131924Y68504D01*
X136614D01*
X118337Y66535D02*
X129956D01*
X74392Y48425D02*
X75392D01*
X52460Y51181D02*
X60630D01*
X78420Y50453D02*
X83465D01*
X76392Y48425D02*
X78420Y50453D01*
X15748Y15748D02*
Y46063D01*
X26378Y56693D01*
Y56746D01*
X27945Y58313D01*
X174803Y88602D02*
X184245D01*
X117826Y85827D02*
X119095Y87095D01*
X110668Y85827D02*
X111061Y85433D01*
Y66179D02*
Y85433D01*
Y66179D02*
X111417Y66535D01*
X67716Y41750D02*
X74392Y48425D01*
X50592Y49314D02*
X52460Y51181D01*
X50592Y48425D02*
Y49314D01*
X61811Y51181D02*
X69291D01*
X69329Y51143D01*
X71674D01*
X74392Y48425D01*
D99*
X216307Y68669D02*
X230315Y82677D01*
X177559Y59449D02*
Y64385D01*
X184747Y71572D01*
X94085Y94488D02*
X96998Y91575D01*
X83858Y94488D02*
X94085D01*
X83858Y87795D02*
Y94488D01*
Y87795D02*
X93169D01*
X162992Y80315D02*
X167323Y84646D01*
X160809Y80315D02*
X162992D01*
X156872Y76378D02*
X160809Y80315D01*
X125591Y76378D02*
X156872D01*
X167323Y84646D02*
Y94882D01*
X127441D02*
X167323D01*
X54734Y59055D02*
X57087Y56703D01*
X28687Y59055D02*
X54734D01*
X27945Y58313D02*
X28687Y59055D01*
X164156Y41184D02*
X167168D01*
X163779Y40807D02*
X164156Y41184D01*
X167168D02*
X169291Y43307D01*
Y51181D01*
X177559Y59449D01*
X167323Y94882D02*
X187837D01*
X213899Y23109D02*
X215816D01*
X223177Y15748D01*
X230315D01*
Y55000D02*
Y82677D01*
Y15748D02*
Y55000D01*
X234735Y50580D01*
X195512Y87207D02*
Y91575D01*
X217717Y92913D02*
X227953Y82677D01*
X230315D01*
X196850Y92913D02*
X217717D01*
X195512Y91575D02*
X196850Y92913D01*
X187837Y94882D02*
X195512Y87207D01*
X75392Y57475D02*
X76234Y56634D01*
X83465D01*
X87120D01*
X89764Y53990D01*
Y48893D02*
Y53990D01*
Y48893D02*
X90869Y47788D01*
Y44170D02*
Y47788D01*
Y44170D02*
X90945Y44094D01*
D100*
X110938Y56299D02*
X114469D01*
X106004Y61234D02*
X110938Y56299D01*
X114670Y93012D02*
X159547D01*
X112484Y90826D02*
X114670Y93012D01*
X112484Y90453D02*
Y90826D01*
X162303Y84861D02*
Y90256D01*
X160531Y83089D02*
X162303Y84861D01*
X160531Y82874D02*
Y83089D01*
X159547Y93012D02*
X162303Y90256D01*
X148836Y88583D02*
X159449D01*
X145746Y85492D02*
X148836Y88583D01*
X145746Y79078D02*
Y85492D01*
X145374Y62992D02*
X150197Y67815D01*
X145374Y58071D02*
Y62992D01*
D101*
X124902Y61814D02*
X128993D01*
X107184Y73744D02*
Y77363D01*
X106693Y73252D02*
X107184Y73744D01*
X106693Y73252D02*
X107268Y72677D01*
X128993Y61814D02*
X129193Y61614D01*
D102*
X75392Y39375D02*
X83773D01*
X84046Y39102D02*
X84164Y39220D01*
Y43495D01*
X84764Y44094D01*
X83773Y39375D02*
X84046Y39102D01*
Y29823D02*
Y39102D01*
X27854Y38386D02*
X34843D01*
X45866Y27362D01*
D104*
X119095Y43583D02*
X126969D01*
D105*
X213899Y23109D02*
X214961Y22047D01*
X211811Y25197D02*
X213899Y23109D01*
X214961Y8661D02*
Y22047D01*
D106*
X106398Y48819D02*
X109055Y51476D01*
X102461Y44882D02*
X106398Y48819D01*
X104961Y50256D02*
X106398Y48819D01*
X104961Y50256D02*
Y53301D01*
X104272Y53990D02*
X104961Y53301D01*
X120872Y54921D02*
Y58664D01*
Y53451D02*
Y54921D01*
X126634D01*
X126732Y54823D01*
X118898Y51476D02*
X120872Y53451D01*
X117067Y51476D02*
X118898D01*
X109055D02*
X110886D01*
X53150Y16142D02*
X55216Y18209D01*
X47906Y16142D02*
X53150D01*
X44165Y12401D02*
X47906Y16142D01*
X55216Y18209D02*
X63719D01*
X44165Y9055D02*
Y12401D01*
X63719Y18209D02*
X69526Y24016D01*
X86417D01*
X89567Y27165D01*
Y32677D01*
X92224Y35335D01*
X98917D01*
X102461Y38878D02*
Y44882D01*
X98917Y35335D02*
X102461Y38878D01*
D108*
X109252Y43583D02*
D03*
X119095D02*
D03*
X126969D02*
D03*
X136811D02*
D03*
D109*
X97835Y46102D02*
D03*
X148228D02*
D03*
X151181Y24606D02*
D03*
X94882D02*
D03*
D110*
X163779Y45807D02*
D03*
D111*
Y40807D02*
D03*
D112*
X192894Y70866D02*
D03*
X197894D02*
D03*
X202894D02*
D03*
D113*
X207894D02*
D03*
D114*
X217717Y39882D02*
D03*
D115*
Y49882D02*
D03*
D116*
X206398Y56181D02*
D03*
D117*
Y46181D02*
D03*
D118*
X230315Y82677D02*
D03*
Y15748D02*
D03*
X15748Y82677D02*
D03*
Y15748D02*
D03*
D119*
X25886Y52362D02*
D03*
X50984Y20989D02*
D03*
X39469Y5177D02*
D03*
X31132Y8789D02*
D03*
X58858Y21949D02*
D03*
X60236Y25591D02*
D03*
X120872Y58664D02*
D03*
X117323Y60597D02*
D03*
X124902Y61814D02*
D03*
X84046Y29823D02*
D03*
X114469Y56299D02*
D03*
X42913Y18799D02*
D03*
X45866Y27362D02*
D03*
X44165Y9055D02*
D03*
X40157Y8957D02*
D03*
X35827Y26476D02*
D03*
X27854Y38386D02*
D03*
X53543Y38681D02*
D03*
X102559Y84055D02*
D03*
X105118D02*
D03*
X107677D02*
D03*
X110630Y86221D02*
D03*
X103150Y77008D02*
D03*
X102165Y74803D02*
D03*
X107184Y77363D02*
D03*
X103543Y66142D02*
D03*
X237795Y29724D02*
D03*
X240945D02*
D03*
Y47520D02*
D03*
X237795D02*
D03*
X213386Y62500D02*
D03*
X123031Y49213D02*
D03*
X130807Y29217D02*
D03*
X115748Y29134D02*
D03*
X88189Y45276D02*
D03*
Y48031D02*
D03*
Y50581D02*
D03*
X169685Y34865D02*
D03*
X166142D02*
D03*
X162992Y34873D02*
D03*
X159763D02*
D03*
X78937Y15030D02*
D03*
X72835D02*
D03*
X181102Y15972D02*
D03*
X154200Y38809D02*
D03*
X3937Y55453D02*
D03*
X8661Y64028D02*
D03*
X69882Y65582D02*
D03*
X55905D02*
D03*
X41339Y65354D02*
D03*
X27165Y65374D02*
D03*
X16142Y66535D02*
D03*
X100172Y70472D02*
D03*
X86724D02*
D03*
X91487D02*
D03*
X96250D02*
D03*
X72394Y68898D02*
D03*
X77157D02*
D03*
X81920D02*
D03*
X58105D02*
D03*
X62868D02*
D03*
X67631D02*
D03*
X43817D02*
D03*
X48579D02*
D03*
X53342D02*
D03*
X39053D02*
D03*
X34291D02*
D03*
X29528D02*
D03*
X24765D02*
D03*
X78959Y94800D02*
D03*
X75984Y93028D02*
D03*
Y96374D02*
D03*
X83858Y82368D02*
D03*
X83958Y84957D02*
D03*
X80118Y85039D02*
D03*
X80140Y82451D02*
D03*
X78959Y87400D02*
D03*
X77187Y88975D02*
D03*
X74825Y89388D02*
D03*
X98032Y79694D02*
D03*
X95472D02*
D03*
X80118D02*
D03*
X82677D02*
D03*
X90354D02*
D03*
X85236D02*
D03*
X87795D02*
D03*
X92913D02*
D03*
X99803Y74016D02*
D03*
X97441Y73917D02*
D03*
X92467D02*
D03*
X89908D02*
D03*
X95026D02*
D03*
X87349D02*
D03*
X84790D02*
D03*
X79134Y73602D02*
D03*
X76772Y74016D02*
D03*
X29134Y89764D02*
D03*
Y96850D02*
D03*
Y94488D02*
D03*
Y92126D02*
D03*
X72047D02*
D03*
Y94488D02*
D03*
X72047Y73130D02*
D03*
X69488D02*
D03*
X66929D02*
D03*
X64370D02*
D03*
X61811D02*
D03*
X33661Y73228D02*
D03*
X28543D02*
D03*
X31102D02*
D03*
X36220D02*
D03*
X43898D02*
D03*
X38780D02*
D03*
X41339D02*
D03*
X51575D02*
D03*
X46457D02*
D03*
X49016D02*
D03*
X59252Y73130D02*
D03*
X54134Y73228D02*
D03*
X56693D02*
D03*
X159153Y59390D02*
D03*
X170866Y69006D02*
D03*
X42698Y50886D02*
D03*
X75000Y75590D02*
D03*
X160433Y76320D02*
D03*
X119095Y90551D02*
D03*
X159449Y88583D02*
D03*
X160531Y82874D02*
D03*
X150197Y67815D02*
D03*
X145746Y79078D02*
D03*
X106004Y61234D02*
D03*
X145374Y58071D02*
D03*
X6496Y31201D02*
D03*
X3937Y69006D02*
D03*
X188976Y20472D02*
D03*
X72047Y96850D02*
D03*
X73828Y77559D02*
D03*
X73819Y79921D02*
D03*
X73721Y82874D02*
D03*
X57087Y56703D02*
D03*
X121260Y76378D02*
D03*
X125591D02*
D03*
X116929Y80709D02*
D03*
X125591D02*
D03*
X121260D02*
D03*
X125591Y72441D02*
D03*
X121260D02*
D03*
X116929D02*
D03*
Y76181D02*
D03*
X136614Y68504D02*
D03*
X174803Y88602D02*
D03*
X172047Y59449D02*
D03*
X69291Y51181D02*
D03*
X61811D02*
D03*
X214961Y8661D02*
D03*
X211811Y25197D02*
D03*
D120*
X100172Y83071D02*
D03*
X112484Y90453D02*
D03*
X71674Y75984D02*
D03*
Y78740D02*
D03*
Y81496D02*
D03*
X104724Y78740D02*
D03*
D121*
X50592Y49075D02*
D03*
D122*
X75392D02*
D03*
Y58125D02*
D03*
Y40025D02*
D03*
D123*
X207740Y70570D02*
Y78874D01*
X205118Y81496D02*
X207740Y78874D01*
X191352Y81496D02*
X205118D01*
X184245Y88602D02*
X191352Y81496D01*
M02*
