%TF.GenerationSoftware,Altium Limited,Altium Designer,20.2.4 (192)*%
G04 Layer_Color=16711935*
%FSLAX26Y26*%
%MOIN*%
%TF.SameCoordinates,9C3109D4-F3AC-4D1D-A7B6-62ECB7B5C8B4*%
%TF.FilePolarity,Negative*%
%TF.FileFunction,Soldermask,Bot*%
%TF.Part,Single*%
G01*
G75*
%TA.AperFunction,ConnectorPad*%
%ADD57R,0.102488X0.057213*%
%TA.AperFunction,SMDPad,CuDef*%
%ADD58R,0.043433X0.035559*%
%ADD59R,0.035559X0.043433*%
%ADD60R,0.038000X0.046433*%
%TA.AperFunction,ComponentPad*%
%ADD61R,0.059181X0.059181*%
%ADD62C,0.059181*%
%TA.AperFunction,ViaPad*%
%ADD63C,0.161417*%
%TA.AperFunction,ComponentPad*%
%ADD64R,0.059181X0.076898*%
%ADD65O,0.067055X0.070992*%
%ADD66R,0.048000X0.039496*%
%ADD67O,0.048000X0.039496*%
%ADD68O,0.039496X0.048000*%
%ADD69R,0.039496X0.048000*%
%ADD70C,0.067055*%
%ADD71R,0.067055X0.067055*%
%TA.AperFunction,ViaPad*%
%ADD72C,0.283591*%
D57*
X276969Y248031D02*
D03*
Y326772D02*
D03*
Y405512D02*
D03*
Y484252D02*
D03*
Y562992D02*
D03*
Y641732D02*
D03*
Y720472D02*
D03*
Y799213D02*
D03*
X851772Y248031D02*
D03*
Y326772D02*
D03*
Y405512D02*
D03*
Y484252D02*
D03*
Y562992D02*
D03*
Y641732D02*
D03*
Y720472D02*
D03*
Y799213D02*
D03*
D58*
X1939961Y479338D02*
D03*
Y417527D02*
D03*
D59*
X87205Y351544D02*
D03*
X149016D02*
D03*
X133268Y558374D02*
D03*
X71457D02*
D03*
D60*
X1020095Y748032D02*
D03*
X956284D02*
D03*
X1020095Y677165D02*
D03*
X956284D02*
D03*
D61*
X2062008Y479528D02*
D03*
D62*
Y579528D02*
D03*
D63*
X157480Y901575D02*
D03*
D64*
X948819Y293307D02*
D03*
X1511811D02*
D03*
X1482284Y508268D02*
D03*
X978346D02*
D03*
D65*
X1368110Y483071D02*
D03*
X1269685D02*
D03*
X1190945D02*
D03*
X1092520D02*
D03*
D66*
X102362Y435630D02*
D03*
D67*
Y485630D02*
D03*
D68*
X948622Y888779D02*
D03*
X998622D02*
D03*
X1048622D02*
D03*
D69*
X1098622D02*
D03*
D70*
X2230314Y517913D02*
D03*
D71*
Y617913D02*
D03*
D72*
X2303150Y901575D02*
D03*
Y157480D02*
D03*
X157480D02*
D03*
%TF.MD5,0bb72974eccd74ca5120d58514c24122*%
M02*
