%TF.GenerationSoftware,Altium Limited,Altium Designer,20.2.4 (192)*%
G04 Layer_Physical_Order=2*
G04 Layer_Color=16711680*
%FSLAX26Y26*%
%MOIN*%
%TF.SameCoordinates,9C3109D4-F3AC-4D1D-A7B6-62ECB7B5C8B4*%
%TF.FilePolarity,Positive*%
%TF.FileFunction,Copper,L2,Bot,Signal*%
%TF.Part,Single*%
G01*
G75*
%TA.AperFunction,SMDPad,CuDef*%
%ADD13R,0.030000X0.038433*%
%ADD15R,0.027559X0.035433*%
%ADD24R,0.035433X0.027559*%
%TA.AperFunction,Conductor*%
%ADD25C,0.023622*%
%ADD26C,0.011811*%
%ADD27C,0.017716*%
%ADD29C,0.031496*%
%ADD34C,0.015000*%
%ADD35C,0.019685*%
%ADD36C,0.027559*%
%ADD37C,0.007874*%
%TA.AperFunction,ComponentPad*%
%ADD38R,0.051181X0.051181*%
%ADD39C,0.051181*%
%TA.AperFunction,ViaPad*%
%ADD40C,0.137795*%
%TA.AperFunction,ComponentPad*%
%ADD41R,0.051181X0.068898*%
%ADD42O,0.059055X0.062992*%
%ADD43R,0.040000X0.031496*%
%ADD44O,0.040000X0.031496*%
%ADD45O,0.031496X0.040000*%
%ADD46R,0.031496X0.040000*%
%ADD47C,0.059055*%
%ADD48R,0.059055X0.059055*%
%TA.AperFunction,ViaPad*%
%ADD49C,0.275591*%
%ADD50C,0.023622*%
%TA.AperFunction,ConnectorPad*%
%ADD51R,0.094488X0.049213*%
%TA.AperFunction,Conductor*%
%ADD52C,0.009842*%
G36*
X2401575Y1055118D02*
X2455709Y1000984D01*
X2455708Y62992D01*
X2397638Y4921D01*
X1912402Y4921D01*
X1912402Y174213D01*
X548229Y174213D01*
X548228Y4922D01*
X62992D01*
X3937Y63977D01*
X3937Y1000000D01*
X59055Y1055118D01*
X2401575Y1055118D01*
D02*
G37*
%LPC*%
G36*
X989368Y1009183D02*
X722418D01*
X715506Y1007808D01*
X709645Y1003892D01*
X523029Y817276D01*
X332087D01*
Y831693D01*
X221850D01*
Y766732D01*
X332087D01*
Y781149D01*
X530512D01*
X537424Y782524D01*
X543285Y786440D01*
X729901Y973056D01*
X981885D01*
X1030558Y924383D01*
Y908516D01*
X1026370Y902248D01*
X1026171Y901245D01*
X1021073D01*
X1020874Y902248D01*
X1016686Y908516D01*
Y918701D01*
X1015311Y925614D01*
X1011395Y931474D01*
X993088Y949781D01*
X987228Y953697D01*
X980315Y955072D01*
X799213D01*
X792300Y953697D01*
X786440Y949781D01*
X575195Y738536D01*
X332087D01*
Y752953D01*
X221850D01*
Y687992D01*
X332087D01*
Y702409D01*
X582677D01*
X589590Y703784D01*
X595450Y707700D01*
X806695Y918944D01*
X972833D01*
X980558Y911219D01*
Y908516D01*
X976370Y902248D01*
X974537Y893032D01*
Y884528D01*
X976370Y875311D01*
X981591Y867497D01*
X989405Y862276D01*
X998622Y860443D01*
X1007839Y862276D01*
X1015653Y867497D01*
X1020874Y875311D01*
X1021073Y876314D01*
X1026171D01*
X1026370Y875311D01*
X1031591Y867497D01*
X1039405Y862276D01*
X1048622Y860443D01*
X1057839Y862276D01*
X1065652Y867497D01*
X1070000Y874003D01*
X1075000Y872486D01*
Y860905D01*
X1076544D01*
Y831168D01*
X1076471Y831094D01*
X984252D01*
X976571Y829567D01*
X970060Y825216D01*
X966135Y821290D01*
X906890D01*
Y831693D01*
X796654D01*
Y766732D01*
X906890D01*
Y777135D01*
X929243D01*
X933409Y775122D01*
Y720941D01*
X936213D01*
Y704256D01*
X933409D01*
Y681298D01*
X915922Y663810D01*
X906890D01*
Y674213D01*
X796654D01*
Y609252D01*
X906890D01*
Y619655D01*
X925067D01*
X933516Y621335D01*
X940678Y626121D01*
X964632Y650075D01*
X979158D01*
Y704256D01*
X976354D01*
Y720941D01*
X979158D01*
Y748282D01*
X979543Y750221D01*
Y777931D01*
X981830Y780217D01*
X986895Y783601D01*
X990279Y788667D01*
X992566Y790953D01*
X1084784D01*
X1092465Y792481D01*
X1098977Y796832D01*
X1106495Y804349D01*
X1107071Y804464D01*
X1114233Y809250D01*
X1119019Y816412D01*
X1120700Y824861D01*
Y860905D01*
X1122244D01*
Y916654D01*
X1075000D01*
Y905072D01*
X1070000Y903556D01*
X1066686Y908516D01*
Y931865D01*
X1065311Y938778D01*
X1061395Y944638D01*
X1002140Y1003892D01*
X996280Y1007808D01*
X989368Y1009183D01*
D02*
G37*
G36*
X906890Y752953D02*
X796654D01*
Y687992D01*
X906890D01*
Y752953D01*
D02*
G37*
G36*
X332087Y674213D02*
X221850D01*
Y609252D01*
X332087D01*
Y674213D01*
D02*
G37*
G36*
X906890Y595472D02*
X796654D01*
Y581056D01*
X547244D01*
X540332Y579681D01*
X534471Y575765D01*
X435374Y476668D01*
X431594Y477420D01*
X423913Y475892D01*
X417401Y471541D01*
X413051Y465030D01*
X411523Y457349D01*
X413051Y449669D01*
X417401Y443157D01*
X423913Y438807D01*
X431594Y437279D01*
X439274Y438807D01*
X439991Y439286D01*
X441601D01*
X448514Y440661D01*
X454374Y444577D01*
X554726Y544928D01*
X796654D01*
Y530512D01*
X906890D01*
Y595472D01*
D02*
G37*
G36*
X332087D02*
X221850D01*
Y530512D01*
X332087D01*
Y595472D01*
D02*
G37*
G36*
X906890Y516732D02*
X796654D01*
Y508815D01*
X587859D01*
X587142Y509295D01*
X579461Y510822D01*
X571780Y509295D01*
X565269Y504944D01*
X560918Y498432D01*
X560617Y496921D01*
X505534Y441837D01*
X501618Y435977D01*
X500243Y429065D01*
Y348752D01*
X499764Y348035D01*
X498236Y340354D01*
X499764Y332673D01*
X504115Y326162D01*
X510626Y321811D01*
X518307Y320284D01*
X525988Y321811D01*
X532499Y326162D01*
X536850Y332673D01*
X538378Y340354D01*
X536850Y348035D01*
X536371Y348752D01*
Y421582D01*
X586961Y472173D01*
X587142Y472209D01*
X587859Y472688D01*
X796654D01*
Y451772D01*
X906890D01*
Y516732D01*
D02*
G37*
G36*
X1269685Y522764D02*
X1259921Y521478D01*
X1250823Y517710D01*
X1243010Y511714D01*
X1239512Y507156D01*
X1221118D01*
X1217620Y511714D01*
X1209807Y517710D01*
X1200709Y521478D01*
X1190945Y522764D01*
X1181181Y521478D01*
X1172083Y517710D01*
X1164270Y511714D01*
X1158275Y503901D01*
X1154506Y494803D01*
X1153221Y485039D01*
Y481102D01*
X1154506Y471339D01*
X1158275Y462240D01*
X1164270Y454427D01*
X1172083Y448432D01*
X1181181Y444664D01*
X1190945Y443378D01*
X1200709Y444664D01*
X1209807Y448432D01*
X1217620Y454427D01*
X1221118Y458986D01*
X1239512D01*
X1243010Y454427D01*
X1250823Y448432D01*
X1259921Y444664D01*
X1269685Y443378D01*
X1279449Y444664D01*
X1288547Y448432D01*
X1296360Y454427D01*
X1302355Y462240D01*
X1306124Y471339D01*
X1307409Y481102D01*
Y485039D01*
X1306124Y494803D01*
X1302355Y503901D01*
X1296360Y511714D01*
X1288547Y517710D01*
X1279449Y521478D01*
X1269685Y522764D01*
D02*
G37*
G36*
X2230314Y555638D02*
X2220551Y554352D01*
X2211452Y550583D01*
X2203640Y544588D01*
X2197644Y536775D01*
X2193876Y527677D01*
X2192590Y517913D01*
X2193876Y508150D01*
X2197644Y499051D01*
X2203640Y491238D01*
X2211452Y485243D01*
X2220551Y481475D01*
X2230314Y480189D01*
X2240078Y481475D01*
X2249177Y485243D01*
X2256990Y491238D01*
X2262985Y499051D01*
X2266753Y508150D01*
X2268039Y517913D01*
X2266753Y527677D01*
X2262985Y536775D01*
X2256990Y544588D01*
X2249177Y550583D01*
X2240078Y554352D01*
X2230314Y555638D01*
D02*
G37*
G36*
X2062008Y613281D02*
X2053272Y612131D01*
X2045131Y608759D01*
X2038141Y603395D01*
X2032777Y596404D01*
X2029405Y588264D01*
X2028255Y579528D01*
X2028465Y577932D01*
X2025168Y574173D01*
X2020669D01*
X2013757Y572798D01*
X2007896Y568882D01*
X1940005Y500991D01*
X1914370D01*
Y457684D01*
X1965551D01*
Y475445D01*
X2028151Y538046D01*
X2058275D01*
X2065188Y539421D01*
X2071048Y543337D01*
X2074479Y548471D01*
X2078885Y550296D01*
X2085875Y555660D01*
X2091239Y562651D01*
X2094611Y570792D01*
X2095761Y579528D01*
X2094611Y588264D01*
X2091239Y596404D01*
X2085875Y603395D01*
X2078885Y608759D01*
X2070744Y612131D01*
X2062008Y613281D01*
D02*
G37*
G36*
X154921Y583964D02*
X111614D01*
Y532783D01*
X126537D01*
X166249Y493071D01*
X134414Y461237D01*
X130236Y459252D01*
X74488D01*
Y412008D01*
X130236D01*
Y417452D01*
X139084D01*
X146764Y418979D01*
X153276Y423330D01*
X195701Y465756D01*
X195772Y465709D01*
X203452Y464181D01*
X221850D01*
Y451772D01*
X332087D01*
Y516732D01*
X221850D01*
Y504323D01*
X211766D01*
X204976Y511113D01*
X204975Y511113D01*
X154921Y561167D01*
Y583964D01*
D02*
G37*
G36*
X2095472Y512992D02*
X2028543D01*
Y446063D01*
X2095472D01*
Y512992D01*
D02*
G37*
G36*
X1368110Y522764D02*
X1358346Y521478D01*
X1349248Y517710D01*
X1341435Y511714D01*
X1335440Y503901D01*
X1331671Y494803D01*
X1330386Y485039D01*
Y481102D01*
X1331671Y471339D01*
X1335440Y462240D01*
X1341435Y454427D01*
X1349248Y448432D01*
X1358346Y444664D01*
X1368110Y443378D01*
X1377873Y444664D01*
X1386972Y448432D01*
X1394785Y454427D01*
X1400780Y462240D01*
X1404549Y471339D01*
X1405834Y481102D01*
Y485039D01*
X1404549Y494803D01*
X1400780Y503901D01*
X1394785Y511714D01*
X1386972Y517710D01*
X1377873Y521478D01*
X1368110Y522764D01*
D02*
G37*
G36*
X1702756Y661803D02*
X1695075Y660275D01*
X1688564Y655924D01*
X1684213Y649413D01*
X1682685Y641732D01*
X1684213Y634052D01*
X1685696Y631832D01*
Y621240D01*
X1667071Y602615D01*
X1667071Y602614D01*
X1479154Y414698D01*
X1401575D01*
X1395046Y413399D01*
X1389512Y409701D01*
X1359075Y379265D01*
X909843D01*
X906890Y381688D01*
Y437992D01*
X796654D01*
Y423575D01*
X740878D01*
X740161Y424055D01*
X732480Y425582D01*
X724799Y424055D01*
X718288Y419704D01*
X713937Y413192D01*
X712409Y405512D01*
X713937Y397831D01*
X718288Y391320D01*
X724799Y386969D01*
X732480Y385441D01*
X740161Y386969D01*
X740878Y387448D01*
X796654D01*
Y373031D01*
X890010D01*
X891923Y368412D01*
X882763Y359252D01*
X796654D01*
Y294291D01*
X906890D01*
Y335125D01*
X916909Y345145D01*
X1366142D01*
X1372670Y346443D01*
X1378205Y350142D01*
X1408641Y380578D01*
X1486220D01*
X1492749Y381876D01*
X1498284Y385575D01*
X1691197Y578488D01*
X1714819Y602110D01*
X1718517Y607645D01*
X1719816Y614173D01*
Y631832D01*
X1721299Y634052D01*
X1722827Y641732D01*
X1721299Y649413D01*
X1716948Y655924D01*
X1710437Y660275D01*
X1702756Y661803D01*
D02*
G37*
G36*
X332087Y437992D02*
X221850D01*
Y425582D01*
X199047D01*
X191366Y424055D01*
X184855Y419704D01*
X142285Y377134D01*
X127362D01*
Y325953D01*
X170669D01*
Y348750D01*
X207360Y385441D01*
X221850D01*
Y373031D01*
X332087D01*
Y437992D01*
D02*
G37*
G36*
X93110Y583964D02*
X49803D01*
Y556909D01*
X36244Y543350D01*
X32546Y537816D01*
X31247Y531287D01*
Y395341D01*
X29764Y393122D01*
X28237Y385441D01*
X29764Y377760D01*
X34115Y371249D01*
X40627Y366898D01*
X43817Y366264D01*
X58295Y351785D01*
X59394Y350142D01*
X61196Y348339D01*
X65551Y345429D01*
Y325953D01*
X108858D01*
Y377134D01*
X83931D01*
X82283Y377462D01*
X81106Y377228D01*
X67257Y391076D01*
X66850Y393122D01*
X65367Y395341D01*
Y524221D01*
X73930Y532783D01*
X93110D01*
Y583964D01*
D02*
G37*
G36*
X667150Y461677D02*
X659470Y460149D01*
X652958Y455798D01*
X648607Y449287D01*
X647080Y441606D01*
Y364149D01*
X648607Y356468D01*
X649896Y354540D01*
X647223Y349540D01*
X600197D01*
X593668Y348242D01*
X588134Y344543D01*
X472189Y228599D01*
X468491Y223064D01*
X467192Y216536D01*
Y124073D01*
X465709Y121854D01*
X464181Y114173D01*
X465709Y106493D01*
X470060Y99981D01*
X476571Y95630D01*
X484252Y94103D01*
X491933Y95630D01*
X498444Y99981D01*
X502795Y106493D01*
X504323Y114173D01*
X502795Y121854D01*
X501312Y124073D01*
Y209469D01*
X607263Y315420D01*
X687495D01*
X769076Y233839D01*
X775587Y229488D01*
X783268Y227961D01*
X796654D01*
Y215551D01*
X906890D01*
Y280512D01*
X796654D01*
Y268102D01*
X791581D01*
X713011Y346672D01*
X713011Y346672D01*
X687221Y372462D01*
Y441606D01*
X685693Y449287D01*
X681342Y455798D01*
X674831Y460149D01*
X667150Y461677D01*
D02*
G37*
G36*
X1965551Y439180D02*
X1914370D01*
Y395873D01*
X1921897D01*
Y262403D01*
X1882929Y223436D01*
X1882083Y223267D01*
X1875572Y218917D01*
X1871221Y212405D01*
X1869693Y204724D01*
X1871221Y197044D01*
X1875572Y190532D01*
X1882083Y186181D01*
X1889764Y184654D01*
X1897445Y186181D01*
X1903956Y190532D01*
X1908307Y197044D01*
X1908475Y197890D01*
X1952734Y242148D01*
X1956649Y248008D01*
X1958024Y254921D01*
Y395873D01*
X1965551D01*
Y439180D01*
D02*
G37*
%LPD*%
D13*
X1020095Y748032D02*
D03*
X956284D02*
D03*
X1020095Y677165D02*
D03*
X956284D02*
D03*
D15*
X87205Y351544D02*
D03*
X149016D02*
D03*
X133268Y558374D02*
D03*
X71457D02*
D03*
D24*
X1939961Y479338D02*
D03*
Y417527D02*
D03*
D25*
X102362Y435630D02*
X104255Y437522D01*
X139084D01*
X190783Y489222D01*
Y496921D01*
X203452Y484252D01*
X133268Y554437D02*
X190783Y496921D01*
X203452Y484252D02*
X276969D01*
X149016Y355481D02*
X199047Y405512D01*
X276968D01*
X1084784Y811024D02*
X1098622Y824861D01*
X984252Y811024D02*
X1084784D01*
X971862Y798634D02*
X984252Y811024D01*
X959472Y786244D02*
X971862Y798634D01*
X956284Y747032D02*
X957284Y748032D01*
X956284Y678165D02*
Y747032D01*
X957284Y748032D02*
X959472Y750221D01*
Y786244D01*
X783268Y248031D02*
X851772D01*
X698819Y332480D02*
X783268Y248031D01*
X667150Y364149D02*
Y441606D01*
Y364149D02*
X698819Y332480D01*
D26*
X2058275Y556110D02*
X2063976Y561811D01*
X1939961Y479338D02*
X1943898D01*
X1702756Y639764D02*
Y641732D01*
X1679134Y590551D02*
X1681102D01*
X851772Y326772D02*
X874409D01*
X2138989Y231089D02*
X2228679D01*
X2302288Y157480D01*
X2303150D01*
Y901575D01*
D27*
X71457Y362205D02*
Y362750D01*
X48766Y385441D02*
X71457Y362750D01*
X87205Y351544D02*
Y355481D01*
X82283Y360402D02*
X87205Y355481D01*
X71457Y362205D02*
X73259Y360402D01*
X48307Y385441D02*
X48766D01*
X48307D02*
Y531287D01*
X74193Y557173D01*
X133268Y554437D02*
Y558374D01*
X956284Y672949D02*
Y678165D01*
X971284Y799213D02*
X971862Y798634D01*
X484252Y114173D02*
Y216536D01*
X600197Y332480D02*
X698819D01*
X484252Y216536D02*
X600197Y332480D01*
X1679134Y590551D02*
X1702756Y614173D01*
X1702795Y639803D02*
X1703594Y639004D01*
Y636427D02*
Y639004D01*
X1702756Y635588D02*
X1703594Y636427D01*
X1702756Y614173D02*
Y635588D01*
X1366142Y362205D02*
X1401575Y397638D01*
X1486220D02*
X1679134Y590551D01*
X1401575Y397638D02*
X1486220D01*
X909843Y362205D02*
X1366142D01*
X874409Y326772D02*
X909843Y362205D01*
D29*
X1190945Y483071D02*
X1269685D01*
D34*
X2138989Y231089D02*
X2149606Y220472D01*
X2118110Y251969D02*
X2138989Y231089D01*
X2149606Y86614D02*
Y220472D01*
D35*
X530512Y799213D02*
X722418Y991119D01*
X989368D02*
X1048622Y931865D01*
X722418Y991119D02*
X989368D01*
X1048622Y888779D02*
Y931865D01*
X518307Y340354D02*
Y429065D01*
X579461Y490219D02*
Y490752D01*
X518307Y429065D02*
X579461Y490219D01*
X821650Y490752D02*
X839961Y472441D01*
X579461Y490752D02*
X821650D01*
X149016Y351544D02*
Y355481D01*
X441601Y457349D02*
X547244Y562992D01*
X431594Y457349D02*
X441601D01*
X2020669Y556110D02*
X2058275D01*
X1943898Y479338D02*
X2020669Y556110D01*
X1939961Y254921D02*
Y417527D01*
X547244Y562992D02*
X851772D01*
X276968Y405512D02*
X276969Y405512D01*
X998622Y888779D02*
Y918701D01*
X980315Y937008D02*
X998622Y918701D01*
X582677Y720472D02*
X799213Y937008D01*
X980315D01*
X276969Y799213D02*
X530512D01*
X276969Y720472D02*
X582677D01*
X732480Y405512D02*
X851771D01*
X839961Y472441D02*
X850591Y483071D01*
X1889764Y204724D02*
X1939961Y254921D01*
D36*
X1098622Y824861D02*
Y888779D01*
X851772Y799213D02*
X971284D01*
X851772Y641732D02*
X925067D01*
X956284Y672949D01*
D37*
X850591Y483071D02*
X851772Y484252D01*
X851771Y405512D02*
X851772Y405512D01*
D38*
X2062008Y479528D02*
D03*
D39*
Y579528D02*
D03*
D40*
X157480Y901575D02*
D03*
D41*
X948819Y293307D02*
D03*
X1511811D02*
D03*
X1482284Y508268D02*
D03*
X978346D02*
D03*
D42*
X1368110Y483071D02*
D03*
X1269685D02*
D03*
X1190945D02*
D03*
X1092520D02*
D03*
D43*
X102362Y435630D02*
D03*
D44*
Y485630D02*
D03*
D45*
X948622Y888779D02*
D03*
X998622D02*
D03*
X1048622D02*
D03*
D46*
X1098622D02*
D03*
D47*
X2230314Y517913D02*
D03*
D48*
Y617913D02*
D03*
D49*
X2303150Y901575D02*
D03*
Y157480D02*
D03*
X157480D02*
D03*
D50*
X1410627Y542508D02*
D03*
X1316378D02*
D03*
X1341435Y1003937D02*
D03*
X1481791D02*
D03*
X1201078D02*
D03*
X1076471D02*
D03*
X874409Y862276D02*
D03*
X807087Y860443D02*
D03*
X729901Y937008D02*
D03*
X748032Y524221D02*
D03*
X1742290Y500991D02*
D03*
X1644685Y638563D02*
D03*
Y748032D02*
D03*
X1563581D02*
D03*
X1603928Y988189D02*
D03*
X1039405Y621335D02*
D03*
X989368D02*
D03*
X1092520Y687992D02*
D03*
Y752953D02*
D03*
X579461Y787402D02*
D03*
X401575Y763779D02*
D03*
X322835Y137795D02*
D03*
X207360Y268102D02*
D03*
X627061Y606647D02*
D03*
X555714Y991119D02*
D03*
Y892923D02*
D03*
X439274D02*
D03*
Y991119D02*
D03*
X1884641Y888779D02*
D03*
X1882646Y779528D02*
D03*
X1884641Y988189D02*
D03*
X1742290Y779528D02*
D03*
X1744284Y888779D02*
D03*
Y988189D02*
D03*
X2024998Y651618D02*
D03*
X2114547Y711244D02*
D03*
X2165354Y988189D02*
D03*
Y779528D02*
D03*
X2023003D02*
D03*
X2024998Y888779D02*
D03*
X1909165Y711244D02*
D03*
X2245276D02*
D03*
X2024998Y988189D02*
D03*
X2165354Y899618D02*
D03*
X2214567Y811024D02*
D03*
X2287402Y779528D02*
D03*
X2377953Y748032D02*
D03*
Y634374D02*
D03*
Y517913D02*
D03*
X2137795Y545774D02*
D03*
X2096457Y140837D02*
D03*
X1937008Y86614D02*
D03*
X1864173Y330806D02*
D03*
X2230314Y262676D02*
D03*
X2177165Y158465D02*
D03*
X2260433Y36687D02*
D03*
X1644685Y500991D02*
D03*
Y441606D02*
D03*
X1456693Y826968D02*
D03*
X1279004Y787402D02*
D03*
X1230315Y606647D02*
D03*
X1092520Y621335D02*
D03*
X1169291Y763779D02*
D03*
X701575Y726366D02*
D03*
X602362Y204724D02*
D03*
X387340Y34449D02*
D03*
X255905Y82425D02*
D03*
X59055Y293898D02*
D03*
X114173Y657480D02*
D03*
X401575Y637795D02*
D03*
X322835Y991119D02*
D03*
Y892923D02*
D03*
X157480Y775122D02*
D03*
X87205Y788667D02*
D03*
X579461Y490752D02*
D03*
X48307Y385441D02*
D03*
X431594Y457349D02*
D03*
X1595666Y399106D02*
D03*
X518307Y340354D02*
D03*
X484252Y114173D02*
D03*
X667150Y441606D02*
D03*
X698819Y332480D02*
D03*
X1702756Y641732D02*
D03*
X732480Y405512D02*
D03*
X2377953Y297244D02*
D03*
X2409449D02*
D03*
X1230473Y423228D02*
D03*
X1308071Y292165D02*
D03*
X1157480Y291339D02*
D03*
X1694882Y399028D02*
D03*
X1659449D02*
D03*
X1627953Y399106D02*
D03*
X1737205Y204724D02*
D03*
X1889764D02*
D03*
X2149606Y86614D02*
D03*
X2118110Y251969D02*
D03*
D51*
X276969Y248031D02*
D03*
Y326772D02*
D03*
Y405512D02*
D03*
Y484252D02*
D03*
Y562992D02*
D03*
Y641732D02*
D03*
Y720472D02*
D03*
Y799213D02*
D03*
X851772Y248031D02*
D03*
Y326772D02*
D03*
Y405512D02*
D03*
Y484252D02*
D03*
Y562992D02*
D03*
Y641732D02*
D03*
Y720472D02*
D03*
Y799213D02*
D03*
D52*
X994479Y892923D02*
X998622Y888779D01*
%TF.MD5,0b88321b5f1dd257956fae94e2281243*%
M02*
