%TF.GenerationSoftware,Altium Limited,Altium Designer,20.2.4 (192)*%
G04 Layer_Color=32896*
%FSLAX26Y26*%
%MOIN*%
%TF.SameCoordinates,B9E39A9B-80F5-448B-9931-E6C99B6DF629*%
%TF.FilePolarity,Positive*%
%TF.FileFunction,Legend,Bot*%
%TF.Part,Single*%
G01*
G75*
%TA.AperFunction,NonConductor*%
%ADD53C,0.010000*%
%ADD54C,0.003000*%
%ADD55C,0.005000*%
%ADD56C,0.003937*%
D53*
X249409Y846457D02*
Y1047244D01*
X320276Y181102D02*
X879331D01*
Y200787D01*
Y846457D02*
Y1047244D01*
X249409D02*
X879331D01*
D54*
X1963583Y397251D02*
Y499613D01*
X1916339D02*
X1963583D01*
X1916339Y397251D02*
Y499613D01*
Y397251D02*
X1963583D01*
X66929Y375166D02*
X169291D01*
X66929Y327922D02*
Y375166D01*
Y327922D02*
X169291D01*
Y375166D01*
X51181Y534751D02*
X153543D01*
Y581995D01*
X51181D02*
X153543D01*
X51181Y534751D02*
Y581995D01*
X935039Y722441D02*
X1041339D01*
Y773622D01*
X935039D02*
X1041339D01*
X935039Y722441D02*
Y773622D01*
Y651575D02*
X1041339D01*
Y702756D01*
X935039D02*
X1041339D01*
X935039Y651575D02*
Y702756D01*
D55*
X979331Y763779D02*
X997047D01*
X979331Y732284D02*
X997047D01*
X979331Y692913D02*
X997047D01*
X979331Y661417D02*
X997047D01*
D56*
X925192Y952752D02*
Y933073D01*
X921256Y929138D01*
X913385D01*
X909449Y933073D01*
Y952752D01*
X901577Y929138D02*
X893706D01*
X897642D01*
Y952752D01*
X901577Y948816D01*
X1901572Y480305D02*
X1877958D01*
Y468498D01*
X1881894Y464562D01*
X1889765D01*
X1893701Y468498D01*
Y480305D01*
Y472433D02*
X1901572Y464562D01*
X1909444Y440947D02*
X1885829D01*
Y452755D01*
X1889765Y456690D01*
X1897637D01*
X1901572Y452755D01*
Y440947D01*
Y417333D02*
Y433076D01*
X1885829Y417333D01*
X1881894D01*
X1877958Y421269D01*
Y429140D01*
X1881894Y433076D01*
X137785Y590555D02*
Y614169D01*
X125978D01*
X122042Y610234D01*
Y602362D01*
X125978Y598427D01*
X137785D01*
X129913D02*
X122042Y590555D01*
X110235Y606298D02*
X102363D01*
X98428Y602362D01*
Y590555D01*
X110235D01*
X114171Y594491D01*
X110235Y598427D01*
X98428D01*
X90556Y610234D02*
X86621Y614169D01*
X78749D01*
X74813Y610234D01*
Y606298D01*
X78749Y602362D01*
X82685D01*
X78749D01*
X74813Y598427D01*
Y594491D01*
X78749Y590555D01*
X86621D01*
X90556Y594491D01*
X149597Y381894D02*
Y405508D01*
X137790D01*
X133854Y401572D01*
Y393701D01*
X137790Y389765D01*
X149597D01*
X141726D02*
X133854Y381894D01*
X122047Y397637D02*
X114176D01*
X110240Y393701D01*
Y381894D01*
X122047D01*
X125983Y385829D01*
X122047Y389765D01*
X110240D01*
X102368Y381894D02*
X94497D01*
X98433D01*
Y405508D01*
X102368Y401572D01*
X1070860Y657475D02*
X1074795Y653539D01*
Y645668D01*
X1070860Y641732D01*
X1055117D01*
X1051181Y645668D01*
Y653539D01*
X1055117Y657475D01*
X1066924Y669282D02*
Y677154D01*
X1062988Y681090D01*
X1051181D01*
Y669282D01*
X1055117Y665347D01*
X1059053Y669282D01*
Y681090D01*
X1051181Y704704D02*
Y688961D01*
X1066924Y704704D01*
X1070860D01*
X1074795Y700768D01*
Y692897D01*
X1070860Y688961D01*
Y738184D02*
X1074795Y734248D01*
Y726377D01*
X1070860Y722441D01*
X1055117D01*
X1051181Y726377D01*
Y734248D01*
X1055117Y738184D01*
X1066924Y749991D02*
Y757863D01*
X1062988Y761798D01*
X1051181D01*
Y749991D01*
X1055117Y746055D01*
X1059053Y749991D01*
Y761798D01*
X1051181Y769670D02*
Y777541D01*
Y773606D01*
X1074795D01*
X1070860Y769670D01*
%TF.MD5,749b3d7973977be1cd1a61ad5fc11312*%
M02*
