%TF.GenerationSoftware,Altium Limited,Altium Designer,20.2.4 (192)*%
G04 Layer_Color=8388736*
%FSLAX26Y26*%
%MOIN*%
%TF.SameCoordinates,B9E39A9B-80F5-448B-9931-E6C99B6DF629*%
%TF.FilePolarity,Negative*%
%TF.FileFunction,Soldermask,Top*%
%TF.Part,Single*%
G01*
G75*
%TA.AperFunction,SMDPad,CuDef*%
%ADD58R,0.043433X0.035559*%
%ADD59R,0.035559X0.043433*%
%ADD60R,0.038000X0.046433*%
%TA.AperFunction,ComponentPad*%
%ADD61R,0.059181X0.059181*%
%ADD62C,0.059181*%
%ADD64R,0.059181X0.076898*%
%ADD65O,0.067055X0.070992*%
%ADD66R,0.048000X0.039496*%
%ADD67O,0.048000X0.039496*%
%ADD68O,0.039496X0.048000*%
%ADD69R,0.039496X0.048000*%
%ADD70C,0.067055*%
%ADD71R,0.067055X0.067055*%
%TA.AperFunction,ViaPad*%
%ADD72C,0.283591*%
%TA.AperFunction,SMDPad,CuDef*%
%ADD84R,0.031102X0.017323*%
%ADD85R,0.039496X0.047370*%
%ADD86R,0.118630X0.056819*%
%ADD87R,0.046433X0.038000*%
%ADD88R,0.031622X0.051307*%
%ADD89R,0.047000X0.067000*%
%ADD90R,0.137000X0.067000*%
%ADD91R,0.047370X0.035559*%
%ADD92R,0.049087X0.023622*%
%ADD93R,0.056819X0.118630*%
%ADD94R,0.165480X0.067055*%
%ADD95R,0.063118X0.047370*%
%TA.AperFunction,ViaPad*%
%ADD96C,0.279527*%
D58*
X554724Y374606D02*
D03*
Y436417D02*
D03*
X617126D02*
D03*
Y374606D02*
D03*
X1980315Y114173D02*
D03*
Y52362D02*
D03*
X2106299Y114173D02*
D03*
Y52362D02*
D03*
X2043307Y113583D02*
D03*
Y51772D02*
D03*
D59*
X406890Y364378D02*
D03*
X345079D02*
D03*
X1770866Y641732D02*
D03*
X1832677D02*
D03*
D60*
X522819Y607855D02*
D03*
X586630D02*
D03*
X1423803Y607284D02*
D03*
X1487614D02*
D03*
X432594Y94488D02*
D03*
X368783D02*
D03*
X1335055Y607284D02*
D03*
X1271244D02*
D03*
X2036433Y314961D02*
D03*
X1972622D02*
D03*
D61*
X2062008Y479528D02*
D03*
D62*
Y579528D02*
D03*
D64*
X948819Y293307D02*
D03*
X1511811D02*
D03*
X1482284Y508268D02*
D03*
X978346D02*
D03*
D65*
X1368110Y483071D02*
D03*
X1269685D02*
D03*
X1190945D02*
D03*
X1092520D02*
D03*
D66*
X102362Y435630D02*
D03*
D67*
Y485630D02*
D03*
D68*
X948622Y888779D02*
D03*
X998622D02*
D03*
X1048622D02*
D03*
D69*
X1098622D02*
D03*
D70*
X2230314Y517913D02*
D03*
D71*
Y617913D02*
D03*
D72*
X2303150Y901575D02*
D03*
Y157480D02*
D03*
X157480D02*
D03*
D84*
X450197Y503937D02*
D03*
Y529528D02*
D03*
Y555118D02*
D03*
X379331Y503937D02*
D03*
Y529528D02*
D03*
Y555118D02*
D03*
D85*
X1901575Y576772D02*
D03*
X1826772D02*
D03*
X1864173Y494094D02*
D03*
D86*
X1602362Y912795D02*
D03*
Y795866D02*
D03*
X807087Y471850D02*
D03*
Y354921D02*
D03*
X1644685Y353701D02*
D03*
Y236772D02*
D03*
D87*
X468504Y417732D02*
D03*
Y353921D02*
D03*
D88*
X450787Y293307D02*
D03*
X413386D02*
D03*
X375984D02*
D03*
X450787Y183071D02*
D03*
X375984D02*
D03*
D89*
X1441878Y688992D02*
D03*
X1260878D02*
D03*
X1351378D02*
D03*
D90*
Y936992D02*
D03*
D91*
X1981906Y254921D02*
D03*
Y217520D02*
D03*
Y180118D02*
D03*
X2073213Y254921D02*
D03*
Y217520D02*
D03*
Y180118D02*
D03*
D92*
X652362Y233268D02*
D03*
X652559Y258858D02*
D03*
X652362Y284449D02*
D03*
Y310039D02*
D03*
X552362D02*
D03*
Y284449D02*
D03*
Y258858D02*
D03*
Y233268D02*
D03*
D93*
X2276181Y384646D02*
D03*
X2393110D02*
D03*
D94*
X1830709Y259842D02*
D03*
Y405512D02*
D03*
D95*
X742126Y213386D02*
D03*
Y278740D02*
D03*
D96*
X157480Y901575D02*
D03*
%TF.MD5,0fc05648757c4db63a90c7cce19b2509*%
M02*
