%TF.GenerationSoftware,Altium Limited,Altium Designer,19.0.11 (319)*%
G04 Layer_Physical_Order=1*
G04 Layer_Color=255*
%FSLAX26Y26*%
%MOIN*%
%TF.FileFunction,Copper,L1,Top,Signal*%
%TF.Part,Single*%
G01*
G75*
%TA.AperFunction,Conductor*%
%ADD10C,0.015748*%
%ADD11C,0.021654*%
%TA.AperFunction,SMDPad,CuDef*%
%ADD12R,0.023622X0.043307*%
%ADD13R,0.055118X0.047244*%
%ADD14R,0.055118X0.078740*%
%ADD15R,0.068898X0.057087*%
%ADD16R,0.011811X0.029528*%
%ADD17R,0.027559X0.035433*%
%ADD18R,0.031496X0.011205*%
%ADD19R,0.011205X0.031496*%
%ADD20R,0.124016X0.124016*%
%TA.AperFunction,ConnectorPad*%
%ADD21R,0.039370X0.078740*%
%ADD22R,0.110236X0.027559*%
%TA.AperFunction,SMDPad,CuDef*%
%ADD23R,0.060000X0.021000*%
%ADD24R,0.031496X0.039370*%
%ADD25R,0.039370X0.027559*%
%ADD26R,0.042000X0.016535*%
%ADD27R,0.110630X0.048819*%
%ADD28R,0.048819X0.110630*%
%ADD29R,0.157480X0.059055*%
%ADD30R,0.055118X0.039370*%
%ADD31R,0.051181X0.043307*%
%ADD32R,0.051181X0.055118*%
%ADD33R,0.035433X0.027559*%
%ADD34R,0.021654X0.021654*%
%ADD35R,0.038433X0.030000*%
%ADD36R,0.030000X0.038433*%
%ADD37R,0.038583X0.043307*%
%TA.AperFunction,Conductor*%
%ADD38C,0.011811*%
%ADD39C,0.035433*%
%ADD40C,0.047244*%
%ADD41C,0.023622*%
%ADD42C,0.019685*%
%ADD43C,0.011220*%
%ADD44C,0.009842*%
%ADD45C,0.031496*%
%ADD46C,0.015000*%
%ADD47C,0.013780*%
%ADD48C,0.027559*%
%ADD49C,0.007874*%
%TA.AperFunction,ComponentPad*%
%ADD50R,0.051181X0.051181*%
%ADD51C,0.051181*%
%ADD52O,0.059055X0.062992*%
%ADD53R,0.051181X0.068898*%
%ADD54R,0.040000X0.031496*%
%ADD55O,0.040000X0.031496*%
%ADD56O,0.031496X0.040000*%
%ADD57R,0.031496X0.040000*%
%ADD58C,0.059055*%
%ADD59R,0.059055X0.059055*%
%TA.AperFunction,ViaPad*%
%ADD60C,0.275591*%
%ADD61C,0.023622*%
%ADD62C,0.019685*%
%ADD63C,0.015748*%
G36*
X921965Y975315D02*
X909249Y962598D01*
X868652D01*
Y962097D01*
X859374D01*
Y970921D01*
X805193D01*
Y925173D01*
X859374D01*
Y933998D01*
X868652D01*
Y903543D01*
X922982D01*
Y937445D01*
X941868Y956330D01*
X1008343D01*
Y945578D01*
X990278Y927514D01*
X987298Y923054D01*
X986252Y917793D01*
Y875984D01*
X935581D01*
Y816929D01*
X989911D01*
Y837949D01*
X1009722Y857759D01*
X1012702Y862219D01*
X1013748Y867481D01*
Y912098D01*
X1020131Y918480D01*
X1062524D01*
Y932807D01*
X1135236D01*
Y921676D01*
X1130236Y919511D01*
X1124842Y920584D01*
X1118697Y919362D01*
X1113488Y915881D01*
X1110008Y910672D01*
X1108786Y904528D01*
X1110008Y898383D01*
X1111796Y895707D01*
Y892711D01*
X1112789Y887718D01*
X1114050Y885832D01*
X1111043Y881332D01*
X1106299Y882275D01*
X1098619Y880748D01*
X1092107Y876397D01*
X1087756Y869885D01*
X1086228Y862205D01*
X1087756Y854524D01*
X1090126Y850977D01*
X1090551Y846153D01*
X1090551Y846153D01*
Y827042D01*
X1082122D01*
X1080948Y827826D01*
X1074803Y829049D01*
X1025591D01*
X1025298Y828990D01*
X1016855Y827879D01*
X1008714Y824507D01*
X1001723Y819143D01*
X996359Y812152D01*
X992987Y804012D01*
X991941Y796063D01*
X991837Y795276D01*
X991817D01*
X991753Y791141D01*
X990164Y786799D01*
X989614Y785975D01*
X987244Y784392D01*
X984449Y783836D01*
Y783773D01*
X913386D01*
X912365Y783570D01*
X834646D01*
Y784664D01*
X814544D01*
X812992Y784973D01*
X811440Y784664D01*
X797244D01*
Y784664D01*
X793364Y783649D01*
X789370Y786974D01*
Y812136D01*
X789370D01*
Y812168D01*
X789370D01*
Y831824D01*
X789540Y832677D01*
X789589D01*
X789370Y834344D01*
Y849570D01*
X786150D01*
X783072Y856999D01*
X775342Y867074D01*
X765267Y874804D01*
X753535Y879664D01*
X740945Y881322D01*
Y881280D01*
X707598D01*
Y980315D01*
X919894D01*
X921965Y975315D01*
D02*
G37*
G36*
X1410154Y933122D02*
X1345106Y868074D01*
X1342278Y863841D01*
X1341285Y858849D01*
Y844436D01*
X1339646Y843211D01*
X1334646Y845718D01*
Y846153D01*
X1294972D01*
Y885827D01*
X1294542D01*
Y909951D01*
X1322333Y937741D01*
X1408241D01*
X1410154Y933122D01*
D02*
G37*
G36*
X1484622Y890151D02*
Y867650D01*
X1560370D01*
Y872879D01*
X1576406D01*
X1577848Y868127D01*
X1577457Y867568D01*
X1577344Y867492D01*
X1565291Y855440D01*
X1565073Y855114D01*
X1560370Y854398D01*
X1560370Y854398D01*
X1484622D01*
Y849069D01*
X1463362D01*
X1458370Y848076D01*
X1454137Y845248D01*
X1440039Y831150D01*
X1435039Y833221D01*
Y847101D01*
X1480003Y892065D01*
X1484622Y890151D01*
D02*
G37*
G36*
X1597634Y810197D02*
X1605315Y808669D01*
X1606667Y808938D01*
X1626718Y788888D01*
Y744577D01*
X1607915Y725774D01*
X1536547D01*
X1531555Y724781D01*
X1527322Y721953D01*
X1503321Y697951D01*
X1501968Y698220D01*
X1494288Y696692D01*
X1487776Y692342D01*
X1483426Y685830D01*
X1481898Y678150D01*
X1483426Y670469D01*
X1487776Y663957D01*
X1492529Y660782D01*
X1491012Y655782D01*
X1300972D01*
X1295545Y661208D01*
Y665354D01*
X1294972Y668236D01*
Y681406D01*
X1309656D01*
X1311024Y681134D01*
X1346848D01*
X1347599Y677359D01*
X1351950Y670847D01*
X1358461Y666496D01*
X1366142Y664969D01*
X1373822Y666496D01*
X1380334Y670847D01*
X1384685Y677359D01*
X1386212Y685039D01*
X1384685Y692720D01*
X1382145Y696521D01*
X1384818Y701521D01*
X1456594D01*
X1461587Y702514D01*
X1465819Y705342D01*
X1488926Y728448D01*
X1491754Y732681D01*
X1492747Y737673D01*
Y746420D01*
X1494590Y748263D01*
X1560522D01*
X1565514Y749256D01*
X1569747Y752085D01*
X1583741Y766079D01*
X1586569Y770311D01*
X1587562Y775303D01*
Y811563D01*
X1592562Y813587D01*
X1597634Y810197D01*
D02*
G37*
G36*
X1090551Y690559D02*
Y681406D01*
X1098175D01*
Y668920D01*
X1061391Y632137D01*
X1060039Y632406D01*
X1052359Y630878D01*
X1045847Y626527D01*
X1041496Y620016D01*
X1039969Y612335D01*
X1041270Y605794D01*
X1038520Y600794D01*
X1022237D01*
X1011903Y611128D01*
X1007345Y614173D01*
X1001968Y615243D01*
X979470D01*
X977557Y619862D01*
X1012056Y654361D01*
X1017536Y652770D01*
X1021241Y647225D01*
X1027752Y642874D01*
X1035433Y641347D01*
X1043114Y642874D01*
X1049625Y647225D01*
X1053976Y653737D01*
X1055504Y661417D01*
X1055400Y661941D01*
X1085932Y692473D01*
X1090551Y690559D01*
D02*
G37*
G36*
X1287402Y799516D02*
Y760146D01*
Y720776D01*
Y688976D01*
X1228650D01*
Y666722D01*
X1228378Y665354D01*
Y628759D01*
X1229424Y623497D01*
X1229876Y622821D01*
X1228945Y618140D01*
X1230473Y610460D01*
X1234824Y603948D01*
X1241335Y599597D01*
X1249016Y598070D01*
X1256696Y599597D01*
X1263208Y603948D01*
X1267559Y610460D01*
X1267943Y612391D01*
X1272727Y613842D01*
X1281048Y605522D01*
X1281905Y604239D01*
X1286463Y601193D01*
X1291840Y600124D01*
X1438365D01*
X1439882Y595124D01*
X1439548Y594901D01*
X1435197Y588389D01*
X1433669Y580709D01*
X1433938Y579357D01*
X1429664Y575082D01*
X1230227D01*
X1227486Y580082D01*
X1228791Y586643D01*
X1227263Y594323D01*
X1222912Y600835D01*
X1217103Y604717D01*
Y664756D01*
X1216232Y669132D01*
Y688976D01*
X1137795D01*
Y720776D01*
Y760146D01*
Y799516D01*
Y838583D01*
X1287402D01*
Y799516D01*
D02*
G37*
G36*
X838583Y528543D02*
X848155D01*
Y518701D01*
X849225Y513324D01*
X852270Y508766D01*
X870793Y490243D01*
Y450701D01*
X866539Y446448D01*
X723737D01*
X723504Y446401D01*
X718504Y450505D01*
Y488976D01*
X706963D01*
Y497524D01*
X707106Y497619D01*
X711456Y504130D01*
X712984Y511811D01*
X711456Y519492D01*
X708272Y524258D01*
X710550Y529258D01*
X745751D01*
X751128Y530327D01*
X755686Y533373D01*
X759160Y536847D01*
X763779Y534933D01*
Y528543D01*
X803149D01*
Y587144D01*
X838583D01*
Y528543D01*
D02*
G37*
G36*
X147417Y580563D02*
Y534721D01*
X173296D01*
X200517Y507499D01*
Y464567D01*
X181102D01*
Y397607D01*
X112559D01*
X110646Y402226D01*
X117694Y409275D01*
X120674Y413735D01*
X121721Y418996D01*
Y534721D01*
X129354D01*
Y569033D01*
X142798Y582476D01*
X147417Y580563D01*
D02*
G37*
G36*
X2303150Y318496D02*
X2299615Y314960D01*
X2214567Y314961D01*
X2165354Y265748D01*
X2137795D01*
X2137795Y433071D01*
X2157480Y452756D01*
X2303149D01*
X2303150Y318496D01*
D02*
G37*
G36*
X2096457Y249682D02*
X2093898Y248622D01*
X2020669D01*
Y354921D01*
X2020079Y354331D01*
X1929134D01*
Y383858D01*
X1923228Y389764D01*
X1886838D01*
X1883337Y393333D01*
X1883858Y420276D01*
X2096457D01*
Y249682D01*
D02*
G37*
G36*
X837135Y317638D02*
X832779Y316771D01*
X826267Y312420D01*
X821916Y305909D01*
X820389Y298228D01*
Y239478D01*
X777559D01*
Y240945D01*
X723723D01*
X722885Y241783D01*
X721307Y242838D01*
X721017Y247920D01*
X724503Y251181D01*
X777559D01*
Y270231D01*
X780064Y271905D01*
X785720Y280370D01*
X787706Y290354D01*
Y322638D01*
X836643D01*
X837135Y317638D01*
D02*
G37*
G36*
X303783Y980315D02*
X304173Y745078D01*
X707598Y745079D01*
Y837951D01*
X712598Y842512D01*
X744375D01*
X744970Y842394D01*
X748382Y840114D01*
X750312Y837224D01*
X751405Y832677D01*
X751405Y832677D01*
X751968Y829846D01*
Y812168D01*
X751968D01*
Y812136D01*
X751968D01*
Y774735D01*
X759024D01*
X760515Y771135D01*
X767603Y761897D01*
X776841Y754809D01*
X787598Y750353D01*
X797244Y749083D01*
Y747263D01*
X834646D01*
Y751457D01*
X913182D01*
X913183Y751457D01*
X914204Y751660D01*
X984449D01*
Y751630D01*
X994675Y752977D01*
X1004204Y756924D01*
X1012387Y763203D01*
X1018666Y771386D01*
X1022613Y780915D01*
X1023959Y791141D01*
X1023959Y791141D01*
X1024130Y793490D01*
X1026582Y796936D01*
X1060841D01*
X1063852Y792299D01*
X1063807Y791936D01*
X1057651Y787822D01*
X1053300Y781311D01*
X1051772Y773630D01*
X1053300Y765949D01*
X1057651Y759438D01*
X1064162Y755087D01*
X1071843Y753559D01*
X1079523Y755087D01*
X1085551Y759115D01*
X1088239Y758452D01*
X1090551Y757418D01*
Y749551D01*
X1085551Y748112D01*
X1084638Y748293D01*
X1072069D01*
X1066693Y747224D01*
X1062135Y744178D01*
X956022Y638065D01*
X882657D01*
X877953Y638780D01*
X877953Y643065D01*
Y697835D01*
X876087D01*
X875691Y699826D01*
X871775Y705686D01*
X865915Y709602D01*
X859002Y710977D01*
X852090Y709602D01*
X846229Y705686D01*
X842313Y699826D01*
X841917Y697835D01*
X838583D01*
X838583Y638780D01*
X833879Y638065D01*
X807854D01*
X803150Y638780D01*
X803149Y643065D01*
Y697835D01*
X763779D01*
X763779Y638780D01*
X759075Y638065D01*
X745582D01*
X740205Y636996D01*
X735647Y633950D01*
X705056Y603359D01*
X670744D01*
Y594758D01*
X658724D01*
X657813Y594758D01*
X656496Y599213D01*
X656496Y599674D01*
X656496Y602872D01*
Y642520D01*
X605315D01*
Y634916D01*
X161319D01*
X155942Y633846D01*
X151384Y630801D01*
X109485Y588902D01*
X83606D01*
Y534721D01*
X94224D01*
Y503937D01*
X35433D01*
Y444882D01*
X94224D01*
Y424691D01*
X82919Y413386D01*
X35433D01*
Y354331D01*
X102362D01*
Y370110D01*
X264055D01*
X264351Y369666D01*
X270863Y365315D01*
X278543Y363788D01*
X286224Y365315D01*
X292735Y369666D01*
X297086Y376178D01*
X298614Y383858D01*
X297086Y391539D01*
X292735Y398050D01*
X286224Y402401D01*
X278543Y403929D01*
X270863Y402401D01*
X264351Y398050D01*
X264055Y397607D01*
X248031D01*
Y415084D01*
X408390D01*
X409179Y414558D01*
Y334252D01*
X360703D01*
X359252Y334252D01*
Y334252D01*
X355812Y333986D01*
Y333986D01*
X301632D01*
Y288238D01*
X355813D01*
Y288238D01*
X359252Y290945D01*
X382604D01*
Y281102D01*
X383673Y275726D01*
X386719Y271168D01*
X389494Y268393D01*
Y243616D01*
X389764Y242258D01*
Y220978D01*
X456693D01*
Y242258D01*
X456963Y243616D01*
Y249052D01*
X458661Y253551D01*
X466342Y255079D01*
X472853Y259430D01*
X477204Y265941D01*
X478732Y273622D01*
X477204Y281303D01*
X472853Y287814D01*
X466342Y292165D01*
X458661Y293693D01*
X450981Y292165D01*
X444469Y287814D01*
X442278Y284534D01*
X437278Y286051D01*
Y421615D01*
X436219Y426936D01*
X485353Y476070D01*
X508858D01*
Y460630D01*
X579724D01*
Y523622D01*
X508858D01*
Y508183D01*
X478702D01*
X478702Y508183D01*
X472557Y506960D01*
X467348Y503480D01*
X467348Y503479D01*
X407052Y443183D01*
X248031D01*
Y464567D01*
X228616D01*
Y513319D01*
X227547Y518695D01*
X224501Y523253D01*
X193165Y554590D01*
Y588902D01*
X155756D01*
X153843Y593521D01*
X167138Y606817D01*
X605315D01*
Y599213D01*
X651496D01*
X653261Y599212D01*
X653753Y594213D01*
X651120Y593689D01*
X646562Y590643D01*
X636627Y580709D01*
X605315D01*
Y537402D01*
X648795D01*
X650708Y532782D01*
X647546Y529620D01*
X644500Y525062D01*
X643431Y519685D01*
Y488976D01*
X632160D01*
Y497524D01*
X632302Y497619D01*
X636653Y504130D01*
X638181Y511811D01*
X636653Y519492D01*
X632302Y526003D01*
X625791Y530354D01*
X618110Y531882D01*
X610429Y530354D01*
X603918Y526003D01*
X599567Y519492D01*
X598039Y511811D01*
X599567Y504130D01*
X603918Y497619D01*
X604061Y497524D01*
Y488976D01*
X592520D01*
Y445669D01*
X635803D01*
X637716Y441050D01*
X623832Y427165D01*
X592520D01*
Y403727D01*
X542428Y353635D01*
X539382Y349077D01*
X538313Y343701D01*
Y326181D01*
X523488D01*
Y293898D01*
Y268307D01*
X580960D01*
X584550Y264680D01*
X583819Y263586D01*
X582292Y255905D01*
X583819Y248225D01*
X588170Y241713D01*
X594682Y237363D01*
X602362Y235835D01*
X610043Y237363D01*
X616554Y241713D01*
X618488Y244608D01*
X623488Y243091D01*
Y217126D01*
X681236D01*
Y221225D01*
X706693D01*
Y185827D01*
X777559D01*
Y187294D01*
X1590394D01*
X1600379Y189280D01*
X1608843Y194936D01*
X1618396Y204488D01*
X1707874D01*
Y224129D01*
X1711820Y228075D01*
X1744095D01*
Y222441D01*
X1873707D01*
Y216126D01*
X1871221Y212405D01*
X1869693Y204724D01*
X1871221Y197044D01*
X1875572Y190532D01*
X1882083Y186181D01*
X1889764Y184654D01*
X1897445Y186181D01*
X1903956Y190532D01*
X1908307Y197044D01*
X1909165Y201359D01*
X1914591Y203005D01*
X1921333Y196263D01*
Y153543D01*
X1922526Y147544D01*
X1925924Y142459D01*
X1954724Y113659D01*
Y92520D01*
X2005905D01*
Y132785D01*
X2010905Y134856D01*
X2017415Y128346D01*
Y119862D01*
X2017717Y118347D01*
Y91929D01*
X2068898D01*
Y135236D01*
X2048687D01*
X2047572Y140837D01*
X2044175Y145923D01*
X2023003Y167094D01*
X2024998Y171644D01*
X2025308Y171860D01*
X2031027Y170722D01*
X2045654D01*
Y158465D01*
X2072080D01*
X2074213Y158040D01*
X2109252D01*
X2117701Y159721D01*
X2124863Y164507D01*
X2159312Y198956D01*
X2164098Y206118D01*
X2165732Y214335D01*
X2169155Y217757D01*
X2173940Y224920D01*
X2175621Y233369D01*
Y264661D01*
X2217892Y306932D01*
X2299614Y306932D01*
X2299615Y306932D01*
X2302687Y307543D01*
X2305291Y309284D01*
X2308827Y312819D01*
X2310567Y315424D01*
X2311178Y318496D01*
X2311177Y452756D01*
X2310566Y455828D01*
X2308826Y458433D01*
X2306221Y460173D01*
X2303149Y460784D01*
X2157481D01*
X2157480Y460784D01*
X2154408Y460173D01*
X2151803Y458433D01*
X2132119Y438748D01*
X2130378Y436143D01*
X2129767Y433071D01*
X2129767Y265748D01*
X2130378Y262676D01*
X2131466Y261048D01*
Y242514D01*
X2128089Y239137D01*
X2123304Y231975D01*
X2121669Y223758D01*
X2100107Y202196D01*
X2074213D01*
X2072080Y201772D01*
X2069448D01*
X2067933Y202073D01*
X2037520D01*
X2017269Y222324D01*
X2012184Y225722D01*
X2009465Y226263D01*
Y242218D01*
X2014465Y243735D01*
X2014992Y242945D01*
X2017597Y241205D01*
X2020669Y240594D01*
X2045654D01*
Y233268D01*
X2100772D01*
Y243095D01*
X2102134Y244005D01*
X2103874Y246610D01*
X2104485Y249682D01*
Y420276D01*
X2103874Y423348D01*
X2102134Y425952D01*
X2099529Y427693D01*
X2097441Y431853D01*
Y495276D01*
X2056058D01*
X2040529Y510804D01*
X2034669Y514720D01*
X2027756Y516095D01*
X2020843Y514720D01*
X2019897Y514088D01*
X1893701D01*
Y525590D01*
X1846457D01*
Y470472D01*
X1893701D01*
Y481975D01*
X2018267D01*
X2030512Y469730D01*
X2030512Y428347D01*
X2025530Y428304D01*
X1917323D01*
Y442913D01*
X1744095D01*
Y368110D01*
X1917323D01*
X1921106Y365172D01*
Y354331D01*
X1921717Y351258D01*
X1923457Y348654D01*
X1926062Y346913D01*
X1929134Y346302D01*
X1947940D01*
X1949748Y342051D01*
X1949748Y341302D01*
Y287870D01*
X1959200D01*
Y276575D01*
X1954347D01*
Y233268D01*
Y213479D01*
X1949347Y211962D01*
X1948092Y213840D01*
X1917323Y244609D01*
Y297244D01*
X1744095D01*
Y291610D01*
X1698661D01*
X1690439Y290528D01*
X1682777Y287354D01*
X1676198Y282306D01*
X1662947Y269055D01*
X1581496D01*
Y241388D01*
X1579586Y239478D01*
X860530D01*
Y298228D01*
X859002Y305909D01*
X854651Y312420D01*
X848140Y316771D01*
X843783Y317638D01*
X844276Y322638D01*
X870275D01*
Y338286D01*
X1312212D01*
X1322197Y340272D01*
X1330662Y345928D01*
X1386559Y401825D01*
X1392215Y410290D01*
X1394201Y420275D01*
Y453980D01*
X1394785Y454427D01*
X1400780Y462240D01*
X1404549Y471339D01*
X1405834Y481102D01*
Y485039D01*
X1404549Y494803D01*
X1400780Y503901D01*
X1394785Y511714D01*
X1386972Y517710D01*
X1377873Y521478D01*
X1368110Y522764D01*
X1358346Y521478D01*
X1349248Y517710D01*
X1341435Y511714D01*
X1335440Y503901D01*
X1331671Y494803D01*
X1330386Y485039D01*
Y481102D01*
X1331671Y471339D01*
X1335440Y462240D01*
X1341435Y454427D01*
X1342018Y453980D01*
Y431083D01*
X1301405Y390469D01*
X816543D01*
X806558Y388483D01*
X804644Y387205D01*
X743898D01*
Y359294D01*
X743164Y358804D01*
X737508Y350339D01*
X735522Y340354D01*
Y306299D01*
X706693D01*
Y270901D01*
X698819D01*
X698818Y270901D01*
X681433D01*
Y275000D01*
X623685D01*
Y271014D01*
X618685Y268864D01*
X616412Y271019D01*
Y277626D01*
X632683Y293898D01*
X681236D01*
Y326181D01*
X623488D01*
Y322959D01*
X619021Y319974D01*
X607960Y308912D01*
X602685Y310709D01*
X602349Y313296D01*
X672911Y383858D01*
X718504D01*
Y407296D01*
X729556Y418349D01*
X872359D01*
X877735Y419418D01*
X882293Y422464D01*
X894777Y434947D01*
X897822Y439505D01*
X898892Y444882D01*
Y496063D01*
X897822Y501440D01*
X894777Y505998D01*
X877231Y523543D01*
X877953Y528543D01*
X877953D01*
Y543225D01*
X1086348D01*
X1091724Y544294D01*
X1096282Y547340D01*
X1097139Y548623D01*
X1122020Y573504D01*
X1126142Y570673D01*
X1124614Y562992D01*
X1126142Y555311D01*
X1130493Y548800D01*
X1137004Y544449D01*
X1144685Y542921D01*
X1152366Y544449D01*
X1158877Y548800D01*
X1159005Y548991D01*
X1435068D01*
X1440061Y549984D01*
X1444293Y552812D01*
X1452388Y560907D01*
X1453740Y560638D01*
X1461421Y562166D01*
X1467932Y566517D01*
X1472283Y573028D01*
X1473811Y580709D01*
X1472283Y588389D01*
X1467932Y594901D01*
X1467599Y595124D01*
X1469116Y600124D01*
X1474098D01*
X1577130Y497092D01*
X1577130Y497091D01*
X1582340Y493611D01*
X1588484Y492388D01*
X1588485Y492389D01*
X1607953D01*
Y484823D01*
X1663701D01*
Y491494D01*
X1686192D01*
X1696323Y481363D01*
X1696323Y481363D01*
X1701533Y477882D01*
X1707677Y476660D01*
X1707678Y476660D01*
X1738189D01*
Y471063D01*
X1789370D01*
Y514370D01*
X1738189D01*
Y508773D01*
X1714328D01*
X1704197Y518904D01*
X1698987Y522385D01*
X1692843Y523607D01*
X1692842Y523607D01*
X1663701D01*
Y532067D01*
X1607953D01*
Y524501D01*
X1595135D01*
X1496954Y622683D01*
X1499025Y627683D01*
X1749213D01*
Y616142D01*
X1792520D01*
Y667323D01*
X1749213D01*
Y655782D01*
X1512925D01*
X1511408Y660782D01*
X1516161Y663957D01*
X1520511Y670469D01*
X1522039Y678150D01*
X1521770Y679502D01*
X1541951Y699682D01*
X1613319D01*
X1618311Y700676D01*
X1622544Y703504D01*
X1648989Y729948D01*
X1651817Y734181D01*
X1652810Y739173D01*
Y794291D01*
X1651817Y799284D01*
X1648989Y803516D01*
X1625117Y827388D01*
X1625386Y828740D01*
X1623858Y836421D01*
X1619507Y842932D01*
X1619572Y848903D01*
X1619782Y849043D01*
X1632256Y861517D01*
X1635084Y865750D01*
X1636077Y870742D01*
Y873533D01*
X1637293Y874749D01*
X1693415D01*
X1741366Y826799D01*
X1745598Y823971D01*
X1750591Y822978D01*
X1786087D01*
Y817650D01*
X1861835D01*
Y854398D01*
X1786087D01*
Y849069D01*
X1755994D01*
X1743260Y861804D01*
X1745723Y866412D01*
X1748032Y865953D01*
X1755712Y867481D01*
X1762224Y871832D01*
X1762520Y872275D01*
X1786087D01*
Y867650D01*
X1861835D01*
Y894679D01*
X1866454Y896592D01*
X1872584Y890462D01*
Y819077D01*
X1857905Y804398D01*
X1786087D01*
Y767650D01*
X1861835D01*
Y773975D01*
X1863260Y774258D01*
X1867493Y777086D01*
X1887847Y797440D01*
X1892466Y795527D01*
Y776443D01*
X1866835Y750812D01*
X1861835Y752883D01*
Y754398D01*
X1786087D01*
Y717650D01*
X1861835D01*
Y722978D01*
X1870496D01*
X1875489Y723971D01*
X1879721Y726799D01*
X1914737Y761814D01*
X1917565Y766047D01*
X1918558Y771039D01*
Y911024D01*
X1917565Y916016D01*
X1914737Y920248D01*
X1901863Y933122D01*
X1903776Y937741D01*
X1916405D01*
X1962215Y891932D01*
Y730150D01*
X1961907Y729944D01*
X1956686Y722130D01*
X1954852Y712913D01*
Y704409D01*
X1956686Y695192D01*
X1961907Y687379D01*
X1969720Y682158D01*
X1978937Y680325D01*
X1988154Y682158D01*
X1995967Y687379D01*
X2001188Y695192D01*
X2001388Y696196D01*
X2006486D01*
X2006686Y695192D01*
X2011907Y687379D01*
X2019720Y682158D01*
X2028937Y680325D01*
X2038154Y682158D01*
X2045967Y687379D01*
X2050315Y693885D01*
X2055315Y692368D01*
Y680787D01*
X2102559D01*
Y736535D01*
X2055315D01*
Y724954D01*
X2050315Y723438D01*
X2045967Y729944D01*
X2045210Y730450D01*
Y793898D01*
X2054744D01*
Y837205D01*
X2003563D01*
Y793898D01*
X2013097D01*
Y730739D01*
X2011907Y729944D01*
X2006686Y722130D01*
X2006486Y721127D01*
X2001388D01*
X2001188Y722130D01*
X1995967Y729944D01*
X1994328Y731039D01*
Y894722D01*
X1993106Y900867D01*
X1989625Y906076D01*
X1984416Y909557D01*
X1984306Y909579D01*
X1942062Y951823D01*
X1943975Y956442D01*
X1961467D01*
X2013894Y904016D01*
X2012182Y899016D01*
X2003563D01*
Y855709D01*
X2054744D01*
Y899016D01*
X2043203D01*
Y908625D01*
X2042133Y914001D01*
X2039088Y918559D01*
X1982333Y975315D01*
X1984404Y980315D01*
X2397638D01*
X2456693Y921260D01*
X2456692Y63976D01*
X2398622Y5906D01*
X1913386Y5906D01*
X1913386Y175197D01*
X549213Y175197D01*
X549212Y5906D01*
X63976D01*
X4921Y64961D01*
X4921Y922244D01*
X62992Y980315D01*
X303783Y980315D01*
D02*
G37*
%LPC*%
G36*
X2429134Y677165D02*
X2362205D01*
Y651209D01*
X2304317Y593321D01*
X2301053Y588438D01*
X2299908Y582677D01*
Y569227D01*
X2285104Y554423D01*
X2242456D01*
X2234569Y562310D01*
X2236482Y566929D01*
X2283465D01*
Y637795D01*
X2236559D01*
X2233507Y639834D01*
X2227362Y641057D01*
X2227362Y641057D01*
X2145260D01*
X2141539Y643543D01*
X2133858Y645071D01*
X2126178Y643543D01*
X2119666Y639192D01*
X2115315Y632681D01*
X2113788Y625000D01*
X2115315Y617319D01*
X2119666Y610808D01*
X2126178Y606457D01*
X2133858Y604929D01*
X2141539Y606457D01*
X2145260Y608943D01*
X2216535D01*
Y579126D01*
X2213779Y576864D01*
X2093963D01*
X2093208Y578688D01*
X2087844Y585678D01*
X2080853Y591042D01*
X2072712Y594414D01*
X2063976Y595564D01*
X2055240Y594414D01*
X2047100Y591042D01*
X2040109Y585678D01*
X2034745Y578688D01*
X2031373Y570547D01*
X2030223Y561811D01*
X2031373Y553075D01*
X2034745Y544934D01*
X2040109Y537944D01*
X2047100Y532580D01*
X2055240Y529208D01*
X2063976Y528058D01*
X2072712Y529208D01*
X2080853Y532580D01*
X2087844Y537944D01*
X2093208Y544934D01*
X2093963Y546758D01*
X2207544D01*
X2225576Y528726D01*
X2230460Y525463D01*
X2236220Y524317D01*
X2291339D01*
X2297099Y525463D01*
X2301983Y528726D01*
X2325605Y552348D01*
X2328868Y557232D01*
X2330014Y562992D01*
Y576442D01*
X2371682Y618110D01*
X2429134D01*
Y677165D01*
D02*
G37*
G36*
X1854331Y667323D02*
X1811024D01*
Y616142D01*
X1854331D01*
Y627683D01*
X1877448D01*
X1891462Y613669D01*
Y608268D01*
X1883858D01*
Y553150D01*
X1931102D01*
Y608268D01*
X1919561D01*
Y619488D01*
X1918492Y624865D01*
X1915446Y629423D01*
X1893202Y651667D01*
X1888644Y654712D01*
X1883268Y655782D01*
X1854331D01*
Y667323D01*
D02*
G37*
G36*
X1720472Y614559D02*
X1712792Y613031D01*
X1706280Y608680D01*
X1701929Y602169D01*
X1700402Y594488D01*
X1701929Y586808D01*
X1706280Y580296D01*
X1712792Y575945D01*
X1719987Y574514D01*
X1738189Y556312D01*
Y532874D01*
X1789370D01*
Y576181D01*
X1758058D01*
X1740412Y593827D01*
X1740543Y594488D01*
X1739015Y602169D01*
X1734665Y608680D01*
X1728153Y613031D01*
X1720472Y614559D01*
D02*
G37*
G36*
X2429134Y586614D02*
X2362205D01*
Y527559D01*
X2429134D01*
Y586614D01*
D02*
G37*
G36*
X1269685Y522764D02*
X1259921Y521478D01*
X1250823Y517710D01*
X1243010Y511714D01*
X1239512Y507156D01*
X1221118D01*
X1217620Y511714D01*
X1209807Y517710D01*
X1200709Y521478D01*
X1190945Y522764D01*
X1181181Y521478D01*
X1172083Y517710D01*
X1164270Y511714D01*
X1158275Y503901D01*
X1154506Y494803D01*
X1153221Y485039D01*
Y481102D01*
X1154506Y471339D01*
X1158275Y462240D01*
X1164270Y454427D01*
X1172083Y448432D01*
X1181181Y444664D01*
X1190945Y443378D01*
X1200709Y444664D01*
X1209807Y448432D01*
X1217620Y454427D01*
X1221118Y458986D01*
X1239512D01*
X1243010Y454427D01*
X1250823Y448432D01*
X1259921Y444664D01*
X1269685Y443378D01*
X1279449Y444664D01*
X1288547Y448432D01*
X1296360Y454427D01*
X1302355Y462240D01*
X1306124Y471339D01*
X1307409Y481102D01*
Y485039D01*
X1306124Y494803D01*
X1302355Y503901D01*
X1296360Y511714D01*
X1288547Y517710D01*
X1279449Y521478D01*
X1269685Y522764D01*
D02*
G37*
G36*
X535433Y406882D02*
X527752Y405354D01*
X521241Y401003D01*
X518518Y396927D01*
X504453D01*
Y401734D01*
X450272D01*
Y355986D01*
X504453D01*
Y358793D01*
X526482D01*
X533779Y360244D01*
X539965Y364378D01*
X545348Y369761D01*
X549625Y372619D01*
X553976Y379130D01*
X555504Y386811D01*
X553976Y394492D01*
X549625Y401003D01*
X543114Y405354D01*
X535433Y406882D01*
D02*
G37*
G36*
X488556Y232303D02*
X480875Y230775D01*
X474363Y226424D01*
X470013Y219912D01*
X468485Y212232D01*
X470013Y204551D01*
X474363Y198040D01*
X474506Y197944D01*
Y143492D01*
X456693D01*
Y152080D01*
X370079D01*
Y130800D01*
X369809Y129443D01*
Y113860D01*
X349526Y93578D01*
X346481Y89020D01*
X345411Y83644D01*
Y75787D01*
X336024D01*
Y24606D01*
X379331D01*
Y32343D01*
X384331Y35015D01*
X387004Y33229D01*
X394685Y31701D01*
X402366Y33229D01*
X406024Y35673D01*
X411024Y33000D01*
Y25591D01*
X454331D01*
Y75350D01*
X455840Y76359D01*
X460191Y82871D01*
X461719Y90551D01*
X460191Y98232D01*
X457563Y102165D01*
X456693Y106805D01*
X456693Y106805D01*
X456693Y106805D01*
Y115393D01*
X474506D01*
Y76772D01*
X472835D01*
Y25591D01*
X516142D01*
Y76772D01*
X502605D01*
Y197944D01*
X502748Y198040D01*
X507099Y204551D01*
X508626Y212232D01*
X507099Y219912D01*
X502748Y226424D01*
X496236Y230775D01*
X488556Y232303D01*
D02*
G37*
G36*
X2131890Y74016D02*
X2080709D01*
Y68037D01*
X2068898D01*
Y73425D01*
X2017717D01*
Y68037D01*
X2005905D01*
Y74016D01*
X1954724D01*
Y30709D01*
X2005905D01*
Y36687D01*
X2017717D01*
Y30118D01*
X2068898D01*
Y36687D01*
X2080709D01*
Y30709D01*
X2131890D01*
Y74016D01*
D02*
G37*
%LPD*%
D10*
X770669Y793436D02*
G03*
X799142Y764963I28473J0D01*
G01*
X1025591Y812992D02*
G03*
X1007874Y795276I0J-17716D01*
G01*
X984449Y767716D02*
G03*
X1007873Y791141I0J23424D01*
G01*
X1707677Y492716D02*
X1763780D01*
X1692843Y507551D02*
X1707677Y492716D01*
X1636721Y507551D02*
X1692843D01*
X1635827Y508445D02*
X1636721Y507551D01*
X1482756Y614173D02*
X1588484Y508445D01*
X1635827D01*
X415710Y429134D02*
X478702Y492126D01*
X544291D01*
X1978272Y712598D02*
Y894722D01*
X2029153Y709571D02*
Y815551D01*
X2133858Y625000D02*
X2227362D01*
X2230315Y622047D01*
X2232283D01*
X2250000Y604331D01*
Y602362D02*
Y604331D01*
X770669Y793436D02*
Y794436D01*
X815945Y767513D02*
X913183D01*
X799142Y764963D02*
X815945D01*
X812992Y768916D02*
X815945Y765963D01*
Y764963D02*
Y765963D01*
X1889764Y204724D02*
Y238189D01*
X1864173Y263779D02*
X1889764Y238189D01*
X1830709Y263779D02*
X1864173D01*
X1025591Y812992D02*
X1074803D01*
X913386Y767716D02*
X984449D01*
X913183Y767513D02*
X913386Y767716D01*
X1870079Y498031D02*
X2027756D01*
D11*
X770472Y832677D02*
G03*
X740945Y862205I-29527J0D01*
G01*
X526482Y377860D02*
X535433Y386811D01*
X477362Y377860D02*
X526482D01*
X727360Y862213D02*
X740945D01*
X607858D02*
X727360D01*
D12*
X858268Y668307D02*
D03*
X783465D02*
D03*
X858268Y558071D02*
D03*
X820866D02*
D03*
X783465D02*
D03*
D13*
X544291Y492126D02*
D03*
D14*
X304134D02*
D03*
D15*
X413386Y186529D02*
D03*
D16*
X383858Y129443D02*
D03*
X403543D02*
D03*
X423228D02*
D03*
X442913D02*
D03*
X383858Y243616D02*
D03*
X403543D02*
D03*
X423228D02*
D03*
X442913D02*
D03*
D17*
X494488Y51181D02*
D03*
X432677D02*
D03*
X295866Y50197D02*
D03*
X357677D02*
D03*
X1095079Y915354D02*
D03*
X1156890D02*
D03*
X1770866Y641732D02*
D03*
X1832677D02*
D03*
D18*
X1114173Y832677D02*
D03*
Y812992D02*
D03*
Y793307D02*
D03*
Y773622D02*
D03*
Y753937D02*
D03*
Y734252D02*
D03*
Y714567D02*
D03*
Y694882D02*
D03*
X1311024D02*
D03*
Y714567D02*
D03*
Y734252D02*
D03*
Y753937D02*
D03*
Y773622D02*
D03*
Y793307D02*
D03*
Y812992D02*
D03*
Y832677D02*
D03*
D19*
X1143701Y665354D02*
D03*
X1163386D02*
D03*
X1183071D02*
D03*
X1202756D02*
D03*
X1222441D02*
D03*
X1242126D02*
D03*
X1261811D02*
D03*
X1281496D02*
D03*
Y862205D02*
D03*
X1261811D02*
D03*
X1242126D02*
D03*
X1222441D02*
D03*
X1202756D02*
D03*
X1183071D02*
D03*
X1163386D02*
D03*
X1143701D02*
D03*
D20*
X1212598Y763779D02*
D03*
D21*
X604342Y862213D02*
D03*
X399618D02*
D03*
D22*
X501980Y897646D02*
D03*
X502964Y830716D02*
D03*
D23*
X1522496Y886024D02*
D03*
Y836024D02*
D03*
Y786024D02*
D03*
Y736024D02*
D03*
X1823961D02*
D03*
Y786024D02*
D03*
Y836024D02*
D03*
Y886024D02*
D03*
D24*
X1907480Y580709D02*
D03*
X1832677D02*
D03*
X1870079Y498031D02*
D03*
D25*
X1981906Y254921D02*
D03*
Y217520D02*
D03*
Y180118D02*
D03*
X2073213Y254921D02*
D03*
Y217520D02*
D03*
Y180118D02*
D03*
D26*
X652362Y233268D02*
D03*
X652559Y258858D02*
D03*
X652362Y284449D02*
D03*
Y310039D02*
D03*
X552362D02*
D03*
Y284449D02*
D03*
Y258858D02*
D03*
Y233268D02*
D03*
D27*
X807087Y471850D02*
D03*
Y354921D02*
D03*
X1644685Y353701D02*
D03*
Y236772D02*
D03*
D28*
X2276181Y384646D02*
D03*
X2393110D02*
D03*
D29*
X1830709Y259842D02*
D03*
Y405512D02*
D03*
D30*
X742126Y213386D02*
D03*
Y278740D02*
D03*
D31*
X68898Y383858D02*
D03*
Y474409D02*
D03*
X2395669Y647638D02*
D03*
Y557087D02*
D03*
D32*
X214567Y429134D02*
D03*
X2250000Y602362D02*
D03*
D33*
X1409449Y843898D02*
D03*
Y782087D02*
D03*
X2029153Y877362D02*
D03*
Y815551D02*
D03*
X1763780Y554528D02*
D03*
Y492716D02*
D03*
X618110Y405512D02*
D03*
Y467323D02*
D03*
X692913D02*
D03*
Y405512D02*
D03*
X384842Y312598D02*
D03*
Y374409D02*
D03*
X1980315Y114173D02*
D03*
Y52362D02*
D03*
X2106299Y114173D02*
D03*
Y52362D02*
D03*
X2043307Y113583D02*
D03*
Y51772D02*
D03*
X630905Y620866D02*
D03*
Y559055D02*
D03*
D34*
X770669Y793436D02*
D03*
Y830869D02*
D03*
X815945Y728530D02*
D03*
Y765963D02*
D03*
X727360Y898646D02*
D03*
Y861213D02*
D03*
D35*
X477362Y315049D02*
D03*
Y378860D02*
D03*
X328722Y374923D02*
D03*
Y311112D02*
D03*
X1035433Y877543D02*
D03*
Y941354D02*
D03*
X832283Y884236D02*
D03*
Y948047D02*
D03*
X697835Y644296D02*
D03*
Y580485D02*
D03*
D36*
X106480Y561811D02*
D03*
X170291D02*
D03*
X2036433Y314961D02*
D03*
X1972622D02*
D03*
D37*
X895817Y846457D02*
D03*
Y933071D02*
D03*
X962746D02*
D03*
Y846457D02*
D03*
D38*
X628956Y310039D02*
X652362D01*
X602362Y283446D02*
X628956Y310039D01*
X488556Y51181D02*
Y212232D01*
X859064Y557274D02*
X862205Y554134D01*
X858268Y558071D02*
X859064Y557274D01*
X723737Y432398D02*
X872359D01*
X884842Y444882D01*
Y496063D01*
X862205Y518701D02*
X884842Y496063D01*
X862205Y518701D02*
Y554134D01*
X859064Y557274D02*
X1086348D01*
X681102Y543307D02*
X745751D01*
X760515Y558071D01*
X783465D01*
X634842Y559055D02*
X656496Y580709D01*
X697058D01*
X697835Y581485D01*
X703051D02*
X745582Y624016D01*
X697835Y581485D02*
X703051D01*
X783465Y571851D02*
Y592520D01*
Y571851D02*
X783465Y571850D01*
X783465Y571850D02*
X783465Y571850D01*
X783465Y558071D02*
Y571850D01*
Y592520D02*
X792138Y601193D01*
X1001968D02*
X1016417Y586745D01*
X792138Y601193D02*
X1001968D01*
X961841Y624016D02*
X1072069Y734244D01*
X745582Y624016D02*
X961841D01*
X1016417Y586745D02*
X1086745D01*
X362819Y51772D02*
X389764D01*
X424186D01*
X425760Y50197D01*
X359461Y48413D02*
X362819Y51772D01*
X359461Y48413D02*
Y83644D01*
X383858Y108041D01*
Y129443D01*
X311319Y50886D02*
Y87894D01*
X310630Y50197D02*
X311319Y50886D01*
X602362Y255905D02*
Y283446D01*
X1281496Y655815D02*
Y665354D01*
X1295578Y641732D02*
X1770866D01*
X1291840Y614173D02*
X1482756D01*
X442913Y129443D02*
X488077D01*
X442913Y257874D02*
X458661Y273622D01*
X387052Y315792D02*
X387795Y316535D01*
X342759Y315792D02*
X387052D01*
X423228Y243616D02*
Y421615D01*
X415710Y429134D02*
X423228Y421615D01*
X214567Y429134D02*
X415710D01*
X425760Y50197D02*
X426745Y51181D01*
X391714Y378346D02*
X395651D01*
X342502Y316049D02*
X342759Y315792D01*
X423228Y108971D02*
X441648Y90551D01*
X423228Y108971D02*
Y129443D01*
X358268Y264764D02*
X360527Y262504D01*
X373829D01*
X383858Y252474D01*
Y243616D02*
Y252474D01*
X442913Y243616D02*
Y257874D01*
X396654Y281102D02*
X403543Y274212D01*
Y243616D02*
Y274212D01*
X396654Y281102D02*
Y304724D01*
X550000Y235630D02*
X552362Y233268D01*
X550000Y256496D02*
X552362Y258858D01*
X1923228Y950787D02*
X1979293Y894722D01*
X1035433Y878543D02*
X1043528Y886638D01*
X1070299D01*
X1095079Y911417D01*
Y915354D01*
X1072069Y734244D02*
X1084638D01*
X2347345Y505804D02*
X2385827Y467323D01*
X2029153Y877362D02*
Y908625D01*
X1968889Y968889D02*
X2029153Y908625D01*
X2379921Y647638D02*
X2395669D01*
X839583Y849570D02*
Y883695D01*
X838041Y885236D02*
X839583Y883695D01*
X888730Y948047D02*
X902116Y934661D01*
X839583Y948047D02*
X888730D01*
X838583Y947047D02*
X839583Y948047D01*
X587142Y317958D02*
X674696Y405512D01*
X587142Y296064D02*
Y317958D01*
X579070Y287992D02*
X587142Y296064D01*
X577889Y287992D02*
X579070D01*
X577889Y286811D02*
Y287992D01*
X554724Y286811D02*
X577889D01*
X552362Y284449D02*
X554724Y286811D01*
X674696Y405512D02*
X692913D01*
X1577151Y736024D02*
X1604331Y763203D01*
X1531496Y736024D02*
X1577151D01*
X1074803Y812992D02*
X1114173D01*
X630905Y559055D02*
X634842D01*
X657480Y519685D02*
X681102Y543307D01*
X657480Y440945D02*
Y519685D01*
X107480Y567028D02*
X161319Y620866D01*
X630905D01*
X546457Y542618D02*
X570866Y567028D01*
X552362Y310039D02*
Y343701D01*
X107480Y561811D02*
Y567028D01*
X1531496Y736024D02*
X1531693Y736221D01*
X214567Y429134D02*
Y513319D01*
X169291Y558595D02*
X214567Y513319D01*
X169291Y558595D02*
Y561811D01*
X1202453Y890648D02*
Y890808D01*
X1190945Y902316D02*
X1202453Y890808D01*
X2057874Y567913D02*
X2063976Y561811D01*
X1905512Y582677D02*
Y619488D01*
Y582677D02*
X1907480Y580709D01*
X1883268Y641732D02*
X1905512Y619488D01*
X1832677Y641732D02*
X1883268D01*
X1775591Y594488D02*
X1822834D01*
X1832677Y584646D01*
Y580709D02*
Y584646D01*
X1720472Y593898D02*
Y594488D01*
Y593898D02*
X1759842Y554528D01*
X1763780D01*
X835679Y944685D02*
X838041Y947047D01*
X618110Y405512D02*
X622047D01*
X614173D02*
X618110D01*
X622047D02*
X657480Y440945D01*
X696850Y405512D02*
X723737Y432398D01*
X692913Y405512D02*
X696850D01*
X692913Y467323D02*
Y511811D01*
X618110Y467323D02*
Y511811D01*
X552362Y343701D02*
X614173Y405512D01*
D39*
X1590394Y213386D02*
X1613780Y236772D01*
X1644685D01*
X743898Y213386D02*
X1590394D01*
X1644685Y236772D02*
X1675591D01*
X1826772Y259842D02*
X1830709Y263779D01*
X1312212Y364378D02*
X1368110Y420275D01*
X816543Y364378D02*
X1312212D01*
X807087Y354921D02*
X816543Y364378D01*
X1368110Y420275D02*
Y483071D01*
X761614Y290354D02*
Y340354D01*
D40*
X1698661Y259842D02*
X1826772D01*
X1675591Y236772D02*
X1698661Y259842D01*
D41*
X838583Y213583D02*
Y214567D01*
X840459Y216444D01*
Y298228D01*
X2260433Y367323D02*
Y367913D01*
X2177165Y299213D02*
Y418943D01*
X2153543Y275591D02*
X2177165Y299213D01*
X742126Y215158D02*
X743898Y213386D01*
D42*
X1637795Y348731D02*
Y408071D01*
X1973622Y314961D02*
X1977264Y311319D01*
Y258563D02*
Y311319D01*
X1637795Y328150D02*
Y348731D01*
X776181Y354921D02*
X807087D01*
X742126Y276969D02*
X748228D01*
X761614Y290354D01*
Y340354D02*
X776181Y354921D01*
X2027756Y498031D02*
X2063976Y461811D01*
D43*
X1163378Y634305D02*
Y665346D01*
X1086348Y557274D02*
X1163378Y634305D01*
X1086745Y586745D02*
X1143693Y643693D01*
X1203354Y592009D02*
X1208720Y586643D01*
X1203354Y592009D02*
Y664756D01*
X1202756Y665354D02*
X1203354Y664756D01*
X1173228Y605967D02*
Y609323D01*
X1261811Y644202D02*
X1291840Y614173D01*
X1261811Y644202D02*
Y665354D01*
X1281496Y655815D02*
X1295578Y641732D01*
X1242126Y628759D02*
Y665354D01*
Y628759D02*
X1249016Y621869D01*
X1143693Y643693D02*
Y665346D01*
X1183071Y619166D02*
Y665354D01*
X1173228Y609323D02*
X1183071Y619166D01*
X1242126Y665354D02*
X1242134Y665346D01*
X1143693D02*
X1143701Y665354D01*
X401575Y89567D02*
X403248Y91240D01*
Y129147D01*
X403543Y129443D01*
X1159449Y907077D02*
X1163386Y903140D01*
Y862205D02*
Y903140D01*
X1185674Y946555D02*
X1222441Y909789D01*
X1046632Y946555D02*
X1185674D01*
X1037084Y937008D02*
X1046632Y946555D01*
X1183071Y881890D02*
X1188976Y887795D01*
X1183071Y862205D02*
Y881890D01*
X1188976Y887795D02*
Y900347D01*
X1106299Y832685D02*
Y862205D01*
X1159449Y907077D02*
Y910433D01*
X1071843Y773630D02*
X1091512Y793299D01*
X1114165D01*
X1071843Y773630D02*
X1114165D01*
X1035433Y661417D02*
X1088575Y714559D01*
X1114165D01*
X1021971Y939764D02*
X1039370D01*
X1000000Y917793D02*
X1021971Y939764D01*
X1000000Y867481D02*
Y917793D01*
X979565Y847046D02*
X1000000Y867481D01*
X902116Y934661D02*
Y936022D01*
Y933660D02*
Y934661D01*
X969045Y847046D02*
X979565D01*
X902116Y936022D02*
X936173Y970079D01*
X1190945Y902316D02*
Y905512D01*
X936173Y970079D02*
X1216929D01*
X1222441Y862205D02*
Y909789D01*
X1106307Y832677D02*
X1114173D01*
X1106299Y832685D02*
X1106307Y832677D01*
X1242126Y862205D02*
Y944882D01*
X1084638Y734244D02*
X1114165D01*
X697835Y643296D02*
X698835Y644296D01*
X1163378Y665346D02*
X1163386Y665354D01*
X72835Y383858D02*
X278543D01*
X1356299Y694882D02*
X1366142Y685039D01*
X1311024Y694882D02*
X1356299D01*
X1748032Y886024D02*
X1814961D01*
X1114165Y793299D02*
X1114173Y793307D01*
X1114165Y773630D02*
X1114173Y773622D01*
X1114165Y714559D02*
X1114173Y714567D01*
X68898Y383858D02*
X72835D01*
X107973Y418996D01*
Y561319D01*
X107480Y561811D02*
X107973Y561319D01*
X1190945Y902156D02*
Y902316D01*
X1202453Y890648D02*
X1202748Y890353D01*
X1190945Y902156D02*
X1202453Y890648D01*
X1202748Y862213D02*
Y890353D01*
Y862213D02*
X1202756Y862205D01*
X1216929Y970079D02*
X1242126Y944882D01*
X1114165Y734244D02*
X1114173Y734252D01*
D44*
X1435068Y562037D02*
X1453740Y580709D01*
X1145641Y562037D02*
X1435068D01*
X1144685Y562992D02*
X1145641Y562037D01*
X1249016Y618140D02*
Y621869D01*
X1306496Y969488D02*
X1967905D01*
X1261811Y924803D02*
X1306496Y969488D01*
X1967905D02*
X1968889Y968504D01*
X1316929Y950787D02*
X1923228D01*
X1428553Y933071D02*
X1883465D01*
X1354331Y858849D02*
X1428553Y933071D01*
X1354331Y836538D02*
Y858849D01*
X1905512Y771039D02*
Y911024D01*
X1870496Y736024D02*
X1905512Y771039D01*
X1814961Y736024D02*
X1870496D01*
X1143701Y862205D02*
Y873852D01*
X1124842Y892711D02*
X1143701Y873852D01*
X1124842Y892711D02*
Y904528D01*
X1111220Y663516D02*
Y694201D01*
X1111902Y694882D02*
X1114173D01*
X1639764Y739173D02*
Y794291D01*
X1613319Y712728D02*
X1639764Y739173D01*
X1536547Y712728D02*
X1613319D01*
X1605315Y828740D02*
X1639764Y794291D01*
X1594390Y885925D02*
X1594488Y885827D01*
X1484842Y915354D02*
X1866142D01*
X1586569Y858268D02*
X1610557D01*
X1574516Y846215D02*
X1586569Y858268D01*
X1560522Y761309D02*
X1574516Y775303D01*
X1489187Y761309D02*
X1560522D01*
X1501968Y678150D02*
X1536547Y712728D01*
X1574516Y775303D02*
Y846215D01*
X1479701Y751823D02*
X1489187Y761309D01*
X1610557Y858268D02*
X1623032Y870742D01*
Y878937D01*
X1631890Y887795D01*
X1698819D01*
X1750591Y836024D01*
X1814961D01*
X1457457Y787048D02*
Y790776D01*
X1371457Y813673D02*
X1441012D01*
X1463362Y836024D01*
X1531496D01*
X1444268Y773859D02*
X1457457Y787048D01*
X1311024Y714567D02*
X1456594D01*
X1479701Y737673D01*
Y751823D01*
X1451224Y734252D02*
X1461984Y745012D01*
X1311024Y734252D02*
X1451224D01*
X1461984Y745012D02*
Y759162D01*
X1483267Y780445D01*
X1525917D01*
X1531496Y786024D01*
X1444268Y759228D02*
Y773859D01*
X1438976Y753937D02*
X1444268Y759228D01*
X1311024Y753937D02*
X1438976D01*
X1502996Y786024D02*
X1531496D01*
X1060039Y612205D02*
Y612335D01*
X1111220Y663516D01*
Y694201D02*
X1111902Y694882D01*
X1261811Y862205D02*
Y924803D01*
X1281496Y915354D02*
X1316929Y950787D01*
X1281496Y862205D02*
Y915354D01*
X1531594Y885925D02*
X1594390D01*
X1531496Y886024D02*
X1531594Y885925D01*
X1531496Y886024D02*
X1541996D01*
X1311705Y774303D02*
X1401665D01*
X1351091Y793307D02*
X1371457Y813673D01*
X1311024Y793307D02*
X1351091D01*
X1331465Y813673D02*
X1354331Y836538D01*
X1311705Y813673D02*
X1331465D01*
X1815248Y786311D02*
X1858268D01*
X1814961Y786024D02*
X1815248Y786311D01*
X1858268D02*
X1885630Y813673D01*
Y895866D01*
X1866142Y915354D02*
X1885630Y895866D01*
X1883465Y933071D02*
X1905512Y911024D01*
X1413386Y843898D02*
X1484842Y915354D01*
X1409449Y843898D02*
X1413386D01*
X1401665Y774303D02*
X1409449Y782087D01*
X1311024Y773622D02*
X1311705Y774303D01*
X1311024Y812992D02*
X1311705Y813673D01*
D45*
X1190945Y483071D02*
X1269685D01*
D46*
X1973622Y314961D02*
Y326772D01*
X2114547Y248405D02*
X2118110Y251969D01*
X2114547Y229705D02*
Y248405D01*
X2102362Y217520D02*
X2114547Y229705D01*
X1864173Y263779D02*
X1875984D01*
X2033091Y119862D02*
Y134839D01*
X1987811Y180118D02*
X2033091Y134839D01*
X2067787Y261201D02*
X2074067Y254921D01*
X2067787Y261201D02*
Y291201D01*
X1980906Y180118D02*
X1987811D01*
X2031027Y186398D02*
X2067933D01*
X2006185Y211240D02*
X2031027Y186398D01*
X2035433Y326772D02*
Y366142D01*
X2000000Y401575D02*
X2035433Y366142D01*
Y323555D02*
X2067787Y291201D01*
X1830709Y401575D02*
X2000000D01*
X2033091Y119862D02*
X2039370Y113583D01*
X1980906Y217520D02*
X1987185Y211240D01*
X2039370Y113583D02*
X2043307D01*
X1987185Y211240D02*
X2006185D01*
X2074067Y254921D02*
X2074213D01*
X2110877Y109595D02*
X2126625D01*
X2106299Y114173D02*
X2110877Y109595D01*
X2126625D02*
X2149606Y86614D01*
X1980315Y52362D02*
X2106299D01*
X1937008Y153543D02*
Y202756D01*
X1875984Y263779D02*
X1937008Y202756D01*
Y153543D02*
X1976378Y114173D01*
X1980315D01*
X1977264Y258563D02*
X1980906Y254921D01*
X2035433Y323555D02*
Y326772D01*
X2074213Y217520D02*
X2102362D01*
X2067933Y186398D02*
X2074213Y180118D01*
D47*
X2213780Y561811D02*
X2236220Y539370D01*
X2063976Y561811D02*
X2213780D01*
X2314961Y582677D02*
X2379921Y647638D01*
X2314961Y562992D02*
Y582677D01*
X2291339Y539370D02*
X2314961Y562992D01*
X2236220Y539370D02*
X2291339D01*
D48*
X2245276Y367323D02*
X2260433D01*
X2153543Y233369D02*
Y275591D01*
X2143701Y223526D02*
X2153543Y233369D01*
X2143701Y214567D02*
Y223526D01*
X2109252Y180118D02*
X2143701Y214567D01*
X2074213Y180118D02*
X2109252D01*
D49*
X714370Y258858D02*
X732480Y276969D01*
X698819Y258858D02*
X714370D01*
X698819Y258858D02*
X698819Y258858D01*
X652559Y258858D02*
X698819D01*
X714370Y233268D02*
X732480Y215158D01*
X652362Y233268D02*
X714370D01*
X732480Y215158D02*
X742126D01*
X732480Y276969D02*
X742126D01*
D50*
X2063976Y461811D02*
D03*
D51*
Y561811D02*
D03*
D52*
X1092520Y483071D02*
D03*
X1190945D02*
D03*
X1269685D02*
D03*
X1368110D02*
D03*
D53*
X978346Y508268D02*
D03*
X1482284D02*
D03*
X1511811Y293307D02*
D03*
X948819D02*
D03*
D54*
X1635827Y508445D02*
D03*
D55*
Y458445D02*
D03*
D56*
X1928937Y708661D02*
D03*
X1978937D02*
D03*
X2028937D02*
D03*
D57*
X2078937D02*
D03*
D58*
X2177165Y398819D02*
D03*
D59*
Y498819D02*
D03*
D60*
X2303150Y826772D02*
D03*
Y157480D02*
D03*
X157480Y826772D02*
D03*
Y157480D02*
D03*
D61*
X488556Y212232D02*
D03*
X1208720Y586643D02*
D03*
X924668Y444882D02*
D03*
X806102Y468035D02*
D03*
X820866Y705342D02*
D03*
X891732Y703740D02*
D03*
X966535Y703504D02*
D03*
X258858Y523622D02*
D03*
X394685Y51772D02*
D03*
X311319Y87894D02*
D03*
X602362Y255905D02*
D03*
X1173228Y605967D02*
D03*
X1249016Y618140D02*
D03*
X840459Y298228D02*
D03*
X1144685Y562992D02*
D03*
X429134Y187992D02*
D03*
X458661Y273622D02*
D03*
X441648Y90551D02*
D03*
X401575Y89567D02*
D03*
X358268Y264764D02*
D03*
X278543Y383858D02*
D03*
X535433Y386811D02*
D03*
X1025591Y840551D02*
D03*
X1051181D02*
D03*
X1076772D02*
D03*
X1106299Y862205D02*
D03*
X1031496Y770079D02*
D03*
X1021654Y748032D02*
D03*
X1071843Y773630D02*
D03*
X1035433Y661417D02*
D03*
X2377953Y297244D02*
D03*
X2409449D02*
D03*
Y475197D02*
D03*
X2377953D02*
D03*
X2133858Y625000D02*
D03*
X1230473Y423228D02*
D03*
X1308071Y292165D02*
D03*
X1157480Y291339D02*
D03*
X1694882Y399028D02*
D03*
X1659449D02*
D03*
X1627953Y399106D02*
D03*
X1595666D02*
D03*
X683071Y201772D02*
D03*
X1737205Y204724D02*
D03*
X1540027Y438467D02*
D03*
X39370Y554528D02*
D03*
X86614Y640279D02*
D03*
X559055Y655815D02*
D03*
X413386Y653543D02*
D03*
X271654Y653737D02*
D03*
X161417Y665354D02*
D03*
X1001723Y704724D02*
D03*
X712733Y688976D02*
D03*
X748228D02*
D03*
X581054D02*
D03*
X628684D02*
D03*
X669291D02*
D03*
X438165D02*
D03*
X485795D02*
D03*
X533425D02*
D03*
X390535D02*
D03*
X342905D02*
D03*
X295276D02*
D03*
X247646D02*
D03*
X789586Y947995D02*
D03*
X759842Y930278D02*
D03*
Y963743D02*
D03*
X838583Y823683D02*
D03*
X839583Y849570D02*
D03*
X801181Y850394D02*
D03*
X801397Y824507D02*
D03*
X789586Y874002D02*
D03*
X771869Y889750D02*
D03*
X748247Y893884D02*
D03*
X980315Y796936D02*
D03*
X954724D02*
D03*
X801181D02*
D03*
X826772D02*
D03*
X903543D02*
D03*
X852362D02*
D03*
X877953D02*
D03*
X929134D02*
D03*
X998032Y740158D02*
D03*
X974409Y739173D02*
D03*
X924668D02*
D03*
X899077D02*
D03*
X950258D02*
D03*
X873487D02*
D03*
X847896D02*
D03*
X791339Y736024D02*
D03*
X767716Y740158D02*
D03*
X291339Y897638D02*
D03*
Y968504D02*
D03*
Y944882D02*
D03*
Y921260D02*
D03*
X720472D02*
D03*
Y944882D02*
D03*
X720472Y731299D02*
D03*
X694882D02*
D03*
X669291D02*
D03*
X643701D02*
D03*
X618110D02*
D03*
X336614Y732284D02*
D03*
X285433D02*
D03*
X311024D02*
D03*
X362205D02*
D03*
X438976D02*
D03*
X387795D02*
D03*
X413386D02*
D03*
X515748D02*
D03*
X464567D02*
D03*
X490157D02*
D03*
X592520Y731299D02*
D03*
X541338Y732284D02*
D03*
X566929D02*
D03*
X1591535Y593898D02*
D03*
X1708661Y690059D02*
D03*
X426981Y508858D02*
D03*
X750000Y755905D02*
D03*
X1604331Y763203D02*
D03*
X1190945Y905512D02*
D03*
X1594488Y885827D02*
D03*
X1605315Y828740D02*
D03*
X1501968Y678150D02*
D03*
X1457457Y790776D02*
D03*
X1060039Y612335D02*
D03*
X1453740Y580709D02*
D03*
X64961Y312008D02*
D03*
X39370Y690059D02*
D03*
X1889764Y204724D02*
D03*
X720472Y968504D02*
D03*
X738281Y775591D02*
D03*
X738189Y799213D02*
D03*
X737205Y828740D02*
D03*
X570866Y567028D02*
D03*
X1212598Y763779D02*
D03*
X1255906D02*
D03*
X1169291Y807087D02*
D03*
X1255906D02*
D03*
X1212598D02*
D03*
X1255906Y724409D02*
D03*
X1212598D02*
D03*
X1169291D02*
D03*
Y761811D02*
D03*
X1366142Y685039D02*
D03*
X1748032Y886024D02*
D03*
X1720472Y594488D02*
D03*
X692913Y511811D02*
D03*
X618110D02*
D03*
X2149606Y86614D02*
D03*
X2118110Y251969D02*
D03*
D62*
X924668Y498819D02*
D03*
X859002Y692913D02*
D03*
D63*
X1001723Y830709D02*
D03*
X1124842Y904528D02*
D03*
X716739Y759842D02*
D03*
Y787402D02*
D03*
Y814961D02*
D03*
X1047244Y787402D02*
D03*
%TF.MD5,47f4a5b35ab3a05f4c3ddcaae42d06bd*%
M02*
