%TF.GenerationSoftware,Altium Limited,Altium Designer,19.0.11 (319)*%
G04 Layer_Color=65535*
%FSLAX26Y26*%
%MOIN*%
%TF.FileFunction,Legend,Bot*%
%TF.Part,Single*%
G01*
G75*
%TA.AperFunction,NonConductor*%
%ADD67C,0.007874*%
%ADD68C,0.003000*%
%ADD69C,0.005000*%
%ADD70C,0.004331*%
D67*
X1075619Y633858D02*
G03*
X1075619Y633858I-2937J0D01*
G01*
D68*
X1349409Y529528D02*
Y576772D01*
X1247047Y529528D02*
X1349409D01*
X1247047D02*
Y576772D01*
X1349409D01*
X965551Y372047D02*
X1071850D01*
Y423228D01*
X965551D02*
X1071850D01*
X965551Y372047D02*
Y423228D01*
X1115158Y304134D02*
Y351378D01*
X1012795Y304134D02*
X1115158D01*
X1012795D02*
Y351378D01*
X1115158D01*
X1374016Y592520D02*
Y639764D01*
X1271653Y592520D02*
X1374016D01*
X1271653D02*
Y639764D01*
X1374016D01*
X1916339Y464567D02*
X1963583D01*
X1916339D02*
Y566929D01*
X1963583D01*
Y464567D02*
Y566929D01*
X1098272Y642716D02*
Y749016D01*
X1047091D02*
X1098272D01*
X1047091Y642716D02*
Y749016D01*
Y642716D02*
X1098272D01*
X970472Y573378D02*
Y679677D01*
Y573378D02*
X1021654D01*
Y679677D01*
X970472D02*
X1021654D01*
X1106932Y576772D02*
Y683071D01*
Y576772D02*
X1158113D01*
Y683071D01*
X1106932D02*
X1158113D01*
X698819Y291339D02*
X805118D01*
Y342520D01*
X698819D02*
X805118D01*
X698819Y291339D02*
Y342520D01*
X825394Y415354D02*
X931693D01*
Y466536D01*
X825394D02*
X931693D01*
X825394Y415354D02*
Y466536D01*
X860236Y482283D02*
Y588583D01*
X809055D02*
X860236D01*
X809055Y482283D02*
Y588583D01*
Y482283D02*
X860236D01*
X1734252Y652710D02*
Y759010D01*
Y652710D02*
X1785433D01*
Y759010D01*
X1734252D02*
X1785433D01*
D69*
X1009842Y413386D02*
X1027559D01*
X1009842Y381890D02*
X1027559D01*
X556921Y571463D02*
Y622644D01*
X702921D01*
Y610833D02*
Y622644D01*
X556921Y358864D02*
Y410045D01*
X702921Y358864D02*
Y370675D01*
X556921Y358864D02*
X702921D01*
X1011811Y617669D02*
Y635385D01*
X980315Y617669D02*
Y635385D01*
X1148271Y621063D02*
Y638780D01*
X1116775Y621063D02*
Y638780D01*
X743110Y332677D02*
X760827D01*
X743110Y301181D02*
X760827D01*
X869685Y456693D02*
X887402D01*
X869685Y425197D02*
X887402D01*
X818898Y526575D02*
Y544291D01*
X850394Y526575D02*
Y544291D01*
X1775591Y697002D02*
Y714718D01*
X1744094Y697002D02*
Y714718D01*
D70*
X1359252Y530512D02*
X1378931D01*
Y540351D01*
X1375651Y543631D01*
X1369091D01*
X1365812Y540351D01*
Y530512D01*
Y537071D02*
X1359252Y543631D01*
Y550191D02*
Y556750D01*
Y553470D01*
X1372371D01*
Y550191D01*
X1359252Y579708D02*
Y566589D01*
X1372371Y579708D01*
X1375651D01*
X1378931Y576429D01*
Y569869D01*
X1375651Y566589D01*
X1124016Y306635D02*
X1143694D01*
Y316474D01*
X1140415Y319754D01*
X1133855D01*
X1130575Y316474D01*
Y306635D01*
Y313194D02*
X1124016Y319754D01*
Y326313D02*
Y332873D01*
Y329593D01*
X1137135D01*
Y326313D01*
X1124016Y342712D02*
Y349272D01*
Y345992D01*
X1143694D01*
X1140415Y342712D01*
X1095139Y390088D02*
X1098419Y386808D01*
Y380248D01*
X1095139Y376969D01*
X1082020D01*
X1078740Y380248D01*
Y386808D01*
X1082020Y390088D01*
X1078740Y396647D02*
Y403207D01*
Y399927D01*
X1091859D01*
Y396647D01*
X1078740Y413046D02*
Y419606D01*
Y416326D01*
X1098419D01*
X1095139Y413046D01*
X1772314Y784267D02*
X1775594Y787546D01*
X1782153D01*
X1785433Y784267D01*
Y771148D01*
X1782153Y767868D01*
X1775594D01*
X1772314Y771148D01*
X1765754Y787546D02*
Y767868D01*
X1755915D01*
X1752635Y771148D01*
Y774427D01*
Y777707D01*
X1755915Y780987D01*
X1765754D01*
X1746076Y767868D02*
X1739516D01*
X1742796D01*
Y787546D01*
X1746076Y784267D01*
X1963583Y578740D02*
Y598419D01*
X1953743D01*
X1950464Y595139D01*
Y588579D01*
X1953743Y585300D01*
X1963583D01*
X1957023D02*
X1950464Y578740D01*
X1930785Y572181D02*
Y591859D01*
X1940624D01*
X1943904Y588579D01*
Y582020D01*
X1940624Y578740D01*
X1930785D01*
X1911106D02*
X1924225D01*
X1911106Y591859D01*
Y595139D01*
X1914386Y598419D01*
X1920946D01*
X1924225Y595139D01*
X1382874Y592520D02*
X1402553D01*
Y602359D01*
X1399273Y605639D01*
X1392713D01*
X1389434Y602359D01*
Y592520D01*
Y599079D02*
X1382874Y605639D01*
X1395993Y615478D02*
Y622038D01*
X1392713Y625317D01*
X1382874D01*
Y615478D01*
X1386154Y612198D01*
X1389434Y615478D01*
Y625317D01*
X1402553Y644996D02*
Y631877D01*
X1392713D01*
X1395993Y638436D01*
Y641716D01*
X1392713Y644996D01*
X1386154D01*
X1382874Y641716D01*
Y635157D01*
X1386154Y631877D01*
X702921Y652165D02*
Y635766D01*
X699641Y632486D01*
X693082D01*
X689802Y635766D01*
Y652165D01*
X670124D02*
X676683Y648885D01*
X683243Y642326D01*
Y635766D01*
X679963Y632486D01*
X673403D01*
X670124Y635766D01*
Y639046D01*
X673403Y642326D01*
X683243D01*
X1094488Y778688D02*
Y759010D01*
X1081369D01*
X1071530Y772129D02*
X1064970D01*
X1061690Y768849D01*
Y759010D01*
X1071530D01*
X1074810Y762289D01*
X1071530Y765569D01*
X1061690D01*
X1055131Y759010D02*
X1048572D01*
X1051851D01*
Y778688D01*
X1055131Y775409D01*
X847117Y613840D02*
X850397Y617120D01*
X856956D01*
X860236Y613840D01*
Y600721D01*
X856956Y597441D01*
X850397D01*
X847117Y600721D01*
X837278Y597441D02*
Y613840D01*
Y607280D01*
X840558D01*
X833998D01*
X837278D01*
Y613840D01*
X833998Y617120D01*
X811040Y597441D02*
X824159D01*
X811040Y610560D01*
Y613840D01*
X814319Y617120D01*
X820879D01*
X824159Y613840D01*
X918967Y491793D02*
X922247Y495072D01*
X928807D01*
X932087Y491793D01*
Y478673D01*
X928807Y475394D01*
X922247D01*
X918967Y478673D01*
X909128Y475394D02*
Y491793D01*
Y485233D01*
X912408D01*
X905848D01*
X909128D01*
Y491793D01*
X905848Y495072D01*
X896009Y475394D02*
X889450D01*
X892729D01*
Y495072D01*
X896009Y491793D01*
X816672Y328432D02*
X813392Y331712D01*
Y338271D01*
X816672Y341551D01*
X829791D01*
X833071Y338271D01*
Y331712D01*
X829791Y328432D01*
X819952Y308753D02*
Y318593D01*
X823231Y321873D01*
X829791D01*
X833071Y318593D01*
Y308753D01*
Y302194D02*
Y295634D01*
Y298914D01*
X813392D01*
X816672Y302194D01*
X1146330Y568564D02*
X1149610Y571844D01*
X1156169D01*
X1159449Y568564D01*
Y555445D01*
X1156169Y552165D01*
X1149610D01*
X1146330Y555445D01*
X1136490Y565284D02*
X1129931D01*
X1126651Y562005D01*
Y552165D01*
X1136490D01*
X1139770Y555445D01*
X1136490Y558725D01*
X1126651D01*
X1106973Y552165D02*
X1120092D01*
X1106973Y565284D01*
Y568564D01*
X1110252Y571844D01*
X1116812D01*
X1120092Y568564D01*
X1005582Y703407D02*
X1008861Y706687D01*
X1015421D01*
X1018701Y703407D01*
Y690288D01*
X1015421Y687008D01*
X1008861D01*
X1005582Y690288D01*
X995742Y700127D02*
X989183D01*
X985903Y696847D01*
Y687008D01*
X995742D01*
X999022Y690288D01*
X995742Y693567D01*
X985903D01*
X979344Y687008D02*
X972784D01*
X976064D01*
Y706687D01*
X979344Y703407D01*
%TF.MD5,04429a93f45a8d9cdf014839122ee2f1*%
M02*
