%TF.GenerationSoftware,Altium Limited,Altium Designer,19.0.11 (319)*%
G04 Layer_Color=16711935*
%FSLAX26Y26*%
%MOIN*%
%TF.FileFunction,Soldermask,Bot*%
%TF.Part,Single*%
G01*
G75*
%TA.AperFunction,SMDPad,CuDef*%
%ADD71R,0.035559X0.043433*%
%ADD72R,0.038000X0.046433*%
%ADD73R,0.067000X0.137000*%
%ADD74R,0.067000X0.047000*%
%ADD75R,0.043433X0.035559*%
%ADD76R,0.046433X0.038000*%
%TA.AperFunction,ComponentPad*%
%ADD77R,0.059181X0.059181*%
%ADD78C,0.059181*%
%ADD79O,0.067055X0.070992*%
%ADD80R,0.059181X0.076898*%
%ADD81R,0.048000X0.039496*%
%ADD82O,0.048000X0.039496*%
%ADD83O,0.039496X0.048000*%
%ADD84R,0.039496X0.048000*%
%ADD85C,0.067055*%
%ADD86R,0.067055X0.067055*%
%TA.AperFunction,ViaPad*%
%ADD87C,0.283591*%
G36*
X1127883Y842051D02*
X1299213D01*
Y685039D01*
X1127883D01*
X1127883Y842051D01*
D02*
G37*
D71*
X1329134Y553150D02*
D03*
X1267323D02*
D03*
X1094882Y327756D02*
D03*
X1033071D02*
D03*
X1353740Y616142D02*
D03*
X1291929D02*
D03*
D72*
X1050606Y397638D02*
D03*
X986795D02*
D03*
X783874Y316929D02*
D03*
X720063D02*
D03*
X910449Y440945D02*
D03*
X846638D02*
D03*
D73*
X505921Y490754D02*
D03*
D74*
X753921D02*
D03*
Y581254D02*
D03*
Y400254D02*
D03*
D75*
X1939961Y484842D02*
D03*
Y546654D02*
D03*
D76*
X1072681Y727772D02*
D03*
Y663961D02*
D03*
X996063Y594622D02*
D03*
Y658433D02*
D03*
X1132523Y598016D02*
D03*
Y661827D02*
D03*
X834646Y567339D02*
D03*
Y503528D02*
D03*
X1759842Y673954D02*
D03*
Y737765D02*
D03*
D77*
X2063976Y461811D02*
D03*
D78*
Y561811D02*
D03*
D79*
X1092520Y483071D02*
D03*
X1190945D02*
D03*
X1269685D02*
D03*
X1368110D02*
D03*
D80*
X978346Y508268D02*
D03*
X1482284D02*
D03*
X1511811Y293307D02*
D03*
X948819D02*
D03*
D81*
X1635827Y508445D02*
D03*
D82*
Y458445D02*
D03*
D83*
X1928937Y708661D02*
D03*
X1978937D02*
D03*
X2028937D02*
D03*
D84*
X2078937D02*
D03*
D85*
X2177165Y398819D02*
D03*
D86*
Y498819D02*
D03*
D87*
X2303150Y826772D02*
D03*
Y157480D02*
D03*
X157480Y826772D02*
D03*
Y157480D02*
D03*
%TF.MD5,49af7e5b555f2bcd1038c38a67db9934*%
M02*
