%TF.GenerationSoftware,Altium Limited,Altium Designer,19.0.11 (319)*%
G04 Layer_Color=8388736*
%FSLAX26Y26*%
%MOIN*%
%TF.FileFunction,Soldermask,Top*%
%TF.Part,Single*%
G01*
G75*
%TA.AperFunction,SMDPad,CuDef*%
%ADD71R,0.035559X0.043433*%
%ADD72R,0.038000X0.046433*%
%ADD75R,0.043433X0.035559*%
%ADD76R,0.046433X0.038000*%
%TA.AperFunction,ComponentPad*%
%ADD77R,0.059181X0.059181*%
%ADD78C,0.059181*%
%ADD79O,0.067055X0.070992*%
%ADD80R,0.059181X0.076898*%
%ADD81R,0.048000X0.039496*%
%ADD82O,0.048000X0.039496*%
%ADD83O,0.039496X0.048000*%
%ADD84R,0.039496X0.048000*%
%ADD85C,0.067055*%
%ADD86R,0.067055X0.067055*%
%TA.AperFunction,ViaPad*%
%ADD87C,0.283591*%
%TA.AperFunction,SMDPad,CuDef*%
%ADD109R,0.031622X0.051307*%
%ADD110R,0.076898X0.065087*%
%ADD111R,0.017323X0.035039*%
%ADD112R,0.036614X0.016323*%
%ADD113R,0.016323X0.036614*%
%ADD114R,0.132016X0.132016*%
%TA.AperFunction,ConnectorPad*%
%ADD115R,0.047370X0.086740*%
%ADD116R,0.118236X0.035559*%
%TA.AperFunction,SMDPad,CuDef*%
%ADD117R,0.068000X0.029000*%
%ADD118R,0.039496X0.047370*%
%ADD119R,0.047370X0.035559*%
%ADD120R,0.049087X0.023622*%
%ADD121R,0.118630X0.056819*%
%ADD122R,0.056819X0.118630*%
%ADD123R,0.165480X0.067055*%
%ADD124R,0.063118X0.047370*%
%ADD125R,0.059181X0.051307*%
%ADD126R,0.059181X0.063118*%
%ADD127R,0.029654X0.029654*%
%ADD128R,0.046583X0.051307*%
%TA.AperFunction,ViaPad*%
%ADD129C,0.031622*%
G36*
X707677Y745079D02*
X306102D01*
Y984252D01*
X707677D01*
Y745079D01*
D02*
G37*
G36*
X573819Y466535D02*
X514764D01*
Y517717D01*
X573819D01*
Y466535D01*
D02*
G37*
G36*
X333661Y450787D02*
X274606D01*
Y533465D01*
X333661D01*
Y450787D01*
D02*
G37*
D71*
X494488Y51181D02*
D03*
X432677D02*
D03*
X295866Y50197D02*
D03*
X357677D02*
D03*
X1095079Y915354D02*
D03*
X1156890D02*
D03*
X1770866Y641732D02*
D03*
X1832677D02*
D03*
D72*
X106480Y561811D02*
D03*
X170291D02*
D03*
X2036433Y314961D02*
D03*
X1972622D02*
D03*
D75*
X1409449Y843898D02*
D03*
Y782087D02*
D03*
X2029153Y877362D02*
D03*
Y815551D02*
D03*
X1763780Y554528D02*
D03*
Y492716D02*
D03*
X618110Y405512D02*
D03*
Y467323D02*
D03*
X692913D02*
D03*
Y405512D02*
D03*
X384842Y312598D02*
D03*
Y374409D02*
D03*
X1980315Y114173D02*
D03*
Y52362D02*
D03*
X2106299Y114173D02*
D03*
Y52362D02*
D03*
X2043307Y113583D02*
D03*
Y51772D02*
D03*
X630905Y620866D02*
D03*
Y559055D02*
D03*
D76*
X477362Y315049D02*
D03*
Y378860D02*
D03*
X328722Y374923D02*
D03*
Y311112D02*
D03*
X1035433Y877543D02*
D03*
Y941354D02*
D03*
X832283Y884236D02*
D03*
Y948047D02*
D03*
X697835Y644296D02*
D03*
Y580485D02*
D03*
D77*
X2063976Y461811D02*
D03*
D78*
Y561811D02*
D03*
D79*
X1092520Y483071D02*
D03*
X1190945D02*
D03*
X1269685D02*
D03*
X1368110D02*
D03*
D80*
X978346Y508268D02*
D03*
X1482284D02*
D03*
X1511811Y293307D02*
D03*
X948819D02*
D03*
D81*
X1635827Y508445D02*
D03*
D82*
Y458445D02*
D03*
D83*
X1928937Y708661D02*
D03*
X1978937D02*
D03*
X2028937D02*
D03*
D84*
X2078937D02*
D03*
D85*
X2177165Y398819D02*
D03*
D86*
Y498819D02*
D03*
D87*
X2303150Y826772D02*
D03*
Y157480D02*
D03*
X157480Y826772D02*
D03*
Y157480D02*
D03*
D109*
X858268Y668307D02*
D03*
X783465D02*
D03*
X858268Y558071D02*
D03*
X820866D02*
D03*
X783465D02*
D03*
D110*
X413386Y186529D02*
D03*
D111*
X383858Y129443D02*
D03*
X403543D02*
D03*
X423228D02*
D03*
X442913D02*
D03*
X383858Y243616D02*
D03*
X403543D02*
D03*
X423228D02*
D03*
X442913D02*
D03*
D112*
X1114173Y832677D02*
D03*
Y812992D02*
D03*
Y793307D02*
D03*
Y773622D02*
D03*
Y753937D02*
D03*
Y734252D02*
D03*
Y714567D02*
D03*
Y694882D02*
D03*
X1311024D02*
D03*
Y714567D02*
D03*
Y734252D02*
D03*
Y753937D02*
D03*
Y773622D02*
D03*
Y793307D02*
D03*
Y812992D02*
D03*
Y832677D02*
D03*
D113*
X1143701Y665354D02*
D03*
X1163386D02*
D03*
X1183071D02*
D03*
X1202756D02*
D03*
X1222441D02*
D03*
X1242126D02*
D03*
X1261811D02*
D03*
X1281496D02*
D03*
Y862205D02*
D03*
X1261811D02*
D03*
X1242126D02*
D03*
X1222441D02*
D03*
X1202756D02*
D03*
X1183071D02*
D03*
X1163386D02*
D03*
X1143701D02*
D03*
D114*
X1212598Y763779D02*
D03*
D115*
X604342Y862213D02*
D03*
X399618D02*
D03*
D116*
X501980Y897646D02*
D03*
X502964Y830716D02*
D03*
D117*
X1522496Y886024D02*
D03*
Y836024D02*
D03*
Y786024D02*
D03*
Y736024D02*
D03*
X1823961D02*
D03*
Y786024D02*
D03*
Y836024D02*
D03*
Y886024D02*
D03*
D118*
X1907480Y580709D02*
D03*
X1832677D02*
D03*
X1870079Y498031D02*
D03*
D119*
X1981906Y254921D02*
D03*
Y217520D02*
D03*
Y180118D02*
D03*
X2073213Y254921D02*
D03*
Y217520D02*
D03*
Y180118D02*
D03*
D120*
X652362Y233268D02*
D03*
X652559Y258858D02*
D03*
X652362Y284449D02*
D03*
Y310039D02*
D03*
X552362D02*
D03*
Y284449D02*
D03*
Y258858D02*
D03*
Y233268D02*
D03*
D121*
X807087Y471850D02*
D03*
Y354921D02*
D03*
X1644685Y353701D02*
D03*
Y236772D02*
D03*
D122*
X2276181Y384646D02*
D03*
X2393110D02*
D03*
D123*
X1830709Y259842D02*
D03*
Y405512D02*
D03*
D124*
X742126Y213386D02*
D03*
Y278740D02*
D03*
D125*
X68898Y383858D02*
D03*
Y474409D02*
D03*
X2395669Y647638D02*
D03*
Y557087D02*
D03*
D126*
X214567Y429134D02*
D03*
X2250000Y602362D02*
D03*
D127*
X770669Y793436D02*
D03*
Y830869D02*
D03*
X815945Y728530D02*
D03*
Y765963D02*
D03*
X727360Y898646D02*
D03*
Y861213D02*
D03*
D128*
X895817Y846457D02*
D03*
Y933071D02*
D03*
X962746D02*
D03*
Y846457D02*
D03*
D129*
X394685Y51772D02*
D03*
X840459Y298228D02*
D03*
%TF.MD5,b374bb7ce116003564ebf8144612b2cf*%
M02*
