%TF.GenerationSoftware,Altium Limited,Altium Designer,19.0.11 (319)*%
G04 Layer_Color=0*
%FSLAX26Y26*%
%MOIN*%
%TF.FileFunction,Plated,1,2,PTH,Drill*%
%TF.Part,Single*%
G01*
G75*
%TA.AperFunction,ComponentDrill*%
%ADD128C,0.039370*%
%ADD129R,0.035433X0.059055*%
%ADD130C,0.023622*%
%ADD131C,0.023622*%
%ADD132C,0.039370*%
%ADD133C,0.031496*%
%TA.AperFunction,OtherDrill,Pad Free-H (2303.15mil,826.772mil)*%
%ADD134C,0.125984*%
%TA.AperFunction,OtherDrill,Pad Free-H (2303.15mil,157.48mil)*%
%ADD135C,0.125984*%
%TA.AperFunction,OtherDrill,Pad Free-H (157.48mil,826.772mil)*%
%ADD136C,0.125984*%
%TA.AperFunction,OtherDrill,Pad Free-H (157.48mil,157.48mil)*%
%ADD137C,0.125984*%
%TA.AperFunction,ViaDrill,NotFilled*%
%ADD138C,0.011811*%
D128*
X1092520Y435827D02*
D03*
X1190945D02*
D03*
X1269685D02*
D03*
X1368110D02*
D03*
D129*
X978346Y461024D02*
D03*
X1482284D02*
D03*
X1511811Y246063D02*
D03*
X948819D02*
D03*
D130*
X1637795Y458071D02*
D03*
Y408071D02*
D03*
D131*
X1928937Y708661D02*
D03*
X1978937D02*
D03*
X2028937D02*
D03*
X2078937D02*
D03*
D132*
X2177165Y398819D02*
D03*
Y498819D02*
D03*
D133*
X2063976Y561811D02*
D03*
Y461811D02*
D03*
D134*
X2303150Y826772D02*
D03*
D135*
Y157480D02*
D03*
D136*
X157480Y826772D02*
D03*
D137*
Y157480D02*
D03*
D138*
X258858Y523622D02*
D03*
X509842Y209885D02*
D03*
X394685Y51772D02*
D03*
X311319Y87894D02*
D03*
X588583Y219488D02*
D03*
X602362Y255905D02*
D03*
X1208720Y586643D02*
D03*
X1173228Y605967D02*
D03*
X1249016Y618140D02*
D03*
X840459Y298228D02*
D03*
X1144685Y562992D02*
D03*
X429134Y187992D02*
D03*
X458661Y273622D02*
D03*
X441648Y90551D02*
D03*
X401575Y89567D02*
D03*
X358268Y264764D02*
D03*
X278543Y383858D02*
D03*
X535433Y386811D02*
D03*
X1025591Y840551D02*
D03*
X1051181D02*
D03*
X1076772D02*
D03*
X1001723Y830709D02*
D03*
X1124842Y904528D02*
D03*
X1106299Y862205D02*
D03*
X1031496Y770079D02*
D03*
X1021654Y748032D02*
D03*
X1071843Y773630D02*
D03*
X1035433Y661417D02*
D03*
X2377953Y297244D02*
D03*
X2409449D02*
D03*
Y475197D02*
D03*
X2377953D02*
D03*
X2133858Y625000D02*
D03*
X1230315Y492126D02*
D03*
X1308071Y292165D02*
D03*
X1157480Y291339D02*
D03*
X881890Y452756D02*
D03*
Y480315D02*
D03*
Y505813D02*
D03*
X1696850Y348654D02*
D03*
X1661417D02*
D03*
X1629921Y348731D02*
D03*
X1597634D02*
D03*
X789370Y150304D02*
D03*
X728346D02*
D03*
X1811024Y159721D02*
D03*
X1541996Y388093D02*
D03*
X39370Y554528D02*
D03*
X86614Y640279D02*
D03*
X698819Y655815D02*
D03*
X559055D02*
D03*
X413386Y653543D02*
D03*
X271654Y653737D02*
D03*
X161417Y665354D02*
D03*
X1001723Y704724D02*
D03*
X867238D02*
D03*
X914868D02*
D03*
X962498D02*
D03*
X723944Y688976D02*
D03*
X771574D02*
D03*
X819203D02*
D03*
X581054D02*
D03*
X628684D02*
D03*
X676314D02*
D03*
X438165D02*
D03*
X485795D02*
D03*
X533425D02*
D03*
X390535D02*
D03*
X342905D02*
D03*
X295276D02*
D03*
X247646D02*
D03*
X789586Y947995D02*
D03*
X759842Y930278D02*
D03*
Y963743D02*
D03*
X838583Y823683D02*
D03*
X839583Y849570D02*
D03*
X801181Y850394D02*
D03*
X801397Y824507D02*
D03*
X789586Y874002D02*
D03*
X771869Y889750D02*
D03*
X748247Y893884D02*
D03*
X980315Y796936D02*
D03*
X954724D02*
D03*
X801181D02*
D03*
X826772D02*
D03*
X903543D02*
D03*
X852362D02*
D03*
X877953D02*
D03*
X929134D02*
D03*
X998032Y740158D02*
D03*
X974409Y739173D02*
D03*
X924668D02*
D03*
X899077D02*
D03*
X950258D02*
D03*
X873487D02*
D03*
X847896D02*
D03*
X791339Y736024D02*
D03*
X767716Y740158D02*
D03*
X291339Y897638D02*
D03*
Y968504D02*
D03*
Y944882D02*
D03*
Y921260D02*
D03*
X720472D02*
D03*
Y944882D02*
D03*
X716739Y759842D02*
D03*
Y787402D02*
D03*
Y814961D02*
D03*
X720472Y731299D02*
D03*
X694882D02*
D03*
X669291D02*
D03*
X643701D02*
D03*
X618110D02*
D03*
X336614Y732284D02*
D03*
X285433D02*
D03*
X311024D02*
D03*
X362205D02*
D03*
X438976D02*
D03*
X387795D02*
D03*
X413386D02*
D03*
X515748D02*
D03*
X464567D02*
D03*
X490157D02*
D03*
X592520Y731299D02*
D03*
X541338Y732284D02*
D03*
X566929D02*
D03*
X1591535Y593898D02*
D03*
X1708661Y690059D02*
D03*
X426981Y508858D02*
D03*
X750000Y755905D02*
D03*
X1604331Y763203D02*
D03*
X1190945Y905512D02*
D03*
X1594488Y885827D02*
D03*
X1605315Y828740D02*
D03*
X1501968Y678150D02*
D03*
X1457457Y790776D02*
D03*
X1060039Y612335D02*
D03*
X1453740Y580709D02*
D03*
X64961Y312008D02*
D03*
X39370Y690059D02*
D03*
X1889764Y204724D02*
D03*
X720472Y968504D02*
D03*
X738281Y775591D02*
D03*
X1047244Y787402D02*
D03*
X738189Y799213D02*
D03*
X737205Y828740D02*
D03*
X570866Y567028D02*
D03*
X1212598Y763779D02*
D03*
X1255906D02*
D03*
X1169291Y807087D02*
D03*
X1255906D02*
D03*
X1212598D02*
D03*
X1255906Y724409D02*
D03*
X1212598D02*
D03*
X1169291D02*
D03*
Y761811D02*
D03*
X1366142Y685039D02*
D03*
X1748032Y886024D02*
D03*
X1720472Y594488D02*
D03*
X692913Y511811D02*
D03*
X618110D02*
D03*
X2149606Y86614D02*
D03*
X2118110Y251969D02*
D03*
%TF.MD5,43735a2d217cc58c8769e8598b20b1e1*%
M02*
