%TF.GenerationSoftware,Altium Limited,Altium Designer,19.0.11 (319)*%
G04 Layer_Physical_Order=2*
G04 Layer_Color=16711680*
%FSLAX26Y26*%
%MOIN*%
%TF.FileFunction,Copper,L2,Bot,Signal*%
%TF.Part,Single*%
G01*
G75*
%TA.AperFunction,Conductor*%
%ADD10C,0.015748*%
%ADD11C,0.021654*%
%TA.AperFunction,SMDPad,CuDef*%
%ADD17R,0.027559X0.035433*%
%ADD33R,0.035433X0.027559*%
%ADD35R,0.038433X0.030000*%
%ADD36R,0.030000X0.038433*%
%TA.AperFunction,Conductor*%
%ADD38C,0.011811*%
%ADD42C,0.019685*%
%ADD43C,0.011220*%
%ADD44C,0.009842*%
%ADD45C,0.031496*%
%ADD46C,0.015000*%
%ADD47C,0.013780*%
%TA.AperFunction,ComponentPad*%
%ADD50R,0.051181X0.051181*%
%ADD51C,0.051181*%
%ADD52O,0.059055X0.062992*%
%ADD53R,0.051181X0.068898*%
%ADD54R,0.040000X0.031496*%
%ADD55O,0.040000X0.031496*%
%ADD56O,0.031496X0.040000*%
%ADD57R,0.031496X0.040000*%
%ADD58C,0.059055*%
%ADD59R,0.059055X0.059055*%
%TA.AperFunction,ViaPad*%
%ADD60C,0.275591*%
%ADD61C,0.023622*%
%ADD62C,0.019685*%
%ADD63C,0.015748*%
%TA.AperFunction,SMDPad,CuDef*%
%ADD64R,0.059000X0.129000*%
%ADD65R,0.059000X0.039000*%
%TA.AperFunction,Conductor*%
%ADD66C,0.017716*%
G36*
X303783Y980315D02*
X304173Y745078D01*
X707598Y745079D01*
X707598Y980315D01*
X2397638D01*
X2456693Y921260D01*
X2456692Y63976D01*
X2398622Y5906D01*
X1913386Y5906D01*
X1913386Y175197D01*
X549213Y175197D01*
X549212Y5906D01*
X63976D01*
X4921Y64961D01*
X4921Y922244D01*
X62992Y980315D01*
X303783Y980315D01*
D02*
G37*
%LPC*%
G36*
X1595473Y943164D02*
X1146704D01*
X1141711Y942171D01*
X1137479Y939343D01*
X1115617Y917481D01*
X1115403Y917161D01*
X1113488Y915881D01*
X1110008Y910672D01*
X1108786Y904528D01*
X1110008Y898383D01*
X1113488Y893174D01*
X1118697Y889693D01*
X1124842Y888471D01*
X1130987Y889693D01*
X1136196Y893174D01*
X1139676Y898383D01*
X1140899Y904528D01*
X1140677Y905642D01*
X1152108Y917072D01*
X1169439D01*
X1172179Y912072D01*
X1170874Y905512D01*
X1171878Y900466D01*
Y878850D01*
X1170363Y877335D01*
X1119088D01*
X1113980Y880748D01*
X1106299Y882275D01*
X1098619Y880748D01*
X1092107Y876397D01*
X1087756Y869885D01*
X1086228Y862205D01*
X1087756Y854524D01*
X1088606Y853252D01*
X1089060Y850971D01*
X1091546Y847251D01*
Y788574D01*
X1086546Y787057D01*
X1086035Y787822D01*
X1079523Y792173D01*
X1071843Y793701D01*
X1064162Y792173D01*
X1057651Y787822D01*
X1053300Y781311D01*
X1051772Y773630D01*
X1053300Y765949D01*
X1057651Y759438D01*
X1058094Y759141D01*
Y750646D01*
X1045591D01*
Y704898D01*
X1091546D01*
Y686835D01*
X1045591D01*
Y680484D01*
X1040478D01*
X1035433Y681488D01*
X1030388Y680484D01*
X1023154D01*
Y681307D01*
X968972D01*
Y680484D01*
X901575D01*
X894278Y679033D01*
X888092Y674900D01*
X882689Y669496D01*
X878069Y671410D01*
Y692913D01*
X876618Y700210D01*
X872485Y706396D01*
X866299Y710529D01*
X859002Y711981D01*
X851705Y710529D01*
X845520Y706396D01*
X841386Y700210D01*
X839935Y692913D01*
Y645051D01*
X720472D01*
X713176Y643600D01*
X706990Y639467D01*
X598401Y530878D01*
X543295D01*
Y563128D01*
X468547D01*
Y418380D01*
X505527D01*
Y415752D01*
X506979Y408455D01*
X511112Y402269D01*
X515382Y398000D01*
Y386908D01*
X515362Y386811D01*
X515382Y386714D01*
Y385827D01*
X516366Y380878D01*
Y267740D01*
X476431Y227805D01*
X474363Y226424D01*
X470013Y219912D01*
X468485Y212232D01*
X470013Y204551D01*
X474363Y198040D01*
X480875Y193689D01*
X488556Y192161D01*
X496236Y193689D01*
X502748Y198040D01*
X507082Y204526D01*
X548916Y246360D01*
X553049Y252546D01*
X554500Y259842D01*
Y381766D01*
X555504Y386811D01*
X553976Y394492D01*
X553516Y395180D01*
Y405897D01*
X552064Y413194D01*
X547931Y419380D01*
X543662Y423650D01*
Y465579D01*
X543295Y467420D01*
Y492744D01*
X606299D01*
X610087Y493497D01*
X610429Y493268D01*
X618110Y491740D01*
X623156Y492744D01*
X687868D01*
X692913Y491740D01*
X696066Y492367D01*
X708841D01*
X716547Y484661D01*
Y483843D01*
X663683Y430979D01*
X659550Y424793D01*
X658098Y417496D01*
Y344386D01*
X651106D01*
X643809Y342935D01*
X637624Y338801D01*
X589256Y290434D01*
X585123Y284248D01*
X583672Y276951D01*
Y262844D01*
X582292Y255905D01*
X583819Y248225D01*
X588170Y241713D01*
X594682Y237363D01*
X602362Y235835D01*
X610043Y237363D01*
X616554Y241713D01*
X620905Y248225D01*
X622433Y255905D01*
X621806Y259058D01*
Y269053D01*
X659004Y306252D01*
X697189D01*
Y289839D01*
X742937D01*
Y344020D01*
X717731D01*
X715890Y344386D01*
X696232D01*
Y409598D01*
X711547Y424913D01*
X716547Y422842D01*
Y372880D01*
X791295D01*
Y375688D01*
X822396D01*
Y306626D01*
X821916Y305909D01*
X820389Y298228D01*
X821916Y290548D01*
X826267Y284036D01*
X832779Y279685D01*
X840459Y278158D01*
X848140Y279685D01*
X854651Y284036D01*
X859002Y290548D01*
X860530Y298228D01*
X859002Y305909D01*
X858523Y306626D01*
Y386270D01*
X859703Y392201D01*
Y413854D01*
X869512D01*
Y468035D01*
X823764D01*
Y435893D01*
X823575Y434946D01*
Y411816D01*
X791295D01*
Y427628D01*
X721333D01*
X719262Y432628D01*
X750014Y463380D01*
X791295D01*
Y484661D01*
X792095Y485461D01*
X807555D01*
Y480654D01*
X861736D01*
Y526402D01*
X807555D01*
Y523595D01*
X784197D01*
X776900Y522143D01*
X770891Y518128D01*
X737010D01*
X730221Y524917D01*
X724036Y529050D01*
X716739Y530501D01*
X699852D01*
X692913Y531882D01*
X687868Y530878D01*
X658864D01*
X656951Y535497D01*
X728370Y606917D01*
X866142D01*
X873438Y608369D01*
X879624Y612502D01*
X909473Y642350D01*
X968972D01*
Y635559D01*
X1023154D01*
Y642350D01*
X1030388D01*
X1035433Y641347D01*
X1040478Y642350D01*
X1045591D01*
Y641087D01*
X1099772D01*
Y642350D01*
X1105432D01*
Y638953D01*
X1154161D01*
Y611013D01*
X1153158Y605967D01*
X1154685Y598287D01*
X1159036Y591775D01*
X1165548Y587425D01*
X1173228Y585897D01*
X1180909Y587425D01*
X1184136Y589581D01*
X1188650Y586643D01*
X1190178Y578962D01*
X1193668Y573739D01*
Y568202D01*
X1175538D01*
X1169777Y567057D01*
X1169131Y566625D01*
X1163575Y568926D01*
X1163228Y570673D01*
X1158877Y577184D01*
X1152366Y581535D01*
X1144685Y583063D01*
X1137004Y581535D01*
X1130493Y577184D01*
X1129727Y576038D01*
X1114786D01*
X1079841Y610983D01*
X1080110Y612335D01*
X1078582Y620016D01*
X1074232Y626527D01*
X1067720Y630878D01*
X1060039Y632406D01*
X1052359Y630878D01*
X1045847Y626527D01*
X1041496Y620016D01*
X1039969Y612335D01*
X1041496Y604654D01*
X1045847Y598143D01*
X1052359Y593792D01*
X1060039Y592264D01*
X1061391Y592533D01*
X1098439Y555486D01*
X1096368Y550486D01*
X1060898D01*
X1055137Y549340D01*
X1050254Y546077D01*
X1020852Y516675D01*
X1017589Y511792D01*
X1016443Y506031D01*
Y462598D01*
X1017589Y456838D01*
X1020852Y451954D01*
X1036128Y436678D01*
Y424728D01*
X1027732D01*
Y370547D01*
X1073480D01*
Y424728D01*
X1066234D01*
Y442913D01*
X1065088Y448674D01*
X1061825Y453557D01*
X1046549Y468834D01*
Y499796D01*
X1067133Y520380D01*
X1157822D01*
X1163582Y521526D01*
X1168466Y524789D01*
X1181773Y538097D01*
X1245669D01*
Y527559D01*
X1267804D01*
X1268131Y522559D01*
X1266436Y522336D01*
X1259921Y521478D01*
X1250823Y517710D01*
X1243010Y511714D01*
X1239512Y507156D01*
X1221118D01*
X1217620Y511714D01*
X1209807Y517710D01*
X1200709Y521478D01*
X1190945Y522764D01*
X1181181Y521478D01*
X1172083Y517710D01*
X1164270Y511714D01*
X1158275Y503901D01*
X1154506Y494803D01*
X1153221Y485039D01*
Y481102D01*
X1154506Y471339D01*
X1158275Y462240D01*
X1164270Y454427D01*
X1172083Y448432D01*
X1181181Y444664D01*
X1190945Y443378D01*
X1200709Y444664D01*
X1209807Y448432D01*
X1217620Y454427D01*
X1221118Y458986D01*
X1239512D01*
X1243010Y454427D01*
X1250823Y448432D01*
X1259921Y444664D01*
X1269685Y443378D01*
X1279449Y444664D01*
X1288547Y448432D01*
X1296360Y454427D01*
X1302355Y462240D01*
X1306124Y471339D01*
X1307409Y481102D01*
Y485039D01*
X1306124Y494803D01*
X1302355Y503901D01*
X1296360Y511714D01*
X1288547Y517710D01*
X1279449Y521478D01*
X1272934Y522336D01*
X1271239Y522559D01*
X1271566Y527559D01*
X1288976D01*
Y578740D01*
X1245669D01*
Y568202D01*
X1223773D01*
Y573739D01*
X1227263Y578962D01*
X1228791Y586643D01*
X1227263Y594323D01*
X1222912Y600835D01*
X1216401Y605186D01*
X1208720Y606713D01*
X1201040Y605186D01*
X1197813Y603029D01*
X1193299Y605968D01*
X1192295Y611013D01*
Y646287D01*
X1269201D01*
X1270275Y641732D01*
X1270276Y641287D01*
Y631889D01*
X1263504D01*
X1263208Y632332D01*
X1256696Y636683D01*
X1249016Y638211D01*
X1241335Y636683D01*
X1234824Y632332D01*
X1230473Y625821D01*
X1228945Y618140D01*
X1230473Y610460D01*
X1234824Y603948D01*
X1241335Y599597D01*
X1249016Y598070D01*
X1256696Y599597D01*
X1263208Y603948D01*
X1263504Y604392D01*
X1270276D01*
Y590551D01*
X1313583D01*
Y641732D01*
X1302289D01*
X1301796Y646732D01*
X1306856Y647739D01*
X1313042Y651872D01*
X1327142Y665972D01*
X1334673D01*
Y641732D01*
X1332087D01*
Y590551D01*
X1375394D01*
Y641732D01*
X1372807D01*
Y664207D01*
X1377662Y669062D01*
X1380334Y670847D01*
X1383192Y675124D01*
X1402583Y694516D01*
X1483215D01*
X1485888Y689516D01*
X1483426Y685830D01*
X1481898Y678150D01*
X1482167Y676798D01*
X1444515Y639146D01*
X1441687Y634914D01*
X1440694Y629921D01*
Y595667D01*
X1439548Y594901D01*
X1435197Y588389D01*
X1433669Y580709D01*
X1435197Y573028D01*
X1439548Y566517D01*
X1446060Y562166D01*
X1453740Y560638D01*
X1461421Y562166D01*
X1467932Y566517D01*
X1472283Y573028D01*
X1473811Y580709D01*
X1472283Y588389D01*
X1467932Y594901D01*
X1466786Y595667D01*
Y624518D01*
X1500616Y658348D01*
X1501968Y658079D01*
X1509649Y659607D01*
X1516161Y663957D01*
X1520511Y670469D01*
X1522039Y678150D01*
X1520511Y685830D01*
X1518049Y689516D01*
X1520722Y694516D01*
X1593480D01*
X1703422Y584573D01*
X1706280Y580296D01*
X1712792Y575945D01*
X1720472Y574418D01*
X1728153Y575945D01*
X1734665Y580296D01*
X1739015Y586808D01*
X1740543Y594488D01*
X1739015Y602169D01*
X1734665Y608680D01*
X1730387Y611538D01*
X1652029Y689896D01*
X1653943Y694516D01*
X1658465D01*
X1665761Y695967D01*
X1671947Y700100D01*
X1722465Y750618D01*
X1732259D01*
X1732752Y750125D01*
Y714891D01*
X1786933D01*
Y760639D01*
X1775225D01*
X1773325Y763482D01*
X1753640Y783168D01*
X1747454Y787301D01*
X1740157Y788752D01*
X1733634D01*
Y844661D01*
X1755929Y866957D01*
X1837393D01*
X1901453Y802897D01*
X1906987Y799199D01*
X1913516Y797901D01*
X2044115D01*
X2060345Y781670D01*
Y736535D01*
X2055315D01*
Y724954D01*
X2050315Y723438D01*
X2045967Y729944D01*
X2038154Y735165D01*
X2028937Y736998D01*
X2019720Y735165D01*
X2011907Y729944D01*
X2006686Y722130D01*
X2006486Y721127D01*
X2001388D01*
X2001188Y722130D01*
X1995967Y729944D01*
X1988154Y735165D01*
X1978937Y736998D01*
X1969720Y735165D01*
X1961907Y729944D01*
X1956686Y722130D01*
X1954852Y712913D01*
Y704409D01*
X1956686Y695192D01*
X1961907Y687379D01*
X1969720Y682158D01*
X1978937Y680325D01*
X1988154Y682158D01*
X1995967Y687379D01*
X2001188Y695192D01*
X2001388Y696196D01*
X2006486D01*
X2006686Y695192D01*
X2011907Y687379D01*
X2019720Y682158D01*
X2028937Y680325D01*
X2038154Y682158D01*
X2045967Y687379D01*
X2050315Y693885D01*
X2055315Y692368D01*
Y680787D01*
X2102559D01*
Y736535D01*
X2094465D01*
Y788736D01*
X2093167Y795265D01*
X2089469Y800799D01*
X2063244Y827024D01*
X2057710Y830722D01*
X2051181Y832021D01*
X1920582D01*
X1860264Y892339D01*
X1860069Y893320D01*
X1855935Y899506D01*
X1849749Y903639D01*
X1842453Y905091D01*
X1753077D01*
X1748032Y906094D01*
X1740351Y904567D01*
X1733839Y900216D01*
X1730982Y895939D01*
X1701084Y866042D01*
X1696951Y859856D01*
X1695500Y852559D01*
Y777583D01*
X1650567Y732650D01*
X1394685D01*
X1387388Y731198D01*
X1381203Y727065D01*
X1358244Y704106D01*
X1319244D01*
X1311947Y702655D01*
X1305762Y698522D01*
X1291661Y684421D01*
X1159613D01*
Y684701D01*
X1129680D01*
Y839201D01*
X1178261D01*
X1185557Y840652D01*
X1191743Y844785D01*
X1204427Y857469D01*
X1204427Y857470D01*
X1208561Y863655D01*
X1210012Y870952D01*
X1210012Y870953D01*
Y900466D01*
X1211016Y905512D01*
X1209711Y912072D01*
X1212451Y917072D01*
X1590069D01*
X1596557Y910584D01*
X1594946Y906934D01*
X1594225Y905845D01*
X1586807Y904370D01*
X1580296Y900019D01*
X1579530Y898873D01*
X1488359D01*
X1483366Y897880D01*
X1479134Y895052D01*
X1448232Y864150D01*
X1445404Y859918D01*
X1444411Y854925D01*
Y805734D01*
X1443265Y804968D01*
X1438914Y798457D01*
X1437386Y790776D01*
X1438914Y783096D01*
X1443265Y776584D01*
X1449776Y772233D01*
X1457457Y770706D01*
X1465137Y772233D01*
X1471649Y776584D01*
X1476000Y783096D01*
X1477527Y790776D01*
X1476000Y798457D01*
X1471649Y804968D01*
X1470503Y805734D01*
Y849521D01*
X1493762Y872781D01*
X1579530D01*
X1580296Y871635D01*
X1586807Y867284D01*
X1594488Y865756D01*
X1602169Y867284D01*
X1604986Y869166D01*
X1609986Y866493D01*
Y854010D01*
X1604656Y848680D01*
X1597634Y847283D01*
X1591123Y842932D01*
X1586772Y836421D01*
X1585244Y828740D01*
X1586772Y821059D01*
X1591123Y814548D01*
X1597634Y810197D01*
X1605315Y808669D01*
X1612996Y810197D01*
X1619507Y814548D01*
X1623858Y821059D01*
X1625386Y828740D01*
X1624760Y831885D01*
X1632256Y839381D01*
X1635084Y843613D01*
X1636077Y848606D01*
Y902559D01*
X1635084Y907552D01*
X1632256Y911784D01*
X1604697Y939343D01*
X1600465Y942171D01*
X1599637Y942336D01*
X1595473Y943164D01*
D02*
G37*
G36*
X2133858Y645071D02*
X2126178Y643543D01*
X2122456Y641057D01*
X2022245D01*
X2022244Y641057D01*
X2016100Y639834D01*
X2010890Y636354D01*
X2010890Y636353D01*
X1942844Y568307D01*
X1914370D01*
Y525000D01*
X1965551D01*
Y545600D01*
X2028895Y608943D01*
X2122456D01*
X2126178Y606457D01*
X2133858Y604929D01*
X2141539Y606457D01*
X2148050Y610808D01*
X2152401Y617319D01*
X2153929Y625000D01*
X2152401Y632681D01*
X2148050Y639192D01*
X2141539Y643543D01*
X2133858Y645071D01*
D02*
G37*
G36*
X2063976Y595564D02*
X2055240Y594414D01*
X2047100Y591042D01*
X2040109Y585678D01*
X2034745Y578688D01*
X2031373Y570547D01*
X2030223Y561811D01*
X2031373Y553075D01*
X2034745Y544934D01*
X2040109Y537944D01*
X2047100Y532580D01*
X2055240Y529208D01*
X2063976Y528058D01*
X2072712Y529208D01*
X2080853Y532580D01*
X2087844Y537944D01*
X2093208Y544934D01*
X2096580Y553075D01*
X2097730Y561811D01*
X2096580Y570547D01*
X2093208Y578688D01*
X2087844Y585678D01*
X2080853Y591042D01*
X2072712Y594414D01*
X2063976Y595564D01*
D02*
G37*
G36*
X1663701Y532067D02*
X1607953D01*
Y484823D01*
X1663701D01*
Y532067D01*
D02*
G37*
G36*
X1368110Y522764D02*
X1358346Y521478D01*
X1349248Y517710D01*
X1341435Y511714D01*
X1335440Y503901D01*
X1331671Y494803D01*
X1330386Y485039D01*
Y481102D01*
X1331671Y471339D01*
X1335440Y462240D01*
X1341435Y454427D01*
X1349248Y448432D01*
X1358346Y444664D01*
X1368110Y443378D01*
X1377873Y444664D01*
X1386972Y448432D01*
X1394785Y454427D01*
X1400780Y462240D01*
X1404549Y471339D01*
X1405834Y481102D01*
Y485039D01*
X1404549Y494803D01*
X1400780Y503901D01*
X1394785Y511714D01*
X1386972Y517710D01*
X1377873Y521478D01*
X1368110Y522764D01*
D02*
G37*
G36*
X2097441Y495276D02*
X2030512D01*
Y428346D01*
X2097441D01*
Y495276D01*
D02*
G37*
G36*
X2177165Y436543D02*
X2167402Y435258D01*
X2158303Y431489D01*
X2150490Y425494D01*
X2144495Y417681D01*
X2140727Y408583D01*
X2139441Y398819D01*
X2140727Y389055D01*
X2144495Y379957D01*
X2150490Y372144D01*
X2158303Y366149D01*
X2167402Y362380D01*
X2177165Y361095D01*
X2186929Y362380D01*
X2196028Y366149D01*
X2203840Y372144D01*
X2209836Y379957D01*
X2213604Y389055D01*
X2214890Y398819D01*
X2213604Y408583D01*
X2209836Y417681D01*
X2203840Y425494D01*
X2196028Y431489D01*
X2186929Y435258D01*
X2177165Y436543D01*
D02*
G37*
G36*
X1965551Y506496D02*
X1914370D01*
Y463189D01*
X1923904D01*
Y261572D01*
X1886472Y224140D01*
X1882083Y223267D01*
X1875572Y218917D01*
X1871221Y212405D01*
X1869693Y204724D01*
X1871221Y197044D01*
X1875572Y190532D01*
X1882083Y186181D01*
X1889764Y184654D01*
X1897445Y186181D01*
X1903956Y190532D01*
X1908307Y197044D01*
X1909180Y201433D01*
X1951314Y243567D01*
X1954795Y248777D01*
X1956017Y254921D01*
X1956017Y254922D01*
Y463189D01*
X1965551D01*
Y506496D01*
D02*
G37*
G36*
X1009669Y424728D02*
X963921D01*
Y398140D01*
X934181Y368399D01*
X922244D01*
X916484Y367254D01*
X911600Y363990D01*
X885025Y337416D01*
X881762Y332532D01*
X880616Y326772D01*
Y277889D01*
X857938Y255210D01*
X668307D01*
X662547Y254065D01*
X657663Y250802D01*
X637466Y230604D01*
X551181D01*
X545421Y229458D01*
X540537Y226195D01*
X490812Y176470D01*
X479058D01*
X473298Y175324D01*
X468414Y172061D01*
X431004Y134651D01*
X427741Y129768D01*
X426595Y124007D01*
Y103455D01*
X425972Y102523D01*
X419939Y101838D01*
X417631Y103981D01*
Y209885D01*
X461953Y254206D01*
X466342Y255079D01*
X472853Y259430D01*
X477204Y265941D01*
X478732Y273622D01*
X477204Y281303D01*
X472853Y287814D01*
X466342Y292165D01*
X465496Y292333D01*
X361198Y396631D01*
X355338Y400547D01*
X348425Y401922D01*
X286941D01*
X286224Y402401D01*
X278543Y403929D01*
X270863Y402401D01*
X264351Y398050D01*
X260000Y391539D01*
X258473Y383858D01*
X260000Y376178D01*
X264351Y369666D01*
X270863Y365315D01*
X278543Y363788D01*
X286224Y365315D01*
X286941Y365795D01*
X340943D01*
X434535Y272203D01*
X390221Y227889D01*
X386740Y222680D01*
X385518Y216535D01*
X385518Y216535D01*
Y100969D01*
X383032Y97248D01*
X381504Y89567D01*
X383032Y81886D01*
X387383Y75375D01*
X387700Y75163D01*
X386480Y69964D01*
X380493Y65964D01*
X376142Y59452D01*
X374614Y51772D01*
X376142Y44091D01*
X380493Y37580D01*
X387004Y33229D01*
X394685Y31701D01*
X402366Y33229D01*
X408877Y37580D01*
X413228Y44091D01*
X414756Y51772D01*
X413228Y59452D01*
X408877Y65964D01*
X408560Y66176D01*
X409779Y71374D01*
X415767Y75375D01*
X418941Y80126D01*
X424188Y80621D01*
X424718Y80457D01*
X427456Y76359D01*
X433968Y72008D01*
X441648Y70481D01*
X449329Y72008D01*
X455840Y76359D01*
X460191Y82871D01*
X461719Y90551D01*
X460191Y98232D01*
X456701Y103455D01*
Y117772D01*
X485294Y146364D01*
X497047D01*
X502808Y147510D01*
X507691Y150773D01*
X557416Y200498D01*
X643701D01*
X649461Y201644D01*
X654345Y204907D01*
X674542Y225105D01*
X864173D01*
X869934Y226250D01*
X874817Y229513D01*
X906313Y261010D01*
X909576Y265893D01*
X910722Y271654D01*
Y320537D01*
X928479Y338294D01*
X940416D01*
X946176Y339439D01*
X951060Y342702D01*
X969501Y361144D01*
X974120Y359230D01*
Y349409D01*
X975266Y343649D01*
X978529Y338765D01*
X999198Y318096D01*
X1004082Y314833D01*
X1009842Y313687D01*
X1011417D01*
Y302165D01*
X1054724D01*
Y353346D01*
X1011418D01*
Y353346D01*
X1007957Y351913D01*
X1004226Y355645D01*
Y370547D01*
X1009669D01*
Y424728D01*
D02*
G37*
%LPD*%
D10*
X1425213Y383842D02*
X1541996D01*
X1608252D01*
X401575Y216535D02*
X458661Y273622D01*
X401575Y93504D02*
Y216535D01*
X1939961Y254921D02*
Y484842D01*
X1889764Y204724D02*
X1939961Y254921D01*
X1943898Y546654D02*
X2022244Y625000D01*
X1939961Y546654D02*
X1943898D01*
X2022244Y625000D02*
X2133858D01*
X2135365Y623493D01*
X1608252Y383842D02*
X1632480Y408071D01*
X1637795D01*
D11*
X488556Y212232D02*
Y212965D01*
X535433Y259842D01*
Y386811D01*
X859002Y633124D02*
X866142Y625984D01*
X859002Y633124D02*
Y692913D01*
X901575Y661417D02*
X1035433D01*
X201436Y157480D02*
X271022Y87894D01*
X311319D01*
X602362Y255905D02*
X602739Y256282D01*
X1173228Y605967D02*
Y655209D01*
X602739Y276951D02*
X651106Y325319D01*
X715890D01*
X721063Y320146D01*
Y316929D02*
Y320146D01*
X1114173Y665354D02*
X1183374D01*
X1035433Y661417D02*
X1110236D01*
X606299Y511811D02*
X720472Y625984D01*
X534449Y385827D02*
Y405897D01*
X1173228Y655209D02*
X1183374Y665354D01*
X157480Y157480D02*
X201436D01*
X524595Y415752D02*
X534449Y405897D01*
X524595Y415752D02*
Y465579D01*
X505921Y484252D02*
X524595Y465579D01*
X1759842Y736765D02*
Y750000D01*
X1740157Y769685D02*
X1759842Y750000D01*
X1714567Y769685D02*
X1740157D01*
X1106676Y858268D02*
X1178261D01*
X866142Y625984D02*
X901575Y661417D01*
X1110236D02*
X1110613Y661794D01*
X720472Y625984D02*
X866142D01*
X677165Y330709D02*
Y417496D01*
X602739Y256282D02*
Y276951D01*
X1714567Y852559D02*
X1748032Y886024D01*
X1714567Y769685D02*
Y852559D01*
X1658465Y713583D02*
X1714567Y769685D01*
X1190945Y870952D02*
Y905512D01*
X1601378Y713583D02*
X1658465D01*
X1601378D02*
X1720472Y594488D01*
X1394685Y713583D02*
X1601378D01*
X1366142Y685039D02*
X1394685Y713583D01*
X1366142Y684507D02*
Y685039D01*
X1353740Y672105D02*
X1366142Y684507D01*
X1353740Y616142D02*
Y672105D01*
X1299559Y665354D02*
X1319244Y685039D01*
X1366142D01*
X1183374Y665354D02*
X1299559D01*
X743921Y484252D02*
X753921D01*
X524595Y511811D02*
X606299D01*
X784197Y504528D02*
X834646D01*
X763921Y484252D02*
X784197Y504528D01*
X157480Y157480D02*
Y460630D01*
X263779Y566929D01*
Y567462D01*
X279449Y583131D01*
X1748032Y886024D02*
X1842453D01*
X1178261Y858268D02*
X1190945Y870952D01*
X1106676Y858268D02*
X1110613Y854331D01*
Y661794D02*
Y854331D01*
Y661794D02*
X1114173Y665354D01*
X677165Y417496D02*
X743921Y484252D01*
X505921Y493138D02*
X524595Y511811D01*
X505921Y484252D02*
Y493138D01*
X618110Y511811D02*
X692913D01*
X693290Y511434D01*
X716739D01*
X743921Y484252D01*
D17*
X1329134Y553150D02*
D03*
X1267323D02*
D03*
X1094882Y327756D02*
D03*
X1033071D02*
D03*
X1353740Y616142D02*
D03*
X1291929D02*
D03*
D33*
X1939961Y484842D02*
D03*
Y546654D02*
D03*
D35*
X1072681Y727772D02*
D03*
Y663961D02*
D03*
X996063Y594622D02*
D03*
Y658433D02*
D03*
X1132523Y598016D02*
D03*
Y661827D02*
D03*
X834646Y567339D02*
D03*
Y503528D02*
D03*
X1759842Y673954D02*
D03*
Y737765D02*
D03*
D36*
X1050606Y397638D02*
D03*
X986795D02*
D03*
X783874Y316929D02*
D03*
X720063D02*
D03*
X910449Y440945D02*
D03*
X846638D02*
D03*
D38*
X2163071Y686693D02*
X2303150Y826772D01*
X1775591Y594488D02*
Y643845D01*
X1847470Y715724D01*
X940846Y944882D02*
X969980Y915748D01*
X838583Y944882D02*
X940846D01*
X838583Y877953D02*
Y944882D01*
Y877953D02*
X931693D01*
X1629921Y803150D02*
X1673228Y846457D01*
X1608087Y803150D02*
X1629921D01*
X1568717Y763779D02*
X1608087Y803150D01*
X1255906Y763779D02*
X1568717D01*
X1673228Y846457D02*
Y948819D01*
X1274409D02*
X1673228D01*
X547342Y590551D02*
X570866Y567028D01*
X286869Y590551D02*
X547342D01*
X279449Y583131D02*
X286869Y590551D01*
X1641562Y411837D02*
X1671680D01*
X1637795Y408071D02*
X1641562Y411837D01*
X1671680D02*
X1692913Y433071D01*
Y511811D01*
X1775591Y594488D01*
X1673228Y948819D02*
X1878370D01*
X2138989Y231089D02*
X2158162D01*
X2231771Y157480D01*
X2303150D01*
Y550000D02*
Y826772D01*
Y157480D02*
Y550000D01*
X2347345Y505804D01*
X1955118Y872071D02*
Y915748D01*
X2177165Y929134D02*
X2279528Y826772D01*
X2303150D01*
X1968504Y929134D02*
X2177165D01*
X1955118Y915748D02*
X1968504Y929134D01*
X1878370Y948819D02*
X1955118Y872071D01*
X753921Y574752D02*
X762335Y566339D01*
X834646D01*
X871202D01*
X897638Y539903D01*
Y488930D02*
Y539903D01*
Y488930D02*
X908690Y477878D01*
Y441704D02*
Y477878D01*
Y441704D02*
X909449Y440945D01*
D42*
X753921Y393752D02*
X837728D01*
X840459Y391021D02*
X841639Y392201D01*
Y434946D01*
X847638Y440945D01*
X837728Y393752D02*
X840459Y391021D01*
Y298228D02*
Y391021D01*
X278543Y383858D02*
X348425D01*
X458661Y273622D01*
D43*
X1249016Y618140D02*
X1289930D01*
X1071843Y737438D02*
Y773630D01*
X1066929Y732524D02*
X1071843Y737438D01*
X1066929Y732524D02*
X1072681Y726772D01*
X1289930Y618140D02*
X1291929Y616142D01*
D44*
X1109382Y562992D02*
X1144685D01*
X1060039Y612335D02*
X1109382Y562992D01*
X1146704Y930118D02*
X1595473D01*
X1124842Y908256D02*
X1146704Y930118D01*
X1124842Y904528D02*
Y908256D01*
X1623032Y848606D02*
Y902559D01*
X1605315Y830889D02*
X1623032Y848606D01*
X1605315Y828740D02*
Y830889D01*
X1595473Y930118D02*
X1623032Y902559D01*
X1488359Y885827D02*
X1594488D01*
X1457457Y854925D02*
X1488359Y885827D01*
X1457457Y790776D02*
Y854925D01*
X1453740Y629921D02*
X1501968Y678150D01*
X1453740Y580709D02*
Y629921D01*
D45*
X1190945Y483071D02*
X1269685D01*
D46*
X2138989Y231089D02*
X2149606Y220472D01*
X2118110Y251969D02*
X2138989Y231089D01*
X2149606Y86614D02*
Y220472D01*
D47*
X668307Y240157D02*
X864173D01*
X643701Y215551D02*
X668307Y240157D01*
X551181Y215551D02*
X643701D01*
X497047Y161417D02*
X551181Y215551D01*
X479058Y161417D02*
X497047D01*
X1175538Y553150D02*
X1208720D01*
X1157822Y535433D02*
X1175538Y553150D01*
X1060898Y535433D02*
X1157822D01*
X1208720Y553150D02*
Y586643D01*
Y553150D02*
X1267323D01*
X1009842Y328740D02*
X1032087D01*
X1033071Y327756D01*
X989173Y349409D02*
X1009842Y328740D01*
X989173Y349409D02*
Y396260D01*
X987795Y397638D02*
X989173Y396260D01*
X1031496Y506031D02*
X1060898Y535433D01*
X1031496Y462598D02*
Y506031D01*
X1051181Y399213D02*
Y442913D01*
X1049606Y397638D02*
X1051181Y399213D01*
X1031496Y462598D02*
X1051181Y442913D01*
X940416Y353346D02*
X982739Y395669D01*
X922244Y353346D02*
X940416D01*
X1033071Y323819D02*
Y327756D01*
X441648Y124007D02*
X479058Y161417D01*
X441648Y90551D02*
Y124007D01*
X864173Y240157D02*
X895669Y271654D01*
Y326772D01*
X922244Y353346D01*
D50*
X2063976Y461811D02*
D03*
D51*
Y561811D02*
D03*
D52*
X1092520Y483071D02*
D03*
X1190945D02*
D03*
X1269685D02*
D03*
X1368110D02*
D03*
D53*
X978346Y508268D02*
D03*
X1482284D02*
D03*
X1511811Y293307D02*
D03*
X948819D02*
D03*
D54*
X1635827Y508445D02*
D03*
D55*
Y458445D02*
D03*
D56*
X1928937Y708661D02*
D03*
X1978937D02*
D03*
X2028937D02*
D03*
D57*
X2078937D02*
D03*
D58*
X2177165Y398819D02*
D03*
D59*
Y498819D02*
D03*
D60*
X2303150Y826772D02*
D03*
Y157480D02*
D03*
X157480Y826772D02*
D03*
Y157480D02*
D03*
D61*
X488556Y212232D02*
D03*
X1208720Y586643D02*
D03*
X924668Y444882D02*
D03*
X806102Y468035D02*
D03*
X820866Y705342D02*
D03*
X891732Y703740D02*
D03*
X966535Y703504D02*
D03*
X258858Y523622D02*
D03*
X394685Y51772D02*
D03*
X311319Y87894D02*
D03*
X602362Y255905D02*
D03*
X1173228Y605967D02*
D03*
X1249016Y618140D02*
D03*
X840459Y298228D02*
D03*
X1144685Y562992D02*
D03*
X429134Y187992D02*
D03*
X458661Y273622D02*
D03*
X441648Y90551D02*
D03*
X401575Y89567D02*
D03*
X358268Y264764D02*
D03*
X278543Y383858D02*
D03*
X535433Y386811D02*
D03*
X1025591Y840551D02*
D03*
X1051181D02*
D03*
X1076772D02*
D03*
X1106299Y862205D02*
D03*
X1031496Y770079D02*
D03*
X1021654Y748032D02*
D03*
X1071843Y773630D02*
D03*
X1035433Y661417D02*
D03*
X2377953Y297244D02*
D03*
X2409449D02*
D03*
Y475197D02*
D03*
X2377953D02*
D03*
X2133858Y625000D02*
D03*
X1230473Y423228D02*
D03*
X1308071Y292165D02*
D03*
X1157480Y291339D02*
D03*
X1694882Y399028D02*
D03*
X1659449D02*
D03*
X1627953Y399106D02*
D03*
X1595666D02*
D03*
X683071Y201772D02*
D03*
X1737205Y204724D02*
D03*
X1540027Y438467D02*
D03*
X39370Y554528D02*
D03*
X86614Y640279D02*
D03*
X559055Y655815D02*
D03*
X413386Y653543D02*
D03*
X271654Y653737D02*
D03*
X161417Y665354D02*
D03*
X1001723Y704724D02*
D03*
X712733Y688976D02*
D03*
X748228D02*
D03*
X581054D02*
D03*
X628684D02*
D03*
X669291D02*
D03*
X438165D02*
D03*
X485795D02*
D03*
X533425D02*
D03*
X390535D02*
D03*
X342905D02*
D03*
X295276D02*
D03*
X247646D02*
D03*
X789586Y947995D02*
D03*
X759842Y930278D02*
D03*
Y963743D02*
D03*
X838583Y823683D02*
D03*
X839583Y849570D02*
D03*
X801181Y850394D02*
D03*
X801397Y824507D02*
D03*
X789586Y874002D02*
D03*
X771869Y889750D02*
D03*
X748247Y893884D02*
D03*
X980315Y796936D02*
D03*
X954724D02*
D03*
X801181D02*
D03*
X826772D02*
D03*
X903543D02*
D03*
X852362D02*
D03*
X877953D02*
D03*
X929134D02*
D03*
X998032Y740158D02*
D03*
X974409Y739173D02*
D03*
X924668D02*
D03*
X899077D02*
D03*
X950258D02*
D03*
X873487D02*
D03*
X847896D02*
D03*
X791339Y736024D02*
D03*
X767716Y740158D02*
D03*
X291339Y897638D02*
D03*
Y968504D02*
D03*
Y944882D02*
D03*
Y921260D02*
D03*
X720472D02*
D03*
Y944882D02*
D03*
X720472Y731299D02*
D03*
X694882D02*
D03*
X669291D02*
D03*
X643701D02*
D03*
X618110D02*
D03*
X336614Y732284D02*
D03*
X285433D02*
D03*
X311024D02*
D03*
X362205D02*
D03*
X438976D02*
D03*
X387795D02*
D03*
X413386D02*
D03*
X515748D02*
D03*
X464567D02*
D03*
X490157D02*
D03*
X592520Y731299D02*
D03*
X541338Y732284D02*
D03*
X566929D02*
D03*
X1591535Y593898D02*
D03*
X1708661Y690059D02*
D03*
X426981Y508858D02*
D03*
X750000Y755905D02*
D03*
X1604331Y763203D02*
D03*
X1190945Y905512D02*
D03*
X1594488Y885827D02*
D03*
X1605315Y828740D02*
D03*
X1501968Y678150D02*
D03*
X1457457Y790776D02*
D03*
X1060039Y612335D02*
D03*
X1453740Y580709D02*
D03*
X64961Y312008D02*
D03*
X39370Y690059D02*
D03*
X1889764Y204724D02*
D03*
X720472Y968504D02*
D03*
X738281Y775591D02*
D03*
X738189Y799213D02*
D03*
X737205Y828740D02*
D03*
X570866Y567028D02*
D03*
X1212598Y763779D02*
D03*
X1255906D02*
D03*
X1169291Y807087D02*
D03*
X1255906D02*
D03*
X1212598D02*
D03*
X1255906Y724409D02*
D03*
X1212598D02*
D03*
X1169291D02*
D03*
Y761811D02*
D03*
X1366142Y685039D02*
D03*
X1748032Y886024D02*
D03*
X1720472Y594488D02*
D03*
X692913Y511811D02*
D03*
X618110D02*
D03*
X2149606Y86614D02*
D03*
X2118110Y251969D02*
D03*
D62*
X924668Y498819D02*
D03*
X859002Y692913D02*
D03*
D63*
X1001723Y830709D02*
D03*
X1124842Y904528D02*
D03*
X716739Y759842D02*
D03*
Y787402D02*
D03*
Y814961D02*
D03*
X1047244Y787402D02*
D03*
D64*
X505921Y490754D02*
D03*
D65*
X753921D02*
D03*
Y581254D02*
D03*
Y400254D02*
D03*
D66*
X2077405Y705696D02*
Y788736D01*
X2051181Y814961D02*
X2077405Y788736D01*
X1913516Y814961D02*
X2051181D01*
X1842453Y886024D02*
X1913516Y814961D01*
%TF.MD5,e1f11fbdd12fcb8ff642987f86afa098*%
M02*
