%TF.GenerationSoftware,Altium Limited,Altium Designer,19.0.11 (319)*%
G04 Layer_Color=65535*
%FSLAX26Y26*%
%MOIN*%
%TF.FileFunction,Legend,Top*%
%TF.Part,Single*%
G01*
G75*
%TA.AperFunction,NonConductor*%
%ADD64C,0.007874*%
%ADD65C,0.003000*%
%ADD66C,0.005000*%
%ADD67C,0.004331*%
%ADD85C,0.003937*%
%ADD86C,0.000000*%
%ADD87C,0.004000*%
%ADD88C,0.003300*%
%ADD89C,0.003543*%
%ADD90C,0.008000*%
%ADD91C,0.001968*%
%ADD92C,0.003150*%
%ADD93C,0.004016*%
%ADD94C,0.002000*%
%ADD95C,0.010000*%
%ADD96C,0.003228*%
%ADD97C,0.006000*%
%ADD98C,0.002756*%
%ADD99C,0.002362*%
%ADD100C,0.005906*%
%ADD101C,0.004724*%
%ADD102C,0.005118*%
%ADD103R,0.019685X0.070866*%
%ADD104R,0.025590X0.019685*%
%ADD105R,0.007874X0.017716*%
%ADD106R,0.039370X0.019685*%
G36*
X724409Y238189D02*
Y253937D01*
X759843D01*
Y238189D01*
X724409D01*
D02*
G37*
D64*
X254921Y492126D02*
G03*
X254921Y492126I-3937J0D01*
G01*
X2123711Y599263D02*
G03*
X2024644Y413480I-59734J-87452D01*
G01*
X2104035Y413774D02*
G03*
X2123469Y424195I-40058J98037D01*
G01*
X1575787Y915354D02*
X1770669D01*
Y706693D02*
Y915354D01*
X1575787Y706693D02*
X1770669D01*
X1575787D02*
Y915354D01*
X1567520Y128740D02*
Y515827D01*
X892520Y128740D02*
Y515827D01*
X1567520D01*
X2123811Y424195D02*
Y599409D01*
X2024606Y413386D02*
X2104035D01*
X521975Y168955D02*
X516727Y174202D01*
X506232D01*
X500984Y168955D01*
Y163707D01*
X506232Y158459D01*
X516727D01*
X521975Y153212D01*
Y147964D01*
X516727Y142716D01*
X506232D01*
X500984Y147964D01*
X532470Y174202D02*
X553461D01*
Y168955D01*
X532470Y147964D01*
Y142716D01*
X563956Y158459D02*
X584947D01*
X595442Y142716D02*
X605937D01*
X600690D01*
Y174202D01*
X595442Y168955D01*
X621680Y142716D02*
Y147964D01*
X626928D01*
Y142716D01*
X621680D01*
X647919Y168955D02*
X653166Y174202D01*
X663662D01*
X668909Y168955D01*
Y147964D01*
X663662Y142716D01*
X653166D01*
X647919Y147964D01*
Y168955D01*
X679404Y174202D02*
Y142716D01*
X695148D01*
X700395Y147964D01*
Y153212D01*
Y158459D01*
X695148Y163707D01*
X679404D01*
D65*
X584213Y407126D02*
Y577126D01*
X264213D02*
X584213D01*
X264213Y407126D02*
Y577126D01*
Y407126D02*
X584213D01*
X514764Y27559D02*
Y74803D01*
X412402D02*
X514764D01*
X412402Y27559D02*
Y74803D01*
Y27559D02*
X514764D01*
X275591Y26575D02*
Y73819D01*
Y26575D02*
X377953D01*
Y73819D01*
X275591D02*
X377953D01*
X742087Y320386D02*
X872087D01*
Y506386D01*
X742087D02*
X872087D01*
X742087Y320386D02*
Y506386D01*
X2241646Y449646D02*
X2427646D01*
Y319646D02*
Y449646D01*
X2241646Y319646D02*
X2427646D01*
X2241646D02*
Y449646D01*
X1581653Y151862D02*
X1711653D01*
Y337862D01*
X1581653D02*
X1711653D01*
X1581653Y151862D02*
Y337862D01*
X1074803Y891732D02*
X1177165D01*
X1074803D02*
Y938976D01*
X1177165D01*
Y891732D02*
Y938976D01*
X1385827Y864173D02*
X1433071D01*
X1385827Y761811D02*
Y864173D01*
Y761811D02*
X1433071D01*
Y864173D01*
X2005532Y795276D02*
Y897638D01*
X2052776D01*
Y795276D02*
Y897638D01*
X2005532Y795276D02*
X2052776D01*
X1740158Y574803D02*
X1787401D01*
X1740158Y472441D02*
Y574803D01*
Y472441D02*
X1787401D01*
Y574803D01*
X641732Y385236D02*
Y487598D01*
X594488Y385236D02*
X641732D01*
X594488D02*
Y487598D01*
X641732D01*
X669291D02*
X716535D01*
X669291Y385236D02*
Y487598D01*
Y385236D02*
X716535D01*
Y487598D01*
X408464Y292323D02*
Y394685D01*
X361220Y292323D02*
X408464D01*
X361220D02*
Y394685D01*
X408464D01*
X1956693Y134449D02*
X2003937D01*
X1956693Y32087D02*
Y134449D01*
Y32087D02*
X2003937D01*
Y134449D01*
X2082677Y32087D02*
Y134449D01*
X2129921D01*
Y32087D02*
Y134449D01*
X2082677Y32087D02*
X2129921D01*
X2019685Y133858D02*
X2066929D01*
X2019685Y31496D02*
Y133858D01*
Y31496D02*
X2066929D01*
Y133858D01*
X1750591Y618110D02*
X1852953D01*
X1750591D02*
Y665354D01*
X1852953D01*
Y618110D02*
Y665354D01*
X607284Y538779D02*
Y641142D01*
X654528D01*
Y538779D02*
Y641142D01*
X607284Y538779D02*
X654528D01*
X502953Y293805D02*
Y400104D01*
X451772Y293805D02*
X502953D01*
X451772D02*
Y400104D01*
X502953D01*
X303132Y289868D02*
Y396167D01*
X354313D01*
Y289868D02*
Y396167D01*
X303132Y289868D02*
X354313D01*
X85236Y536221D02*
X191536D01*
X85236D02*
Y587402D01*
X191536D01*
Y536221D02*
Y587402D01*
X1951378Y340551D02*
X2057677D01*
Y289370D02*
Y340551D01*
X1951378Y289370D02*
X2057677D01*
X1951378D02*
Y340551D01*
X1061024Y856299D02*
Y962598D01*
X1009842Y856299D02*
X1061024D01*
X1009842D02*
Y962598D01*
X1061024D01*
X857874Y862992D02*
Y969291D01*
X806693Y862992D02*
X857874D01*
X806693D02*
Y969291D01*
X857874D01*
X692126Y587598D02*
X798425D01*
X692126D02*
Y638780D01*
X798425D01*
Y587598D02*
Y638780D01*
X2124932Y738661D02*
X2111603D01*
X2108937Y735996D01*
Y730664D01*
X2111603Y727998D01*
X2124932D01*
X2108937Y722667D02*
X2119600D01*
X2124932Y717335D01*
X2119600Y712003D01*
X2108937D01*
X2116934D01*
Y722667D01*
X2108937Y706672D02*
X2124932D01*
Y698674D01*
X2122266Y696009D01*
X2116934D01*
X2114269Y698674D01*
Y706672D01*
Y701340D02*
X2108937Y696009D01*
X2124932Y690677D02*
Y680014D01*
Y685345D01*
X2108937D01*
X2093937Y647917D02*
X2091938Y645917D01*
X2087939D01*
X2085940Y647917D01*
Y649916D01*
X2087939Y651915D01*
X2089938D01*
X2087939D01*
X2085940Y653915D01*
Y655914D01*
X2087939Y657913D01*
X2091938D01*
X2093937Y655914D01*
X2081941Y645917D02*
Y653915D01*
X2077942Y657913D01*
X2073943Y653915D01*
Y645917D01*
X2069945Y647917D02*
X2067945Y645917D01*
X2063947D01*
X2061947Y647917D01*
Y649916D01*
X2063947Y651915D01*
X2065946D01*
X2063947D01*
X2061947Y653915D01*
Y655914D01*
X2063947Y657913D01*
X2067945D01*
X2069945Y655914D01*
X2038937Y645917D02*
X2030940D01*
X2034938D01*
Y657913D01*
X2026941Y649916D02*
X2018944Y657913D01*
X2022942Y653915D01*
X2018944Y649916D01*
X2026941Y657913D01*
X1988937D02*
Y645917D01*
X1982939D01*
X1980940Y647917D01*
Y651915D01*
X1982939Y653915D01*
X1988937D01*
X1984938D02*
X1980940Y657913D01*
X1976941Y649916D02*
X1968944Y657913D01*
X1972942Y653915D01*
X1968944Y649916D01*
X1976941Y657913D01*
X1935940Y647917D02*
X1937939Y645917D01*
X1941938D01*
X1943937Y647917D01*
Y655914D01*
X1941938Y657913D01*
X1937939D01*
X1935940Y655914D01*
Y651915D01*
X1939938D01*
X1931941Y657913D02*
Y645917D01*
X1923944Y657913D01*
Y645917D01*
X1919945D02*
Y657913D01*
X1913947D01*
X1911947Y655914D01*
Y647917D01*
X1913947Y645917D01*
X1919945D01*
D66*
X1614812Y885827D02*
G03*
X1614812Y885827I-12450J0D01*
G01*
X1611166D02*
G03*
X1611166Y885827I-8803J0D01*
G01*
X1607930D02*
G03*
X1607930Y885827I-5568J0D01*
G01*
X1606299D02*
G03*
X1606299Y885827I-3937J0D01*
G01*
Y881890D02*
G03*
X1606299Y881890I-3937J0D01*
G01*
X1540299Y913386D02*
G03*
X1540299Y913386I-8803J0D01*
G01*
X1539370D02*
G03*
X1539370Y913386I-3937J0D01*
G01*
X1535433D02*
G03*
X1535433Y913386I-3937J0D01*
G01*
X996668Y812764D02*
G03*
X996668Y812764I-3387J0D01*
G01*
X862205Y392126D02*
Y434646D01*
X751968Y392126D02*
Y434646D01*
X2313386Y439764D02*
X2355905D01*
X2313386Y329528D02*
X2355905D01*
X1701772Y223602D02*
Y266122D01*
X1591535Y223602D02*
Y266122D01*
X1929134Y234252D02*
Y431102D01*
X1917323Y234252D02*
X1929134D01*
X1919291Y431102D02*
X1929134D01*
X1732284Y234252D02*
Y431102D01*
X1744094D01*
X1732284Y234252D02*
X1742126D01*
X704724Y184055D02*
Y308071D01*
Y184055D02*
X779528D01*
Y308071D01*
X704724D02*
X779528D01*
X461614Y338096D02*
Y355813D01*
X493110Y338096D02*
Y355813D01*
X344470Y334159D02*
Y351876D01*
X312974Y334159D02*
Y351876D01*
X129528Y577559D02*
X147244D01*
X129528Y546063D02*
X147244D01*
X1995669Y299213D02*
X2013386D01*
X1995669Y330709D02*
X2013386D01*
X1019685Y900591D02*
Y918307D01*
X1051181Y900591D02*
Y918307D01*
X816535Y907283D02*
Y925000D01*
X848031Y907283D02*
Y925000D01*
X736417Y628937D02*
X754134D01*
X736417Y597441D02*
X754134D01*
X892520Y128740D02*
X1567520D01*
D67*
X485230Y204724D02*
X468831D01*
X465551Y201445D01*
Y194885D01*
X468831Y191605D01*
X485230D01*
X465551Y175207D02*
X485230D01*
X475390Y185046D01*
Y171927D01*
X313976Y82677D02*
Y102356D01*
X323816D01*
X327096Y99076D01*
Y92516D01*
X323816Y89237D01*
X313976D01*
X320536D02*
X327096Y82677D01*
X346774Y102356D02*
Y82677D01*
X336935D01*
X333655Y85957D01*
Y92516D01*
X336935Y95796D01*
X346774D01*
X363173Y82677D02*
Y102356D01*
X353334Y92516D01*
X366453D01*
X413413Y82677D02*
Y102356D01*
X423252D01*
X426532Y99076D01*
Y92516D01*
X423252Y89237D01*
X413413D01*
X419972D02*
X426532Y82677D01*
X446211Y102356D02*
Y82677D01*
X436371D01*
X433091Y85957D01*
Y92516D01*
X436371Y95796D01*
X446211D01*
X452770Y99076D02*
X456050Y102356D01*
X462609D01*
X465889Y99076D01*
Y95796D01*
X462609Y92516D01*
X459330D01*
X462609D01*
X465889Y89237D01*
Y85957D01*
X462609Y82677D01*
X456050D01*
X452770Y85957D01*
X926505Y550190D02*
X919945D01*
X923225D01*
Y533792D01*
X919945Y530512D01*
X916666D01*
X913386Y533792D01*
X933064Y527232D02*
X946183D01*
X952743Y550190D02*
Y533792D01*
X956023Y530512D01*
X962582D01*
X965862Y533792D01*
Y550190D01*
X985541Y546911D02*
X982261Y550190D01*
X975701D01*
X972422Y546911D01*
Y543631D01*
X975701Y540351D01*
X982261D01*
X985541Y537071D01*
Y533792D01*
X982261Y530512D01*
X975701D01*
X972422Y533792D01*
X992100Y550190D02*
Y530512D01*
X1001939D01*
X1005219Y533792D01*
Y537071D01*
X1001939Y540351D01*
X992100D01*
X1001939D01*
X1005219Y543631D01*
Y546911D01*
X1001939Y550190D01*
X992100D01*
X2244095Y641732D02*
X2225597D01*
Y650981D01*
X2228680Y654064D01*
X2234845D01*
X2237928Y650981D01*
Y641732D01*
Y647898D02*
X2244095Y654064D01*
X2250260Y672562D02*
X2231763D01*
Y663313D01*
X2234845Y660230D01*
X2241012D01*
X2244095Y663313D01*
Y672562D01*
X2225597Y678728D02*
Y691060D01*
Y684894D01*
X2244095D01*
X751968Y875979D02*
Y858268D01*
X763776D01*
X772631Y870075D02*
X778535D01*
X781486Y867123D01*
Y858268D01*
X772631D01*
X769679Y861220D01*
X772631Y864171D01*
X781486D01*
X799197Y858268D02*
X787390D01*
X799197Y870075D01*
Y873027D01*
X796245Y875979D01*
X790342D01*
X787390Y873027D01*
X722765Y942580D02*
X719485Y945860D01*
X712926D01*
X709646Y942580D01*
Y929461D01*
X712926Y926181D01*
X719485D01*
X722765Y929461D01*
X732604Y939300D02*
X739164D01*
X742443Y936020D01*
Y926181D01*
X732604D01*
X729324Y929461D01*
X732604Y932741D01*
X742443D01*
X758842Y926181D02*
Y945860D01*
X749003Y936020D01*
X762122D01*
X814300Y809706D02*
X811020Y812986D01*
X804461D01*
X801181Y809706D01*
Y796587D01*
X804461Y793307D01*
X811020D01*
X814300Y796587D01*
X824139Y806426D02*
X830699D01*
X833979Y803146D01*
Y793307D01*
X824139D01*
X820860Y796587D01*
X824139Y799867D01*
X833979D01*
X840538Y809706D02*
X843818Y812986D01*
X850378D01*
X853657Y809706D01*
Y806426D01*
X850378Y803146D01*
X847098D01*
X850378D01*
X853657Y799867D01*
Y796587D01*
X850378Y793307D01*
X843818D01*
X840538Y796587D01*
X364173Y776575D02*
Y789694D01*
X370733Y796253D01*
X377292Y789694D01*
Y776575D01*
Y786414D01*
X364173D01*
X383852Y776575D02*
Y789694D01*
X393691D01*
X396971Y786414D01*
Y776575D01*
X406810Y792974D02*
Y789694D01*
X403530D01*
X410090D01*
X406810D01*
Y779855D01*
X410090Y776575D01*
X429769D02*
X423209D01*
X419929Y779855D01*
Y786414D01*
X423209Y789694D01*
X429769D01*
X433048Y786414D01*
Y783134D01*
X419929D01*
X439608Y776575D02*
Y789694D01*
X449447D01*
X452727Y786414D01*
Y776575D01*
X459286D02*
Y789694D01*
X469126D01*
X472406Y786414D01*
Y776575D01*
X482245Y789694D02*
X488804D01*
X492084Y786414D01*
Y776575D01*
X482245D01*
X478965Y779855D01*
X482245Y783134D01*
X492084D01*
X662402Y550197D02*
Y569875D01*
X672241D01*
X675521Y566596D01*
Y560036D01*
X672241Y556756D01*
X662402D01*
X668961D02*
X675521Y550197D01*
X695199Y569875D02*
Y550197D01*
X685360D01*
X682080Y553477D01*
Y560036D01*
X685360Y563316D01*
X695199D01*
X714878Y550197D02*
X701759D01*
X714878Y563316D01*
Y566596D01*
X711598Y569875D01*
X705039D01*
X701759Y566596D01*
X708985Y663052D02*
X705705Y666332D01*
X699146D01*
X695866Y663052D01*
Y649933D01*
X699146Y646654D01*
X705705D01*
X708985Y649933D01*
X728664Y666332D02*
Y646654D01*
X718824D01*
X715545Y649933D01*
Y656493D01*
X718824Y659773D01*
X728664D01*
X745063Y646654D02*
Y666332D01*
X735223Y656493D01*
X748342D01*
X218504Y359252D02*
Y378931D01*
X228343D01*
X231623Y375651D01*
Y369091D01*
X228343Y365812D01*
X218504D01*
X225063D02*
X231623Y359252D01*
X251302Y378931D02*
Y359252D01*
X241462D01*
X238183Y362532D01*
Y369091D01*
X241462Y372371D01*
X251302D01*
X257861Y378931D02*
X270980D01*
X264421D01*
Y359252D01*
X974016Y806491D02*
Y803211D01*
X980575Y796652D01*
X987135Y803211D01*
Y806491D01*
X980575Y796652D02*
Y786812D01*
X2104035Y228340D02*
Y211941D01*
X2107314Y208661D01*
X2113874D01*
X2117154Y211941D01*
Y228340D01*
X2136832D02*
X2123713D01*
Y218501D01*
X2130273Y221780D01*
X2133553D01*
X2136832Y218501D01*
Y211941D01*
X2133553Y208661D01*
X2126993D01*
X2123713Y211941D01*
X586614Y362198D02*
Y345800D01*
X589894Y342520D01*
X596453D01*
X599733Y345800D01*
Y362198D01*
X606293Y358919D02*
X609573Y362198D01*
X616132D01*
X619412Y358919D01*
Y355639D01*
X616132Y352359D01*
X612852D01*
X616132D01*
X619412Y349079D01*
Y345800D01*
X616132Y342520D01*
X609573D01*
X606293Y345800D01*
X1575787Y945860D02*
Y929461D01*
X1579067Y926181D01*
X1585627D01*
X1588907Y929461D01*
Y945860D01*
X1608585Y926181D02*
X1595466D01*
X1608585Y939300D01*
Y942580D01*
X1605305Y945860D01*
X1598746D01*
X1595466Y942580D01*
X1122047Y637789D02*
Y621390D01*
X1125327Y618110D01*
X1131887D01*
X1135166Y621390D01*
Y637789D01*
X1141726Y618110D02*
X1148285D01*
X1145006D01*
Y637789D01*
X1141726Y634509D01*
X1751968Y677165D02*
Y696844D01*
X1761808D01*
X1765088Y693564D01*
Y687005D01*
X1761808Y683725D01*
X1751968D01*
X1758528D02*
X1765088Y677165D01*
X1784766Y670606D02*
Y690284D01*
X1774927D01*
X1771647Y687005D01*
Y680445D01*
X1774927Y677165D01*
X1784766D01*
X1791326D02*
X1797885D01*
X1794605D01*
Y696844D01*
X1791326Y693564D01*
X2138780Y105315D02*
X2158458D01*
Y95476D01*
X2155178Y92196D01*
X2148619D01*
X2145339Y95476D01*
Y105315D01*
Y98755D02*
X2138780Y92196D01*
Y75797D02*
Y82357D01*
X2142059Y85636D01*
X2148619D01*
X2151899Y82357D01*
Y75797D01*
X2148619Y72517D01*
X2145339D01*
Y85636D01*
X2138780Y52839D02*
Y65958D01*
X2151899Y52839D01*
X2155178D01*
X2158458Y56118D01*
Y62678D01*
X2155178Y65958D01*
X1948819Y61024D02*
X1929140D01*
Y70863D01*
X1932420Y74143D01*
X1938980D01*
X1942259Y70863D01*
Y61024D01*
Y67583D02*
X1948819Y74143D01*
Y90541D02*
Y83982D01*
X1945539Y80702D01*
X1938980D01*
X1935700Y83982D01*
Y90541D01*
X1938980Y93821D01*
X1942259D01*
Y80702D01*
X1948819Y100381D02*
Y106940D01*
Y103661D01*
X1929140D01*
X1932420Y100381D01*
X367126Y266732D02*
Y286411D01*
X376965D01*
X380245Y283131D01*
Y276572D01*
X376965Y273292D01*
X367126D01*
X373685D02*
X380245Y266732D01*
X399924Y286411D02*
Y266732D01*
X390084D01*
X386805Y270012D01*
Y276572D01*
X390084Y279851D01*
X399924D01*
X406483Y266732D02*
X413043D01*
X409763D01*
Y286411D01*
X406483Y283131D01*
X668307Y497047D02*
Y516726D01*
X678146D01*
X681426Y513446D01*
Y506887D01*
X678146Y503607D01*
X668307D01*
X674867D02*
X681426Y497047D01*
X701105Y510166D02*
X691265D01*
X687986Y506887D01*
Y500327D01*
X691265Y497047D01*
X701105D01*
X720783D02*
X707664D01*
X720783Y510166D01*
Y513446D01*
X717504Y516726D01*
X710944D01*
X707664Y513446D01*
X595472Y497047D02*
Y516726D01*
X605312D01*
X608591Y513446D01*
Y506887D01*
X605312Y503607D01*
X595472D01*
X602032D02*
X608591Y497047D01*
X628270Y510166D02*
X618431D01*
X615151Y506887D01*
Y500327D01*
X618431Y497047D01*
X628270D01*
X634830D02*
X641389D01*
X638109D01*
Y516726D01*
X634830Y513446D01*
X1738189Y583661D02*
Y603340D01*
X1748028D01*
X1751308Y600060D01*
Y593501D01*
X1748028Y590221D01*
X1738189D01*
X1744748D02*
X1751308Y583661D01*
X1761147Y596780D02*
X1767707D01*
X1770987Y593501D01*
Y583661D01*
X1761147D01*
X1757868Y586941D01*
X1761147Y590221D01*
X1770987D01*
X1787386Y583661D02*
Y603340D01*
X1777546Y593501D01*
X1790665D01*
X2060650Y895669D02*
X2080328D01*
Y885830D01*
X2077048Y882550D01*
X2070489D01*
X2067209Y885830D01*
Y895669D01*
Y889110D02*
X2060650Y882550D01*
X2073769Y872711D02*
Y866151D01*
X2070489Y862872D01*
X2060650D01*
Y872711D01*
X2063929Y875991D01*
X2067209Y872711D01*
Y862872D01*
X2077048Y856312D02*
X2080328Y853032D01*
Y846473D01*
X2077048Y843193D01*
X2073769D01*
X2070489Y846473D01*
Y849753D01*
Y846473D01*
X2067209Y843193D01*
X2063929D01*
X2060650Y846473D01*
Y853032D01*
X2063929Y856312D01*
X1384842Y875984D02*
Y895663D01*
X1394682D01*
X1397962Y892383D01*
Y885824D01*
X1394682Y882544D01*
X1384842D01*
X1391402D02*
X1397962Y875984D01*
X1407801Y889103D02*
X1414360D01*
X1417640Y885824D01*
Y875984D01*
X1407801D01*
X1404521Y879264D01*
X1407801Y882544D01*
X1417640D01*
X1437319Y875984D02*
X1424200D01*
X1437319Y889103D01*
Y892383D01*
X1434039Y895663D01*
X1427479D01*
X1424200Y892383D01*
X1074803Y946850D02*
Y966529D01*
X1084642D01*
X1087922Y963249D01*
Y956690D01*
X1084642Y953410D01*
X1074803D01*
X1081363D02*
X1087922Y946850D01*
X1097762Y959969D02*
X1104321D01*
X1107601Y956690D01*
Y946850D01*
X1097762D01*
X1094482Y950130D01*
X1097762Y953410D01*
X1107601D01*
X1114160Y946850D02*
X1120720D01*
X1117440D01*
Y966529D01*
X1114160Y963249D01*
X717520Y156496D02*
Y176175D01*
X727359D01*
X730639Y172895D01*
Y166335D01*
X727359Y163056D01*
X717520D01*
X724079D02*
X730639Y156496D01*
X750317Y169615D02*
X740478D01*
X737198Y166335D01*
Y159776D01*
X740478Y156496D01*
X750317D01*
X769996Y172895D02*
X766716Y176175D01*
X760157D01*
X756877Y172895D01*
Y169615D01*
X760157Y166335D01*
X766716D01*
X769996Y163056D01*
Y159776D01*
X766716Y156496D01*
X760157D01*
X756877Y159776D01*
X1833985Y488516D02*
Y501635D01*
X1830705Y504915D01*
X1824146D01*
X1820866Y501635D01*
Y488516D01*
X1824146Y485236D01*
X1830705D01*
X1827426Y491796D02*
X1833985Y485236D01*
X1830705D02*
X1833985Y488516D01*
X1748032Y223419D02*
Y203740D01*
X1761151D01*
X1777549D02*
X1770990D01*
X1767710Y207020D01*
Y213579D01*
X1770990Y216859D01*
X1777549D01*
X1780829Y213579D01*
Y210300D01*
X1767710D01*
X1918631Y783458D02*
X1912071D01*
X1915351D01*
Y767059D01*
X1912071Y763779D01*
X1908792D01*
X1905512Y767059D01*
X1925190Y760500D02*
X1938310D01*
X1944869Y783458D02*
Y767059D01*
X1948149Y763779D01*
X1954708D01*
X1957988Y767059D01*
Y783458D01*
X1964548Y763779D02*
Y776899D01*
X1971107Y783458D01*
X1977667Y776899D01*
Y763779D01*
Y773619D01*
X1964548D01*
X1984226Y763779D02*
Y783458D01*
X1994065D01*
X1997345Y780178D01*
Y773619D01*
X1994065Y770339D01*
X1984226D01*
X1990786D02*
X1997345Y763779D01*
X2003905Y783458D02*
X2017024D01*
X2010464D01*
Y763779D01*
X1594812Y516726D02*
X1588252D01*
X1591532D01*
Y500327D01*
X1588252Y497047D01*
X1584973D01*
X1581693Y500327D01*
X1601371Y493767D02*
X1614491D01*
X1634169Y516726D02*
X1627610D01*
X1630889D01*
Y500327D01*
X1627610Y497047D01*
X1624330D01*
X1621050Y500327D01*
X1640729Y510166D02*
Y500327D01*
X1644008Y497047D01*
X1653848D01*
Y510166D01*
X1660407Y497047D02*
Y510166D01*
X1663687D01*
X1666967Y506887D01*
Y497047D01*
Y506887D01*
X1670247Y510166D01*
X1673526Y506887D01*
Y497047D01*
X1680086Y490488D02*
Y510166D01*
X1689925D01*
X1693205Y506887D01*
Y500327D01*
X1689925Y497047D01*
X1680086D01*
X1709604D02*
X1703044D01*
X1699764Y500327D01*
Y506887D01*
X1703044Y510166D01*
X1709604D01*
X1712884Y506887D01*
Y503607D01*
X1699764D01*
X1719443Y510166D02*
Y497047D01*
Y503607D01*
X1722723Y506887D01*
X1726003Y510166D01*
X1729282D01*
X375984Y569875D02*
Y550197D01*
X385824D01*
X389103Y553477D01*
Y566596D01*
X385824Y569875D01*
X375984D01*
X395663Y546917D02*
X408782D01*
X415341Y550197D02*
Y569875D01*
X425181D01*
X428461Y566596D01*
Y560036D01*
X425181Y556756D01*
X415341D01*
X435020Y569875D02*
Y550197D01*
Y560036D01*
X438300Y563316D01*
X444859D01*
X448139Y560036D01*
Y550197D01*
X457978D02*
X464538D01*
X467818Y553477D01*
Y560036D01*
X464538Y563316D01*
X457978D01*
X454699Y560036D01*
Y553477D01*
X457978Y550197D01*
X477657Y566596D02*
Y563316D01*
X474377D01*
X480937D01*
X477657D01*
Y553477D01*
X480937Y550197D01*
X2028150Y401568D02*
Y381890D01*
X2037989D01*
X2041269Y385170D01*
Y398289D01*
X2037989Y401568D01*
X2028150D01*
X2047828Y378610D02*
X2060947D01*
X2067507Y401568D02*
Y381890D01*
X2080626D01*
X2100305Y401568D02*
X2087185D01*
Y381890D01*
X2100305D01*
X2087185Y391729D02*
X2093745D01*
X2106864Y401568D02*
Y381890D01*
X2116703D01*
X2119983Y385170D01*
Y398289D01*
X2116703Y401568D01*
X2106864D01*
X778483Y928473D02*
X775203Y925194D01*
Y918634D01*
X778483Y915354D01*
X791602D01*
X794882Y918634D01*
Y925194D01*
X791602Y928473D01*
X781763Y935033D02*
X791602D01*
X794882Y938313D01*
Y948152D01*
X798162D01*
X801441Y944872D01*
Y941592D01*
X794882Y948152D02*
X781763D01*
X794882Y967831D02*
Y954712D01*
X781763Y967831D01*
X778483D01*
X775203Y964551D01*
Y957991D01*
X778483Y954712D01*
X1025914Y843761D02*
X1022635Y847041D01*
X1016075D01*
X1012795Y843761D01*
Y830642D01*
X1016075Y827362D01*
X1022635D01*
X1025914Y830642D01*
X1032474Y840481D02*
Y830642D01*
X1035754Y827362D01*
X1045593D01*
Y824082D01*
X1042313Y820803D01*
X1039033D01*
X1045593Y827362D02*
Y840481D01*
X1052152Y827362D02*
X1058712D01*
X1055432D01*
Y847041D01*
X1052152Y843761D01*
X1599733Y362856D02*
X1596454Y366135D01*
X1589894D01*
X1586614Y362856D01*
Y349736D01*
X1589894Y346457D01*
X1596454D01*
X1599733Y349736D01*
X1616132Y346457D02*
X1609573D01*
X1606293Y349736D01*
Y356296D01*
X1609573Y359576D01*
X1616132D01*
X1619412Y356296D01*
Y353016D01*
X1606293D01*
X1625971Y362856D02*
X1629251Y366135D01*
X1635811D01*
X1639091Y362856D01*
Y359576D01*
X1635811Y356296D01*
X1632531D01*
X1635811D01*
X1639091Y353016D01*
Y349736D01*
X1635811Y346457D01*
X1629251D01*
X1625971Y349736D01*
X1962922Y364824D02*
X1959642Y368104D01*
X1953083D01*
X1949803Y364824D01*
Y351705D01*
X1953083Y348425D01*
X1959642D01*
X1962922Y351705D01*
X1979321Y348425D02*
X1972762D01*
X1969482Y351705D01*
Y358264D01*
X1972762Y361544D01*
X1979321D01*
X1982601Y358264D01*
Y354985D01*
X1969482D01*
X2002279Y348425D02*
X1989160D01*
X2002279Y361544D01*
Y364824D01*
X1999000Y368104D01*
X1992440D01*
X1989160Y364824D01*
X2406820Y307738D02*
X2403540Y311017D01*
X2396981D01*
X2393701Y307738D01*
Y294618D01*
X2396981Y291339D01*
X2403540D01*
X2406820Y294618D01*
X2423219Y291339D02*
X2416659D01*
X2413379Y294618D01*
Y301178D01*
X2416659Y304458D01*
X2423219D01*
X2426499Y301178D01*
Y297898D01*
X2413379D01*
X2433058Y291339D02*
X2439617D01*
X2436338D01*
Y311017D01*
X2433058Y307738D01*
X99733Y612856D02*
X96454Y616135D01*
X89894D01*
X86614Y612856D01*
Y599736D01*
X89894Y596457D01*
X96454D01*
X99733Y599736D01*
X119412Y616135D02*
Y596457D01*
X109573D01*
X106293Y599736D01*
Y606296D01*
X109573Y609576D01*
X119412D01*
X125971Y612856D02*
X129251Y616135D01*
X135811D01*
X139090Y612856D01*
Y609576D01*
X135811Y606296D01*
X132531D01*
X135811D01*
X139090Y603016D01*
Y599736D01*
X135811Y596457D01*
X129251D01*
X125971Y599736D01*
X313316Y280178D02*
X310036Y283458D01*
X303477D01*
X300197Y280178D01*
Y267059D01*
X303477Y263779D01*
X310036D01*
X313316Y267059D01*
X332995Y283458D02*
Y263779D01*
X323155D01*
X319875Y267059D01*
Y273619D01*
X323155Y276899D01*
X332995D01*
X352673Y263779D02*
X339554D01*
X352673Y276899D01*
Y280178D01*
X349393Y283458D01*
X342834D01*
X339554Y280178D01*
X469812Y283131D02*
X466532Y286411D01*
X459973D01*
X456693Y283131D01*
Y270012D01*
X459973Y266732D01*
X466532D01*
X469812Y270012D01*
X489491Y286411D02*
Y266732D01*
X479651D01*
X476372Y270012D01*
Y276572D01*
X479651Y279851D01*
X489491D01*
X496050Y266732D02*
X502610D01*
X499330D01*
Y286411D01*
X496050Y283131D01*
X786741Y532226D02*
X783461Y535505D01*
X776902D01*
X773622Y532226D01*
Y519107D01*
X776902Y515827D01*
X783461D01*
X786741Y519107D01*
X793301Y535505D02*
Y515827D01*
X803140D01*
X806420Y519107D01*
Y522386D01*
Y525666D01*
X803140Y528946D01*
X793301D01*
X812979D02*
Y519107D01*
X816259Y515827D01*
X826098D01*
Y528946D01*
X832658Y515827D02*
X842497D01*
X845777Y519107D01*
X842497Y522386D01*
X835938D01*
X832658Y525666D01*
X835938Y528946D01*
X845777D01*
D85*
X460630Y193132D02*
G03*
X460630Y179927I-0J-6602D01*
G01*
X371063Y125506D02*
Y247553D01*
X460630Y125506D02*
Y247553D01*
X58396Y338251D02*
X56100Y340547D01*
X51508D01*
X49213Y338251D01*
Y329067D01*
X51508Y326772D01*
X56100D01*
X58396Y329067D01*
Y333659D01*
X53804D01*
X65283Y335955D02*
X69875D01*
X72171Y333659D01*
Y326772D01*
X65283D01*
X62988Y329067D01*
X65283Y331363D01*
X72171D01*
X76763Y326772D02*
Y335955D01*
X83650D01*
X85946Y333659D01*
Y326772D01*
X92833Y335955D02*
X97425D01*
X99721Y333659D01*
Y326772D01*
X92833D01*
X90538Y329067D01*
X92833Y331363D01*
X99721D01*
X104313Y326772D02*
Y335955D01*
X111200D01*
X113496Y333659D01*
Y326772D01*
X127271Y335955D02*
X120383D01*
X118088Y333659D01*
Y329067D01*
X120383Y326772D01*
X127271D01*
X131863D02*
X136454D01*
X134158D01*
Y335955D01*
X131863D01*
X145638D02*
X150229D01*
X152525Y333659D01*
Y326772D01*
X145638D01*
X143342Y329067D01*
X145638Y331363D01*
X152525D01*
X180075Y340547D02*
X170892D01*
Y333659D01*
X175483D01*
X170892D01*
Y326772D01*
X186963D02*
X191554D01*
X193850Y329067D01*
Y333659D01*
X191554Y335955D01*
X186963D01*
X184667Y333659D01*
Y329067D01*
X186963Y326772D01*
X200738Y338251D02*
Y335955D01*
X198442D01*
X203034D01*
X200738D01*
Y329067D01*
X203034Y326772D01*
X212217D02*
X216809D01*
X219104Y329067D01*
Y333659D01*
X216809Y335955D01*
X212217D01*
X209921Y333659D01*
Y329067D01*
X212217Y326772D01*
X232879Y340547D02*
Y326772D01*
X225992D01*
X223696Y329067D01*
Y333659D01*
X225992Y335955D01*
X232879D01*
X237471Y326772D02*
X242063D01*
X239767D01*
Y335955D01*
X237471D01*
X251246Y326772D02*
X255838D01*
X258134Y329067D01*
Y333659D01*
X255838Y335955D01*
X251246D01*
X248950Y333659D01*
Y329067D01*
X251246Y326772D01*
X271909Y340547D02*
Y326772D01*
X265021D01*
X262725Y329067D01*
Y333659D01*
X265021Y335955D01*
X271909D01*
X278796Y326772D02*
X283388D01*
X285684Y329067D01*
Y333659D01*
X283388Y335955D01*
X278796D01*
X276500Y333659D01*
Y329067D01*
X278796Y326772D01*
D86*
X1114299Y870079D02*
G03*
X1114299Y870079I-8000J0D01*
G01*
D87*
X2035559Y158465D02*
G03*
X2019559Y158465I-8000J0D01*
G01*
X614362Y212654D02*
G03*
X590362Y212654I-12000J0D01*
G01*
X364185Y805126D02*
Y923236D01*
Y805126D02*
X639775D01*
Y923236D01*
X364185D02*
X639775D01*
X1892716Y512795D02*
X1929134D01*
Y554134D01*
X1855315Y563976D02*
X1884842D01*
X1811024Y512795D02*
X1847441D01*
X1811024D02*
Y554134D01*
X1994094Y276575D02*
X2061024D01*
X1994094Y158465D02*
X2061024D01*
X585362Y212654D02*
X590362D01*
X614362D01*
X619362D01*
X570362Y331654D02*
X634362D01*
X1590551Y483071D02*
X1685039D01*
Y433071D02*
Y483071D01*
X1590551Y433071D02*
X1685039D01*
X1590551D02*
Y483071D01*
X1685039Y382874D02*
Y415630D01*
X1590551Y382874D02*
Y416142D01*
Y382874D02*
X1685039D01*
X208661Y464567D02*
Y500000D01*
X106299D02*
X208661D01*
X74803Y413386D02*
Y444882D01*
X106299Y358268D02*
X208661D01*
Y393701D01*
X2255905Y531496D02*
Y566929D01*
Y531496D02*
X2358268D01*
X2389764Y586614D02*
Y618110D01*
X2255905Y673228D02*
X2358268D01*
X2255905Y637795D02*
Y673228D01*
X865282Y812764D02*
X993282D01*
X865282D02*
Y965764D01*
X993282D01*
Y812764D02*
Y965764D01*
X2053937Y678661D02*
X2103937D01*
Y738661D01*
X1903937D02*
X2103937D01*
X1903937Y678661D02*
Y738661D01*
Y678661D02*
X2103937D01*
X2053937D02*
Y738661D01*
X2003937Y678661D02*
Y738661D01*
X1953937Y678661D02*
Y738661D01*
X2009842Y448327D02*
Y474901D01*
Y548327D02*
Y574902D01*
Y561811D02*
Y574902D01*
Y561811D02*
X2024606D01*
X1995079D02*
X2024606D01*
X2009842Y561024D02*
X2024606D01*
X2009842D02*
Y574114D01*
X2237359Y499701D02*
X2234860Y502200D01*
X2229861D01*
X2227362Y499701D01*
Y497202D01*
X2229861Y494702D01*
X2234860D01*
X2237359Y492203D01*
Y489704D01*
X2234860Y487205D01*
X2229861D01*
X2227362Y489704D01*
X2244857Y487205D02*
X2249855D01*
X2252354Y489704D01*
Y494702D01*
X2249855Y497202D01*
X2244857D01*
X2242357Y494702D01*
Y489704D01*
X2244857Y487205D01*
X2257353D02*
X2262351D01*
X2259852D01*
Y502200D01*
X2257353D01*
X2272348Y497202D02*
X2277346D01*
X2279845Y494702D01*
Y487205D01*
X2272348D01*
X2269849Y489704D01*
X2272348Y492203D01*
X2279845D01*
X2284844Y497202D02*
Y487205D01*
Y492203D01*
X2287343Y494702D01*
X2289842Y497202D01*
X2292341D01*
X2299839Y487205D02*
Y502200D01*
X2307337D01*
X2309836Y499701D01*
Y494702D01*
X2307337Y492203D01*
X2299839D01*
X2317333Y497202D02*
X2322332D01*
X2324831Y494702D01*
Y487205D01*
X2317333D01*
X2314834Y489704D01*
X2317333Y492203D01*
X2324831D01*
X2329829Y487205D02*
Y497202D01*
X2337327D01*
X2339826Y494702D01*
Y487205D01*
X2352322D02*
X2347324D01*
X2344825Y489704D01*
Y494702D01*
X2347324Y497202D01*
X2352322D01*
X2354821Y494702D01*
Y492203D01*
X2344825D01*
X2359820Y487205D02*
X2364818D01*
X2362319D01*
Y502200D01*
X2359820D01*
D88*
X772169Y768845D02*
G03*
X772169Y768845I-1500J0D01*
G01*
D89*
X860335Y296260D02*
G03*
X860335Y296260I-19783J0D01*
G01*
X2061024Y25591D02*
Y11816D01*
X2054136D01*
X2051840Y14111D01*
Y18703D01*
X2054136Y20999D01*
X2061024D01*
X2056432D02*
X2051840Y25591D01*
X2040361D02*
X2044953D01*
X2047249Y23295D01*
Y18703D01*
X2044953Y16407D01*
X2040361D01*
X2038065Y18703D01*
Y20999D01*
X2047249D01*
X2033474Y14111D02*
X2031178Y11816D01*
X2026586D01*
X2024290Y14111D01*
Y16407D01*
X2026586Y18703D01*
X2028882D01*
X2026586D01*
X2024290Y20999D01*
Y23295D01*
X2026586Y25591D01*
X2031178D01*
X2033474Y23295D01*
D90*
X1295276Y867205D02*
X1316024D01*
Y846457D02*
Y867205D01*
Y660354D02*
Y681102D01*
X1295276Y660354D02*
X1316024D01*
X1109173D02*
X1129921D01*
X1109173D02*
Y681102D01*
X1104173Y846457D02*
X1129921Y872205D01*
D91*
X702768Y746071D02*
Y982291D01*
X301193Y746071D02*
X702768D01*
X301193Y982291D02*
X702768D01*
X301193Y746071D02*
Y982291D01*
D92*
X1685039Y415630D02*
Y433071D01*
X2153539Y334320D02*
Y338912D01*
Y336616D01*
X2142060D01*
X2139764Y338912D01*
Y341208D01*
X2142060Y343504D01*
X2137468Y329729D02*
Y320546D01*
X2151243Y306771D02*
X2153539Y309066D01*
Y313658D01*
X2151243Y315954D01*
X2148947D01*
X2146651Y313658D01*
Y309066D01*
X2144356Y306771D01*
X2142060D01*
X2139764Y309066D01*
Y313658D01*
X2142060Y315954D01*
X2139764Y299883D02*
Y295291D01*
X2142060Y292995D01*
X2146651D01*
X2148947Y295291D01*
Y299883D01*
X2146651Y302179D01*
X2142060D01*
X2139764Y299883D01*
Y288404D02*
Y283812D01*
Y286108D01*
X2153539D01*
Y288404D01*
X2148947Y274629D02*
Y270037D01*
X2146651Y267741D01*
X2139764D01*
Y274629D01*
X2142060Y276925D01*
X2144356Y274629D01*
Y267741D01*
X2148947Y263150D02*
X2139764D01*
X2144356D01*
X2146651Y260854D01*
X2148947Y258558D01*
Y256262D01*
D93*
X1685039Y404724D02*
Y433071D01*
X1590551Y405236D02*
Y433583D01*
D94*
X751968Y774751D02*
X789370D01*
Y849554D01*
X751968D02*
X789370D01*
X751968Y774751D02*
Y849554D01*
X834646Y709845D02*
Y784648D01*
X797244Y709845D02*
X834646D01*
X797244D02*
Y784648D01*
X834646D01*
X827756Y745278D02*
Y749215D01*
X804134Y745278D02*
Y749215D01*
X708659Y842528D02*
Y917331D01*
X746061D01*
Y842528D02*
Y917331D01*
X708659Y842528D02*
X746061D01*
X715549Y877961D02*
Y881898D01*
X739171Y877961D02*
Y881898D01*
D95*
X2220472Y358268D02*
Y543307D01*
X2137795D02*
X2220472D01*
X2137795Y358268D02*
Y543307D01*
Y358268D02*
X2220472D01*
X2137795Y448819D02*
X2220472D01*
D96*
X1710232Y470607D02*
Y475067D01*
Y472837D01*
X1699081D01*
X1696850Y475067D01*
Y477297D01*
X1699081Y479528D01*
X1705771Y466146D02*
X1699081D01*
X1696850Y463916D01*
Y457225D01*
X1705771D01*
X1696850Y452765D02*
X1705771D01*
Y450534D01*
X1703541Y448304D01*
X1696850D01*
X1703541D01*
X1705771Y446074D01*
X1703541Y443844D01*
X1696850D01*
X1692390Y439383D02*
X1705771D01*
Y432692D01*
X1703541Y430462D01*
X1699081D01*
X1696850Y432692D01*
Y439383D01*
Y419311D02*
Y423771D01*
X1699081Y426002D01*
X1703541D01*
X1705771Y423771D01*
Y419311D01*
X1703541Y417081D01*
X1701311D01*
Y426002D01*
X1705771Y412620D02*
X1696850D01*
X1701311D01*
X1703541Y410390D01*
X1705771Y408160D01*
Y405929D01*
D97*
X2195190Y339567D02*
Y312909D01*
X2208519Y326238D02*
X2181861D01*
X2191253Y587598D02*
Y560940D01*
D98*
X1991137Y533465D02*
X1975394D01*
Y522969D01*
X1991137Y507226D02*
Y517722D01*
X1975394D01*
Y507226D01*
X1983265Y517722D02*
Y512474D01*
X1991137Y501979D02*
X1975394D01*
Y494107D01*
X1978017Y491483D01*
X1988513D01*
X1991137Y494107D01*
Y501979D01*
D99*
X839564Y269681D02*
X831693D01*
Y263778D01*
X835629Y265745D01*
X837596D01*
X839564Y263778D01*
Y259842D01*
X837596Y257874D01*
X833661D01*
X831693Y259842D01*
X843500Y269681D02*
Y261810D01*
X847436Y257874D01*
X851372Y261810D01*
Y269681D01*
D100*
X263315Y688642D02*
X259248Y692709D01*
X251114D01*
X247047Y688642D01*
Y684575D01*
X251114Y680508D01*
X259248D01*
X263315Y676441D01*
Y672374D01*
X259248Y668307D01*
X251114D01*
X247047Y672374D01*
X271449Y692709D02*
Y672374D01*
X275516Y668307D01*
X283649D01*
X287716Y672374D01*
Y692709D01*
X295850Y668307D02*
Y692709D01*
X303984Y684575D01*
X312118Y692709D01*
Y668307D01*
X320252D02*
Y692709D01*
X328385Y684575D01*
X336519Y692709D01*
Y668307D01*
X344653Y692709D02*
X352787D01*
X348720D01*
Y668307D01*
X344653D01*
X352787D01*
X364988Y692709D02*
X381255D01*
X373122D01*
Y668307D01*
X405657Y688642D02*
X401590Y692709D01*
X393456D01*
X389389Y688642D01*
Y684575D01*
X393456Y680508D01*
X401590D01*
X405657Y676441D01*
Y672374D01*
X401590Y668307D01*
X393456D01*
X389389Y672374D01*
X413791Y692709D02*
X430058D01*
Y688642D01*
X413791Y672374D01*
Y668307D01*
X462594D02*
X470728D01*
X466661D01*
Y692709D01*
X462594Y688642D01*
X482928Y668307D02*
Y672374D01*
X486995D01*
Y668307D01*
X482928D01*
X503263Y688642D02*
X507330Y692709D01*
X515464D01*
X519531Y688642D01*
Y672374D01*
X515464Y668307D01*
X507330D01*
X503263Y672374D01*
Y688642D01*
X527664Y692709D02*
Y668307D01*
X539865D01*
X543932Y672374D01*
Y676441D01*
X539865Y680508D01*
X527664D01*
X539865D01*
X543932Y684575D01*
Y688642D01*
X539865Y692709D01*
X527664D01*
X564267Y668307D02*
X556133D01*
X552066Y672374D01*
Y680508D01*
X556133Y684575D01*
X564267D01*
X568334Y680508D01*
Y676441D01*
X552066D01*
X580534Y688642D02*
Y684575D01*
X576467D01*
X584601D01*
X580534D01*
Y672374D01*
X584601Y668307D01*
X600869Y684575D02*
X609003D01*
X613070Y680508D01*
Y668307D01*
X600869D01*
X596802Y672374D01*
X600869Y676441D01*
X613070D01*
D101*
X246063Y653536D02*
Y629921D01*
X257870D01*
X261806Y633857D01*
Y637793D01*
X257870Y641728D01*
X246063D01*
X257870D01*
X261806Y645664D01*
Y649600D01*
X257870Y653536D01*
X246063D01*
X273613Y629921D02*
X281485D01*
X285420Y633857D01*
Y641728D01*
X281485Y645664D01*
X273613D01*
X269677Y641728D01*
Y633857D01*
X273613Y629921D01*
X293292Y645664D02*
X309035Y629921D01*
X301163Y637793D01*
X309035Y645664D01*
X293292Y629921D01*
X356263Y649600D02*
X352328Y653536D01*
X344456D01*
X340521Y649600D01*
Y645664D01*
X344456Y641728D01*
X352328D01*
X356263Y637793D01*
Y633857D01*
X352328Y629921D01*
X344456D01*
X340521Y633857D01*
X364135Y645664D02*
Y633857D01*
X368071Y629921D01*
X379878D01*
Y625986D01*
X375942Y622050D01*
X372006D01*
X379878Y629921D02*
Y645664D01*
X387749Y629921D02*
Y645664D01*
X399557D01*
X403492Y641728D01*
Y629921D01*
X423171D02*
X415299D01*
X411364Y633857D01*
Y641728D01*
X415299Y645664D01*
X423171D01*
X427107Y641728D01*
Y637793D01*
X411364D01*
X434978Y645664D02*
Y629921D01*
Y637793D01*
X438914Y641728D01*
X442850Y645664D01*
X446785D01*
X466464Y622050D02*
X470400D01*
X474335Y625986D01*
Y645664D01*
X462528D01*
X458592Y641728D01*
Y633857D01*
X462528Y629921D01*
X474335D01*
X482207Y645664D02*
Y633857D01*
X486143Y629921D01*
X497950D01*
Y625986D01*
X494014Y622050D01*
X490078D01*
X497950Y629921D02*
Y645664D01*
D102*
X2448814Y673228D02*
X2433071D01*
Y665357D01*
X2435695Y662733D01*
X2438318D01*
X2440942Y665357D01*
Y673228D01*
Y665357D01*
X2443566Y662733D01*
X2446190D01*
X2448814Y665357D01*
Y673228D01*
X2443566Y657485D02*
X2433071D01*
X2438318D01*
X2440942Y654862D01*
X2443566Y652238D01*
Y649614D01*
X2433071Y641742D02*
Y636495D01*
Y639119D01*
X2443566D01*
Y641742D01*
X2433071Y628623D02*
Y623376D01*
Y626000D01*
X2448814D01*
Y628623D01*
X2433071Y615504D02*
Y610257D01*
Y612880D01*
X2448814D01*
Y615504D01*
X2433071Y599761D02*
Y594514D01*
X2435695Y591890D01*
X2440942D01*
X2443566Y594514D01*
Y599761D01*
X2440942Y602385D01*
X2435695D01*
X2433071Y599761D01*
X2448814Y570899D02*
X2433071D01*
Y560404D01*
X2448814Y544661D02*
Y555157D01*
X2433071D01*
Y544661D01*
X2440942Y555157D02*
Y549909D01*
X2448814Y539414D02*
X2433071D01*
Y531542D01*
X2435695Y528918D01*
X2446190D01*
X2448814Y531542D01*
Y539414D01*
D103*
X434055Y492126D02*
D03*
D104*
X421260Y492126D02*
D03*
D105*
X651586Y912409D02*
D03*
D106*
X551193Y864181D02*
D03*
%TF.MD5,f7adc35d05ea1f59615ddc8617ea850a*%
M02*
