M48
;Layer_Color=9474304
;FILE_FORMAT=2:5
INCH,LZ
;TYPE=PLATED
T1F00S00C0.01181
T2F00S00C0.02362
T3F00S00C0.03150
T5F00S00C0.03937
T6F00S00C0.12598
%
T01
X0193701Y0008661
X0188976Y0020472
X0186417Y0033081
X0211811Y0025197
X0223031Y0026268
X0217717Y0015846
X0209646Y0014084
X0214961Y0008661
X0226043Y0003669
X0237795Y0029724
X0240945
X0237795Y0051791
Y0063437
Y0074803
X022874Y0077953
X0221457Y0081102
X0216535Y0077953
X0211455Y0071124
X0224528
X0216535Y0089962
Y0098819
X02025
Y0088878
X02023Y0077953
X02025Y0065162
X0190917Y0071124
X0188265Y0077953
X0188464Y0088878
Y0098819
X0213779Y0054577
X0174229Y0050099
X0164469
Y0044161
X0165945Y0039903
X0162795Y0039911
X0159567
X0169488Y0039903
X0173721Y0020472
X0170276Y0064173
X0164469Y0063856
Y0074803
X0156358
X0145669Y0082697
X0148179Y0100394
X0160393Y0098819
X0174428
Y0088878
X0174229Y0077953
X01279Y007874
X0116929Y0076378
X0109252Y0075295
Y0068799
Y0062134
X010394
X0098937
X0123031Y0060665
X0131638Y0054251
X0141063
X0123047Y0042323
X0115748Y0029134
X0130807Y0029217
X0069882Y0033248
X0073248Y0040551
X0066715Y0044161
X0057946Y0049075
X0062706Y0060665
X0070157Y0072637
X0057946Y007874
X0055571Y0089292
Y0099112
X0043927
Y0089292
X0032283
Y0099112
X0040157Y0076378
Y0063779
X0043159Y0045735
X0051831Y0034035
X0060236Y0020472
X0048425Y0011417
X0038734Y0003445
X0032283Y001378
X0025591Y0008242
X0020736Y002681
X0074803Y0052422
X0080709Y0086044
X0087441Y0086228
X007299Y0093701
X0107647Y0100394
X0120108
X0134143
X0015748Y0077512
X0008721Y0078867
X0011417Y0065748
X0004831Y0038544
X0005906Y002939
T02
X0094862Y0088878
X0099862
X0104862
X0109862
X0010236Y0048563
Y0043563
T03
X0206201Y0047953
Y0057953
T05
X0223031Y0051791
Y0061791
X0136811Y0048307
X0126969
X0119095
X0109252
T06
X0230315Y0015748
Y0090158
X0015748
Y0015748
M30
