M48
;Layer_Color=9474304
;FILE_FORMAT=2:5
INCH,LZ
;TYPE=PLATED
T1F00S00C0.01181
T2F00S00C0.02362
T3F00S00C0.03150
T5F00S00C0.03937
T6F00S00C0.12598
%
T01
X0181102Y0015972
X0188976Y0020472
X0211811Y0025197
X0214961Y0008661
X0237795Y0029724
X0240945
Y004752
X0237795
X0213386Y00625
X0174803Y0088602
X0159449Y0088583
X0160531Y0082874
X0160433Y007632
X0145746Y0079078
X0150197Y0067815
X0136614Y0068504
X0125591Y0072441
Y0076378
X012126
Y0072441
X0116929
Y0076181
Y0080709
X012126
X0125591
X0119095Y0090551
X0112484Y0090453
X011063Y0086221
X0107677Y0084055
X0105118
X0102559
X0100172Y0083071
X0098032Y0079694
X0095472
X0092913
X0090354
X0087795
X0085236
X0082677
X0080118
X008014Y0082451
X0080118Y0085039
X0078959Y00874
X0077187Y0088975
X0074825Y0089388
X0075984Y0093028
Y0096374
X0072047Y009685
Y0094488
Y0092126
X0078959Y00948
X0083958Y0084957
X0083858Y0082368
X008479Y0073917
X0087349
X0089908
X0092467
X0095026
X0097441
X0099803Y0074016
X0102165Y0074803
X010315Y0077008
X0104724Y007874
X0107184Y0077363
X0100172Y0070472
X009625
X0091487
X0086724
X008192Y0068898
X0077157
X0072394
X0072047Y007313
X0069488
X0066929
X006437
X0061811
X0059252
X0056693Y0073228
X0054134
X0051575
X0049016
X0046457
X0043898
X0041339
X003878
X003622
X0033661
X0031102
X0028543
X0029528Y0068898
X0034291
X0039053
X0043817
X0048579
X0053342
X0058105
X0062868
X0067631
X0069882Y0065582
X0071674Y0075984
Y007874
Y0081496
X0073721Y0082874
X0073819Y0079921
X0073828Y0077559
X0075Y007559
X0076772Y0074016
X0079134Y0073602
X0055905Y0065582
X0057087Y0056703
X0061811Y0051181
X0069291
X0088189Y0050581
Y0048031
Y0045276
X0084046Y0029823
X0078937Y001503
X0072835
X0058858Y0021949
X0060236Y0025591
X0050984Y0020989
X0042913Y0018799
X0044165Y0009055
X0040157Y0008957
X0039469Y0005177
X0031132Y0008789
X0035827Y0026476
X0045866Y0027362
X0053543Y0038681
X0042698Y0050886
X0041339Y0065354
X0027165Y0065374
X0024765Y0068898
X0025886Y0052362
X0027854Y0038386
X0029134Y0089764
Y0092126
Y0094488
Y009685
X0103543Y0066142
X0106004Y0061234
X0117323Y0060597
X0120872Y0058664
X0124902Y0061814
X0123031Y0049213
X0114469Y0056299
X0115748Y0032883
X0130236
X01542Y0038809
X0159763Y0034873
X0162992
X0166142Y0034865
X0169685
X0172047Y0059449
X0170866Y0069006
X0159153Y005939
X0145374Y0058071
X0016142Y0066535
X0008661Y0064028
X0003937Y0069006
Y0055453
X0006496Y0031201
T02
X0192894Y0070866
X0197894
X0202894
X0207894
X0163779Y0045807
Y0040807
T03
X0206398Y0046181
Y0056181
T05
X0217717Y0039882
Y0049882
X0136811Y0043583
X0126969
X0119095
X0109252
T06
X0230315Y0015748
Y0082677
X0015748
Y0015748
M30
